<?xml version="1.0" encoding="utf-8"?>
<!-- Generator: Adobe Illustrator 19.2.1, SVG Export Plug-In . SVG Version: 6.00 Build 0)  -->
<svg version="1.1" id="Capa_1" xmlns="http://www.w3.org/2000/svg" xmlns:xlink="http://www.w3.org/1999/xlink" x="0px" y="0px"
	 viewBox="0 0 198.5 198.5" style="enable-background:new 0 0 198.5 198.5;" xml:space="preserve">
<style type="text/css">
	.st0{fill:#2727CC;}
</style>
<g>
	<g>
		<path class="st0" d="M99.3,0C44.5,0,0,44.5,0,99.3s44.5,99.2,99.3,99.2c54.7,0,99.2-44.5,99.2-99.2S154,0,99.3,0z M72.1,80.4
			l0.2-0.2c0.8-0.6,1.2-1.5,1.1-2.5c-2-12-0.7-17-0.2-18.3c3.5-10.7,14.5-15.7,16.6-16.6c0.5-0.2,1.3-0.4,2.2-0.6l0.3-0.1l1.8-0.1
			l0,0.1l0.4,0c0.4,0,0.7-0.1,1.1-0.2l0.4-0.1c0.3,0,4.6,0.5,11,2.5l4.4,1.5c8.1,2.4,11.8,6.8,12.5,7.7c6.5,7.3,4.7,18.4,3.1,24.3
			c-0.2,0.7-0.1,1.4,0.3,2l0.4,0.5c0.5,0.6,0.9,3.1-0.5,8.3c-0.3,1.6-0.9,2.9-1.7,3.7c-0.3,0.4-0.5,0.8-0.6,1.3
			c-2.2,12.8-13.6,27.1-25.7,27.1c-10.2,0-21.9-13.2-24.1-27.1c-0.1-0.5-0.3-1-0.7-1.4c-0.9-0.9-1.4-2.2-1.8-4.2
			C71.4,84.5,71.3,81.6,72.1,80.4z M49.1,135.8c0.4-0.6,2.9-3.5,7.9-5.4c4.4-1.4,15.3-5,21.3-9.3c0.3-0.2,0.6-0.4,0.8-0.7
			c0.6-0.6,1.4-1.5,2.4-2.4l0.6-0.5l0.6,0.5c5.2,4.9,11,7.7,16.3,7.7c5.6,0,11.3-2.4,16.6-7l0.4-0.4l1.1,0.5c1,0.9,2.7,2.2,3.6,2.6
			l1,0.5l-0.1,0.1l0.5,0.3c1,0.6,2,1.2,3.3,1.8c1.3,0.6,2.3,1,3.4,1.3c0.9,0.3,5.8,1.9,11.4,4.5l1.1,0.3c5.5,2.1,7.9,5,8.1,5.3
			c6.5,9.6,9,27.5,9.9,37.5c-16.9,13.7-38.2,21.3-59.9,21.3c-21.7,0-43-7.6-59.9-21.3C40.3,163.2,42.7,145.3,49.1,135.8z"/>
	</g>
</g>
</svg>
