<?xml version="1.0" encoding="utf-8"?>
<!-- Generator: Adobe Illustrator 19.2.1, SVG Export Plug-In . SVG Version: 6.00 Build 0)  -->
<svg version="1.1" id="Capa_1" xmlns="http://www.w3.org/2000/svg" xmlns:xlink="http://www.w3.org/1999/xlink" x="0px" y="0px"
	 viewBox="0 0 206.7 206.7" style="enable-background:new 0 0 206.7 206.7;" xml:space="preserve">
<style type="text/css">
	.st0{fill:url(#SVGID_1_);}
	.st1{fill:#330C00;}
	.st2{fill:#00B497;}
	.st3{fill:#FDCC9B;}
	.st4{fill:#FCBC85;}
	.st5{fill:#3B2519;}
	.st6{fill:#FFFFFF;}
	.st7{fill:#684B37;}
	.st8{fill:#F7945E;}
	.st9{fill:#F9AA8D;}
	.st10{fill:#8FD6E7;}
	.st11{fill:#F6B1CF;}
	.st12{fill:#F283B4;}
	.st13{fill:#3ABDAA;}
	.st14{fill:#401900;}
</style>
<linearGradient id="SVGID_1_" gradientUnits="userSpaceOnUse" x1="0" y1="102.662" x2="206.676" y2="102.662" gradientTransform="matrix(1 0 0 -1 0 206)">
	<stop  offset="0" style="stop-color:#FFFFFF"/>
	<stop  offset="1" style="stop-color:#D5DBEC"/>
</linearGradient>
<rect class="st0" width="206.7" height="206.7"/>
<g>
	<path class="st1" d="M103.5,43.5v160c0,0-90.8,9.4-90.8-34.9c0,0,24.4,3.1,19.4-17.3c-6.3-25.8-2.8-67.6,0-90.4
		C34.8,38.1,103.5,43.5,103.5,43.5z"/>
	<path class="st1" d="M103.2,43.5v160c0,0,90.8,9.4,90.8-34.9c0,0-24.4,3.1-19.4-17.3c6.3-25.8,2.8-67.6,0-90.4
		C171.8,38.1,103.2,43.5,103.2,43.5z"/>
	<path class="st2" d="M105.1,179.7v-23.3c0,0,37-1.1,37,21.3L105.1,179.7z"/>
	<path class="st2" d="M101.9,179.7v-23.3c0,0-37-1.1-37,21.3L101.9,179.7z"/>
	<g>
		<g>
			<rect x="88.8" y="156.4" class="st3" width="29.4" height="32.9"/>
			<path class="st4" d="M88.8,160.3c0,0,12.4,7.9,29.4,6.1v-9.9H88.8V160.3z"/>
			<ellipse class="st4" cx="46.4" cy="105.4" rx="14.3" ry="16.4"/>
			<ellipse class="st4" cx="160.6" cy="105.4" rx="14.3" ry="16.4"/>
			<path class="st3" d="M160.5,74.1c0-24.1-17.6-41.7-57-41.7c-39.4,0-57,17.6-57,41.7c0,24.1-4.1,87.6,57,87.6
				C164.6,161.7,160.5,98.2,160.5,74.1z"/>
			<g>
				<g>
					<ellipse class="st5" cx="75.7" cy="101.4" rx="6.2" ry="6.8"/>
					<circle class="st6" cx="73" cy="98.5" r="1.8"/>
				</g>
				<path class="st7" d="M65.8,86.9c2.9,1.1,7.6-3.8,18.3,0.5c2,0.8,3.1-6.7-8.4-6.7C65.8,80.7,64.1,86.2,65.8,86.9z"/>
				<g>
					<ellipse class="st5" cx="132" cy="101.4" rx="6.2" ry="6.8"/>
					<circle class="st6" cx="129.3" cy="98.5" r="1.8"/>
				</g>
				<path class="st7" d="M141.1,86.9c-2.9,1.1-7.6-3.8-18.3,0.5c-2,0.8-3.1-6.7,8.4-6.7C141.1,80.7,142.9,86.2,141.1,86.9z"/>
			</g>
			<path class="st4" d="M103.5,125.2c-6.1,0-9.8-4.6-9.8-2.4c0,2.2,1.8,6.4,9.8,6.4s9.8-4.2,9.8-6.4
				C113.3,120.7,109.6,125.2,103.5,125.2z"/>
			<path class="st4" d="M103.5,145.5c-2.1,0-3.4-1.6-3.4-0.8s0.6,2.2,3.4,2.2s3.4-1.4,3.4-2.2S105.6,145.5,103.5,145.5z"/>
			<path class="st8" d="M103.5,139.9c-9.7,0-15.5-3.9-15.5-2.9c0,1,2.8,4.9,15.5,4.9s15.5-3.9,15.5-4.9
				C119,135.9,113.2,139.9,103.5,139.9z"/>
		</g>
		<circle class="st9" cx="67.8" cy="123" r="8.4"/>
		<circle class="st9" cx="140.2" cy="123" r="8.4"/>
	</g>
	<path class="st10" d="M103.5,169.6v37H39.1C39.1,191.7,69.7,169.6,103.5,169.6z"/>
	<path class="st10" d="M103.5,169.6v37h64.4C167.9,191.7,137.3,169.6,103.5,169.6z"/>
	<path class="st11" d="M103.5,205v-35.4c-9.4,0-18.6,1.8-26.9,4.5L103.5,205z"/>
	<path class="st11" d="M103.5,205v-35.4c9.4,0,18.6,1.8,26.9,4.5L103.5,205z"/>
	<path class="st12" d="M103.5,169.6c-6.8,0-13.5,0.9-19.9,2.5c0.9,5.5,4.6,16.8,19.9,16.8c15.3,0,19-11.3,19.9-16.8
		C117,170.6,110.3,169.6,103.5,169.6z"/>
	<path class="st3" d="M88.8,170.9c0,0,0,13.2,14.7,13.2c14.7,0,14.7-13.2,14.7-13.2S102.9,165.4,88.8,170.9z"/>
	<path class="st13" d="M81,172.4c0.4-2.9-17.1-0.8-17,7.3c0.1,8.1,19.4,14.3,24.7,17.2c5.3,2.9,14.7,9.7,14.7,9.7s1.8-6.8-6.5-12.1
		C88.7,189.3,80.4,176.2,81,172.4z"/>
	<path class="st13" d="M125.8,172.4c-0.4-2.9,17.1-0.8,17,7.3c-0.1,8.1-19.4,14.3-24.7,17.2c-5.3,2.9-14.7,9.7-14.7,9.7
		s-1.8-6.8,6.5-12.1C118,189.3,126.4,176.2,125.8,172.4z"/>
	<path class="st14" d="M103.5,0c-66.1,0-75,57.7-75,100.3c0,42.6,22,67.3,39.2,74.2c0,0-27.5-48.7-14-93.8
		c11.1-36.9,49.7-26,49.7-26s38.6-10.9,49.7,26c13.5,45.1-14,93.8-14,93.8c17.2-6.9,39.2-31.6,39.2-74.2C178.4,57.7,169.6,0,103.5,0
		z"/>
	<path class="st14" d="M125.8,64.9c0,0-24.8,12.4-46.7,9.9c-21.9-2.5-30.3,20.2-29,35.3l-7.3-33.5L56,50.1l37.7-19.4l35.6,1.6
		L146.2,47l14.3,17.8l10.1,11.7l-4.9,36.1l-10.3,12.3C155.5,125.1,164.8,78.7,125.8,64.9z"/>
</g>
</svg>
