<?xml version="1.0" encoding="utf-8"?>
<!-- Generator: Adobe Illustrator 19.2.1, SVG Export Plug-In . SVG Version: 6.00 Build 0)  -->
<svg version="1.1"
	 id="svg2" xmlns:cc="http://creativecommons.org/ns#" xmlns:dc="http://purl.org/dc/elements/1.1/" xmlns:inkscape="http://www.inkscape.org/namespaces/inkscape" xmlns:rdf="http://www.w3.org/1999/02/22-rdf-syntax-ns#" xmlns:svg="http://www.w3.org/2000/svg"
	 xmlns="http://www.w3.org/2000/svg" xmlns:xlink="http://www.w3.org/1999/xlink" x="0px" y="0px" viewBox="0 0 30 30"
	 style="enable-background:new 0 0 30 30;" xml:space="preserve">
<path d="M12.7,13.9c-2.2,0-4-1.8-4-4s1.8-4,4-4s4.1,1.8,4.1,4.1S15,13.9,12.7,13.9L12.7,13.9z M12.7,18.1l3.1-3.1
	c2.4,0.8,4,2.5,4,4.4c0,2-0.4,3.8-1.1,5.4H6.7c-0.7-1.5-1.1-3.4-1.1-5.4h0c0-2,1.6-3.6,4-4.4L12.7,18.1L12.7,18.1z M17.9,15.2
	c0.2,0.5,0.6,0.8,1.1,0.8h6.2c0.5,0,0.9-0.3,1.1-0.8H17.9z M21.4,13.7c0.4,0.4,1.1,0.4,1.5,0l3.2-3.1c0.1-0.1,0.2-0.3,0.2-0.4
	c-0.4-0.1-0.8-0.2-1.3-0.2l-0.3,0.3c0,0,0,0,0,0l-2.4,2.3c-0.1,0.1-0.2,0.1-0.3,0l-2.4-2.3c0,0,0,0,0,0L19.3,10
	c-0.4,0.1-0.9,0.1-1.3,0.2c0,0.1,0.1,0.3,0.2,0.4L21.4,13.7L21.4,13.7z"/>
</svg>
