<?xml version="1.0" encoding="utf-8"?>
<!-- Generator: Adobe Illustrator 19.2.1, SVG Export Plug-In . SVG Version: 6.00 Build 0)  -->
<svg version="1.1"
	 id="svg2" xmlns:cc="http://creativecommons.org/ns#" xmlns:dc="http://purl.org/dc/elements/1.1/" xmlns:inkscape="http://www.inkscape.org/namespaces/inkscape" xmlns:rdf="http://www.w3.org/1999/02/22-rdf-syntax-ns#" xmlns:svg="http://www.w3.org/2000/svg"
	 xmlns="http://www.w3.org/2000/svg" xmlns:xlink="http://www.w3.org/1999/xlink" x="0px" y="0px" viewBox="0 0 30 30"
	 style="enable-background:new 0 0 30 30;" xml:space="preserve">
<path id="path4" inkscape:connector-curvature="0" d="M23.4,13.5h-6.9V6.6c-1-0.2-2.1-0.2-3.1,0v6.9H6.6c-0.2,1-0.2,2.1,0,3.1h6.9
	v6.9c1,0.2,2.1,0.2,3.1,0v-6.9h6.9C23.6,15.5,23.6,14.5,23.4,13.5L23.4,13.5z"/>
<path d="M15,30C6.7,30,0,23.3,0,15S6.7,0,15,0c8.3,0,15,6.7,15,15S23.3,30,15,30z M15,1.2C7.4,1.2,1.2,7.4,1.2,15
	c0,7.6,6.2,13.8,13.8,13.8S28.8,22.6,28.8,15C28.8,7.4,22.6,1.2,15,1.2z"/>
</svg>
