<?xml version="1.0" encoding="utf-8"?>
<!-- Generator: Adobe Illustrator 19.2.1, SVG Export Plug-In . SVG Version: 6.00 Build 0)  -->
<svg version="1.1" id="Layer_1" xmlns="http://www.w3.org/2000/svg" xmlns:xlink="http://www.w3.org/1999/xlink" x="0px" y="0px"
	 viewBox="0 0 360 240" style="enable-background:new 0 0 360 240;" xml:space="preserve">
<style type="text/css">
	.st0{fill:#FFFFFF;}
	.st1{fill:#2727CC;}
</style>
<path d="M142.7,85.5l-3.3,0.2l-1-7.3c-0.3-2.6-0.7-5.3-0.8-7.2l-2.3,12.9l-3.2,0.2l-4.3-12.4c0.3,2.4,0.4,4.8,0.4,7.3l0.1,7.3
	l-3.3,0.2l0.1-17.7l4.3-0.3l4.1,12.1l2-12.6l4.4-0.3L142.7,85.5z M157.3,77.6c0.3,4.3-1.8,7.3-5.8,7.6c-4,0.3-6.6-2.2-6.9-6.7
	c-0.3-4.2,1.8-7.3,5.8-7.6C154.5,70.6,157,73.2,157.3,77.6z M148.1,78.3c0.2,3.2,1.3,4.6,3.3,4.5c1.9-0.1,2.8-1.7,2.6-4.9
	c-0.2-3.2-1.3-4.6-3.2-4.4C148.7,73.5,147.8,75.1,148.1,78.3z M171.2,73.5l0.7,9.8l-3.3,0.2l-0.7-9.3c-0.1-1.7-0.8-2.1-1.8-2
	c-1.2,0.1-2,0.9-2.7,2.3l0.7,9.4l-3.3,0.2l-1-13.5l2.8-0.2l0.4,1.8c0.9-1.4,2.2-2.3,3.9-2.5C169.5,69.5,171,70.9,171.2,73.5z
	 M183.4,81.8c-0.9,0.8-2.1,1.2-3.3,1.3c-2.7,0.2-4.2-1.2-4.4-4.1l-0.5-7.1l-2.1,0.2l-0.2-2.3l2.1-0.2l-0.2-3L178,66l0.3,3.4l3.1-0.2
	l-0.2,2.4l-2.8,0.2l0.5,7c0.1,1.3,0.6,1.8,1.6,1.8c0.5,0,1-0.2,1.6-0.6L183.4,81.8z M192.3,68l-0.3,3.2c-0.4-0.1-0.8-0.1-1.2-0.1
	c-1.7,0.1-2.4,1.4-2.7,3.7l0.5,7.2l-3.3,0.2l-1-13.5l2.8-0.2l0.5,2.6c0.5-2,1.7-3.2,3.3-3.3C191.4,67.9,191.9,67.9,192.3,68z
	 M205.7,75l-8.5,0.6c0.5,2.7,1.8,3.5,3.6,3.4c1.2-0.1,2.2-0.5,3.3-1.5l1.5,1.8c-1.2,1.2-2.8,2-4.9,2.2c-4.2,0.3-6.6-2.3-7-6.6
	c-0.3-4.1,1.6-7.4,5.5-7.7c3.8-0.3,6.1,2.1,6.5,6.4C205.7,74.1,205.7,74.6,205.7,75z M202.3,72.9c-0.2-2.2-1.1-3.5-2.9-3.4
	c-1.5,0.1-2.4,1.2-2.4,3.9L202.3,72.9L202.3,72.9z M217.1,68.7l-5.9,9.1l6.7-0.5l-0.1,2.6l-10.1,0.8l-0.2-2.3l5.9-9.1l-6,0.4
	l-0.2-2.6l9.7-0.7L217.1,68.7z M219.1,70.4l7.7-0.6l0.2,2.6l-7.7,0.6L219.1,70.4z M241,68.3l0.7,9.8l-3.3,0.2l-0.7-9.3
	c-0.1-1.7-0.8-2.1-1.8-2c-1.2,0.1-2,0.9-2.7,2.3l0.7,9.4l-3.3,0.2l-1-13.5l2.8-0.2l0.4,1.8c0.9-1.4,2.2-2.3,3.9-2.5
	C239.3,64.3,240.8,65.7,241,68.3z M256.9,70.1c0.3,4.3-1.8,7.3-5.8,7.6c-4,0.3-6.6-2.2-6.9-6.7c-0.3-4.2,1.8-7.3,5.8-7.6
	C254,63.2,256.6,65.7,256.9,70.1z M247.6,70.8c0.2,3.2,1.3,4.6,3.3,4.5c1.9-0.1,2.8-1.7,2.6-4.9c-0.2-3.2-1.3-4.6-3.2-4.4
	C248.3,66.1,247.4,67.6,247.6,70.8z M271.3,75.8l-2.8,0.2l-0.3-1.9c-0.9,1.6-2.1,2.4-4,2.6c-2.4,0.2-3.9-1.3-4.1-3.9l-0.7-9.7
	l3.3-0.2l0.7,9.3c0.1,1.6,0.7,2.1,1.8,2s2-0.9,2.6-2.1l-0.7-9.5l3.3-0.2L271.3,75.8z M283.3,62.6l-1.1,2c-1.2-0.6-2.3-0.9-3.5-0.8
	c-1.3,0.1-2,0.7-1.9,1.5c0.1,0.9,0.6,1.3,3,1.7c2.8,0.5,4.5,1.5,4.6,3.9c0.2,2.8-2.3,4.5-5.4,4.7c-2.3,0.2-4.2-0.5-5.5-1.5l1.5-2
	c1.1,0.7,2.4,1.2,3.8,1.1c1.5-0.1,2.4-0.8,2.3-1.8c-0.1-1.1-0.6-1.4-3.2-2c-2.8-0.6-4.2-1.8-4.3-3.8c-0.2-2.2,1.8-4.1,4.9-4.3
	C280.4,61.2,282,61.7,283.3,62.6z M300.2,73.7l-3.9,0.3l-5.5-13.2l3.5-0.3l3.7,10.7l2.1-11.1l3.4-0.3L300.2,73.7z M317.7,65.6
	c0.3,4.3-1.8,7.3-5.8,7.6c-4,0.3-6.6-2.2-6.9-6.7c-0.3-4.2,1.8-7.3,5.8-7.6C314.8,58.6,317.3,61.1,317.7,65.6z M308.4,66.3
	c0.2,3.2,1.3,4.6,3.3,4.5c1.9-0.1,2.8-1.7,2.6-4.9c-0.2-3.2-1.3-4.6-3.2-4.4C309.1,61.5,308.2,63.1,308.4,66.3z M328.9,70.9
	c-0.9,0.8-2.1,1.2-3.3,1.3c-2.7,0.2-4.2-1.2-4.4-4.1l-0.5-7.1l-2.1,0.2l-0.2-2.3l2.1-0.2l-0.2-3l3.2-0.6l0.3,3.4l3.1-0.2l-0.2,2.4
	l-2.8,0.2l0.5,7c0.1,1.3,0.6,1.8,1.6,1.8c0.5,0,1-0.2,1.6-0.6L328.9,70.9z M337.8,57.1l-0.3,3.2c-0.4-0.1-0.8-0.1-1.2-0.1
	c-1.7,0.1-2.4,1.4-2.7,3.7l0.5,7.2l-3.3,0.2l-1-13.4l2.8-0.2l0.5,2.6c0.5-2,1.7-3.2,3.3-3.3C336.9,57,337.4,57,337.8,57.1z
	 M351.2,64.1l-8.5,0.6c0.5,2.7,1.8,3.5,3.6,3.4c1.2-0.1,2.2-0.5,3.3-1.5l1.5,1.8c-1.2,1.2-2.8,2-4.9,2.2c-4.2,0.3-6.6-2.3-7-6.6
	c-0.3-4.1,1.6-7.4,5.5-7.7c3.8-0.3,6.1,2.1,6.5,6.4C351.2,63.2,351.2,63.7,351.2,64.1z M347.8,62c-0.2-2.2-1.1-3.5-2.9-3.4
	c-1.5,0.1-2.4,1.2-2.4,3.9L347.8,62L347.8,62z M139.6,109.7c0.3,4.1-1.4,7.3-4.8,7.6c-1.4,0.1-2.6-0.3-3.5-1.2l0.5,6.3l-3.2,0.6
	l-1.4-19.1l2.9-0.2l0.3,1.6c1-1.5,2.4-2.2,3.8-2.3C137.6,102.7,139.3,105.3,139.6,109.7z M136.2,109.9c-0.3-3.4-1.3-4.6-3-4.5
	c-1.1,0.1-2,0.9-2.6,2l0.5,6.1c0.7,0.9,1.6,1.3,2.6,1.2C135.5,114.7,136.5,113.2,136.2,109.9z M143,113.1l-1.2-15.8l3.2-0.6
	l1.2,16.1c0,0.6,0.3,0.9,0.8,0.9c0.3,0,0.5-0.1,0.8-0.2l0.9,2.2c-0.5,0.3-1.3,0.6-2.1,0.6C144.5,116.5,143.2,115.3,143,113.1z
	 M161.7,114.8l-2.8,0.2l-0.3-1.9c-0.9,1.6-2.1,2.4-4,2.6c-2.5,0.2-3.9-1.3-4.1-3.9l-0.7-9.7l3.3-0.2l0.7,9.3c0.1,1.6,0.7,2.1,1.8,2
	s2-0.9,2.6-2.1l-0.7-9.5l3.3-0.2L161.7,114.8z M173.8,101.6l-1.1,2c-1.2-0.6-2.3-0.9-3.5-0.8c-1.3,0.1-2,0.7-1.9,1.5
	c0.1,0.9,0.6,1.3,3,1.7c2.8,0.5,4.5,1.5,4.6,3.9c0.2,2.8-2.3,4.5-5.4,4.7c-2.3,0.2-4.2-0.5-5.5-1.5l1.5-2c1.1,0.7,2.4,1.2,3.8,1.1
	c1.5-0.1,2.4-0.8,2.3-1.8c-0.1-1.1-0.6-1.4-3.2-2c-2.8-0.6-4.2-1.8-4.3-3.8c-0.2-2.2,1.8-4.1,4.9-4.3
	C170.8,100.2,172.4,100.7,173.8,101.6z M195.6,105.5c0.3,4.2-1.5,7.3-4.8,7.5c-1.5,0.1-2.8-0.5-3.7-1.5l-0.1,1.4l-2.9,0.2l-1.4-18.9
	l3.2-0.6l0.5,7.3c0.8-1.2,2-2,3.5-2.2C193.3,98.5,195.3,101,195.6,105.5z M192.2,105.7c-0.3-3.6-1.4-4.6-3-4.5c-1.2,0.1-2,0.9-2.5,2
	l0.4,6c0.7,0.9,1.6,1.4,2.6,1.4C191.4,110.5,192.5,109.1,192.2,105.7z M209.9,105.4l-8.5,0.6c0.5,2.7,1.8,3.5,3.6,3.4
	c1.2-0.1,2.2-0.5,3.3-1.5l1.5,1.8c-1.2,1.2-2.8,2-4.9,2.2c-4.2,0.3-6.6-2.3-7-6.6c-0.3-4.1,1.6-7.4,5.5-7.7c3.8-0.3,6.1,2.1,6.5,6.4
	C209.9,104.5,209.9,105.1,209.9,105.4z M206.6,103.4c-0.2-2.2-1.1-3.5-2.9-3.3c-1.5,0.1-2.4,1.2-2.4,3.9l5.3-0.4L206.6,103.4z
	 M224.3,108.3l-0.5,2.2c-1.5,0-2.5-0.5-3.1-1.7c-0.8,1.5-2.3,2.2-3.9,2.3c-2.7,0.2-4.5-1.4-4.7-3.8c-0.2-2.9,1.9-4.7,5.8-5l1.7-0.1
	l-0.1-0.8c-0.1-1.8-1-2.3-2.7-2.2c-0.9,0.1-2.2,0.4-3.5,1l-0.9-2.2c1.6-0.8,3.3-1.2,4.8-1.3c3.6-0.3,5.3,1.3,5.5,4.3l0.4,5.7
	C223.2,107.7,223.6,108.1,224.3,108.3z M219.9,106.8l-0.2-2.7l-1.4,0.1c-2.1,0.2-3.1,1-3,2.6c0.1,1.3,0.8,2,2.1,1.9
	C218.6,108.6,219.4,107.9,219.9,106.8z M238.2,109.1l-2.8,0.2l-0.3-1.9c-0.9,1.6-2.1,2.4-4,2.6c-2.5,0.2-3.9-1.3-4.1-3.9l-0.7-9.7
	l3.3-0.2l0.7,9.3c0.1,1.6,0.7,2.1,1.8,2s2-0.9,2.6-2.1l-0.7-9.5l3.3-0.2L238.2,109.1z M256.6,95.4l-1.1,2c-1.2-0.6-2.3-0.9-3.5-0.8
	c-1.3,0.1-2,0.7-1.9,1.5c0.1,0.9,0.6,1.3,3,1.7c2.8,0.5,4.5,1.5,4.6,3.9c0.2,2.8-2.3,4.5-5.4,4.7c-2.3,0.2-4.2-0.5-5.5-1.5l1.5-2
	c1.1,0.7,2.4,1.2,3.8,1.1c1.5-0.1,2.4-0.8,2.3-1.8c-0.1-1.1-0.6-1.4-3.2-2c-2.8-0.6-4.2-1.8-4.3-3.8c-0.2-2.2,1.8-4.1,4.9-4.3
	C253.7,94,255.3,94.5,256.6,95.4z M272,99.8c0.3,4.3-1.8,7.3-5.8,7.6c-4,0.3-6.6-2.2-6.9-6.7c-0.3-4.2,1.8-7.3,5.8-7.6
	C269.1,92.8,271.6,95.4,272,99.8z M262.7,100.5c0.2,3.2,1.3,4.6,3.3,4.5c1.9-0.1,2.8-1.7,2.6-4.9c-0.2-3.2-1.3-4.6-3.2-4.4
	C263.4,95.7,262.5,97.3,262.7,100.5z M286.3,105.5l-2.8,0.2l-0.3-1.9c-0.9,1.6-2.1,2.4-4,2.6c-2.5,0.2-3.9-1.3-4.1-3.9l-0.7-9.7
	l3.3-0.2l0.7,9.3c0.1,1.6,0.7,2.1,1.8,2c1.1-0.1,2-0.9,2.6-2.1l-0.7-9.5l3.3-0.2L286.3,105.5z M297.3,90.9l-0.3,3.2
	c-0.4-0.1-0.8-0.1-1.2-0.1c-1.7,0.1-2.4,1.4-2.7,3.7l0.5,7.2l-3.3,0.2l-1-13.5l2.8-0.2l0.5,2.6c0.5-2,1.7-3.2,3.3-3.3
	C296.4,90.8,296.8,90.8,297.3,90.9z M302.6,85.8c0.1,1.1-0.7,2-1.9,2.1c-1.2,0.1-2.1-0.7-2.2-1.8c-0.1-1.1,0.7-2.1,1.9-2.1
	C301.6,83.9,302.5,84.7,302.6,85.8z M303.6,104.2l-3.3,0.2l-1-13.5l3.3-0.2L303.6,104.2z M314.5,89.6l-0.3,3.2
	c-0.4-0.1-0.8-0.1-1.2-0.1c-1.7,0.1-2.4,1.4-2.7,3.7l0.5,7.2l-3.3,0.2l-1-13.5l2.8-0.2l0.5,2.6c0.5-2,1.7-3.2,3.3-3.3
	C313.6,89.5,314.1,89.5,314.5,89.6z M327.9,96.6l-8.5,0.6c0.5,2.7,1.8,3.5,3.6,3.4c1.2-0.1,2.2-0.5,3.3-1.5l1.5,1.8
	c-1.2,1.2-2.8,2-4.9,2.2c-4.2,0.3-6.6-2.3-7-6.6c-0.3-4.1,1.6-7.4,5.5-7.7c3.8-0.3,6.1,2.1,6.5,6.4
	C327.9,95.7,327.9,96.2,327.9,96.6z M324.6,94.6c-0.2-2.2-1.1-3.5-2.9-3.4c-1.5,0.1-2.4,1.2-2.4,3.9L324.6,94.6L324.6,94.6z"/>
<path class="st0" d="M23.5,151c10,1.1,19.8,1.4,29.4,5.8c2,0.9,3.2-1,2.5-3c-1.5-4.8-3.3-9.2-5.2-13.6c8.5-0.5,17.7-6.7,25.1-9
	c15.6-5.3,32.3-7.8,47.1-15c1.4-0.6,1.6-3.1,0.2-4.2c-7.1-5.4-14.7-9-22.2-13.1c1.8-9.7,5-18.5,6.6-28.3c0.4-2.1-1.3-4.2-3.2-3.6
	c-26.9,9-40.2,40.6-62.8,56.6c-1.9-5.7-4.5-11.1-7-16.5c-0.8-1.8-3.3-2-3.9-0.2c-4,13.5-7.2,27-8.7,41.4
	C21.4,149.5,22.5,150.8,23.5,151z"/>
<path class="st1" d="M23.5,151c10,1.1,19.8,1.4,29.4,5.8c2,0.9,3.2-1,2.5-3c-1.5-4.8-3.3-9.2-5.2-13.6c8.5-0.5,17.7-6.7,25.1-9
	c15.6-5.3,32.3-7.8,47.1-15c1.4-0.6,1.6-3.1,0.2-4.2c-7.1-5.4-14.7-9-22.2-13.1c1.8-9.7,5-18.5,6.6-28.3c0.4-2.1-1.3-4.2-3.2-3.6
	c-26.9,9-40.2,40.6-62.8,56.6c-1.9-5.7-4.5-11.1-7-16.5c-0.8-1.8-3.3-2-3.9-0.2c-4,13.5-7.2,27-8.7,41.4
	C21.4,149.5,22.5,150.8,23.5,151z M101.7,73.3c-1.7,7.9-3.6,15.9-4,24.1c-1,0.2-1.5,2-0.3,3c6.2,4.7,12.9,8.3,19.4,12.6
	c-12,5-24.9,7.7-37.5,11.4c-11.5,3.3-23.3,7.6-34.5,12.1c-1.4,0.6-0.9,3,0.6,3.4c0.2,0.1,0.4,0,0.6,0.2c1.6,3.6,3,7.4,4.2,11
	c-8-2.8-15.9-3.5-24.1-4.2c1.5-11.3,3.8-22.1,6.7-32.7c2.1,4.5,4.4,8.9,6.3,13.5c0.5,1.1,1.5,1.3,2.2,1c0.5,0.4,1.2,0.6,1.9,0.1
	C65.9,114.8,77.5,84.3,101.7,73.3z"/>
</svg>
