<?xml version="1.0" encoding="utf-8"?>
<!-- Generator: Adobe Illustrator 19.1.0, SVG Export Plug-In . SVG Version: 6.00 Build 0)  -->
<svg version="1.1" id="Layer_1" xmlns="http://www.w3.org/2000/svg" xmlns:xlink="http://www.w3.org/1999/xlink" x="0px" y="0px"
	 viewBox="0 0 360 240" style="enable-background:new 0 0 360 240;" xml:space="preserve">
<style type="text/css">
	.st0{enable-background:new    ;}
	.st1{fill:#FFFFFF;}
	.st2{fill:#4285E3;}
</style>
<g class="st0">
	<path d="M124.9,92.6l-3.3,0.2l-1-7.3c-0.3-2.6-0.7-5.3-0.8-7.2l-2.3,12.9l-3.2,0.2L110,79c0.3,2.4,0.4,4.8,0.4,7.3l0.1,7.3
		l-3.3,0.2l0.1-17.7l4.3-0.3l4.1,12.1l2-12.6l4.4-0.3L124.9,92.6z"/>
	<path d="M139.5,84.7c0.3,4.3-1.8,7.3-5.8,7.6c-4,0.3-6.6-2.2-6.9-6.7c-0.3-4.2,1.8-7.3,5.8-7.6C136.7,77.7,139.2,80.3,139.5,84.7z
		 M130.3,85.4c0.2,3.2,1.3,4.6,3.3,4.5c1.9-0.1,2.8-1.7,2.6-4.9c-0.2-3.2-1.3-4.6-3.2-4.4C130.9,80.6,130,82.2,130.3,85.4z"/>
	<path d="M153.4,80.6l0.7,9.8l-3.3,0.2l-0.7-9.3c-0.1-1.7-0.8-2.1-1.8-2c-1.2,0.1-2,0.9-2.7,2.3l0.7,9.4l-3.3,0.2l-1-13.5l2.8-0.2
		l0.4,1.8c0.9-1.4,2.2-2.3,3.9-2.5C151.7,76.6,153.2,78,153.4,80.6z"/>
	<path d="M165.6,88.9c-0.9,0.8-2.1,1.2-3.3,1.3c-2.7,0.2-4.2-1.2-4.4-4.1l-0.5-7.1l-2.1,0.2l-0.2-2.3l2.1-0.2l-0.2-3l3.2-0.6
		l0.3,3.4l3.1-0.2l-0.2,2.4l-2.8,0.2l0.5,7c0.1,1.3,0.6,1.8,1.6,1.8c0.5,0,1-0.2,1.6-0.6L165.6,88.9z"/>
	<path d="M174.5,75.1l-0.3,3.2c-0.4-0.1-0.8-0.1-1.2-0.1c-1.7,0.1-2.4,1.4-2.7,3.7l0.5,7.2l-3.3,0.2l-1-13.5l2.8-0.2l0.5,2.6
		c0.5-2,1.7-3.2,3.3-3.3C173.6,75,174.1,75,174.5,75.1z"/>
	<path d="M187.9,82.1l-8.5,0.6c0.5,2.7,1.8,3.5,3.6,3.4c1.2-0.1,2.2-0.5,3.3-1.5l1.5,1.8c-1.2,1.2-2.8,2-4.9,2.2
		c-4.2,0.3-6.6-2.3-7-6.6c-0.3-4.1,1.6-7.4,5.5-7.7c3.8-0.3,6.1,2.1,6.5,6.4C187.9,81.2,187.9,81.7,187.9,82.1z M184.5,80
		c-0.2-2.2-1.1-3.5-2.9-3.4c-1.5,0.1-2.4,1.2-2.4,3.9l5.3-0.4L184.5,80z"/>
	<path d="M199.3,75.8l-5.9,9.1l6.7-0.5l-0.1,2.6l-10.1,0.8l-0.2-2.3l5.9-9.1l-6,0.4l-0.2-2.6l9.7-0.7L199.3,75.8z"/>
	<path d="M201.3,77.5l7.7-0.6l0.2,2.6l-7.7,0.6L201.3,77.5z"/>
	<path d="M223.2,75.4l0.7,9.8l-3.3,0.2l-0.7-9.3c-0.1-1.7-0.8-2.1-1.8-2c-1.2,0.1-2,0.9-2.7,2.3l0.7,9.4l-3.3,0.2l-1-13.5l2.8-0.2
		l0.4,1.8c0.9-1.4,2.2-2.3,3.9-2.5C221.5,71.4,223,72.8,223.2,75.4z"/>
	<path d="M239.1,77.2c0.3,4.3-1.8,7.3-5.8,7.6c-4,0.3-6.6-2.2-6.9-6.7c-0.3-4.2,1.8-7.3,5.8-7.6C236.2,70.3,238.8,72.8,239.1,77.2z
		 M229.8,77.9c0.2,3.2,1.3,4.6,3.3,4.5c1.9-0.1,2.8-1.7,2.6-4.9c-0.2-3.2-1.3-4.6-3.2-4.4C230.5,73.2,229.6,74.7,229.8,77.9z"/>
	<path d="M253.5,82.9l-2.8,0.2l-0.3-1.9c-0.9,1.6-2.1,2.4-4,2.6c-2.4,0.2-3.9-1.3-4.1-3.9l-0.7-9.7l3.3-0.2l0.7,9.3
		c0.1,1.6,0.7,2.1,1.8,2c1.1-0.1,2-0.9,2.6-2.1l-0.7-9.5l3.3-0.2L253.5,82.9z"/>
	<path d="M265.5,69.7l-1.1,2c-1.2-0.6-2.3-0.9-3.5-0.8c-1.3,0.1-2,0.7-1.9,1.5c0.1,0.9,0.6,1.3,3,1.7c2.8,0.5,4.5,1.5,4.6,3.9
		c0.2,2.8-2.3,4.5-5.4,4.7c-2.3,0.2-4.2-0.5-5.5-1.5l1.5-2c1.1,0.7,2.4,1.2,3.8,1.1c1.5-0.1,2.4-0.8,2.3-1.8c-0.1-1.1-0.6-1.4-3.2-2
		c-2.8-0.6-4.2-1.8-4.3-3.8c-0.2-2.2,1.8-4.1,4.9-4.3C262.6,68.3,264.2,68.8,265.5,69.7z"/>
	<path d="M282.4,80.8l-3.9,0.3L273,67.9l3.5-0.3l3.7,10.7l2.1-11.1l3.4-0.3L282.4,80.8z"/>
	<path d="M299.9,72.7c0.3,4.3-1.8,7.3-5.8,7.6c-4,0.3-6.6-2.2-6.9-6.7c-0.3-4.2,1.8-7.3,5.8-7.6C297,65.7,299.5,68.2,299.9,72.7z
		 M290.6,73.4c0.2,3.2,1.3,4.6,3.3,4.5c1.9-0.1,2.8-1.7,2.6-4.9c-0.2-3.2-1.3-4.6-3.2-4.4C291.3,68.6,290.4,70.2,290.6,73.4z"/>
	<path d="M311.1,78c-0.9,0.8-2.1,1.2-3.3,1.3c-2.7,0.2-4.2-1.2-4.4-4.1l-0.5-7.1l-2.1,0.2l-0.2-2.3l2.1-0.2l-0.2-3l3.2-0.6l0.3,3.4
		l3.1-0.2l-0.2,2.4l-2.8,0.2l0.5,7c0.1,1.3,0.6,1.8,1.6,1.8c0.5,0,1-0.2,1.6-0.6L311.1,78z"/>
	<path d="M320,64.2l-0.3,3.2c-0.4-0.1-0.8-0.1-1.2-0.1c-1.7,0.1-2.4,1.4-2.7,3.7l0.5,7.2l-3.3,0.2L312,65l2.8-0.2l0.5,2.6
		c0.5-2,1.7-3.2,3.3-3.3C319.1,64.1,319.6,64.1,320,64.2z"/>
	<path d="M333.4,71.2l-8.5,0.6c0.5,2.7,1.8,3.5,3.6,3.4c1.2-0.1,2.2-0.5,3.3-1.5l1.5,1.8c-1.2,1.2-2.8,2-4.9,2.2
		c-4.2,0.3-6.6-2.3-7-6.6c-0.3-4.1,1.6-7.4,5.5-7.7c3.8-0.3,6.1,2.1,6.5,6.4C333.4,70.3,333.4,70.8,333.4,71.2z M330,69.1
		c-0.2-2.2-1.1-3.5-2.9-3.4c-1.5,0.1-2.4,1.2-2.4,3.9l5.3-0.4L330,69.1z"/>
</g>
<g class="st0">
	<path d="M121.8,116.8c0.3,4.1-1.4,7.3-4.8,7.6c-1.4,0.1-2.6-0.3-3.5-1.2l0.5,6.3l-3.2,0.6l-1.4-19.1l2.9-0.2l0.3,1.6
		c1-1.5,2.4-2.2,3.8-2.3C119.8,109.8,121.5,112.4,121.8,116.8z M118.4,117c-0.3-3.4-1.3-4.6-3-4.5c-1.1,0.1-2,0.9-2.6,2l0.5,6.1
		c0.7,0.9,1.6,1.3,2.6,1.2C117.7,121.8,118.7,120.3,118.4,117z"/>
	<path d="M125.2,120.2l-1.2-15.8l3.2-0.6l1.2,16.1c0,0.6,0.3,0.9,0.8,0.9c0.3,0,0.5-0.1,0.8-0.2l0.9,2.2c-0.5,0.3-1.3,0.6-2.1,0.6
		C126.7,123.6,125.4,122.4,125.2,120.2z"/>
	<path d="M143.9,121.9l-2.8,0.2l-0.3-1.9c-0.9,1.6-2.1,2.4-4,2.6c-2.5,0.2-3.9-1.3-4.1-3.9l-0.7-9.7l3.3-0.2l0.7,9.3
		c0.1,1.6,0.7,2.1,1.8,2c1.1-0.1,2-0.9,2.6-2.1l-0.7-9.5l3.3-0.2L143.9,121.9z"/>
	<path d="M156,108.7l-1.1,2c-1.2-0.6-2.3-0.9-3.5-0.8c-1.3,0.1-2,0.7-1.9,1.5c0.1,0.9,0.6,1.3,3,1.7c2.8,0.5,4.5,1.5,4.6,3.9
		c0.2,2.8-2.3,4.5-5.4,4.7c-2.3,0.2-4.2-0.5-5.5-1.5l1.5-2c1.1,0.7,2.4,1.2,3.8,1.1c1.5-0.1,2.4-0.8,2.3-1.8c-0.1-1.1-0.6-1.4-3.2-2
		c-2.8-0.6-4.2-1.8-4.3-3.8c-0.2-2.2,1.8-4.1,4.9-4.3C153,107.3,154.6,107.8,156,108.7z"/>
	<path d="M177.8,112.6c0.3,4.2-1.5,7.3-4.8,7.5c-1.5,0.1-2.8-0.5-3.7-1.5l-0.1,1.4l-2.9,0.2l-1.4-18.9l3.2-0.6l0.5,7.3
		c0.8-1.2,2-2,3.5-2.2C175.5,105.6,177.5,108.1,177.8,112.6z M174.4,112.8c-0.3-3.6-1.4-4.6-3-4.5c-1.2,0.1-2,0.9-2.5,2l0.4,6
		c0.7,0.9,1.6,1.4,2.6,1.4C173.6,117.6,174.7,116.2,174.4,112.8z"/>
	<path d="M192.1,112.5l-8.5,0.6c0.5,2.7,1.8,3.5,3.6,3.4c1.2-0.1,2.2-0.5,3.3-1.5l1.5,1.8c-1.2,1.2-2.8,2-4.9,2.2
		c-4.2,0.3-6.6-2.3-7-6.6c-0.3-4.1,1.6-7.4,5.5-7.7c3.8-0.3,6.1,2.1,6.5,6.4C192.1,111.6,192.1,112.2,192.1,112.5z M188.8,110.5
		c-0.2-2.2-1.1-3.5-2.9-3.3c-1.5,0.1-2.4,1.2-2.4,3.9l5.3-0.4L188.8,110.5z"/>
	<path d="M206.5,115.4l-0.5,2.2c-1.5,0-2.5-0.5-3.1-1.7c-0.8,1.5-2.3,2.2-3.9,2.3c-2.7,0.2-4.5-1.4-4.7-3.8c-0.2-2.9,1.9-4.7,5.8-5
		l1.7-0.1l-0.1-0.8c-0.1-1.8-1-2.3-2.7-2.2c-0.9,0.1-2.2,0.4-3.5,1l-0.9-2.2c1.6-0.8,3.3-1.2,4.8-1.3c3.6-0.3,5.3,1.3,5.5,4.3
		l0.4,5.7C205.4,114.8,205.8,115.2,206.5,115.4z M202.1,113.9l-0.2-2.7l-1.4,0.1c-2.1,0.2-3.1,1-3,2.6c0.1,1.3,0.8,2,2.1,1.9
		C200.8,115.7,201.6,115,202.1,113.9z"/>
	<path d="M220.4,116.2l-2.8,0.2l-0.3-1.9c-0.9,1.6-2.1,2.4-4,2.6c-2.5,0.2-3.9-1.3-4.1-3.9l-0.7-9.7l3.3-0.2l0.7,9.3
		c0.1,1.6,0.7,2.1,1.8,2c1.1-0.1,2-0.9,2.6-2.1l-0.7-9.5l3.3-0.2L220.4,116.2z"/>
	<path d="M238.8,102.5l-1.1,2c-1.2-0.6-2.3-0.9-3.5-0.8c-1.3,0.1-2,0.7-1.9,1.5c0.1,0.9,0.6,1.3,3,1.7c2.8,0.5,4.5,1.5,4.6,3.9
		c0.2,2.8-2.3,4.5-5.4,4.7c-2.3,0.2-4.2-0.5-5.5-1.5l1.5-2c1.1,0.7,2.4,1.2,3.8,1.1c1.5-0.1,2.4-0.8,2.3-1.8c-0.1-1.1-0.6-1.4-3.2-2
		c-2.8-0.6-4.2-1.8-4.3-3.8c-0.2-2.2,1.8-4.1,4.9-4.3C235.9,101.1,237.5,101.6,238.8,102.5z"/>
	<path d="M254.2,106.9c0.3,4.3-1.8,7.3-5.8,7.6c-4,0.3-6.6-2.2-6.9-6.7c-0.3-4.2,1.8-7.3,5.8-7.6
		C251.3,99.9,253.8,102.5,254.2,106.9z M244.9,107.6c0.2,3.2,1.3,4.6,3.3,4.5c1.9-0.1,2.8-1.7,2.6-4.9c-0.2-3.2-1.3-4.6-3.2-4.4
		C245.6,102.8,244.7,104.4,244.9,107.6z"/>
	<path d="M268.5,112.6l-2.8,0.2l-0.3-1.9c-0.9,1.6-2.1,2.4-4,2.6c-2.5,0.2-3.9-1.3-4.1-3.9l-0.7-9.7l3.3-0.2l0.7,9.3
		c0.1,1.6,0.7,2.1,1.8,2c1.1-0.1,2-0.9,2.6-2.1l-0.7-9.5l3.3-0.2L268.5,112.6z"/>
	<path d="M279.5,98l-0.3,3.2c-0.4-0.1-0.8-0.1-1.2-0.1c-1.7,0.1-2.4,1.4-2.7,3.7l0.5,7.2l-3.3,0.2l-1-13.5l2.8-0.2l0.5,2.6
		c0.5-2,1.7-3.2,3.3-3.3C278.6,97.9,279,97.9,279.5,98z"/>
	<path d="M284.8,92.9c0.1,1.1-0.7,2-1.9,2.1c-1.2,0.1-2.1-0.7-2.2-1.8c-0.1-1.1,0.7-2.1,1.9-2.1C283.8,91,284.7,91.8,284.8,92.9z
		 M285.8,111.3l-3.3,0.2l-1-13.5l3.3-0.2L285.8,111.3z"/>
	<path d="M296.7,96.7l-0.3,3.2c-0.4-0.1-0.8-0.1-1.2-0.1c-1.7,0.1-2.4,1.4-2.7,3.7l0.5,7.2l-3.3,0.2l-1-13.5l2.8-0.2l0.5,2.6
		c0.5-2,1.7-3.2,3.3-3.3C295.8,96.6,296.3,96.6,296.7,96.7z"/>
	<path d="M310.1,103.7l-8.5,0.6c0.5,2.7,1.8,3.5,3.6,3.4c1.2-0.1,2.2-0.5,3.3-1.5l1.5,1.8c-1.2,1.2-2.8,2-4.9,2.2
		c-4.2,0.3-6.6-2.3-7-6.6c-0.3-4.1,1.6-7.4,5.5-7.7c3.8-0.3,6.1,2.1,6.5,6.4C310.1,102.8,310.1,103.3,310.1,103.7z M306.8,101.7
		c-0.2-2.2-1.1-3.5-2.9-3.4c-1.5,0.1-2.4,1.2-2.4,3.9l5.3-0.4L306.8,101.7z"/>
</g>
<path class="st1" d="M25.2,135.5l-8,36L20,175l13.7,1.7l12.2,2.5L43.1,169l-1.5-5.4c0,0,5-2.2,5.4-2.4s16.8-5.2,16.8-5.2
	s20.5-7,23-7.4s18.1-5.4,19.4-5.5s11-3.1,8.6-4.6s-14.2-8.2-14.2-8.2s-7.6-4.1-7.8-5.6s3-14.2,3-14.2s2.6-13.1,2.6-14.2
	s-3.9-1.5-5.1,0S65.8,120,65.8,120s-25.8,32.9-29,32.2S25.2,135.5,25.2,135.5z"/>
<g>
	<path class="st2" d="M17.5,176.7c10,1.1,19.8,1.4,29.4,5.8c2,0.9,3.2-1,2.5-3c-1.5-4.8-3.3-9.2-5.2-13.6c8.5-0.5,17.7-6.7,25.1-9
		c15.6-5.3,32.3-7.8,47.1-15c1.4-0.6,1.6-3.1,0.2-4.2c-7.1-5.4-14.7-9-22.2-13.1c1.8-9.7,5-18.5,6.6-28.3c0.4-2.1-1.3-4.2-3.2-3.6
		c-26.9,9-40.2,40.6-62.8,56.6c-1.9-5.7-4.5-11.1-7-16.5c-0.8-1.8-3.3-2-3.9-0.2c-4,13.5-7.2,27-8.7,41.4
		C15.4,175.2,16.5,176.5,17.5,176.7z M95.7,99c-1.7,7.9-3.6,15.9-4,24.1c-1,0.2-1.5,2-0.3,3c6.2,4.7,12.9,8.3,19.4,12.6
		c-12,5-24.9,7.7-37.5,11.4c-11.5,3.3-23.3,7.6-34.5,12.1c-1.4,0.6-0.9,3,0.6,3.4c0.2,0.1,0.4,0,0.6,0.2c1.6,3.6,3,7.4,4.2,11
		c-8-2.8-15.9-3.5-24.1-4.2c1.5-11.3,3.8-22.1,6.7-32.7c2.1,4.5,4.4,8.9,6.3,13.5c0.5,1.1,1.5,1.3,2.2,1c0.5,0.4,1.2,0.6,1.9,0.1
		C59.9,140.5,71.5,110,95.7,99z"/>
</g>
</svg>
