<?xml version="1.0" encoding="utf-8"?>
<!-- Generator: Adobe Illustrator 19.1.0, SVG Export Plug-In . SVG Version: 6.00 Build 0)  -->
<svg version="1.1" id="Layer_1" xmlns="http://www.w3.org/2000/svg" xmlns:xlink="http://www.w3.org/1999/xlink" x="0px" y="0px"
	 viewBox="-56 131.9 454 304" style="enable-background:new -56 131.9 454 304;" xml:space="preserve">
<style type="text/css">
	.st0{fill:#4285E3;}
</style>
<g>
	<path d="M89.8,217.1l-1.9,2.9c-1.9-1.2-3.7-1.7-5.7-1.4c-2.2,0.3-3.6,1.5-3.5,3.3c0.3,1.8,1.2,2.4,5.5,3.2c4.4,0.8,7.6,2.2,8.2,6.8
		c0.6,4.3-2.5,7.9-8.3,8.6c-3.9,0.6-6.9-0.6-9.1-2.2l2.1-3c1.9,1.2,4,1.9,6.5,1.7c2.6-0.3,4.3-1.8,4-4.2c-0.3-2.1-1.4-2.8-5.4-3.5
		c-5.3-1-7.8-2.6-8.3-6.4c-0.6-4,2.6-7.2,7.3-7.8C85,214.6,87.4,215.4,89.8,217.1z M98.2,213.6c0.1,0.7,0,1.5-0.4,2.8l-1.7,5.1
		l-2.5,0.3l0.7-5.5c-0.8-0.4-1.2-1.1-1.4-1.9c-0.1-1.4,0.8-2.6,2.4-2.9C96.7,211.3,98,212.2,98.2,213.6z M110.8,210.9
		c0.1,1.5-0.8,2.9-2.5,3c-1.7,0.3-2.9-0.8-3.2-2.4c-0.1-1.5,0.8-2.9,2.5-3C109.3,208.2,110.6,209.3,110.8,210.9z M113.5,236.2
		l-4.4,0.6l-2.4-18.6l4.4-0.6L113.5,236.2z M132.3,220.1l1.7,13.4l-4.4,0.6l-1.7-12.7c-0.3-2.4-1.2-2.9-2.6-2.6
		c-1.7,0.1-2.6,1.4-3.6,3.3l1.7,12.9l-4.4,0.6l-2.5-18.7l3.9-0.6l0.7,2.4c1.2-2.1,2.9-3.5,5.3-3.7
		C129.7,214.7,131.9,216.5,132.3,220.1z M149.6,214.5l-1.4,2.9c-1.7-0.8-3.2-1.1-4.8-1c-1.8,0.3-2.8,1.1-2.6,2.2
		c0.1,1.2,1,1.7,4.3,2.2c3.9,0.6,6.2,1.8,6.6,5.1c0.6,3.9-2.8,6.4-7.1,6.9c-3.2,0.4-5.8-0.4-7.8-1.7l1.9-2.8c1.5,1,3.5,1.4,5.3,1.2
		c1.9-0.3,3.2-1.2,3-2.6c-0.1-1.5-1-1.9-4.6-2.5c-4-0.6-6-2.2-6.2-5c-0.4-3,2.2-5.8,6.5-6.4C145.3,212.7,147.7,213.3,149.6,214.5z
		 M167.3,212.1l-1.7,2.9c-1.4-0.7-2.5-1-3.9-0.8c-2.6,0.3-3.9,2.5-3.3,6.9c0.6,4.4,2.5,5.8,5,5.5c1.4-0.1,2.4-0.8,3.6-1.8l2.4,2.6
		c-1.5,1.5-3.3,2.6-5.7,2.9c-5.4,0.7-9.1-2.6-10-8.6c-0.7-6,2.1-10.4,7.3-11.1C163.5,210.4,165.4,210.9,167.3,212.1z M181.5,208.4
		l-0.3,4.4c-0.6,0-1.1-0.1-1.7,0c-2.2,0.3-3.2,2.1-3.5,5.4l1.2,9.8l-4.4,0.6l-2.4-18.6l3.9-0.6l0.8,3.6c0.6-2.8,2.1-4.4,4.3-4.7
		C180.2,208.4,180.8,208.2,181.5,208.4z M188.5,200.9c0.1,1.5-0.8,2.9-2.5,3c-1.7,0.3-2.9-0.8-3.2-2.4c-0.1-1.5,0.8-2.9,2.5-3
		S188.3,199.4,188.5,200.9z M191.2,226.2l-4.4,0.6l-2.5-18.6l4.4-0.6L191.2,226.2z M205.3,205.3l-0.3,4.4c-0.6,0-1.1-0.1-1.7,0
		c-2.4,0.3-3.2,2.1-3.5,5.4l1.2,9.8l-4.4,0.6l-2.5-18.6l3.9-0.6l0.8,3.6c0.6-2.8,2.1-4.4,4.3-4.7C204,205.3,204.6,205.3,205.3,205.3
		z M224.3,214l-11.7,1.6c0.8,3.7,2.8,4.7,5.3,4.4c1.7-0.3,2.9-1,4.4-2.2l2.2,2.4c-1.7,1.7-3.7,3-6.5,3.3c-5.8,0.7-9.4-2.6-10.1-8.6
		c-0.7-5.7,1.7-10.4,6.9-10.9c5.3-0.7,8.6,2.5,9.4,8.3C224.1,212.8,224.3,213.5,224.3,214z M219.4,211.4c-0.4-3-1.7-4.7-4.3-4.4
		c-2.1,0.3-3.3,1.8-3,5.5l7.3-1V211.4z M253.6,208.8c0.7,5.7-1.4,10.2-6.1,10.8c-1.9,0.3-3.6-0.3-5-1.4l1.1,8.7l-4.4,1.1l-3.3-26.3
		l3.9-0.6l0.6,2.2c1.2-2.1,3.2-3.3,5-3.5C250.3,199.4,252.9,202.8,253.6,208.8z M248.9,209.5c-0.6-4.7-2.1-6.2-4.4-6
		c-1.5,0.1-2.8,1.4-3.5,3l1.1,8.3c1.1,1.2,2.2,1.7,3.6,1.5C248.3,216,249.5,213.9,248.9,209.5z M274.4,206.1
		c0.7,5.8-2.1,10.2-7.5,10.9c-5.5,0.7-9.3-2.6-10-8.7c-0.7-5.8,2.1-10.2,7.5-10.9C269.8,196.9,273.5,200,274.4,206.1z M261.6,207.8
		c0.6,4.4,2.2,6.2,4.8,6s3.7-2.5,3.2-6.9s-2.2-6.2-4.8-6C262.2,201.3,261.1,203.4,261.6,207.8z M294.6,213.1l-3.9,0.6l-0.6-2.6
		c-1.1,2.2-2.8,3.6-5.3,3.9c-3.3,0.4-5.5-1.5-6-5.1l-1.7-13.3l4.4-0.6l1.7,12.7c0.3,2.2,1.1,2.8,2.6,2.6c1.5-0.1,2.6-1.4,3.5-3.2
		l-1.7-13l4.4-0.6L294.6,213.1z M308.7,192.2l-0.3,4.4c-0.6,0-1.1-0.1-1.7,0c-2.4,0.3-3.2,2.1-3.5,5.4l1.2,9.8l-4.4,0.6l-2.4-18.6
		l3.9-0.6l0.8,3.6c0.6-2.8,2.1-4.4,4.3-4.7C307.5,192,308,192,308.7,192.2z M120.5,255.7c-1.4,0.7-3,1-5.3,1.4
		c2.4,0.7,3.7,2.1,4,4.3c0.4,3.6-2.1,6.6-6.6,7.2c-0.8,0.1-1.5,0.1-2.2,0c-0.4,0.4-0.7,1-0.6,1.5c0.1,0.7,0.6,1.2,2.4,1l2.9-0.4
		c4.2-0.6,7.1,1.4,7.5,4.4c0.4,3.7-2.5,6.4-8.6,7.1c-6.6,0.8-8.7-1-9.3-4.7l4-0.6c0.3,1.8,1.1,2.6,4.8,2.1c3.6-0.4,4.6-1.5,4.3-3
		c-0.1-1.4-1.4-2.1-3.5-1.8l-2.8,0.4c-3.7,0.4-5.5-1-5.8-2.9c-0.1-1.2,0.4-2.8,1.8-3.7c-2.5-1-3.6-2.5-3.9-4.8
		c-0.6-4,2.4-7.1,6.8-7.6c4.4-0.4,6.4-1.7,8.4-3.2L120.5,255.7z M108.2,262.5c0.3,2.2,1.7,3.5,3.7,3.2c2.1-0.3,3.2-1.8,2.8-4.2
		c-0.3-2.4-1.5-3.3-3.9-3C108.9,258.8,107.9,260.3,108.2,262.5z M139.2,263.2l-11.6,1.5c0.8,3.7,2.8,4.7,5.3,4.4
		c1.7-0.3,2.9-1,4.4-2.2l2.2,2.4c-1.7,1.7-3.7,3-6.5,3.3c-5.8,0.7-9.4-2.6-10.1-8.6c-0.7-5.7,1.7-10.4,6.9-10.9
		c5.3-0.7,8.6,2.5,9.4,8.3C139.2,261.9,139.2,262.6,139.2,263.2z M126.1,250.5l-1.5-2.1l6.8-5.4l2.2,3.3L126.1,250.5z M134.5,260.6
		c-0.4-3-1.7-4.7-4.3-4.4c-2.1,0.3-3.3,1.8-3,5.5l7.3-1V260.6z M153.2,250.3l-0.3,4.4c-0.6,0-1.1-0.1-1.7,0
		c-2.2,0.3-3.2,2.1-3.5,5.4l1.2,9.8l-4.4,0.6l-2.4-18.6l3.9-0.6l0.8,3.6c0.6-2.8,2.1-4.4,4.3-4.7C152,250.2,152.5,250.2,153.2,250.3
		z M172.2,259l-11.6,1.5c0.8,3.7,2.8,4.7,5.3,4.4c1.7-0.3,2.9-1,4.4-2.2l2.2,2.4c-1.7,1.7-3.7,3-6.5,3.3c-5.8,0.7-9.4-2.6-10.1-8.6
		c-0.7-5.7,1.7-10.4,6.9-10.9c5.3-0.7,8.6,2.5,9.4,8.3C172.1,257.8,172.2,258.5,172.2,259z M167.3,256.4c-0.4-3-1.7-4.7-4.3-4.4
		c-2.1,0.3-3.3,1.8-3,5.5l7.3-1V256.4z M186,246l-0.3,4.4c-0.6,0-1.1-0.1-1.7,0c-2.4,0.3-3.2,2.1-3.5,5.4l1.2,9.8l-4.4,0.6
		l-2.4-18.6l3.9-0.6l0.8,3.6c0.6-2.8,2.1-4.4,4.3-4.7C184.8,246,185.5,246,186,246z M210.4,244.9l-1.4,2.9c-1.7-0.8-3.2-1.1-4.8-1
		c-1.8,0.3-2.8,1.1-2.6,2.2c0.1,1.2,1,1.7,4.3,2.2c3.9,0.6,6.2,1.8,6.6,5.1c0.6,3.9-2.8,6.4-7.1,6.9c-3.2,0.4-5.8-0.4-7.8-1.7
		l1.9-2.8c1.5,1,3.5,1.4,5.3,1.2c1.9-0.3,3.2-1.2,3-2.6c-0.1-1.5-1-1.9-4.6-2.5c-4-0.6-6-2.2-6.2-5c-0.4-3,2.2-5.8,6.5-6.4
		C206.1,243.3,208.5,243.8,210.4,244.9z M230.9,251.4l-11.6,1.5c0.8,3.7,2.8,4.7,5.3,4.4c1.7-0.3,2.9-1,4.4-2.2l2.2,2.4
		c-1.7,1.7-3.7,3-6.5,3.3c-5.8,0.7-9.4-2.6-10.1-8.6c-0.7-5.7,1.7-10.4,6.9-10.9c5.3-0.7,8.6,2.5,9.4,8.3
		C230.9,250.2,230.9,251,230.9,251.4z M226.2,248.9c-0.4-3-1.7-4.7-4.3-4.4c-2.1,0.3-3.3,1.8-3,5.5l7.3-1V248.9z M246.5,240.3
		l-1.4,2.9c-1.7-0.8-3.2-1.1-4.8-1c-1.8,0.3-2.8,1.1-2.6,2.2c0.1,1.2,1,1.7,4.3,2.2c3.9,0.6,6.2,1.8,6.6,5.1
		c0.6,3.9-2.8,6.4-7.1,6.9c-3.2,0.4-5.8-0.4-7.8-1.7l1.9-2.8c1.5,1,3.5,1.4,5.3,1.2c1.9-0.3,3.2-1.2,3-2.6c-0.1-1.5-1-1.9-4.6-2.5
		c-4-0.6-6-2.2-6.2-5c-0.4-3,2.2-5.8,6.5-6.4C242.3,238.5,244.6,239.2,246.5,240.3z M128.2,324.8c1.2,10.1-2.5,18.1-10.8,19.2
		c-3.3,0.4-6.4-0.4-8.7-2.5l1.9,15.4l-7.9,1.9l-6-46.5l6.9-0.8l1,4c2.2-3.7,5.5-5.8,8.9-6.2C122.3,307.9,126.8,314.3,128.2,324.8z
		 M119.7,325.9c-1.1-8.3-3.7-11.1-7.8-10.7c-2.8,0.4-4.8,2.6-6.1,5.4l1.9,14.8c1.8,2.1,4,2.9,6.5,2.6
		C118.6,337.5,120.8,333.9,119.7,325.9z M153.4,304.5l-0.4,7.9c-1-0.1-1.8-0.1-3,0c-4,0.6-5.7,3.7-6.2,9.4l2.2,17.6l-8,1l-4.2-33
		l6.9-0.8l1.5,6.4c1-5,3.7-8,7.6-8.4C151.3,304.3,152.2,304.3,153.4,304.5z M187.1,319.8l-20.8,2.6c1.5,6.6,4.8,8.4,9.3,7.9
		c2.9-0.4,5.3-1.7,7.9-4l3.9,4.2c-2.9,3-6.6,5.4-11.6,6c-10.2,1.2-16.6-4.8-17.9-15.2c-1.2-10.1,3-18.3,12.5-19.5
		c9.3-1.2,15.4,4.4,16.6,14.8C187,317.6,187.1,319,187.1,319.8z M163.6,297.1l-2.8-3.7l12-9.4l4,5.8L163.6,297.1z M178.7,315.3
		c-0.7-5.4-3-8.4-7.5-7.9c-3.7,0.4-5.8,3.3-5.4,9.8l13-1.7L178.7,315.3z M214.8,300l-2.6,5.1c-2.9-1.4-5.7-1.9-8.6-1.7
		c-3.2,0.4-4.8,1.9-4.6,3.9c0.3,2.2,1.7,3,7.5,3.9c6.9,1,11.1,3.2,11.9,9c0.8,6.9-5,11.4-12.6,12.3c-5.7,0.7-10.4-0.7-13.7-3l3.5-5
		c2.8,1.7,6.1,2.5,9.4,2.1c3.6-0.4,5.7-2.2,5.4-4.7c-0.4-2.8-1.8-3.5-8.2-4.4c-7.1-1-10.4-3.9-11.1-8.7c-0.7-5.5,3.9-10.2,11.5-11.2
		C207.4,297.1,211.4,298.1,214.8,300z M251.3,311.7l-20.8,2.6c1.5,6.6,4.8,8.4,9.3,7.9c2.9-0.4,5.3-1.7,7.9-4l3.9,4.2
		c-2.9,3-6.6,5.4-11.6,6c-10.2,1.2-16.6-4.8-17.9-15.2c-1.2-10.1,3-18.3,12.5-19.5c9.3-1.2,15.4,4.4,16.6,14.8
		C251.1,309.4,251.3,310.8,251.3,311.7z M242.8,307.1c-0.7-5.4-3-8.4-7.5-7.9c-3.7,0.4-5.8,3.3-5.4,9.8l13-1.7L242.8,307.1z
		 M284.5,297.4l3,24l-8,1l-2.9-22.7c-0.6-4.2-2.2-5.1-4.7-4.8c-2.9,0.4-4.7,2.6-6.2,5.8l2.9,23l-8,1l-4.2-33l6.9-0.8l1.2,4.3
		c2.1-3.6,5.1-6.1,9.4-6.6C279.8,287.8,283.7,291,284.5,297.4z M317,287l-2.9,5.3c-2.4-1.4-4.4-1.8-6.9-1.5c-4.6,0.6-6.9,4.3-6,12.2
		c1,8,4.3,10.4,8.9,9.8c2.5-0.3,4.2-1.4,6.4-3.2l4.2,4.6c-2.6,2.8-6,4.6-10.2,5.1c-9.6,1.2-16.3-4.6-17.7-15.2
		c-1.4-10.5,3.6-18.4,13.2-19.7C310.1,284,313.6,284.7,317,287z M351.1,298.9l-20.8,2.6c1.5,6.6,4.8,8.4,9.3,7.9
		c2.9-0.4,5.3-1.7,7.9-4l3.9,4.2c-2.9,3-6.6,5.4-11.6,6c-10.2,1.2-16.6-4.8-17.9-15.2c-1.2-10.1,3-18.3,12.5-19.5
		c9.3-1.2,15.4,4.4,16.6,14.8C351,296.7,351.1,297.9,351.1,298.9z M342.6,294.3c-0.7-5.4-3-8.4-7.5-7.9c-3.7,0.4-5.8,3.3-5.4,9.8
		l13-1.7L342.6,294.3z M378.8,279.1l-2.5,5.1c-2.9-1.4-5.7-1.9-8.6-1.7c-3.2,0.4-4.8,1.9-4.6,3.9c0.3,2.2,1.7,3,7.5,3.9
		c6.9,1,11.1,3.2,11.9,9c0.8,6.9-5,11.4-12.6,12.3c-5.7,0.7-10.4-0.7-13.7-3l3.5-5c2.8,1.7,6.1,2.5,9.4,2.1c3.6-0.4,5.7-2.2,5.4-4.7
		c-0.4-2.8-1.8-3.5-8.2-4.4c-7.1-1-10.4-3.9-11.1-8.7c-0.7-5.5,3.9-10.2,11.5-11.2C371.3,276.1,375.3,277,378.8,279.1z"/>
	<path class="st0" d="M-46,347.7c13.8,1.5,27.4,1.9,40.7,8c2.8,1.2,4.4-1.4,3.5-4.2c-2.1-6.6-4.6-12.7-7.3-18.8
		c11.8-0.7,24.5-9.3,34.8-12.5c21.6-7.3,44.7-10.8,65.2-20.8c1.9-0.8,2.2-4.3,0.3-5.8c-9.8-7.5-20.4-12.5-30.7-18.1
		c2.5-13.4,6.9-25.6,9.1-39.2c0.6-2.9-1.8-5.8-4.4-5c-37.2,12.5-55.7,56.2-87,78.4c-2.6-7.9-6.2-15.4-9.7-22.8
		c-1.1-2.5-4.6-2.8-5.4-0.3c-5.5,18.7-10,37.4-12,57.3C-48.9,345.6-47.4,347.4-46,347.7z M62.2,240.1c-2.4,10.9-5,22-5.5,33.4
		c-1.4,0.3-2.1,2.8-0.4,4.2c8.6,6.5,17.9,11.5,26.9,17.4c-16.6,6.9-34.5,10.7-51.9,15.8c-15.9,4.6-32.3,10.5-47.8,16.8
		c-1.9,0.8-1.2,4.2,0.8,4.7c0.3,0.1,0.6,0,0.8,0.3c2.2,5,4.2,10.2,5.8,15.2c-11.1-3.9-22-4.8-33.4-5.8c2.1-15.6,5.3-30.6,9.3-45.3
		c2.9,6.2,6.1,12.3,8.7,18.7c0.7,1.5,2.1,1.8,3,1.4c0.7,0.6,1.7,0.8,2.6,0.1C12.7,297.5,28.7,255.3,62.2,240.1z"/>
</g>
</svg>
