<?xml version="1.0" encoding="utf-8"?>
<!-- Generator: Adobe Illustrator 19.1.0, SVG Export Plug-In . SVG Version: 6.00 Build 0)  -->
<svg version="1.1" id="Layer_1" xmlns="http://www.w3.org/2000/svg" xmlns:xlink="http://www.w3.org/1999/xlink" x="0px" y="0px"
	 viewBox="-47 -32 454 304" style="enable-background:new -47 -32 454 304;" xml:space="preserve">
<style type="text/css">
	.st0{enable-background:new    ;}
	.st1{fill:#FFFFFF;}
	.st2{fill:#4285E3;}
</style>
<g class="st0">
	<path d="M100.2,66.2l-1.9,2.9c-1.9-1.2-3.7-1.7-5.7-1.4C90.4,68,89,69.2,89.1,71c0.3,1.8,1.2,2.4,5.5,3.2c4.4,0.8,7.6,2.2,8.2,6.8
		c0.6,4.3-2.5,7.9-8.3,8.6c-3.9,0.6-6.9-0.6-9.1-2.2l2.1-3c1.9,1.2,4,1.9,6.5,1.7c2.6-0.3,4.3-1.8,4-4.2c-0.3-2.1-1.4-2.8-5.4-3.5
		c-5.3-1-7.8-2.6-8.3-6.4c-0.6-4,2.6-7.2,7.3-7.8C95.4,63.7,97.8,64.5,100.2,66.2z"/>
	<path d="M108.6,62.7c0.1,0.7,0,1.5-0.4,2.8l-1.7,5.1l-2.5,0.3l0.7-5.5c-0.8-0.4-1.2-1.1-1.4-1.9c-0.1-1.4,0.8-2.6,2.4-2.9
		C107.1,60.4,108.4,61.3,108.6,62.7z"/>
	<path d="M121.2,60c0.1,1.5-0.8,2.9-2.5,3c-1.7,0.3-2.9-0.8-3.2-2.4c-0.1-1.5,0.8-2.9,2.5-3C119.7,57.3,121,58.4,121.2,60z
		 M123.9,85.3l-4.4,0.6l-2.4-18.6l4.4-0.6L123.9,85.3z"/>
	<path d="M142.7,69.2l1.7,13.4l-4.4,0.6l-1.7-12.7c-0.3-2.4-1.2-2.9-2.6-2.6c-1.7,0.1-2.6,1.4-3.6,3.3l1.7,12.9l-4.4,0.6L126.9,66
		l3.9-0.6l0.7,2.4c1.2-2.1,2.9-3.5,5.3-3.7C140.1,63.8,142.3,65.6,142.7,69.2z"/>
	<path d="M160,63.6l-1.4,2.9c-1.7-0.8-3.2-1.1-4.8-1c-1.8,0.3-2.8,1.1-2.6,2.2c0.1,1.2,1,1.7,4.3,2.2c3.9,0.6,6.2,1.8,6.6,5.1
		c0.6,3.9-2.8,6.4-7.1,6.9c-3.2,0.4-5.8-0.4-7.8-1.7l1.9-2.8c1.5,1,3.5,1.4,5.3,1.2c1.9-0.3,3.2-1.2,3-2.6c-0.1-1.5-1-1.9-4.6-2.5
		c-4-0.6-6-2.2-6.2-5c-0.4-3,2.2-5.8,6.5-6.4C155.7,61.8,158.1,62.4,160,63.6z"/>
	<path d="M177.7,61.2l-1.7,2.9c-1.4-0.7-2.5-1-3.9-0.8c-2.6,0.3-3.9,2.5-3.3,6.9c0.6,4.4,2.5,5.8,5,5.5c1.4-0.1,2.4-0.8,3.6-1.8
		l2.4,2.6c-1.5,1.5-3.3,2.6-5.7,2.9c-5.4,0.7-9.1-2.6-10-8.6c-0.7-6,2.1-10.4,7.3-11.1C173.9,59.5,175.8,60,177.7,61.2z"/>
	<path d="M191.9,57.5l-0.3,4.4c-0.6,0-1.1-0.1-1.7,0c-2.2,0.3-3.2,2.1-3.5,5.4l1.2,9.8l-4.4,0.6l-2.4-18.6l3.9-0.6l0.8,3.6
		c0.6-2.8,2.1-4.4,4.3-4.7C190.6,57.5,191.2,57.3,191.9,57.5z"/>
	<path d="M198.9,50c0.1,1.5-0.8,2.9-2.5,3c-1.7,0.3-2.9-0.8-3.2-2.4c-0.1-1.5,0.8-2.9,2.5-3C197.4,47.5,198.7,48.5,198.9,50z
		 M201.6,75.3l-4.4,0.6l-2.5-18.6l4.4-0.6L201.6,75.3z"/>
	<path d="M215.7,54.4l-0.3,4.4c-0.6,0-1.1-0.1-1.7,0c-2.4,0.3-3.2,2.1-3.5,5.4l1.2,9.8l-4.4,0.6l-2.5-18.6l3.9-0.6l0.8,3.6
		c0.6-2.8,2.1-4.4,4.3-4.7C214.4,54.4,215,54.4,215.7,54.4z"/>
	<path d="M234.7,63.1L223,64.7c0.8,3.7,2.8,4.7,5.3,4.4c1.7-0.3,2.9-1,4.4-2.2l2.2,2.4c-1.7,1.7-3.7,3-6.5,3.3
		c-5.8,0.7-9.4-2.6-10.1-8.6c-0.7-5.7,1.7-10.4,6.9-10.9c5.3-0.7,8.6,2.5,9.4,8.3C234.5,61.9,234.7,62.6,234.7,63.1z M229.8,60.5
		c-0.4-3-1.7-4.7-4.3-4.4c-2.1,0.3-3.3,1.8-3,5.5l7.3-1V60.5z"/>
	<path d="M264,57.9c0.7,5.7-1.4,10.2-6.1,10.8c-1.9,0.3-3.6-0.3-5-1.4L254,76l-4.4,1.1l-3.3-26.3l3.9-0.6l0.6,2.2
		c1.2-2.1,3.2-3.3,5-3.5C260.7,48.5,263.3,51.9,264,57.9z M259.3,58.6c-0.6-4.7-2.1-6.2-4.4-6c-1.5,0.1-2.8,1.4-3.5,3l1.1,8.3
		c1.1,1.2,2.2,1.7,3.6,1.5C258.7,65.1,259.9,63,259.3,58.6z"/>
	<path d="M284.8,55.2c0.7,5.8-2.1,10.2-7.5,10.9c-5.5,0.7-9.3-2.6-10-8.7c-0.7-5.8,2.1-10.2,7.5-10.9
		C280.2,46,283.9,49.1,284.8,55.2z M272,56.9c0.6,4.4,2.2,6.2,4.8,6s3.7-2.5,3.2-6.9s-2.2-6.2-4.8-6C272.6,50.4,271.5,52.5,272,56.9
		z"/>
	<path d="M305,62.2l-3.9,0.6l-0.6-2.6c-1.1,2.2-2.8,3.6-5.3,3.9c-3.3,0.4-5.5-1.5-6-5.1l-1.7-13.3l4.4-0.6l1.7,12.7
		c0.3,2.2,1.1,2.8,2.6,2.6c1.5-0.1,2.6-1.4,3.5-3.2l-1.7-13l4.4-0.6L305,62.2z"/>
	<path d="M319.1,41.3l-0.3,4.4c-0.6,0-1.1-0.1-1.7,0c-2.4,0.3-3.2,2.1-3.5,5.4l1.2,9.8l-4.4,0.6l-2.4-18.6l3.9-0.6l0.8,3.6
		c0.6-2.8,2.1-4.4,4.3-4.7C317.9,41.1,318.4,41.1,319.1,41.3z"/>
</g>
<g class="st0">
	<path d="M130.9,104.8c-1.4,0.7-3,1-5.3,1.4c2.4,0.7,3.7,2.1,4,4.3c0.4,3.6-2.1,6.6-6.6,7.2c-0.8,0.1-1.5,0.1-2.2,0
		c-0.4,0.4-0.7,1-0.6,1.5c0.1,0.7,0.6,1.2,2.4,1l2.9-0.4c4.2-0.6,7.1,1.4,7.5,4.4c0.4,3.7-2.5,6.4-8.6,7.1c-6.6,0.8-8.7-1-9.3-4.7
		l4-0.6c0.3,1.8,1.1,2.6,4.8,2.1c3.6-0.4,4.6-1.5,4.3-3c-0.1-1.4-1.4-2.1-3.5-1.8l-2.8,0.4c-3.7,0.4-5.5-1-5.8-2.9
		c-0.1-1.2,0.4-2.8,1.8-3.7c-2.5-1-3.6-2.5-3.9-4.8c-0.6-4,2.4-7.1,6.8-7.6c4.4-0.4,6.4-1.7,8.4-3.2L130.9,104.8z M118.6,111.6
		c0.3,2.2,1.7,3.5,3.7,3.2c2.1-0.3,3.2-1.8,2.8-4.2c-0.3-2.4-1.5-3.3-3.9-3C119.3,107.9,118.3,109.4,118.6,111.6z"/>
	<path d="M149.6,112.3l-11.6,1.5c0.8,3.7,2.8,4.7,5.3,4.4c1.7-0.3,2.9-1,4.4-2.2l2.2,2.4c-1.7,1.7-3.7,3-6.5,3.3
		c-5.8,0.7-9.4-2.6-10.1-8.6c-0.7-5.7,1.7-10.4,6.9-10.9c5.3-0.7,8.6,2.5,9.4,8.3C149.6,111,149.6,111.7,149.6,112.3z M136.5,99.6
		l-1.5-2.1l6.8-5.4l2.2,3.3L136.5,99.6z M144.9,109.7c-0.4-3-1.7-4.7-4.3-4.4c-2.1,0.3-3.3,1.8-3,5.5l7.3-1V109.7z"/>
	<path d="M163.6,99.4l-0.3,4.4c-0.6,0-1.1-0.1-1.7,0c-2.2,0.3-3.2,2.1-3.5,5.4l1.2,9.8l-4.4,0.6l-2.4-18.6l3.9-0.6l0.8,3.6
		c0.6-2.8,2.1-4.4,4.3-4.7C162.4,99.3,162.9,99.3,163.6,99.4z"/>
	<path d="M182.6,108.1l-11.6,1.5c0.8,3.7,2.8,4.7,5.3,4.4c1.7-0.3,2.9-1,4.4-2.2l2.2,2.4c-1.7,1.7-3.7,3-6.5,3.3
		c-5.8,0.7-9.4-2.6-10.1-8.6c-0.7-5.7,1.7-10.4,6.9-10.9c5.3-0.7,8.6,2.5,9.4,8.3C182.5,106.9,182.6,107.6,182.6,108.1z
		 M177.7,105.5c-0.4-3-1.7-4.7-4.3-4.4c-2.1,0.3-3.3,1.8-3,5.5l7.3-1V105.5z"/>
	<path d="M196.4,95.1l-0.3,4.4c-0.6,0-1.1-0.1-1.7,0c-2.4,0.3-3.2,2.1-3.5,5.4l1.2,9.8l-4.4,0.6l-2.4-18.6l3.9-0.6l0.8,3.6
		c0.6-2.8,2.1-4.4,4.3-4.7C195.2,95.1,195.9,95.1,196.4,95.1z"/>
	<path d="M220.8,94l-1.4,2.9c-1.7-0.8-3.2-1.1-4.8-1c-1.8,0.3-2.8,1.1-2.6,2.2c0.1,1.2,1,1.7,4.3,2.2c3.9,0.6,6.2,1.8,6.6,5.1
		c0.6,3.9-2.8,6.4-7.1,6.9c-3.2,0.4-5.8-0.4-7.8-1.7l1.9-2.8c1.5,1,3.5,1.4,5.3,1.2c1.9-0.3,3.2-1.2,3-2.6c-0.1-1.5-1-1.9-4.6-2.5
		c-4-0.6-6-2.2-6.2-5c-0.4-3,2.2-5.8,6.5-6.4C216.5,92.4,218.9,92.9,220.8,94z"/>
	<path d="M241.3,100.5l-11.6,1.5c0.8,3.7,2.8,4.7,5.3,4.4c1.7-0.3,2.9-1,4.4-2.2l2.2,2.4c-1.7,1.7-3.7,3-6.5,3.3
		c-5.8,0.7-9.4-2.6-10.1-8.6c-0.7-5.7,1.7-10.4,6.9-10.9c5.3-0.7,8.6,2.5,9.4,8.3C241.3,99.3,241.3,100.1,241.3,100.5z M236.6,98
		c-0.4-3-1.7-4.7-4.3-4.4c-2.1,0.3-3.3,1.8-3,5.5l7.3-1V98z"/>
	<path d="M256.9,89.4l-1.4,2.9c-1.7-0.8-3.2-1.1-4.8-1c-1.8,0.3-2.8,1.1-2.6,2.2c0.1,1.2,1,1.7,4.3,2.2c3.9,0.6,6.2,1.8,6.6,5.1
		c0.6,3.9-2.8,6.4-7.1,6.9c-3.2,0.4-5.8-0.4-7.8-1.7l1.9-2.8c1.5,1,3.5,1.4,5.3,1.2c1.9-0.3,3.2-1.2,3-2.6c-0.1-1.5-1-1.9-4.6-2.5
		c-4-0.6-6-2.2-6.2-5c-0.4-3,2.2-5.8,6.5-6.4C252.7,87.6,255,88.3,256.9,89.4z"/>
</g>
<g class="st0">
	<path d="M138.6,173.9c1.2,10.1-2.5,18.1-10.8,19.2c-3.3,0.4-6.4-0.4-8.7-2.5L121,206l-7.9,1.9l-6-46.5l6.9-0.8l1,4
		c2.2-3.7,5.5-5.8,8.9-6.2C132.7,157,137.2,163.4,138.6,173.9z M130.1,175c-1.1-8.3-3.7-11.1-7.8-10.7c-2.8,0.4-4.8,2.6-6.1,5.4
		l1.9,14.8c1.8,2.1,4,2.9,6.5,2.6C129,186.6,131.2,183,130.1,175z"/>
	<path d="M163.8,153.6l-0.4,7.9c-1-0.1-1.8-0.1-3,0c-4,0.6-5.7,3.7-6.2,9.4l2.2,17.6l-8,1l-4.2-33l6.9-0.8l1.5,6.4
		c1-5,3.7-8,7.6-8.4C161.7,153.4,162.6,153.4,163.8,153.6z"/>
	<path d="M197.5,168.9l-20.8,2.6c1.5,6.6,4.8,8.4,9.3,7.9c2.9-0.4,5.3-1.7,7.9-4l3.9,4.2c-2.9,3-6.6,5.4-11.6,6
		c-10.2,1.2-16.6-4.8-17.9-15.2c-1.2-10.1,3-18.3,12.5-19.5c9.3-1.2,15.4,4.4,16.6,14.8C197.4,166.7,197.5,168.1,197.5,168.9z
		 M174,146.2l-2.8-3.7l12-9.4l4,5.8L174,146.2z M189.1,164.4c-0.7-5.4-3-8.4-7.5-7.9c-3.7,0.4-5.8,3.3-5.4,9.8l13-1.7L189.1,164.4z"
		/>
	<path d="M225.2,149.1l-2.6,5.1c-2.9-1.4-5.7-1.9-8.6-1.7c-3.2,0.4-4.8,1.9-4.6,3.9c0.3,2.2,1.7,3,7.5,3.9c6.9,1,11.1,3.2,11.9,9
		c0.8,6.9-5,11.4-12.6,12.3c-5.7,0.7-10.4-0.7-13.7-3l3.5-5c2.8,1.7,6.1,2.5,9.4,2.1c3.6-0.4,5.7-2.2,5.4-4.7
		c-0.4-2.8-1.8-3.5-8.2-4.4c-7.1-1-10.4-3.9-11.1-8.7c-0.7-5.5,3.9-10.2,11.5-11.2C217.8,146.2,221.8,147.2,225.2,149.1z"/>
	<path d="M261.7,160.8l-20.8,2.6c1.5,6.6,4.8,8.4,9.3,7.9c2.9-0.4,5.3-1.7,7.9-4l3.9,4.2c-2.9,3-6.6,5.4-11.6,6
		c-10.2,1.2-16.6-4.8-17.9-15.2c-1.2-10.1,3-18.3,12.5-19.5c9.3-1.2,15.4,4.4,16.6,14.8C261.5,158.5,261.7,159.9,261.7,160.8z
		 M253.2,156.2c-0.7-5.4-3-8.4-7.5-7.9c-3.7,0.4-5.8,3.3-5.4,9.8l13-1.7L253.2,156.2z"/>
	<path d="M294.9,146.5l3,24l-8,1l-2.9-22.7c-0.6-4.2-2.2-5.1-4.7-4.8c-2.9,0.4-4.7,2.6-6.2,5.8l2.9,23l-8,1l-4.2-33l6.9-0.8l1.2,4.3
		c2.1-3.6,5.1-6.1,9.4-6.6C290.2,136.9,294.1,140.1,294.9,146.5z"/>
	<path d="M327.4,136.1l-2.9,5.3c-2.4-1.4-4.4-1.8-6.9-1.5c-4.6,0.6-6.9,4.3-6,12.2c1,8,4.3,10.4,8.9,9.8c2.5-0.3,4.2-1.4,6.4-3.2
		l4.2,4.6c-2.6,2.8-6,4.6-10.2,5.1c-9.6,1.2-16.3-4.6-17.7-15.2c-1.4-10.5,3.6-18.4,13.2-19.7C320.5,133.1,324,133.8,327.4,136.1z"
		/>
	<path d="M361.5,148l-20.8,2.6c1.5,6.6,4.8,8.4,9.3,7.9c2.9-0.4,5.3-1.7,7.9-4l3.9,4.2c-2.9,3-6.6,5.4-11.6,6
		c-10.2,1.2-16.6-4.8-17.9-15.2c-1.2-10.1,3-18.3,12.5-19.5c9.3-1.2,15.4,4.4,16.6,14.8C361.4,145.8,361.5,147,361.5,148z
		 M353,143.4c-0.7-5.4-3-8.4-7.5-7.9c-3.7,0.4-5.8,3.3-5.4,9.8l13-1.7L353,143.4z"/>
	<path d="M389.2,128.2l-2.5,5.1c-2.9-1.4-5.7-1.9-8.6-1.7c-3.2,0.4-4.8,1.9-4.6,3.9c0.3,2.2,1.7,3,7.5,3.9c6.9,1,11.1,3.2,11.9,9
		c0.8,6.9-5,11.4-12.6,12.3c-5.7,0.7-10.4-0.7-13.7-3l3.5-5c2.8,1.7,6.1,2.5,9.4,2.1c3.6-0.4,5.7-2.2,5.4-4.7
		c-0.4-2.8-1.8-3.5-8.2-4.4c-7.1-1-10.4-3.9-11.1-8.7c-0.7-5.5,3.9-10.2,11.5-11.2C381.7,125.2,385.7,126.1,389.2,128.2z"/>
</g>
<path class="st1" d="M-25,139.7l-11.1,49.8l3.9,4.8l19,2.4l16.9,3.5l-3.9-14.1l-2.1-7.5c0,0,6.9-3,7.5-3.3
	c0.6-0.3,23.3-7.2,23.3-7.2s28.4-9.7,31.8-10.2c3.5-0.6,25.1-7.5,26.9-7.6s15.2-4.3,11.9-6.4c-3.3-2.1-19.7-11.4-19.7-11.4
	s-10.5-5.7-10.8-7.8s4.2-19.7,4.2-19.7s3.6-18.1,3.6-19.7c0-1.5-5.4-2.1-7.1,0c-1.7,2.1-38.1,32.8-38.1,32.8s-35.7,45.6-40.2,44.6
	C-13.3,161.9-25,139.7-25,139.7z"/>
<g>
	<path class="st2" d="M-35.6,196.8c13.8,1.5,27.4,1.9,40.7,8c2.8,1.2,4.4-1.4,3.5-4.2C6.5,194,4,187.9,1.3,181.8
		c11.8-0.7,24.5-9.3,34.8-12.5c21.6-7.3,44.7-10.8,65.2-20.8c1.9-0.8,2.2-4.3,0.3-5.8c-9.8-7.5-20.4-12.5-30.7-18.1
		c2.5-13.4,6.9-25.6,9.1-39.2c0.6-2.9-1.8-5.8-4.4-5c-37.2,12.5-55.7,56.2-87,78.4c-2.6-7.9-6.2-15.4-9.7-22.8
		c-1.1-2.5-4.6-2.8-5.4-0.3c-5.5,18.7-10,37.4-12,57.3C-38.5,194.7-37,196.5-35.6,196.8z M72.6,89.2c-2.4,10.9-5,22-5.5,33.4
		c-1.4,0.3-2.1,2.8-0.4,4.2c8.6,6.5,17.9,11.5,26.9,17.4c-16.6,6.9-34.5,10.7-51.9,15.8c-15.9,4.6-32.3,10.5-47.8,16.8
		c-1.9,0.8-1.2,4.2,0.8,4.7c0.3,0.1,0.6,0,0.8,0.3c2.2,5,4.2,10.2,5.8,15.2c-11.1-3.9-22-4.8-33.4-5.8c2.1-15.6,5.3-30.6,9.3-45.3
		c2.9,6.2,6.1,12.3,8.7,18.7c0.7,1.5,2.1,1.8,3,1.4c0.7,0.6,1.7,0.8,2.6,0.1C23.1,146.6,39.1,104.4,72.6,89.2z"/>
</g>
</svg>
