<?xml version="1.0" encoding="utf-8"?>
<!-- Generator: Adobe Illustrator 19.1.0, SVG Export Plug-In . SVG Version: 6.00 Build 0)  -->
<svg version="1.1" id="Layer_1" xmlns="http://www.w3.org/2000/svg" xmlns:xlink="http://www.w3.org/1999/xlink" x="0px" y="0px"
	 viewBox="0 0 360 240" style="enable-background:new 0 0 360 240;" xml:space="preserve">
<style type="text/css">
	.st0{font-family:'FiraSans-Medium';}
	.st1{font-size:25.5939px;}
	.st2{fill:#FFFFFF;}
	.st3{fill:#4285E3;}
</style>
<text transform="matrix(0.9972 -7.466232e-02 7.466232e-02 0.9972 106.1009 93.9708)"><tspan x="0" y="0" class="st0 st1">Montrez-nous votre </tspan><tspan x="0" y="30.7" class="st0 st1">plus beau sourire</tspan></text>
<path class="st2" d="M25.2,135.5l-8,36L20,175l13.7,1.7l12.2,2.5L43.1,169l-1.5-5.4c0,0,5-2.2,5.4-2.4s16.8-5.2,16.8-5.2
	s20.5-7,23-7.4s18.1-5.4,19.4-5.5c1.3-0.1,11-3.1,8.6-4.6s-14.2-8.2-14.2-8.2s-7.6-4.1-7.8-5.6s3-14.2,3-14.2s2.6-13.1,2.6-14.2
	s-3.9-1.5-5.1,0S65.8,120,65.8,120s-25.8,32.9-29,32.2S25.2,135.5,25.2,135.5z"/>
<g>
	<path class="st3" d="M17.5,176.7c10,1.1,19.8,1.4,29.4,5.8c2,0.9,3.2-1,2.5-3c-1.5-4.8-3.3-9.2-5.2-13.6c8.5-0.5,17.7-6.7,25.1-9
		c15.6-5.3,32.3-7.8,47.1-15c1.4-0.6,1.6-3.1,0.2-4.2c-7.1-5.4-14.7-9-22.2-13.1c1.8-9.7,5-18.5,6.6-28.3c0.4-2.1-1.3-4.2-3.2-3.6
		c-26.9,9-40.2,40.6-62.8,56.6c-1.9-5.7-4.5-11.1-7-16.5c-0.8-1.8-3.3-2-3.9-0.2c-4,13.5-7.2,27-8.7,41.4
		C15.4,175.2,16.5,176.5,17.5,176.7z M95.7,99c-1.7,7.9-3.6,15.9-4,24.1c-1,0.2-1.5,2-0.3,3c6.2,4.7,12.9,8.3,19.4,12.6
		c-12,5-24.9,7.7-37.5,11.4c-11.5,3.3-23.3,7.6-34.5,12.1c-1.4,0.6-0.9,3,0.6,3.4c0.2,0.1,0.4,0,0.6,0.2c1.6,3.6,3,7.4,4.2,11
		c-8-2.8-15.9-3.5-24.1-4.2c1.5-11.3,3.8-22.1,6.7-32.7c2.1,4.5,4.4,8.9,6.3,13.5c0.5,1.1,1.5,1.3,2.2,1c0.5,0.4,1.2,0.6,1.9,0.1
		C59.9,140.5,71.5,110,95.7,99z"/>
</g>
</svg>
