<?xml version="1.0" encoding="utf-8"?>
<!-- Generator: Adobe Illustrator 19.2.1, SVG Export Plug-In . SVG Version: 6.00 Build 0)  -->
<svg version="1.1" id="Capa_1" xmlns="http://www.w3.org/2000/svg" xmlns:xlink="http://www.w3.org/1999/xlink" x="0px" y="0px"
	 viewBox="0 0 46 46" style="enable-background:new 0 0 46 46;" xml:space="preserve">
<path d="M25.7,22.8l4.3-4.3c-0.3-1.2-0.8-2.4-1.3-3.4l-6.1,6.1l-6.1-6.1c-0.5,1-1,2.1-1.3,3.4l4.3,4.3c0,0,0,0,0,0
	c0.4,0.4,0.4,0.9,0,1.3l0,0l-4.4,4.4c0.3,1.2,0.8,2.4,1.3,3.4l6.1-6.1l6.1,6.1c0.5-1,1-2.1,1.3-3.4l-4.4-4.4l0,0
	C25.3,23.8,25.3,23.2,25.7,22.8L25.7,22.8L25.7,22.8z M23,44.5C11.2,44.5,1.5,34.8,1.5,23S11.2,1.5,23,1.5S44.5,11.2,44.5,23
	S34.8,44.5,23,44.5z M23,4.1C12.6,4.1,4.1,12.6,4.1,23S12.6,41.9,23,41.9S41.9,33.4,41.9,23S33.4,4.1,23,4.1z"/>
</svg>
