<?xml version="1.0" encoding="utf-8"?>
<!-- Generator: Adobe Illustrator 19.2.1, SVG Export Plug-In . SVG Version: 6.00 Build 0)  -->
<svg version="1.1"
	 id="svg2" xmlns:cc="http://creativecommons.org/ns#" xmlns:dc="http://purl.org/dc/elements/1.1/" xmlns:inkscape="http://www.inkscape.org/namespaces/inkscape" xmlns:rdf="http://www.w3.org/1999/02/22-rdf-syntax-ns#" xmlns:svg="http://www.w3.org/2000/svg"
	 xmlns="http://www.w3.org/2000/svg" xmlns:xlink="http://www.w3.org/1999/xlink" x="0px" y="0px" viewBox="0 0 30 30"
	 style="enable-background:new 0 0 30 30;" xml:space="preserve">
<path d="M23.4,13.5h-6.9V6.6c-1-0.2-2.1-0.2-3.1,0v6.9H6.6c-0.2,1-0.2,2.1,0,3.1h6.9v6.9c1,0.2,2.1,0.2,3.1,0v-6.9h6.9
	C23.6,15.5,23.6,14.5,23.4,13.5L23.4,13.5z M15,28.2C7.7,28.2,1.8,22.3,1.8,15C1.8,7.7,7.7,1.8,15,1.8S28.2,7.7,28.2,15
	C28.2,22.3,22.3,28.2,15,28.2z M15,3C8.4,3,3,8.4,3,15s5.4,12,12,12c6.6,0,12-5.4,12-12S21.6,3,15,3z"/>
</svg>
