<?xml version="1.0" encoding="utf-8"?>
<!-- Generator: Adobe Illustrator 19.2.1, SVG Export Plug-In . SVG Version: 6.00 Build 0)  -->
<svg version="1.1" id="Layer_1" xmlns="http://www.w3.org/2000/svg" xmlns:xlink="http://www.w3.org/1999/xlink" x="0px" y="0px"
	 viewBox="0 0 290 290" style="enable-background:new 0 0 290 290;" xml:space="preserve">
<g>
	<path d="M110,35c0,19.3,15.7,35,35,35s35-15.7,35-35S164.3,0,145,0S110,15.7,110,35z"/>
	<path d="M110,255c0,19.3,15.7,35,35,35s35-15.7,35-35s-15.7-35-35-35S110,235.7,110,255z"/>
	<path d="M110,145c0,19.3,15.7,35,35,35s35-15.7,35-35s-15.7-35-35-35S110,125.7,110,145z"/>
</g>
</svg>
