<?xml version="1.0" encoding="utf-8"?>
<!-- Generator: Adobe Illustrator 19.2.1, SVG Export Plug-In . SVG Version: 6.00 Build 0)  -->
<svg version="1.1" id="Layer_2" xmlns="http://www.w3.org/2000/svg" xmlns:xlink="http://www.w3.org/1999/xlink" x="0px" y="0px"
	 viewBox="0 0 1040 419" style="enable-background:new 0 0 1040 419;" xml:space="preserve">
<style type="text/css">
	.st0{fill:#FFFFFF;}
	.st1{fill:#6F9BFF;}
	.st2{fill:#FFFFFF;stroke:#5A8DFF;}
	.st3{fill:none;stroke:#5A8DFF;}
	.st4{fill:#FDFDFD;stroke:#5A8DFF;stroke-width:0.6776;}
	.st5{fill:#2FC85A;}
	.st6{fill:#FDFDFD;stroke:#5A8DFF;stroke-width:0.3478;}
	.st7{fill-rule:evenodd;clip-rule:evenodd;fill:#2FC85A;}
</style>
<path class="st0" d="M279.1,104.7c-2.6,0-5,0.6-7.3,1.6c0.1-0.7,0.1-1.4,0.1-2.1c0-13.2-10.7-23.9-23.9-23.9c-3.1,0-6.1,0.6-8.8,1.7
	c-7.2-17.5-27-27.3-50.6-27.3c-28.3,0-50,17.9-50,36c0,1.3,0.1,2.6,0.4,3.8c-2-0.6-4.2-0.9-6.4-0.9c-13.2,0-23.9,10.7-23.9,23.9
	c0,12.5,9.6,22.7,21.7,23.8c0,0,0,0.1,0,0.1h2.2c0,0,0,0,0,0c0,0,0,0,0,0h143.7c0,0,22.5,1.2,22.2-18.2
	C298.5,113.3,288.9,104.7,279.1,104.7z"/>
<g>
	<path class="st1" d="M801.6,384.1c0.3-0.1,0.1-0.3-0.7-0.3l-0.6,0.3L801.6,384.1z"/>
	<path class="st1" d="M796.1,383.3c-1,0.1-2.1,0.4-1.5,0.7c1-0.3,1.2-0.2,2.2-0.5c0.8,0,1.4,0.1,1.3,0.3c0.3-0.1,1.3,0.1,1.7-0.1
		c-1.1-0.3-2.4-0.3-3.8-0.2C795.8,383.5,796,383.4,796.1,383.3z"/>
	<path class="st1" d="M716.3,380.9l0.5,0C716.6,380.9,716.5,380.9,716.3,380.9z"/>
	<path class="st1" d="M666.8,379.8c0.4,0,0.5,0,0.6-0.1C667,379.7,666.7,379.8,666.8,379.8z"/>
	<path class="st1" d="M658.3,379.3c0.2,0,0.3,0,0.5,0C658.6,379.3,658.4,379.3,658.3,379.3z"/>
	<path class="st1" d="M716.3,380.9l-1.3-0.1C714.8,380.9,715.6,380.9,716.3,380.9z"/>
	<path class="st1" d="M785.1,383.8c0.3,0,0.5,0,0.7-0.1C785.6,383.8,785.4,383.8,785.1,383.8C785.1,383.8,785.1,383.8,785.1,383.8z"
		/>
	<path class="st1" d="M738.1,381.1l0.4,0c0.1,0,0.2-0.1,0.3-0.1L738.1,381.1z"/>
	<path class="st1" d="M754.8,381.4c-0.4,0-0.5,0.3-0.7,0.4c0.2-0.1,0.5-0.2,0.8-0.2C755,381.6,755,381.5,754.8,381.4z"/>
	<path class="st1" d="M781.4,382.6l0.5,0C781.7,382.6,781.5,382.6,781.4,382.6z"/>
	<path class="st1" d="M726.1,380.8c0,0-0.1-0.1-0.2-0.1C726,380.7,726,380.7,726.1,380.8z"/>
	<path class="st1" d="M257.8,382.1C257.8,382.1,257.8,382.1,257.8,382.1C257.7,382.1,257.6,382.1,257.8,382.1z"/>
	<path class="st1" d="M238.3,381.1l0.3,0c0-0.1,0.1-0.1,0.1-0.2L238.3,381.1z"/>
	<path class="st1" d="M642.9,378.7C642.9,378.7,642.9,378.7,642.9,378.7C643.3,378.7,643.1,378.7,642.9,378.7z"/>
	<path class="st1" d="M500.9,377.7c1.6,0.3-2.6,0.3-0.2,0.6C500.5,378.2,502.9,377.9,500.9,377.7z"/>
	<path class="st1" d="M784.7,383.8c-0.2,0-0.5,0-0.7,0C784.3,383.8,784.5,383.8,784.7,383.8z"/>
	<path class="st1" d="M500.7,378.3L500.7,378.3l0.2,0C500.8,378.3,500.8,378.3,500.7,378.3z"/>
	<path class="st1" d="M607.2,378.4c0.1,0.1,0.2,0.1,0.4,0.1C607.6,378.5,607.5,378.5,607.2,378.4z"/>
	<path class="st1" d="M633.8,379.1l-0.7,0C633.4,379.1,633.6,379.1,633.8,379.1z"/>
	<path class="st1" d="M593.4,378.7c-0.4,0-0.5-0.1-1,0c0,0,0.1,0,0.1,0C592.8,378.6,593,378.6,593.4,378.7z"/>
	<path class="st1" d="M579.1,378.5c0.1,0,0.2,0,0.3,0.1c0.1,0,0.3,0,0.5,0L579.1,378.5z"/>
	<path class="st1" d="M301.4,381.3c-0.3-0.1-0.5-0.2-0.7-0.2C300.9,381.2,298.8,381.3,301.4,381.3z"/>
	<path class="st1" d="M785.1,383.7c-0.1,0.1-0.2,0.1-0.4,0.1c0.2,0,0.3,0,0.5,0C785.2,383.7,785.2,383.7,785.1,383.7z"/>
	<path class="st1" d="M592.8,380.9l-2.3-0.1C591.2,380.8,592,380.9,592.8,380.9z"/>
	<path class="st1" d="M404.3,380.2l-0.5,0C403.9,380.2,404.1,380.2,404.3,380.2z"/>
	<path class="st1" d="M583.8,380.8c-0.4-0.1-0.8-0.2-1.3-0.2c-0.1,0-0.2,0-0.3,0.1L583.8,380.8z"/>
	<path class="st1" d="M300.7,381C300.7,381,300.7,381,300.7,381C300.7,381,300.7,381,300.7,381z"/>
	<path class="st1" d="M285.7,381.9c2.2,0,1-0.4,1.5-0.6c2.6-0.1,1.2,0.3,2.1,0.4c1.6-0.1,2.9-0.5,4.1-0.5c0.1,0.1,0.3,0.1,0.1,0.2
		c1.7-0.3,5.1-0.1,7.1-0.5c0.1,0,0.2,0.1,0.3,0.1c-0.3-0.2-0.4-0.4-0.3-0.5c1,0,1.8-0.3,2.2,0c-0.6,0-0.6,0.1-0.9,0.2l1-0.1
		c0.9,0.3-1.4,0.1-1.4,0.4c2-0.1,4.3-0.5,5.8-0.4c0.3,0.3-3.6,0.2-1.5,0.4l-2.4-0.1c1.8,0.5-1.4,0,0.2,0.5c3.1,0.1,3.5-0.2,6.6-0.2
		c0.7-0.2-0.2-0.3,0.5-0.5c4.4-0.4,3.5,0.8,6.7,0.3c0.8-0.2,1.2-0.7,3.5-0.5l-0.8,0.4c3,0,1.7-0.6,4.9-0.4c-0.6,0.2-2.4,0.2-1.9,0.2
		c2,0.3,1.4-0.2,3-0.3l0.3,0.3c3.2-0.1,6.7-0.4,10.3-0.5c-0.2,0.1-0.8,0.2,0,0.3c4.5-0.2,9.5-0.1,13.9,0.1l1.6-0.3
		c0.4,0,0.7,0.1,0.3,0.2c1.7,0.1,0.1-0.2,0.9-0.3c1,0,1.3,0.2,0.7,0.3c3-0.3,8.4-0.6,11.6-0.3l-0.6,0.1c2.4,0.1,2.7-0.6,5-0.4
		l-0.4,0.1c5.3,0.1,11.1-0.2,15.1,0.2c0.8-0.4,5.2,0.2,5.6-0.4c3,0.3,2.2,0.4,6.4,0.6c1.1,0,1.7-0.4,3.1-0.4l0,0.3l1.9-0.3l1,0.4
		l1.3-0.1c-0.5,0-1.1-0.1-1-0.2c2.1-0.2,5,0.2,5.1,0.3l4.9-0.3c-0.1,0.1-0.9,0.2-1.6,0.3c2.6-0.3,0.5,0.3,2.8,0
		c-0.3-0.1,0.2-0.2,0.2-0.2c1.2,0.2,3.9,0.2,5.9,0.1l-0.4,0.2c3.6,0,7.6-0.1,11.6-0.1c-1.5-0.1-1.1-0.5,0.1-0.5l0.5,0.3
		c0.8-0.2-1.2-0.1,0.3-0.4c1.5,0,1,0.4,0.1,0.5l1.8-0.1c0.1,0.1-0.3,0.1-0.4,0.3c0.8-0.2,3.2,0.3,4.3,0l0.1,0.1c4,0,5.9-0.1,9.2-0.2
		c0.1-0.3,1.4-0.2,2.3-0.5c2.4,0.1,5.1,0.3,8,0.3c2-0.1,0.6-0.2,1.5-0.4c0.2,0.3,3.1,0.2,1.6,0.4c3.5,0,4.5-0.1,8.9-0.3
		c-0.5-0.1-1-0.1-0.7-0.2c0.8,0,1.8,0.1,1.7,0.2l-0.2,0c5-0.4,11.5,0.7,15.4,0.2l-0.2,0l4.1-0.3c1.9,0-1.1,0.2,0.3,0.4
		c4.4-0.4,7,0.1,10.6-0.2c2.8,0.8,10,0,13.8,0.5l-0.2-0.2c1-0.2,1.2,0.1,1.9,0.1c-0.1-0.1-1.1-0.2-0.5-0.3
		c8.3-0.2,17.2,0.3,25.8,0.5c3.1,0.1,1.8-0.9,5.7-0.5l-1.1,0.3c6.3-0.4,12.9,0.1,19.1-0.2c-0.4,0.1-0.4,0.2-1,0.2
		c1.3,0.3,4.8,0.1,4.8-0.1c1,0,0.2,0.2,0.8,0.3c1.3,0.2,3.3-0.3,4,0c0.1,0-0.4,0.1-0.6,0.1c0.9-0.1,4,0.1,3.2-0.2
		c2.3,0.2,4.4-0.1,6.3,0.1c1.2-0.3,4,0.2,4.4-0.3c-0.2,0.5,4.1,0.4,5.5,0.2c-0.5,0.1,1.3,0.2,0.7,0.3c1.7,0,3.2-0.1,2.9-0.3
		c3.1,0.6,6.2-0.4,7.9,0.3c5-0.2,9.6-0.3,14-0.4c-0.2,0.4-4.9,0-4.8,0.5c4.2-0.1,6.7-0.5,10.9-0.3c1.1,0.1-0.6,0.2-1,0.3
		c4.2-0.1,8.2,0.2,12,0c0,0-0.4,0.1-0.8,0.1c0.7,0,1.7,0.1,1.6-0.1l-0.7,0c-1.2-0.3,3-0.6,3.1-0.7c-1.3,0.6,3.7,0.2,1.7,0.9
		c0.5,0,1.1-0.1,1-0.3c0.7,0.1,1,0.1,0.2,0.3c2.7-0.1,1.7-0.3,4.1-0.3c0,0.1-0.5,0.1-0.7,0.2c1.2-0.2,2.5-0.4,4.5-0.2
		c-0.1,0.1,0.1,0.1-0.5,0.1c3.5,0,6-0.4,9.8-0.2c-1.1,0.4,1.3,0.2,1.5,0.5l2.1-0.1l-0.8-0.2c1.8,0,3.4-0.2,5-0.1l-1.3,0.1l3.4,0
		l-1.9-0.2c1.8-0.2-0.2-0.4,2.2-0.3c-0.5,0,1.8,0.3,2.7,0.3h0c0.9,0,1.8-0.2,3.2-0.1c0.3,0.1-0.3,0.4-0.1,0.5c0.9-0.3,4.2,0,5.4-0.3
		c-0.4,0.1-0.4,0.3-0.3,0.3l0.7-0.2c0.8,0.1,1,0.1,0.8,0.3c2.5,0.1-0.8-0.5,2.2-0.2c-0.2,0-0.1,0.1-0.6,0.1c3,0.2,5.8-0.1,8.6,0.1
		c0.8,0.4-2.4,0.1-1.5,0.4c4,0,8.2-0.3,12.1-0.1l-0.7-0.1c0.5-0.5,2.9,0.3,4.8,0.1c-0.5,0-0.6,0.3-0.5,0.2c2.6,0.1,5.4,0,9.4-0.1
		l-0.5,0.1c1.6,0.2,4.1,0.2,5.8,0.2c0.5-0.1,1.5-0.1,0.9-0.3c5.2,0.9,9.9-0.2,14.5,0.5c-0.5,0-1.3,0.1-0.9,0.1l3.9,0
		c-0.3-0.2-0.5-0.2-1.3-0.4c0.5-0.1,1.6-0.2,2.6-0.2c-1.8,0.1,0,0.4,0.8,0.5c-0.1-0.1,0.1-0.1,0.1-0.2c2,0.5,0.4-0.5,3.1-0.1
		l-0.2,0.1c1,0,2-0.2,3.1-0.1c0.5,0.3-1.1,0.1-1.2,0.3c1.6,0,3.1-0.4,4.6-0.1c-0.7,0.1-1.6,0-2.3,0.1c1.6,0.4,1.7,0.3,2.9,0.4
		l-0.1,0l2.7,0.2l-0.7-0.1c2-0.7,4,0,6.7-0.4c-2.6,0.4-0.4,0.2-0.6,0.5c0.7,0.1,1.7,0.2,1.4,0.3c1.3-0.2,2.1,0.2,3.9-0.1
		c0.1,0.1,1.3,0,1.1,0.3c1.6,0-0.4-0.2-0.2-0.3c2.5-0.3,5.9,0.6,9.6,0.2c3.1-0.1,3.7-0.4,6.6-0.5c1,0.2-0.8,0.3-0.8,0.3
		c1.6,0.2,2.8,0.2,4.3,0.1c-0.3,0.1,0,0.2,0.5,0.3c1.2,0,0.8-0.3,2.4-0.1c-0.3,0.1-0.6,0.3-1.2,0.4c1.4-0.1,2.8-0.2,4.3-0.2
		c0.4,0.2-0.9,0.2-1.4,0.3c1.6,0,4.3,0,4.8-0.3l-1-0.1c0.6,0,0.3,0.2-0.1,0.3c-1.4,0.2-2-0.1-2.1-0.2l1,0c-1.1-0.6-4.2,0-6.3-0.1
		l0.9-0.4l-2.2,0.3c-0.5-0.1-0.8-0.4,0.3-0.4c-1.5-0.2-1.3,0.1-2.6-0.2c-0.1,0-0.1-0.1,0.1-0.1l-1.5,0.1c0.3-0.1-0.2-0.3,0.7-0.2
		c-2.6-0.3-4.3,0.2-5.2-0.1l0.2,0c-3.7,0-0.4,0.3-3.1,0.6l-1.8-0.8l-0.4,0.3c-0.4,0-1.1-0.1-1-0.2c-1.4,0.2,0.2,0.1-0.6,0.3
		c-1.8-0.3-5,0-5.4-0.5c-0.7,0.2,1.7,0.2-0.2,0.3c-0.5-0.5-2.2,0-3.9-0.2c0.5-0.3,2.1-0.1,0.4-0.4c-1,0.4-3.2-0.2-4.6-0.1
		c-0.1,0.4-3,0.1-5.4,0.1c0.2-0.1-4.4-0.3-6.6-0.5l0.1-0.1c-0.4,0.4-2.7,0.2-4.3,0.3c0.1-0.2,0.4-0.3,1.3-0.4l-1.5,0
		c-0.4,0.1-0.8,0.2-1.8,0.2l0.4-0.3c-2,0-4.1,0.2-6.8,0c-0.2,0.3,2.1,0.8-0.7,0.9c-0.1-0.1-0.2-0.4,0.5-0.4c-0.2,0-0.9,0.1-1.3,0
		l1.1-0.2c-1.2-0.1-0.6,0.2-1.6,0.1c0-0.2-0.7-0.2-0.6-0.3c0.2,0,0.8,0.1,1.2,0c-1.1-0.1-2.4-0.2-2.8-0.4c0.1,0.1,0,0.3-0.8,0.3
		c-2,0-0.7-0.3-1.9-0.4c-0.5,0.1-1.8,0-1.8,0.3c-0.6,0-0.7-0.2-0.9-0.2c-1.1,0.1-5-0.1-3.8,0.3l0.3,0c-0.1,0-0.1,0-0.2,0
		c0,0,0,0,0,0h0c-3.5,0-7.2-0.3-10.7-0.3l0-0.1c-2.1,0.1-4.6,0-6.1,0.2c-0.6,0-1.4-0.2-1.2-0.3c-1.6,0-1.8,0.1-4-0.1
		c1.6-0.1-0.5-0.2,1.6-0.1c-2-0.1-2.5-0.3-4.7-0.1c0.8-0.2-1.5-0.3-2.5-0.3l1.4,0.2c-1.1,0-2,0-3-0.1l0.5-0.3
		c-4.2-0.5-7.6,0.6-10.7-0.2c-1.1,0.2,2.3,0.2,1.3,0.5c-1.9-0.1-3.9-0.6-4.5-0.6c-2.6-0.2-2.5,0.4-5.2,0.3c0.4,0.1,0.7,0.4-1.4,0.5
		c-1.9-0.1-2.4-0.5-1.1-0.6c0.5,0,0.7,0,0.7,0.1c0.6,0,1.4-0.1,0.7-0.2l-0.3,0.1c-1-0.1-3.6-0.2-3-0.4c-1.5,0.1-0.6,0.2,0.5,0.3
		c-2.5-0.2-3.9-0.1-6.4-0.2c0.4,0.1,0.8,0.2,0.4,0.2c-3.7-0.2-1.6,0.2-4.2,0.2c-1.4-0.2,0.5-0.4-2-0.3c-1.6-0.1-0.3-0.3,0.3-0.4
		c-2.3,0.2-4.3-0.2-5.7-0.3l1.2-0.1c-0.7,0-1.3,0-1.9,0l0.7,0.2c-0.7-0.1-1.3-0.1-1.3-0.2c-0.7,0.1,0.6,0.4-0.9,0.6
		c-1-0.1-2.9,0.1-3.2-0.2c3,0.2-0.3-0.3,2.2-0.3c-0.5,0-1.1,0-1.8,0c-0.1,0,0.1-0.1,0.3-0.1c-2.9-0.3-1.3,0.3-4.3,0.3
		c0.4-0.2-0.7-0.3-1.2-0.3c1.2,0,0.6,0.3-0.5,0.4c-1.9-0.2-2.1,0.1-3.1,0l1.1,0.1c-0.4,0.2-1.3,0.1-2.7,0.2
		c-0.1-0.1,1.2-0.1,0.7-0.1c-1.5,0.3-3.3-0.4-5.4-0.2c-1-0.1-0.1-0.3-0.9-0.4c-2.3,0.2-2.5-0.3-4.9-0.1c0.7,0.2,0.8,0.2-0.9,0.4
		l4-0.1l-2.6,0.3c1.2,0,2.5-0.1,3.3-0.1c-1.2,0.2-1.1,0.1-0.5,0.3c-1.6-0.4-3.3,0.2-5.2-0.1l0.1-0.6c-2.9-0.3-5.1,0.2-8.8,0.1
		l1.2,0.1c-0.5,0.2-2.3,0-3.5,0.1c0.1-0.2-0.6-0.3-1.2-0.4c0.1,0.1-2.7,0-3.1,0.3l-1.7-0.3c-3-0.1-3.4,0.5-6.3,0.4
		c0.9-0.2-0.4-0.4,1.5-0.5c-1,0-1.8-0.1-1.8,0.1c-0.6-0.1-2.7,0.2-3.6,0c-0.4,0.1-0.5,0.3-1.6,0.3c-0.1,0,0-0.1,0-0.1
		c0,0.1-1.7,0.1-0.8,0.3c-3-0.6-8.3,0-10.9-0.6c-2.1,0-4.6,0.1-6.6,0.1c0.1-0.1,0-0.1,0.4-0.1c-2.6-0.2-1.6,0.6-4.6,0.3
		c-1.5-0.3,1.6-0.2,0.6-0.3c-0.4-0.7-3.6,0.1-5.6-0.3l0.5,0c-1.5-0.2-3.8,0.2-6.3,0.1c0,0,0.1-0.1,0-0.1c-1.7,0.3-5,0.4-7.4,0.5
		c0.8-0.2,1.1-0.1,0.6-0.4c-1.1,0,0.3,0.4-1.9,0.5c-0.7-0.1-2.3-0.3-2.5-0.5l2,0c-1-0.4-2.7,0-3.7-0.1l0.1-0.2
		c-3.1,0-3.2,0.4-6.6,0.4l0.3,0.1c-1.8,0.4-1.5-0.2-3.4,0.1l-0.6-0.4c-1.2,0.1-4.3,0.4-6.4,0.4c1.2-0.3,3.8-0.4,5.4-0.6
		c-1.2,0-4.1,0-4.7,0.2c0.5,0,1.1-0.1,1.6-0.1c-1.5,0.3-3.4,0.4-5.8,0.4c0.4-0.8-6.3-0.2-8-0.8c-4.3,0.3-8.4-0.1-13.4-0.1
		c1.8,0.6-1.4,0-1.1,0.6c-1.2,0-1.6,0-1.7,0l-3.5-0.4c-0.8-0.2,1.1-0.1,1-0.3c-2.5-0.1-1.1-0.3-2.7-0.4c0.3,0.2-0.9,0.3-2.3,0.2
		l2,0.3c-3.5,0.3-3-0.5-6.6-0.2l1.1-0.2c-1.8,0.1-6.7,0-8.5,0.5c-0.3-0.1-0.7-0.2,0.1-0.3c-4.4-0.1-9.7,0.5-13.1,0.2l0.3-0.1
		c-0.8,0-1.4,0.3-2.4,0.1c0.1-0.1,0.3-0.1,0-0.2c-0.4,0.1-2.2,0.3-3.2,0.2l0.9-0.2c-4.3-0.2-6.5,0.4-10.1,0.5c0-0.4-3.3-0.6-5-0.6
		l0.1-0.1c-5,0-8.4,0.4-13,0.6c-2.8-0.5-9.6-0.2-14.2-0.4c0.7,0.1-0.1,0.3-0.9,0.4c-1.1-0.1-3,0.3-2.8-0.1l0.4,0
		c-0.8-0.4-3-0.3-4.7-0.3l-0.3,0.5c-4.5-0.7-11.8,0.4-14.3-0.3c-1.1,0.1-2.4,0.1-3.5,0.3l0.1-0.3c-3-0.1-4.5-0.1-8.2,0l0.8-0.2
		c-2.1,0-2.6,0.8-4.6,0.9l-0.6-0.4c-3.7,0-7.4-0.3-11,0.1c0.1-0.1,0.2-0.2,0.8-0.2c-1.7,0-6.7-0.2-6,0.4c0-0.4-3.8,0-5.8,0.2
		l0.3-0.3c-1.7,0.4-1.7,0.5-4.1,0.6c-0.6,0-0.5-0.2,0.2-0.2c-1.8-0.1-1.4,0.3-3.7,0.2l0.8-0.2c-1.9,0-1.7,0.1-2.8,0.3
		c-1.2,0.1-3.6,0-3.9-0.3c-0.3,0.2-1.3,0.4-2.4,0.3c-0.2-0.1,0.3-0.2,0.5-0.2c-3.2-0.2-4.7,0.4-6.9,0.1c0-0.1-0.2-0.1-0.4-0.2
		c2.5,0,4.5,0,4.4,0c0-0.3-2-0.3-0.4-0.7c-1.6,0.2-4.4,0.7-6.4,0.6c-0.1,0-0.2,0-0.3-0.1l0.2,0c-0.5,0-0.9,0-1.3,0.1
		c-0.6,0-1-0.1-1.6-0.1c-0.2-0.2-2.3-0.1-3.3-0.1c0.1,0.3-1.2,0.3,0,0.5c-0.2,0,0.2,0,0.9-0.1c0.2,0,0.3,0,0.4,0c0,0,0,0-0.1,0
		c0.7,0,1.5,0,2.5-0.1c-0.8,0.2-1.6,0.3-2.8,0.1c-0.5,0.2-1.1,0.4-1.4,0.5c-1.4-0.4-4.1-0.6-4.4-0.8c-3.1,0.2-7.3,0.2-9.2,0.7
		c-0.9,0.1-1-0.1-1.3-0.2c0.5-0.1,1.1-0.1,1.4-0.1c-1.8,0.2-5.2,0.1-5.6,0.5c-2.2-0.1,1.2-0.4-1.8-0.3l0.4-0.1
		c-6-0.5-9.7,1.1-16.4,0.4c0.5,0,0.7,0.1,0.8,0.1c-7.6-0.2-15.6,0.5-23.1,0.2c-2.1-0.1-2.4,0.2-3.7,0.4l-0.5-0.3l-2.2,0.4
		c-3.1,0.3-5.5-0.6-9.4-0.1l0.5,0.2c-1.4,0-4.5,0.2-4.3,0c-0.1,0-0.5,0.2-1,0.1l0-0.2l-3.5,0.3c-2.7-0.1,0.4-0.6-3.6-0.6
		c-1.5,0.1-4.2,0.5-3.6,0.6c0.6,0,1.5,0.1,1.6,0.2l-1.4,0.1c-0.2,0.5-1.3,1,2.1,1.2l2.3-0.3l0.7,0.2l-1.9,0c1.1,0.2,1.8,0,2.6-0.2
		c0.2,0.1,0.5,0.2,1,0.2l2.3-0.5c0.3,0.2-1,0.4,0.5,0.5c1.1-0.2-1-0.4,0.7-0.6c1.1,0.2,0.8,0.4,2.1,0.2c0.2,0.1-0.1,0.2-0.6,0.3
		c1.2-0.2,3.1-0.1,3.6-0.4c1.2,0.2,3.9-0.1,3.8,0.3c0.4-0.1,2-0.4,3.1-0.4c-1.9,0.6,4,0,3.5,0.5c1.4-0.5,5.2-0.3,7.7-0.6
		c-0.1,0-0.4,0.1-0.6,0.1c1.4,0,1.9,0.1,2.8,0.2c0.2-0.4,2.4-0.5,3.6-0.8c1.8,0.4-1.1,0.5-0.5,0.8c-0.1-0.3,3-0.4,2.4-0.6
		c1.3,0.2,1.2,0.1,1.9,0.4c0.2-0.5,1.2-0.1,2.4-0.4c1.9,0.2,0.5,0.5,2.6,0.3C287.6,381.7,285.7,381.9,285.7,381.9z M336.4,380.4
		L336.4,380.4c-0.4,0-0.8,0-1,0C335.6,380.4,335.9,380.4,336.4,380.4z M340.7,380.3c-0.5,0-1.2,0-1.8,0c-0.2-0.1,0-0.2,0.4-0.2
		C339,380.2,340,380.3,340.7,380.3z M331.6,378.5c0.7,0,0.9,0,1,0.1c-0.3,0-0.7,0-1.2,0c0,0-0.1,0-0.1,0
		C331.4,378.6,331.5,378.5,331.6,378.5z"/>
	<path class="st1" d="M330.4,378.9c-0.1,0-0.2,0-0.3,0c0.1,0,0.3,0,0.4,0.1c0.1,0,0.2-0.1,0.2-0.1
		C330.6,378.9,330.5,378.9,330.4,378.9z"/>
	<path class="st1" d="M716.9,381L716.9,381C716.9,381,716.9,381,716.9,381C716.9,381,716.9,381,716.9,381z"/>
	<polygon class="st1" points="399.5,380.4 399.5,380.3 399.1,380.4 	"/>
	<path class="st1" d="M740.3,382.4c0,0,0.1,0.1,0.3,0.1C740.6,382.5,740.5,382.5,740.3,382.4z"/>
	<path class="st1" d="M750.5,382.7l1.4,0.1C751.3,382.8,750.8,382.7,750.5,382.7z"/>
	<path class="st1" d="M758.3,383c0.1,0,0.1-0.1,0.2-0.1l0,0L758.3,383z"/>
	<path class="st1" d="M634.3,381c-0.1,0-0.2,0-0.3,0C633.3,381.1,633.8,381.1,634.3,381z"/>
	<path class="st1" d="M671.2,380.9c-0.4,0-0.8,0.1-1.2,0.1C670.7,381.1,671.2,381.1,671.2,380.9z"/>
	<path class="st1" d="M593.1,380.9L593.1,380.9c-0.1,0-0.2,0-0.2,0L593.1,380.9z"/>
	<path class="st1" d="M668.3,381c0.7,0.1,1.2,0.1,1.7,0C669.5,381,668.8,381,668.3,381z"/>
	<path class="st1" d="M792,384l0.4,0c0,0,0,0,0,0L792,384z"/>
	<path class="st1" d="M792.5,384l0.4,0C792.7,384,792.5,384,792.5,384z"/>
	<path class="st1" d="M793.8,383.9l-0.9,0C793.2,384,793.6,384,793.8,383.9z"/>
	<path class="st1" d="M781.7,383.6l-0.1,0.1C781.7,383.7,781.7,383.7,781.7,383.6z"/>
	<path class="st1" d="M778.6,383.6c0.7,0,1.9,0.3,2.9,0.2l0.1-0.1C781.1,383.9,779.3,383.4,778.6,383.6z"/>
	<path class="st1" d="M765.5,382l2.6,0.1c-0.5-0.1-1.1-0.3,0.1-0.3C765,381.4,769,382.1,765.5,382z"/>
	<path class="st1" d="M757.4,381.6c1.4,0,0-0.2,0.1-0.2C756.5,381.5,756.3,381.5,757.4,381.6z"/>
	<path class="st1" d="M698.5,380.4l0.1-0.3C697.5,380.1,698.6,380.2,698.5,380.4z"/>
	<polygon class="st1" points="687.2,381.5 688.3,381.6 688.8,381.4 	"/>
	<polygon class="st1" points="680.6,379.5 681.1,379.5 679.2,379.6 	"/>
	<path class="st1" d="M581.6,378.3l0.3,0.3C582.7,378.6,582.9,378.2,581.6,378.3z"/>
	<path class="st1" d="M538.9,378.3c-0.5-0.2-1.7-0.3-2.4-0.1C537.5,378.2,538.4,378.3,538.9,378.3z"/>
	<polygon class="st1" points="410.8,377.8 411.7,377.7 410.1,377.8 	"/>
</g>
<g>
	<g id="IPAD" transform="translate(681.000000, 55.000000)" sketch:type="MSLayerGroup">
		<path id="bezel" sketch:type="MSShapeGroup" class="st2" d="M-79.2,299.6V183.7c0-4,3.3-7.3,7.3-7.3h177.7c4,0,7.3,3.3,7.3,7.3
			v115.8c0,4-3.3,7.3-7.3,7.3H-71.9C-75.9,306.9-79.2,303.6-79.2,299.6z"/>
		<path id="bezel-2" sketch:type="MSShapeGroup" class="st2" d="M-79.2,299.6V183.7c0-4,3.3-7.3,7.3-7.3h177.7c4,0,7.3,3.3,7.3,7.3
			v115.8c0,4-3.3,7.3-7.3,7.3H-71.9C-75.9,306.9-79.2,303.6-79.2,299.6z"/>
		<rect id="screen" x="-59.7" y="186.7" sketch:type="MSShapeGroup" class="st2" width="153.5" height="110.4">
		</rect>
		<circle id="lock" sketch:type="MSShapeGroup" class="st2" cx="-68.9" cy="241.9" r="4.9">
		</circle>
		<circle id="camera" sketch:type="MSShapeGroup" class="st2" cx="102.9" cy="241.3" r="1.8">
		</circle>
	</g>
	<path id="bezel_1_" sketch:type="MSShapeGroup" class="st2" d="M606.3,129.8h-301c-8.2,0-15.2,6.7-15.2,15v198h331.3v-198
		C621.5,136.6,614.5,129.8,606.3,129.8z"/>
	<circle id="webcam" sketch:type="MSShapeGroup" class="st3" cx="456.4" cy="141.4" r="2.4">
	</circle>
	<g id="bottom" transform="translate(0.000000, 351.000000)" sketch:type="MSShapeGroup">
		<path id="Shape" class="st2" d="M634.7,10.6H277c-18.6,0-31.1-6.4-31.1-9.1v-8.2c0-0.8,0.8-1.5,1.8-1.5H664c1,0,1.8,0.7,1.8,1.5
			v8.6C665.8,4,656.1,10.6,634.7,10.6z"/>
		<path id="Line" class="st2" d="M246.2,0.6h418.5"/>
	</g>
	<rect id="screen_1_" x="303.5" y="153.5" sketch:type="MSShapeGroup" class="st3" width="304" height="177.2">
	</rect>
	<path id="touchpad" sketch:type="MSShapeGroup" class="st3" d="M501.3,343.4v1.9c0,1.3-2.6,1.7-4.6,1.7h-81.7
		c-2.1,0-4.7-0.4-4.7-1.7v-1.9"/>
	<path class="st0" d="M729.7,184.8c-1.1,0-2.1,0.2-3.1,0.7c0-0.3,0-0.6,0-0.9c0-5.6-4.5-10.1-10.1-10.1c-1.3,0-2.6,0.3-3.7,0.7
		c-3-7.4-11.4-11.5-21.3-11.5c-11.9,0-21,7.5-21,15.1c0,0.5,0.1,1.1,0.2,1.6c-0.9-0.2-1.8-0.4-2.7-0.4c-5.6,0-10.1,4.5-10.1,10.1
		c0,5.2,4,9.5,9.1,10c0,0,0,0,0,0h0.9c0,0,0,0,0,0c0,0,0,0,0,0h60.4c0,0,9.5,0.5,9.3-7.7C737.8,188.5,733.8,184.8,729.7,184.8z"/>
	<g>
		<g>
			<g>
				<path class="st4" d="M456.4,205.2c-20.1,0-36.5,16.4-36.5,36.5s16.4,36.5,36.5,36.5c20.1,0,36.5-16.4,36.5-36.5
					S476.6,205.2,456.4,205.2z M446.5,234.8L446.5,234.8c0.4-0.3,0.5-0.6,0.5-1c-0.7-4.4-0.3-6.3-0.1-6.7c1.3-3.9,5.3-5.8,6.1-6.1
					c0.2-0.1,0.5-0.2,0.8-0.2l0.1,0l0.6,0l0,0l0.2,0c0.1,0,0.3,0,0.4-0.1l0.1,0c0.1,0,1.7,0.2,4,0.9l1.6,0.6c3,0.9,4.3,2.5,4.6,2.8
					c2.4,2.7,1.7,6.7,1.1,8.9c-0.1,0.3,0,0.5,0.1,0.7l0.1,0.2c0.2,0.2,0.3,1.1-0.2,3c-0.1,0.6-0.3,1.1-0.6,1.4
					c-0.1,0.1-0.2,0.3-0.2,0.5c-0.8,4.7-5,10-9.5,10c-3.8,0-8.1-4.8-8.8-10c0-0.2-0.1-0.4-0.2-0.5c-0.3-0.3-0.5-0.8-0.7-1.5
					C446.2,236.3,446.2,235.2,446.5,234.8z M438,255.2c0.2-0.2,1.1-1.3,2.9-2c1.6-0.5,5.6-1.8,7.8-3.4c0.1-0.1,0.2-0.2,0.3-0.2
					c0.2-0.2,0.5-0.6,0.9-0.9l0.2-0.2l0.2,0.2c1.9,1.8,4.1,2.8,6,2.8c2,0,4.2-0.9,6.1-2.6l0.2-0.1l0.4,0.2c0.4,0.3,1,0.8,1.3,0.9
					l0.4,0.2l0,0l0.2,0.1c0.4,0.2,0.8,0.4,1.2,0.7c0.5,0.2,0.9,0.4,1.3,0.5c0.3,0.1,2.1,0.7,4.2,1.7l0.4,0.1c2,0.8,2.9,1.8,3,1.9
					c2.4,3.5,3.3,10.1,3.6,13.8c-6.2,5-14,7.8-22,7.8c-8,0-15.8-2.8-22-7.8C434.8,265.2,435.7,258.7,438,255.2z"/>
			</g>
		</g>
		<g>
			<path class="st5" d="M502,262.1l-3.9-3.9c-0.5-0.5-1.2-0.5-1.7,0L480,274.6l-6.9-6.9c-0.5-0.5-1.2-0.5-1.7,0l-3.9,3.9
				c-0.5,0.5-0.5,1.2,0,1.7l11.7,11.7c0.2,0.2,0.5,0.3,0.8,0.3c0.3,0,0.6-0.1,0.8-0.3l21.1-21.1c0.2-0.2,0.3-0.5,0.3-0.8
				C502.3,262.7,502.2,262.4,502,262.1z"/>
		</g>
		<g>
			<g>
				<path class="st6" d="M688.7,277.6c-10.3,0-18.7,8.4-18.7,18.7s8.4,18.7,18.7,18.7c10.3,0,18.7-8.4,18.7-18.7
					S699,277.6,688.7,277.6z M683.6,292.8L683.6,292.8c0.2-0.2,0.3-0.3,0.2-0.5c-0.4-2.3-0.1-3.2,0-3.5c0.7-2,2.7-3,3.1-3.1
					c0.1,0,0.2-0.1,0.4-0.1l0,0l0.3,0l0,0l0.1,0c0.1,0,0.1,0,0.2,0l0.1,0c0.1,0,0.9,0.1,2.1,0.5l0.8,0.3c1.5,0.4,2.2,1.3,2.4,1.5
					c1.2,1.4,0.9,3.5,0.6,4.6c0,0.1,0,0.3,0.1,0.4l0.1,0.1c0.1,0.1,0.2,0.6-0.1,1.6c-0.1,0.3-0.2,0.5-0.3,0.7
					c-0.1,0.1-0.1,0.2-0.1,0.2c-0.4,2.4-2.6,5.1-4.9,5.1c-1.9,0-4.1-2.5-4.5-5.1c0-0.1-0.1-0.2-0.1-0.3c-0.2-0.2-0.3-0.4-0.3-0.8
					C683.4,293.5,683.4,293,683.6,292.8z M679.2,303.2c0.1-0.1,0.6-0.7,1.5-1c0.8-0.3,2.9-0.9,4-1.8c0.1,0,0.1-0.1,0.1-0.1
					c0.1-0.1,0.3-0.3,0.5-0.5l0.1-0.1l0.1,0.1c1,0.9,2.1,1.4,3.1,1.4c1.1,0,2.1-0.5,3.1-1.3l0.1-0.1l0.2,0.1
					c0.2,0.2,0.5,0.4,0.7,0.5l0.2,0.1l0,0l0.1,0.1c0.2,0.1,0.4,0.2,0.6,0.3c0.2,0.1,0.4,0.2,0.6,0.3c0.2,0.1,1.1,0.4,2.2,0.9
					l0.2,0.1c1,0.4,1.5,0.9,1.5,1c1.2,1.8,1.7,5.2,1.9,7.1c-3.2,2.6-7.2,4-11.3,4c-4.1,0-8.1-1.4-11.3-4
					C677.6,308.4,678,305,679.2,303.2z"/>
			</g>
		</g>
		<g>
			<path class="st5" d="M712.1,306.8l-2-2c-0.2-0.2-0.6-0.2-0.9,0l-8.4,8.4l-3.6-3.6c-0.2-0.2-0.6-0.2-0.9,0l-2,2
				c-0.2,0.2-0.2,0.6,0,0.9l6,6c0.1,0.1,0.3,0.2,0.4,0.2c0.2,0,0.3-0.1,0.4-0.2l10.8-10.8c0.1-0.1,0.2-0.3,0.2-0.4
				C712.2,307.1,712.2,306.9,712.1,306.8z"/>
		</g>
	</g>
	<path class="st7" d="M315.7,300c8.2-7.5,11.4,0.4,14.5-3.2C330.3,296.8,324.6,306.3,315.7,300z M315.9,300.2c0,0,0.1,0.4,6.1,0
		c6-0.4,8.2-3.3,8.2-3.3c-2.5,2.7-8.3,3.6-14.3,2.9l-0.2,0.2L315.9,300.2z"/>
</g>
<path class="st0" d="M1061.2,204.7c-1.7,0-3.3,0.4-4.8,1c0-0.5,0.1-0.9,0.1-1.4c0-8.7-7-15.7-15.7-15.7c-2,0-4,0.4-5.8,1.1
	c-4.7-11.5-17.7-18-33.2-18c-18.6,0-32.8,11.8-32.8,23.6c0,0.9,0.1,1.7,0.2,2.5c-1.3-0.4-2.7-0.6-4.2-0.6c-8.7,0-15.7,7-15.7,15.7
	c0,8.2,6.3,14.9,14.3,15.6c0,0,0,0,0,0.1h1.4c0,0,0,0,0,0c0,0,0,0,0,0h94.4c0,0,14.8,0.8,14.6-12
	C1073.9,210.3,1067.6,204.7,1061.2,204.7z"/>
<path class="st7" d="M250.1,262.3c5.1-15.1,18.1-8.3,19.2-14.8C269.3,247.5,270.1,262.7,250.1,262.3z M250.6,262.3
	c0,0,0.5,0.4,9.3-4.6c8.9-5.1,9.4-10,9.4-10c-1,5.1-9.3,10.5-19.2,14.4v0.3H250.6z"/>
<path class="st7" d="M217.2,234.3c3.6,5.8,13.4-4.1,24.1,8.7C222.6,248.9,217.2,234.3,217.2,234.3z M241.3,243l-0.2-0.2
	c-10.9-1-20.9-3.8-23.8-8.4c0,0,2.6,4.6,12.8,7c10.3,2.4,10.7,1.9,10.7,1.9L241.3,243z"/>
<path class="st7" d="M230.9,208.6c5.8-13.8,17.5-7,19-13C250,195.6,249.6,209.9,230.9,208.6z M231.5,208.6c0,0,0.5,0.4,9.1-3.9
	c8.6-4.3,9.5-9,9.5-9c-1.4,4.8-9.5,9.4-19,12.6l-0.1,0.3H231.5z"/>
<path class="st7" d="M204.9,194.7c3.8,5.2,12.2-4.5,23.2,7C211,208,204.9,194.7,204.9,194.7z M228.2,201.7l-0.2-0.3
	c-10.3-0.3-19.8-2.4-22.9-6.7c0,0,2.7,4.2,12.5,5.9c9.7,1.7,10.1,1.2,10.1,1.2L228.2,201.7z"/>
</svg>
