<?xml version="1.0" encoding="utf-8"?>
<!-- Generator: Adobe Illustrator 19.1.0, SVG Export Plug-In . SVG Version: 6.00 Build 0)  -->
<svg version="1.1" id="Capa_1" xmlns="http://www.w3.org/2000/svg" xmlns:xlink="http://www.w3.org/1999/xlink" x="0px" y="0px"
	 viewBox="22 -23.1 612 612" style="enable-background:new 22 -23.1 612 612;" xml:space="preserve">
<path d="M631.6,273.5c-21.6-39.8-50.8-74.8-85.6-103.2l64.3-42.4l-28.5-43.3L500,138.6c-50.6-29.1-109.3-45.8-171.9-45.8
	C197,92.8,82.9,165.9,24.4,273.5c-3.2,5.9-3.2,13,0,18.9C46,332.1,75.2,367.2,110,395.5l-64.3,42.4l28.5,43.3l81.8-53.9
	c50.6,29.1,109.3,45.8,171.9,45.8c131.1,0,245.1-73.1,303.6-180.7C634.8,286.5,634.8,279.4,631.6,273.5z M182.1,282.9
	c0-80.6,65.3-145.8,145.9-145.8c41.6,0,79,17.4,105.6,45.2L371.9,223c-12.3-9-27.5-14.4-43.9-14.4c-6.1,0-12.1,0.7-17.8,2.1
	c5.8,6.8,9.4,15.6,9.4,25.2c0,21.3-17.3,38.6-38.6,38.6c-9.6,0-18.4-3.5-25.2-9.4c-1.4,5.7-2.1,11.7-2.1,17.8
	c0,5.8,0.7,11.3,1.9,16.7l-61.8,40.7C186.3,322.7,182.1,303.3,182.1,282.9z M328,428.8c-41.6,0-79-17.4-105.6-45.2l61.8-40.7
	c12.3,9,27.5,14.3,43.8,14.3c41,0,74.3-33.3,74.3-74.3c0-5.7-0.7-11.3-1.9-16.6l61.8-40.7c7.5,17.6,11.7,37,11.7,57.3
	C473.9,363.4,408.6,428.8,328,428.8z"/>
</svg>
