<?xml version="1.0" encoding="utf-8"?>
<!-- Generator: Adobe Illustrator 19.1.0, SVG Export Plug-In . SVG Version: 6.00 Build 0)  -->
<svg version="1.1" id="Capa_1" xmlns="http://www.w3.org/2000/svg" xmlns:xlink="http://www.w3.org/1999/xlink" x="0px" y="0px"
	 viewBox="6 -206 612 612" style="enable-background:new 6 -206 612 612;" xml:space="preserve">
<g>
	<g>
		<path d="M615.7,109.4c3.2-5.9,3.2-13,0-18.9C557.2-17.1,443.1-90.1,312-90.1S66.8-17.1,8.3,90.6c-3.2,5.9-3.2,13,0,18.9
			c58.5,107.6,172.5,180.7,303.6,180.7S557.2,217.1,615.7,109.4z M311.9,245.8c-80.6,0-145.9-65.3-145.9-145.9
			S231.4-45.9,311.9-45.9S457.8,19.4,457.8,99.9S392.5,245.8,311.9,245.8z"/>
		<path d="M311.9,25.6c-6.1,0-12.1,0.7-17.8,2.1c5.8,6.8,9.4,15.6,9.4,25.2c0,21.3-17.3,38.6-38.6,38.6c-9.6,0-18.4-3.5-25.2-9.4
			c-1.4,5.7-2.1,11.7-2.1,17.8c0,41.1,33.3,74.3,74.3,74.3s74.3-33.3,74.3-74.3S353,25.6,311.9,25.6z"/>
	</g>
</g>
</svg>
