<?xml version="1.0" encoding="utf-8"?>
<!-- Generator: Adobe Illustrator 18.0.0, SVG Export Plug-In . SVG Version: 6.00 Build 0)  -->
<!DOCTYPE svg PUBLIC "-//W3C//DTD SVG 1.1//EN" "http://www.w3.org/Graphics/SVG/1.1/DTD/svg11.dtd">
<svg version="1.1" id="Calque_1" xmlns="http://www.w3.org/2000/svg" xmlns:xlink="http://www.w3.org/1999/xlink" x="0px" y="0px"
	 viewBox="0 0 100 100" enable-background="new 0 0 100 100" xml:space="preserve">
<g>
	<g>
		<path fill="#F25D59" d="M53.4,97.8c-1.9,1.1-5,1.1-6.9,0L10.2,77c-1.9-1.1-3.5-3.8-3.5-6l0.1-41.8c0-2.2,1.6-4.9,3.5-6l36.3-21
			c1.9-1.1,5-1.1,6.9,0L89.8,23c1.9,1.1,3.5,3.8,3.5,6l-0.1,41.8c0,2.2-1.6,4.9-3.5,6L53.4,97.8z"/>
	</g>
	<g>
		<path fill="#FFFFFF" d="M33.8,18.3v63.4h2.5V55.2h12.7c3.3,0,6.3-0.5,8.9-1.4c2.7-0.9,5-2.2,6.9-3.8c1.9-1.6,3.4-3.6,4.4-5.9
			c1-2.3,1.6-4.7,1.6-7.4c0-6.1-1.9-10.7-5.6-13.8c-3.7-3.1-9.1-4.6-16.3-4.6H33.8z M36.2,53.2V20.3h12.7c6.5,0,11.3,1.4,14.5,4.2
			c3.2,2.8,4.8,6.9,4.8,12.2c0,2.3-0.5,4.5-1.4,6.5c-0.9,2-2.2,3.8-3.9,5.2c-1.7,1.5-3.7,2.6-6.1,3.5c-2.4,0.8-5.1,1.3-8,1.3H36.2z"
			/>
	</g>
</g>
</svg>
