<svg version="1.1"
	 xmlns="http://www.w3.org/2000/svg" xmlns:xlink="http://www.w3.org/1999/xlink" xmlns:a="http://ns.adobe.com/AdobeSVGViewerExtensions/3.0/"
	 x="0px" y="0px" width="63.4px" height="76.1px" viewBox="0 0 63.4 76.1" style="enable-background:new 0 0 63.4 76.1;"
	 xml:space="preserve">
<defs>
</defs>
<path d="M36.5,27.3c2.5,2.9,2.1,7.3-0.8,9.7s-7.3,2.1-9.7-0.8s-2.1-7.3,0.8-9.7S34,24.4,36.5,27.3z M55.9,11
	C50,4.1,41.7,0.4,33.7,0v12.1c5,0.4,9.5,2.7,13,6.8c7,8.2,5.9,20.6-2.4,27.6L40,50.1l7.8,9.2l4.4-3.7C65.5,44.3,67.3,24.3,55.9,11z
	 M27.1,56.2L16.9,44.3c-7-8.2-6.3-20.5,1.9-27.6c3.3-2.8,6.9-4.3,10.9-4.6V0c-6,0.4-13.2,2.9-18.7,7.6C-2.3,19-3.7,38.9,7.7,52.2
	l4.8,5.5l15.7,18.4c5.1-4.3,5.7-12,1.3-17L27.1,56.2z"/>
</svg>
