<?xml version="1.0" encoding="iso-8859-1"?>
<!-- Generator: Adobe Illustrator 16.0.0, SVG Export Plug-In . SVG Version: 6.00 Build 0)  -->
<!DOCTYPE svg PUBLIC "-//W3C//DTD SVG 1.1//EN" "http://www.w3.org/Graphics/SVG/1.1/DTD/svg11.dtd">
<svg version="1.1" id="Capa_1" xmlns="http://www.w3.org/2000/svg" xmlns:xlink="http://www.w3.org/1999/xlink" x="0px" y="0px"
	 width="122.958px" height="122.958px" viewBox="0 0 122.958 122.958" style="enable-background:new 0 0 122.958 122.958;"
	 xml:space="preserve">
<g>
	<g>
		<circle cx="43.309" cy="86.215" r="7.571"/>
		<path d="M48.343,95.628c-0.127-0.078-0.262-0.135-0.395-0.189c-0.844-0.564-1.79-0.977-2.756-1.213l-1.885,1.898l-1.829-1.92
			c-0.006,0.002-0.013,0.002-0.018,0.004c-0.985,0.233-1.952,0.656-2.81,1.231c-0.131,0.056-0.263,0.11-0.388,0.188
			c-2.335,1.432-7.658,4.707-9.242,10.721c-1.585-6.014-6.908-9.289-9.243-10.721c-0.128-0.078-0.261-0.135-0.394-0.189
			c-0.844-0.564-1.79-0.977-2.757-1.213l-1.886,1.898l-1.827-1.92c-0.008,0.002-0.013,0.002-0.018,0.004
			c-0.987,0.233-1.952,0.656-2.81,1.231c-0.133,0.056-0.265,0.11-0.388,0.188c-2.887,1.771-10.334,6.35-9.654,15.433h5.926
			c-0.225-2.077,0.196-3.778,1.022-5.215v5.215h7.699l-1.794-2.453l1.826-12.204h0.035l1.825,12.204l-1.792,2.453h7.697v-5.199
			c0.821,1.433,1.238,3.132,1.015,5.199h5.104h0.82h5.105c-0.226-2.077,0.195-3.778,1.023-5.215v5.215h7.697l-1.793-2.453
			l1.826-12.204h0.035l1.826,12.204l-1.792,2.453h7.696v-5.199c0.822,1.433,1.238,3.132,1.014,5.199h5.928
			C58.675,101.978,51.228,97.399,48.343,95.628z"/>
		<circle cx="14.744" cy="86.215" r="7.571"/>
		<circle cx="72.78" cy="86.215" r="7.571"/>
		<path d="M77.815,95.628c-0.126-0.078-0.261-0.135-0.395-0.189c-0.842-0.564-1.788-0.977-2.755-1.213l-1.886,1.898l-1.827-1.92
			c-0.008,0.002-0.014,0.002-0.02,0.004c-0.985,0.234-1.951,0.657-2.81,1.232c-0.131,0.057-0.264,0.109-0.387,0.188
			c-2.887,1.771-10.336,6.351-9.654,15.434h5.926c-0.226-2.077,0.194-3.777,1.021-5.215v5.215h7.697l-1.792-2.453l1.825-12.204
			h0.035l1.826,12.204l-1.792,2.453h7.696v-5.199c0.821,1.434,1.238,3.133,1.016,5.199h5.925
			C88.149,101.978,80.702,97.399,77.815,95.628z"/>
		<circle cx="58.509" cy="76.824" r="7.815"/>
		<path d="M63.889,86.651c-0.061-0.037-0.122-0.073-0.181-0.112c-0.132-0.078-0.271-0.136-0.407-0.194
			c-0.871-0.58-1.848-1.009-2.845-1.253l-1.946,1.962l-1.888-1.98c-0.006,0-0.013,0-0.02,0.002
			c-1.017,0.242-2.014,0.679-2.899,1.271c-0.135,0.06-0.271,0.114-0.399,0.192c-0.222,0.139-0.478,0.297-0.746,0.465
			c-0.166,2.983-1.76,5.588-4.126,7.125c0.145,0.082,0.292,0.162,0.431,0.252c0.158,0.068,0.313,0.146,0.464,0.238
			c1.729,1.062,4.569,2.6,7.131,5.773l0.149-0.453l1.885-12.598h0.037c0,0,1.85,12.598,1.884,12.598
			c2.407-3.182,5.059-4.303,6.721-5.32c0.161-0.101,0.322-0.176,0.458-0.236c0.143-0.092,0.292-0.174,0.438-0.26
			C65.577,92.527,63.94,89.782,63.889,86.651z"/>
		<path d="M19.869,94.126c0.146,0.084,0.293,0.164,0.432,0.254c0.159,0.069,0.312,0.146,0.462,0.238
			c1.472,0.9,4.124,2.529,6.389,5.117l1.854-12.396h0.037l1.885,12.599l6.733-5.319c0.162-0.102,0.325-0.177,0.461-0.236
			c0.143-0.092,0.292-0.174,0.438-0.258c-2.452-1.597-4.086-4.34-4.141-7.463c-0.065-0.041-0.138-0.086-0.198-0.123
			c-0.131-0.08-0.269-0.137-0.406-0.195c-0.87-0.58-1.849-1.008-2.845-1.252l-1.946,1.961l-1.888-1.98c-0.006,0-0.013,0-0.019,0.002
			c-1.018,0.242-2.015,0.68-2.899,1.271c-0.066,0.027-0.13,0.062-0.195,0.095c0,0.022,0.005,0.042,0.005,0.062
			C24.026,89.695,22.367,92.505,19.869,94.126z"/>
		<circle cx="29.022" cy="76.824" r="7.815"/>
		<circle cx="101.631" cy="19.508" r="10.952"/>
		<path d="M108.918,33.127c-0.186-0.113-0.381-0.194-0.573-0.275c-1.22-0.814-2.588-1.412-3.985-1.755l-2.727,2.747l-2.646-2.778
			c-0.009,0.002-0.018,0.004-0.026,0.006c-1.432,0.342-2.832,0.956-4.075,1.793c-0.142,0.061-0.287,0.111-0.424,0.189
			c-1.32,0.426-5.111-0.002-11.279-1.263c0.412-1.335,1.092-3.074,1.834-4.638c0.434,0.396,0.958,0.751,1.555,1.033
			c2.193,1.031,4.524,0.692,5.206-0.756c0.683-1.448-0.544-3.46-2.736-4.491c-1.479-0.697-3.016-0.761-4.071-0.287
			c-0.405-0.646-0.985-1.194-1.722-1.555c-0.859-0.424-1.793-0.524-2.666-0.358l-6.276-2.952l-0.347,0.734l-3.267-1.535
			l-0.327,0.698l3.266,1.537l-0.425,0.898l4.77,2.242c-0.157,0.209-0.298,0.434-0.419,0.678c-3.086,6.283-3.979,10.854-2.656,13.58
			c0.725,1.49,2.063,2.542,3.67,2.888l0.834,0.178c4.404,0.949,8.031,1.617,11.021,1.876v23.231c0,1.146,0.223,2.211,0.611,3.193
			c-0.03,0.221-0.052,0.443-0.052,0.672l0.004,40.721c0,2.773,2.249,5.023,5.025,5.023c2.775,0,5.025-2.251,5.025-5.025
			l-0.005-34.944c0.199,0.01,0.397,0.024,0.601,0.024c0.038,0,0.076-0.004,0.116-0.004l-0.002,34.924
			c0,2.774,2.251,5.025,5.025,5.025s5.025-2.251,5.025-5.025l0.002-40.019c0.307,0.334,0.672,0.626,1.093,0.856
			c0.646,0.352,1.343,0.518,2.028,0.518c1.508,0,2.968-0.803,3.739-2.221C130.655,46.463,114.294,36.426,108.918,33.127z
			 M101.659,55.522h-0.055l-2.641-3.615l2.641-17.657h0.055l2.641,17.657L101.659,55.522z M112.842,60.981V47.933
			C114.691,51.162,115.145,55.305,112.842,60.981z"/>
	</g>
</g>
<g>
</g>
<g>
</g>
<g>
</g>
<g>
</g>
<g>
</g>
<g>
</g>
<g>
</g>
<g>
</g>
<g>
</g>
<g>
</g>
<g>
</g>
<g>
</g>
<g>
</g>
<g>
</g>
<g>
</g>
</svg>
