<?xml version="1.0" encoding="utf-8"?>
<!-- Generator: Adobe Illustrator 19.2.1, SVG Export Plug-In . SVG Version: 6.00 Build 0)  -->
<svg version="1.1" id="Capa_1" xmlns="http://www.w3.org/2000/svg" xmlns:xlink="http://www.w3.org/1999/xlink" x="0px" y="0px"
	 viewBox="0 0 46 46" style="enable-background:new 0 0 46 46;" xml:space="preserve">
<path d="M23,1.5C11.2,1.5,1.5,11.2,1.5,23S11.2,44.5,23,44.5S44.5,34.8,44.5,23S34.8,1.5,23,1.5z M4.1,23c0-5.1,2.1-9.8,5.4-13.2
	l24.3,28.7c-3.1,2.2-6.8,3.4-10.8,3.4C12.6,41.9,4.1,33.4,4.1,23z M35.7,36.9L11.3,8.2c3.2-2.6,7.3-4.1,11.7-4.1
	c10.4,0,18.9,8.5,18.9,18.9C41.9,28.5,39.5,33.5,35.7,36.9z"/>
</svg>
