<?xml version="1.0" encoding="utf-8"?>
<!-- Generator: Adobe Illustrator 19.2.1, SVG Export Plug-In . SVG Version: 6.00 Build 0)  -->
<svg version="1.1" id="Capa_1" xmlns="http://www.w3.org/2000/svg" xmlns:xlink="http://www.w3.org/1999/xlink" x="0px" y="0px"
	 viewBox="0 0 46 46" style="enable-background:new 0 0 46 46;" xml:space="preserve">
<g id="Delete_1_">
	<g>
		<path d="M34.1,12.9l-1.1-1.1c-0.9-0.9-2.3-0.9-3.2,0L23,18.7l-6.8-6.8c-0.9-0.9-2.3-0.9-3.2,0l-1.1,1.1c-0.9,0.9-0.9,2.3,0,3.2
			l6.8,6.8l-6.8,6.8c-0.9,0.9-0.9,2.3,0,3.2l1.1,1.1c0.9,0.9,2.3,0.9,3.2,0l6.8-6.8l6.8,6.8c0.9,0.9,2.3,0.9,3.2,0l1.1-1.1
			c0.9-0.9,0.9-2.3,0-3.2L27.3,23l6.8-6.8C35,15.3,35,13.8,34.1,12.9z"/>
	</g>
</g>
</svg>
