<?xml version="1.0" encoding="utf-8"?>
<!-- Generator: Adobe Illustrator 19.2.1, SVG Export Plug-In . SVG Version: 6.00 Build 0)  -->
<svg version="1.1" id="Capa_1" xmlns="http://www.w3.org/2000/svg" xmlns:xlink="http://www.w3.org/1999/xlink" x="0px" y="0px"
	 viewBox="0 0 488.7 488.7" style="enable-background:new 0 0 488.7 488.7;" xml:space="preserve">
<g>
	<path d="M401.4,136.4l28.8-39.1l-11.6-11.6l-15.8-15.8l-11.6-11.6l-39.1,28.8c-21.7-14.8-46.4-25.4-73.2-30.5l-7.2-47.9h-16.5H233
		h-16.5l-7.2,47.9c-26.7,4.9-51.7,15.5-73.2,30.5L97.1,58.3L85.6,69.9L69.7,85.7L58.2,97.3L87,136.4c-14.8,21.5-25.3,46.3-30.1,73.2
		l-48.2,7.3v16.5v22.3v16.5l48.4,7.3c5.1,26.6,15.5,51.3,30.3,72.7l-29.2,39.3L69.7,403l15.8,15.8l11.6,11.6l39.6-29.2
		c21.5,14.7,46.1,25.1,72.7,30l7.3,48.7h16.5h22.3H272l7.3-48.7c26.6-4.9,51.2-15.3,72.7-30l39.6,29.2l11.6-11.6L419,403l11.6-11.6
		L401.4,352c14.8-21.5,25.3-46.1,30.3-72.7l48.4-7.3v-16.5v-22.3v-16.5l-48.2-7.3C426.6,182.8,416.2,158.1,401.4,136.4z
		 M244.3,394.8c-83.1,0-150.6-67.5-150.6-150.6S161.2,93.7,244.3,93.7s150.6,67.5,150.6,150.6C394.7,327.4,327.4,394.8,244.3,394.8z
		"/>
	<path d="M327.2,289.1c-25.7-6.5-46.6-21.2-46.6-21.2l-16.3,51.5l-3.1,9.6v-0.2l-2.6,8.1l-8.6-24.3c21.7-30.3-5.7-29.2-5.7-29.2
		s-27.5-1.1-5.7,29.2l-8.6,24.6l-2.6-8.3l-19.4-61.1c0,0-20.9,14.7-46.6,21.2c-12.9,3.3-17.4,14.2-18.9,24.4
		c23,31.8,60.1,51.5,101.5,51.5c9.5,0,18.9-1.1,28.4-3.3c30-6.8,55.9-24.1,73.8-48.9C344.5,302.8,339.8,292.2,327.2,289.1z"/>
	<path d="M201.1,233.7c2.3,14.3,13.2,32.6,31.5,39.1c7.5,2.6,15.6,2.6,23.1,0c17.9-6.5,29.3-24.6,31.6-38.9c2.4-0.2,5.5-3.6,9-15.6
		c4.7-16.5-0.3-18.9-4.6-18.6c0.8-2.3,1.5-4.6,1.8-6.8c7.2-42.7-14-44.3-14-44.3s-3.4-6.7-12.7-11.7c-6.2-3.6-14.7-6.5-26.1-5.5
		c-3.6,0.2-7.2,0.8-10.4,2l0,0c-4.2,1.5-8,3.4-11.4,5.9c-4.2,2.6-8.1,6-11.7,9.8c-5.5,5.7-10.6,13-12.7,22.3
		c-1.8,6.8-1.5,14,0.2,21.7l0,0c0.5,2.3,1,4.6,1.8,6.8c-4.2-0.3-9.1,2.1-4.6,18.6C195.5,230.1,198.6,233.5,201.1,233.7z"/>
</g>
</svg>
