<?xml version="1.0" encoding="utf-8"?>
<!-- Generator: Adobe Illustrator 19.2.1, SVG Export Plug-In . SVG Version: 6.00 Build 0)  -->
<svg version="1.1" id="Layer_1" xmlns="http://www.w3.org/2000/svg" xmlns:xlink="http://www.w3.org/1999/xlink" x="0px" y="0px"
	 viewBox="0 0 100 100" style="enable-background:new 0 0 100 100;" xml:space="preserve">
<style type="text/css">
	.st0{fill:#FFFFFF;}
</style>
<g id="Layer_1_1_">
</g>
<g id="Layer_2">
	<path class="st0" d="M97.6,38c0,14.1-15.9,12.2-15.9,23.7v4h-8v-4.4c0-14.8,15.5-13.3,15.5-22.8c0-4.8-3.4-7.6-8.9-7.6
		c-4.4,0-8.6,1.9-12.2,6.3L62.5,33c5-5.9,11-8.7,18.3-8.7C91.8,24.3,97.6,31,97.6,38z M84,80.8c0,3.4-2.6,6.2-6.2,6.2
		c-3.4,0-6.1-2.7-6.1-6.2c0-3.3,2.6-6.1,6.1-6.1C81.4,74.8,84,77.5,84,80.8z M58,24.2c0,6.3-4.9,11.4-11.4,11.4
		c-6.3,0-11.2-5-11.2-11.4C35.4,18,40.3,13,46.6,13C53.1,13,58,18,58,24.2z M17.5,52.4c0,4.2-3.3,7.6-7.6,7.6
		c-4.2,0-7.5-3.4-7.5-7.6c0-4.1,3.3-7.5,7.5-7.5C14.3,44.9,17.5,48.3,17.5,52.4z"/>
</g>
</svg>
