<?xml version="1.0" encoding="utf-8"?>
<!-- Generator: Adobe Illustrator 19.2.1, SVG Export Plug-In . SVG Version: 6.00 Build 0)  -->
<svg version="1.1" id="Layer_1" xmlns="http://www.w3.org/2000/svg" xmlns:xlink="http://www.w3.org/1999/xlink" x="0px" y="0px"
	 viewBox="0 0 512 512" style="enable-background:new 0 0 512 512;" xml:space="preserve">
<g>
	<path d="M496.9,403.7L496.9,403.7V298.8L483.1,216H351.6l42.7,32v50.6l-27.6-20.4v10h-8.2v115.5H350V277.2h8.2V262h-12.6
		l-95.9-70.5l-92.6,72.3h-11.2v15.2h9.2v124.8h-9V290h-9.2v-6.4l-19.6,16.3v-51.6l39.3-32.2h-136L6.7,298.8v104.9H0v39.7h512v-39.7
		H496.9z M67.4,383.3H21.6v-65h45.7V383.3z M132.1,383.3H86.3v-65h45.7V383.3z M251.4,222.5c10,0,18.1,8.1,18.1,18.1
		c0,10-8.1,18.1-18.1,18.1c-10,0-18.1-8.1-18.1-18.1C233.3,230.6,241.4,222.5,251.4,222.5z M325.1,403.7h-10V289.5H185.1v114.2H176
		V278.9h8.7V273h134.6v4.2h5.7V403.7z M412.5,380.7h-45.7v-65h45.7V380.7z M477.3,380.7h-45.7v-65h45.7V380.7z M250.1,148.6
		l135.7,101.5V279L248.5,177.4L126.3,279v-28.9L250.1,148.6"/>
</g>
</svg>
