<?xml version="1.0" encoding="utf-8"?>
<!-- Generator: Adobe Illustrator 19.2.1, SVG Export Plug-In . SVG Version: 6.00 Build 0)  -->
<svg version="1.1" id="Capa_1" xmlns="http://www.w3.org/2000/svg" xmlns:xlink="http://www.w3.org/1999/xlink" x="0px" y="0px"
	 viewBox="0 0 536.1 536.1" style="enable-background:new 0 0 536.1 536.1;" xml:space="preserve">
<path d="M410,360.8c0-39.2-32.7-73-80-89.1L268,333.5l-62-62c-47.4,16.1-80.1,49.8-80.1,89h0c0,39.3,7.8,75.9,21.2,107.2h241.8
	c13.3-31.2,21.1-67.8,21.1-107.1h-0.2L410,360.8z M268,249.6c44.8,0,81-36.3,81-81s-36.3-81.1-81-81.1s-81,36.3-81,81.1
	S223.2,249.7,268,249.6L268,249.6z M353.7,234.4c0-31.1,25.2-56.4,56.3-56.4s56.3,25.2,56.3,56.4s-25.2,56.3-56.3,56.3v0
	C378.9,290.7,353.7,265.5,353.7,234.4z M508.7,367.9L508.7,367.9c-0.1-27.2-22.8-50.7-55.6-61.8l-30.7,30.7
	c5.5,11.3,8.5,23.5,8.5,36.1h0c0,24.2-2.6,47.6-7.4,69.5H494C503.3,420.7,508.7,395.2,508.7,367.9z M105.1,372.8
	c0-12.7,3-24.9,8.5-36.2L83,306c-32.8,11.2-55.6,34.6-55.6,61.8h0c0,27.3,5.4,52.8,14.7,74.5h70.3C107.6,420.4,105,397,105.1,372.8
	L105.1,372.8z M126.1,290.7L126.1,290.7c31.1,0,56.3-25.2,56.3-56.3S157.2,178,126.1,178s-56.3,25.2-56.3,56.4
	S94.9,290.7,126.1,290.7z"/>
</svg>
