<?xml version="1.0" encoding="utf-8"?>
<!-- Generator: Adobe Illustrator 19.2.1, SVG Export Plug-In . SVG Version: 6.00 Build 0)  -->
<svg version="1.1"
	 id="svg2" xmlns:cc="http://creativecommons.org/ns#" xmlns:dc="http://purl.org/dc/elements/1.1/" xmlns:inkscape="http://www.inkscape.org/namespaces/inkscape" xmlns:rdf="http://www.w3.org/1999/02/22-rdf-syntax-ns#" xmlns:svg="http://www.w3.org/2000/svg"
	 xmlns="http://www.w3.org/2000/svg" xmlns:xlink="http://www.w3.org/1999/xlink" x="0px" y="0px" viewBox="0 0 30 30"
	 style="enable-background:new 0 0 30 30;" xml:space="preserve">
<path d="M23.2,16.6l-7.4-7.4c0,0,0,0,0,0c-0.4-0.4-1.1-0.4-1.5,0l0,0l-7.4,7.5c-1.5-0.3-2.9-0.8-4.1-1.3l10-10C14,4,16,4,17.2,5.3
	l10,10C26,15.8,24.6,16.3,23.2,16.6L23.2,16.6z M23.2,25.6l-7.4-7.4c0,0,0,0,0,0c-0.4-0.4-1.1-0.4-1.5,0l0,0l-7.4,7.5
	c-1.5-0.3-2.9-0.8-4.1-1.3l10-10c1.2-1.2,3.3-1.2,4.5,0l10,10C26,24.9,24.6,25.3,23.2,25.6L23.2,25.6z"/>
</svg>
