<?xml version="1.0" encoding="utf-8"?>
<!-- Generator: Adobe Illustrator 19.2.1, SVG Export Plug-In . SVG Version: 6.00 Build 0)  -->
<svg version="1.1" id="Layer_1" xmlns="http://www.w3.org/2000/svg" xmlns:xlink="http://www.w3.org/1999/xlink" x="0px" y="0px"
	 viewBox="0 0 50 50" style="enable-background:new 0 0 50 50;" xml:space="preserve">
<style type="text/css">
	.st0{fill:#0933FF;}
</style>
<path class="st0" d="M28.1,17.9c1.6,1.9,1.4,4.8-0.5,6.4c-1.9,1.6-4.8,1.4-6.4-0.5c-1.6-1.9-1.4-4.8,0.5-6.4
	C23.7,15.8,26.5,16,28.1,17.9z M40.9,7.2C37,2.7,31.6,0.3,26.3,0v7.9c3.3,0.3,6.3,1.8,8.6,4.4c4.6,5.4,3.9,13.5-1.5,18.1L30.4,33
	l5.1,6l2.9-2.4C47.2,29.1,48.4,16,40.9,7.2z M22,36.9l-6.7-7.8c-4.6-5.4-4.2-13.5,1.2-18.1c2.1-1.8,4.5-2.8,7.2-3V0
	C19.7,0.2,15,1.9,11.4,5c-8.7,7.5-9.6,20.6-2.1,29.3l3.1,3.6L22.7,50c3.3-2.9,3.7-7.9,0.9-11.2L22,36.9z"/>
</svg>
