<svg xmlns="http://www.w3.org/2000/svg"><symbol viewBox="0 0 484.951 484.951" id="shape-calendar"><title>calendar</title> <g> <g id="calendar-_x31_5_38_"> <g> <path d="M118.505,115.332h6.938c10.544,0,19.091-8.55,19.091-19.091V43.558V23.852c0-10.541-8.547-19.09-19.091-19.09h-6.938
				c-10.543,0-19.09,8.549-19.09,19.09v19.707v52.682C99.415,106.782,107.962,115.332,118.505,115.332z"/> <path d="M363.373,114.859h6.938c10.543,0,19.09-8.549,19.09-19.091v-57.21v-15.18c0-10.54-8.547-19.089-19.09-19.089h-6.938
				c-10.545,0-19.092,8.549-19.092,19.089v15.18v57.209C344.283,106.31,352.83,114.859,363.373,114.859z"/> <path d="M453.916,43.558H404.92v57.209c0,19.084-15.525,29.61-34.607,29.61h-6.938c-19.084,0-34.609-15.526-34.609-34.61V43.558
				H160.053V96.24c0,19.084-15.525,34.61-34.609,34.61h-6.938c-19.083,0-34.608-15.526-34.608-34.61V43.558H31.036
				C13.923,43.558,0,57.481,0,74.595v375.03c0,17.114,13.923,31.037,31.036,31.037h422.88c17.113,0,31.035-13.923,31.035-31.037
				V74.595C484.953,57.482,471.029,43.558,453.916,43.558z M453.916,449.625H31.037l-0.001-283.213h422.886l0.016,283.212
				C453.936,449.624,453.93,449.625,453.916,449.625z"/> <path d="M258.498,261.41h55.727c2.209,0,4-1.791,4-4v-48.255c0-2.209-1.791-4-4-4h-55.727c-2.209,0-4,1.791-4,4v48.255
				C254.498,259.619,256.289,261.41,258.498,261.41z"/> <path d="M349.443,261.41h55.727c2.209,0,4-1.791,4-4v-48.255c0-2.209-1.791-4-4-4h-55.727c-2.209,0-4,1.791-4,4v48.255
				C345.443,259.619,347.234,261.41,349.443,261.41z"/> <path d="M76.611,340.41h55.726c2.209,0,4-1.791,4-4v-48.256c0-2.209-1.791-4-4-4H76.611c-2.209,0-4,1.791-4,4v48.256
				C72.611,338.619,74.402,340.41,76.611,340.41z"/> <path d="M167.555,340.41h55.726c2.209,0,4-1.791,4-4v-48.256c0-2.209-1.791-4-4-4h-55.726c-2.209,0-4,1.791-4,4v48.256
				C163.555,338.619,165.346,340.41,167.555,340.41z"/> <path d="M258.499,340.41h55.726c2.209,0,4-1.791,4-4v-48.256c0-2.209-1.791-4-4-4h-55.726c-2.209,0-4,1.791-4,4v48.256
				C254.499,338.619,256.29,340.41,258.499,340.41z"/> <path d="M349.443,340.41h55.727c2.209,0,4-1.791,4-4v-48.256c0-2.209-1.791-4-4-4h-55.727c-2.209,0-4,1.791-4,4v48.256
				C345.443,338.619,347.234,340.41,349.443,340.41z"/> <path d="M132.337,363.154H76.612c-2.209,0-4,1.791-4,4v48.256c0,2.209,1.791,4,4,4h55.726c2.209,0,4-1.791,4-4v-48.256
				C136.337,364.945,134.546,363.154,132.337,363.154z"/> <path d="M223.282,363.154h-55.726c-2.209,0-4,1.791-4,4v48.256c0,2.209,1.791,4,4,4h55.726c2.209,0,4-1.791,4-4v-48.256
				C227.282,364.945,225.491,363.154,223.282,363.154z"/> <path d="M314.227,363.154H258.5c-2.209,0-4,1.791-4,4v48.256c0,2.209,1.791,4,4,4h55.727c2.209,0,4-1.791,4-4v-48.256
				C318.227,364.945,316.436,363.154,314.227,363.154z"/> <path d="M405.17,363.154h-55.727c-2.209,0-4,1.791-4,4v48.256c0,2.209,1.791,4,4,4h55.727c2.209,0,4-1.791,4-4v-48.256
				C409.17,364.945,407.379,363.154,405.17,363.154z"/> </g> </g> </g>                </symbol><symbol viewBox="0 0 415.582 415.582" id="shape-checked"><title>checked</title> <g> <path d="M411.47,96.426l-46.319-46.32c-5.482-5.482-14.371-5.482-19.853,0L152.348,243.058l-82.066-82.064
		c-5.48-5.482-14.37-5.482-19.851,0l-46.319,46.32c-5.482,5.481-5.482,14.37,0,19.852l138.311,138.31
		c2.741,2.742,6.334,4.112,9.926,4.112c3.593,0,7.186-1.37,9.926-4.112L411.47,116.277c2.633-2.632,4.111-6.203,4.111-9.925
		C415.582,102.628,414.103,99.059,411.47,96.426z"/> </g>                </symbol><symbol viewBox="0 0 31.938 31.938" id="shape-classes"><title>classes</title> <g> <g> <polygon points="0.903,10.8 1.346,10.8 1.346,7.041 8.847,7.041 8.847,10.8 9.289,10.8 9.289,7.041 10.076,7.041 10.076,6.249 
			0,6.249 0,7.041 0.903,7.041 		"/> <path d="M1.695,5.433v0.64h6.272h0.114c0.428,0,0.82,0,1.23,0c0-0.374-0.301-0.675-0.672-0.675c-0.234,0-0.432,0.128-0.553,0.311
			l0.46-3.142h-7.29l0.447,2.866H1.695z M5.146,4.16c0.231,0,0.419,0.178,0.419,0.396c0,0.22-0.188,0.398-0.419,0.398
			c-0.232,0-0.419-0.179-0.419-0.398C4.728,4.337,4.914,4.16,5.146,4.16z"/> <polygon points="11.872,10.8 12.314,10.8 12.314,7.041 19.814,7.041 19.814,10.8 20.258,10.8 20.258,7.041 21.045,7.041 
			21.045,6.249 10.969,6.249 10.969,7.041 11.872,7.041 		"/> <path d="M12.664,5.433v0.64h6.271h0.114c0.429,0,0.82,0,1.231,0c0-0.374-0.303-0.675-0.674-0.675
			c-0.233,0-0.432,0.128-0.551,0.311l0.459-3.142h-7.291l0.447,2.866H12.664z M16.115,4.16c0.23,0,0.419,0.178,0.419,0.396
			c0,0.22-0.188,0.398-0.419,0.398c-0.232,0-0.419-0.179-0.419-0.398C15.696,4.337,15.883,4.16,16.115,4.16z"/> <polygon points="22.688,10.8 23.128,10.8 23.128,7.041 30.63,7.041 30.63,10.8 31.07,10.8 31.07,7.041 31.857,7.041 31.857,6.249 
			21.782,6.249 21.782,7.041 22.688,7.041 		"/> <path d="M23.479,5.433v0.64h6.271h0.113c0.429,0,0.82,0,1.232,0c0-0.374-0.303-0.675-0.674-0.675
			c-0.234,0-0.431,0.128-0.552,0.311l0.458-3.142h-7.29l0.446,2.866H23.479z M26.93,4.16c0.23,0,0.418,0.178,0.418,0.396
			c0,0.22-0.188,0.398-0.418,0.398c-0.232,0-0.42-0.179-0.42-0.398C26.51,4.337,26.695,4.16,26.93,4.16z"/> <polygon points="0.078,16.45 0.981,16.45 0.981,20.211 1.424,20.211 1.424,16.45 8.925,16.45 8.925,20.211 9.367,20.211 
			9.367,16.45 10.154,16.45 10.154,15.658 0.078,15.658 		"/> <path d="M1.773,15.481h6.272H8.16c0.428,0,0.82,0,1.23,0c0-0.373-0.301-0.674-0.672-0.674c-0.234,0-0.432,0.127-0.552,0.31
			l0.457-3.142h-7.29l0.447,2.866H1.773V15.481z M5.225,13.569c0.231,0,0.419,0.179,0.419,0.396c0,0.22-0.188,0.397-0.419,0.397
			c-0.232,0-0.419-0.178-0.419-0.397C4.806,13.749,4.992,13.569,5.225,13.569z"/> <polygon points="11.047,16.45 11.95,16.45 11.95,20.211 12.393,20.211 12.393,16.45 19.895,16.45 19.895,20.211 20.336,20.211 
			20.336,16.45 21.123,16.45 21.123,15.658 11.047,15.658 		"/> <path d="M12.743,15.481h6.271h0.114c0.429,0,0.82,0,1.231,0c0-0.373-0.303-0.674-0.674-0.674c-0.233,0-0.432,0.127-0.552,0.31
			l0.457-3.142h-7.29l0.447,2.866h-0.007v0.64H12.743z M16.193,13.569c0.23,0,0.418,0.179,0.418,0.396
			c0,0.22-0.188,0.397-0.418,0.397c-0.232,0-0.419-0.178-0.419-0.397C15.774,13.749,15.961,13.569,16.193,13.569z"/> <polygon points="21.859,15.658 21.859,16.45 22.766,16.45 22.766,20.211 23.206,20.211 23.206,16.45 30.708,16.45 30.708,20.211 
			31.148,20.211 31.148,16.45 31.938,16.45 31.938,15.658 		"/> <path d="M23.557,15.481h6.271h0.113c0.429,0,0.82,0,1.231,0c0-0.373-0.302-0.674-0.673-0.674c-0.234,0-0.432,0.127-0.552,0.31
			l0.456-3.142h-7.289l0.447,2.866h-0.008v0.64H23.557z M27.007,13.569c0.231,0,0.419,0.179,0.419,0.396
			c0,0.22-0.188,0.397-0.419,0.397s-0.419-0.178-0.419-0.397C26.588,13.749,26.773,13.569,27.007,13.569z"/> <polygon points="0.078,25.61 0.981,25.61 0.981,29.371 1.424,29.371 1.424,25.61 8.925,25.61 8.925,29.371 9.367,29.371 
			9.367,25.61 10.154,25.61 10.154,24.817 0.078,24.817 		"/> <path d="M1.334,21.135l0.447,2.867H1.773v0.64h6.272H8.16c0.428,0,0.82,0,1.23,0c0-0.374-0.301-0.675-0.672-0.675
			c-0.234,0-0.432,0.127-0.552,0.31l0.457-3.142H1.334z M5.225,23.522c-0.232,0-0.419-0.179-0.419-0.397
			c0-0.218,0.187-0.396,0.419-0.396c0.231,0,0.419,0.178,0.419,0.396C5.644,23.344,5.456,23.522,5.225,23.522z"/> <polygon points="11.047,25.61 11.95,25.61 11.95,29.371 12.393,29.371 12.393,25.61 19.895,25.61 19.895,29.371 20.336,29.371 
			20.336,25.61 21.123,25.61 21.123,24.817 11.047,24.817 		"/> <path d="M12.303,21.135l0.447,2.867h-0.007v0.64h6.271h0.114c0.429,0,0.82,0,1.231,0c0-0.374-0.303-0.675-0.674-0.675
			c-0.233,0-0.432,0.127-0.552,0.31l0.457-3.142H12.303z M16.193,23.522c-0.232,0-0.419-0.179-0.419-0.397
			c0-0.218,0.187-0.396,0.419-0.396c0.23,0,0.418,0.178,0.418,0.396C16.611,23.344,16.425,23.522,16.193,23.522z"/> <polygon points="21.859,25.61 22.766,25.61 22.766,29.371 23.206,29.371 23.206,25.61 30.708,25.61 30.708,29.371 31.148,29.371 
			31.148,25.61 31.938,25.61 31.938,24.817 21.859,24.817 		"/> <path d="M23.116,21.135l0.446,2.867h-0.006v0.64h6.271h0.114c0.428,0,0.82,0,1.23,0c0-0.374-0.302-0.675-0.673-0.675
			c-0.233,0-0.431,0.127-0.552,0.31l0.457-3.142H23.116z M27.007,23.522c-0.231,0-0.419-0.179-0.419-0.397
			c0-0.218,0.188-0.396,0.419-0.396s0.419,0.178,0.419,0.396C27.426,23.344,27.238,23.522,27.007,23.522z"/> </g> </g>                </symbol><symbol viewBox="0 0 786.5 786.5" id="shape-collegues"><title>collegues</title> <g> <g> <path d="M566,549.2L566,549.2L566,549.2c-0.199-1.6-0.6-3.201-1.1-4.701c-3.801-14.6-12.5-41.299-16.5-53.199
			c-0.4-2.1-1.1-4.1-2-6c0,0-6.4-9.6-11.201-12.5c0,0-2.398-1.301-2.699-1.4c-9.5-4.5-38.9-16.299-38.9-16.299l0,0
			c-14.699-6.4-29.9-11.801-45.4-17.301l0,0l0,0l0,0l0,0c-2.799,11.5-29.1,88.1-33.299,98.801l-3.301-71.201
			c1.1-1.699,1.9-3.6,2.801-5.4l11-21.699c-7.701,6.4-19.301,10.5-32.3,10.5c-12.7,0-24-3.9-31.7-10.1l10.7,21.199
			c0.9,1.801,1.7,3.801,2.8,5.4l-3.3,71.199c-4.2-10.6-30.5-87.199-33.3-98.799l0,0l0,0l0,0l0,0c-15.5,5.5-30.7,11-45.4,17.299l0,0
			c0,0-29.4,11.801-38.9,16.301c-0.3,0.199-2.4,1.199-2.7,1.4c0,0-8.8,7.299-11.2,12.4c0,0-1.6,3.898-2,6
			c-3.9,11.898-12.6,38.5-16.5,53.199c-0.5,1.5-0.9,3.1-1.1,4.699l0,0l0,0c-0.2,1.4-0.3,2.9-0.3,4.301c0,15.699,12.7,28.4,28.4,28.4
			h27.1c38.8,0,77.5,0,116.3,0c0.5,0,1,0,1.5,0l0,0c0.5,0,1,0,1.5,0c38.801,0,77.5,0,116.301,0h27.1c15.699,0,28.4-12.701,28.4-28.4
			C566.301,552.101,566.199,550.601,566,549.2z"/> <path d="M467.199,306.2c0-5,1-23.2,1-27.3c0-40.5-32.898-73.4-73.399-73.4l0,0l0,0H394.7h-0.1l0,0l0,0c-0.5,0-0.9,0-1.4,0
			s-0.899,0-1.399,0l0,0l0,0H391.7h-0.1l0,0l0,0c-40.5,0-73.4,32.9-73.4,73.4c0,4.2,1,22.3,1,27.3c-1.8,0.1-18.199-3.9-16.399,15.8
			c3.7,41.7,19.7,33.7,20.1,33.7c7.8,25.2,20,41.2,31.9,51.401c18.6,15.898,36.6,17.699,37,17.699c0.5,0,1,0,1.5,0l0,0l0,0
			c0.5,0,1,0,1.5,0c0.299,0,18.2-1.699,36.7-17.5c12-10.199,24.199-26.3,32.1-51.6c0.5,0,16.4,8.1,20.1-33.7
			C485.4,302.3,469,306.3,467.199,306.2z"/> <path d="M218.3,476.8l0.2-0.6l0.3-0.6c2.2-4.801,5.8-9.5,11.3-14.9c1.2-1.1,4.8-4.701,7.7-6.701l0,0c0.2-0.1,0.4-0.299,0.6-0.398
			c0.1-0.102,0.2-0.201,0.4-0.201l0,0c2-1.299,4.4-2.4,5.2-2.799c6.5-3.102,20.5-8.801,30.2-12.801c-0.3-0.1-0.6-0.301-1-0.5
			c-0.3-0.1-0.6-0.301-0.9-0.4c-8.3-3.9-33.9-14.199-33.9-14.199l0,0c-12.8-5.5-26.1-10.301-39.6-15.1l0,0
			c-2.4,10.1-25.4,76.799-29,86.1l-2.9-62.1c1-1.5,1.6-3.102,2.4-4.701l9.6-18.9c-6.7,5.602-16.8,9.201-28.1,9.201
			c-11,0-20.9-3.4-27.7-8.801l9.4,18.5c0.8,1.6,1.4,3.301,2.4,4.701l-2.9,62.1c-3.6-9.201-26.6-76-29-86.1l0,0
			c-13.5,4.799-26.8,9.5-39.6,15.1l0,0c0,0-25.6,10.299-33.9,14.199c-0.3,0.1-0.6,0.301-0.9,0.4c-0.7,0.4-1.2,0.6-1.5,0.801l0,0
			c-4.3,2.5-7.7,6.299-9.8,10.799l0,0c0,0,0,0,0,0.1c-0.8,1.602-1.4,3.4-1.7,5.201c-3.4,10.4-11,33.6-14.3,46.299
			c-0.4,1.301-0.8,2.701-1,4.102l0,0l0,0c-0.2,1.199-0.3,2.5-0.3,3.799c0,13.701,11.1,24.701,24.7,24.701h23.6
			c33.8,0,67.6,0,101.4,0c0.4,0,0.9,0,1.3,0s0.9,0,1.3,0c16.1,0,32.2,0,48.3,0c4.2-14.801,10.9-35.602,15.1-48.102
			C216.3,481.899,217.5,478.601,218.3,476.8z"/> <path d="M89.4,335.8c6.8,21.9,17.4,35.9,27.8,44.8c16.2,13.899,31.9,15.399,32.2,15.399c0.4,0,0.9,0,1.3,0s0.9,0,1.3,0
			c0.3,0,15.9-1.5,32-15.299c10.5-8.9,21.1-22.9,28-45c0.4,0,14.3,7.1,17.6-29.3c1.5-17.2-12.8-13.7-14.3-13.8
			c0-4.4,0.9-20.2,0.9-23.8c0-35.3-28.7-64-64-64l0,0h-0.1H152l0,0l0,0c-0.4,0-0.8,0-1.2,0c-0.4,0-0.8,0-1.2,0l0,0l0,0h-0.1h-0.1
			l0,0l0,0c-35.3,0-64,28.7-64,64c0,3.6,0.9,19.5,0.9,23.8c-1.6,0.1-15.9-3.4-14.3,13.8C75.1,342.9,89,335.8,89.4,335.8z"/> <path d="M786,483.399c-0.199-2.299-0.5-4.6-0.801-6.9c0,0-1.299-7.398-1.6-8.6c-3-13.1-11.1-22.6-22.1-30.1
			c-2.1-1.4-4.199-2.6-6.301-3.699c-2.799-1.5-45.799-15.602-46.898-16c0.299,1.5,0.398,3.1,0.5,4.898
			c6,4.201,23.6,19.4,15.6,47.701c0,0-12.701-15.1-25.6-17c-12.301,21.4-33.201,48.6-44.5,55.699
			C643,502.3,622.1,475.2,609.801,453.7c-12.9,1.9-25.602,17-25.602,17c-8-28.4,9.602-43.5,15.602-47.701
			c0.1-1.799,0.199-3.398,0.5-4.898c-1.102,0.398-44.102,14.5-46.9,16c-2.201,1.1-4.301,2.299-6.301,3.699
			c-4.299,2.9-8.1,6.1-11.4,9.699c2.602,1.102,4.801,2.102,6.602,2.9c0.699,0.301,2.799,1.301,4.699,2.5l0,0
			c4.5,2.701,8.9,6.801,13.699,12.801c4.801,6.1,6.4,9,7.201,10.9c1.199,2.699,2.199,5.6,2.9,8.5c4.1,12.5,10.898,33.299,15,48
			c22.799,0,45.699,0,68.5,0c33.1,0,66.199,0,99.299,0c9.9,0,18.301-3,25.301-10.4c5.4-5.801,7-12.701,7.4-20.201
			c0.1-1.299,0.199-7,0.199-7S786,483.499,786,483.399z"/> <path d="M576.4,348.4c1,3.7,1.699,7.2,1.699,10.5c0,1.1-0.1,2.2-0.299,3.3c-0.9,3.1-7.5,13.7-8.602,15.5
			c11.701,12.6,27.102,15.5,42.301,18.7c4.5,0.9,9.1,1.5,14,2.1c1.6,0.301,3.199,0.602,4.801,0.9l-7.701,22.6
			c0,0-0.199,33,31.701,53.102h0.199c31.9-20.102,31.699-53.102,31.699-53.102l-7.699-22.6c1.6-0.299,3.199-0.6,4.801-0.9
			c4.898-0.6,9.5-1.199,14-2.1C712.5,393.2,728,390.3,739.6,377.7c-1.1-1.8-7.699-12.4-8.6-15.5c-0.199-1.1-0.301-2.2-0.301-3.3
			c0-3.3,0.602-6.8,1.701-10.5c1-3.5,2.1-7,3.199-10.6c5.201-11.5,8-24.2,8-37.7c0-49.9-39.699-90.5-89-91.4l0,0h-0.1h-0.1l0,0
			c-49.301,0.9-89,41.5-89,91.4c0,13.4,2.9,26.2,8,37.7C574.301,341.4,575.4,344.9,576.4,348.4z"/> </g> </g>                </symbol><symbol viewBox="0 0 270.125 270.125" id="shape-columns"><title>columns</title> <path color-rendering="auto" image-rendering="auto" shape-rendering="auto" color-interpolation="sRGB" d="M33.892,70.088
	c-19.537,1.555-35.578,18.669-33.75,38.771c1.569,17.255,16.823,31.414,34.676,29.519c14.97-1.588,27.251-14.994,25.264-30.604
	c-1.615-12.681-13.199-23.104-26.578-20.975c-10.387,1.653-18.976,11.473-16.606,22.643c0.859,4.047,3.183,7.559,6.492,9.941
	c3.309,2.382,7.922,3.55,12.416,2.119c2.944-0.937,5.294-2.818,6.887-5.521c1.593-2.704,2.11-6.917-0.02-10.262
	c-1.717-2.698-3.293-3.232-5.766-3.648c-1.236-0.208-2.965-0.285-4.805,0.912c-1.84,1.197-2.815,3.672-2.815,5.422
	c-0.017,1.336,0.5,2.623,1.438,3.574c-0.491-0.141-0.978-0.339-1.494-0.711c-1.205-0.868-2.243-2.443-2.553-3.902
	c-1.059-4.992,3.23-9.867,8.395-10.69c7.348-1.17,14.144,4.951,15.088,12.359c1.231,9.671-6.743,18.372-16.4,19.396
	c-11.975,1.271-22.577-8.57-23.66-20.48C8.803,93.684,20.517,81.184,34.685,80.057c0.126-0.01,0.253-0.016,0.379-0.023h200
	c0.126,0.01,0.252,0.014,0.377,0.023c14.168,1.127,25.882,13.627,24.584,27.896c-1.083,11.911-11.685,21.751-23.66,20.48
	c-9.658-1.025-17.632-9.726-16.4-19.396c0.943-7.409,7.739-13.529,15.088-12.359c5.165,0.822,9.454,5.697,8.394,10.69
	c-0.31,1.459-1.348,3.035-2.553,3.902c-0.516,0.371-1,0.57-1.49,0.711c0.936-0.952,1.452-2.239,1.434-3.574
	c0-1.75-0.973-4.225-2.812-5.422c-1.84-1.197-3.568-1.12-4.805-0.912c-2.473,0.416-4.05,0.951-5.768,3.648
	c-2.129,3.344-1.611,7.558-0.018,10.262c1.593,2.704,3.943,4.585,6.887,5.521c4.494,1.43,9.105,0.263,12.414-2.119
	s5.633-5.894,6.492-9.941c2.37-11.169-6.219-20.989-16.605-22.643c-13.379-2.129-24.964,8.294-26.578,20.975
	c-1.988,15.61,10.296,29.015,25.266,30.604c17.852,1.894,33.105-12.264,34.674-29.52c1.828-20.102-14.213-37.217-33.75-38.771
	c-0.406-0.062-0.781-0.037-1.17-0.045h-200c-0.389-0.024-0.8,0.021-1.172,0.047L33.892,70.088z M15.063,20.063c-2.761,0-5,2.239-5,5
	v10c0,1.326,0.527,2.598,1.465,3.535l20,20c0.938,0.938,2.209,1.465,3.535,1.465h200c1.326,0,2.598-0.527,3.535-1.465l20-20
	c0.938-0.938,1.465-2.209,1.465-3.535v-10c0-2.761-2.239-5-5-5C255.063,20.063,15.063,20.063,15.063,20.063z M20.063,30.063h230
	v2.928l-17.072,17.072H37.133l-17.07-17.072V30.063z M75.063,100.063c-2.761,0-5,2.239-5,5v140c0.001,2.762,2.24,5,5.002,4.999
	c0.987,0,1.951-0.292,2.772-0.839l28.441-18.963c1.366-0.91,2.198-2.433,2.227-4.074l1.557-91.039c0-0.028,0-0.056,0-0.084
	c0-3.28,10.058-3.373,10-0.09c0,0.03,0,0.06,0,0.09v80c0.001,2.762,2.24,5,5.002,4.999c0.987,0,1.951-0.292,2.772-0.839l30-20
	c1.391-0.927,2.226-2.488,2.227-4.16v-60c0-3.339,10-3.339,10,0v50c0.001,2.762,2.241,5,5.003,4.998c0.775,0,1.54-0.181,2.234-0.528
	l20-10c1.693-0.847,2.763-2.577,2.764-4.471v-70c0-2.761-2.239-5-5-5h-120H75.063z M80.063,110.063h110v61.908l-10,5v-41.908
	c0-16.668-30-16.668-30,0v57.324l-20,13.334v-70.658v0.088c0.297-16.724-29.998-16.815-29.998-0.088v-0.086l-1.512,88.418
	l-18.488,12.326V110.063L80.063,110.063z"/>                </symbol><symbol viewBox="0 0 29.643 29.643" id="shape-compte"><title>compte</title> <g> <path d="M18.621,12.397l-0.546-1.295c0,0,1.267-2.859,1.157-2.969l-1.678-1.639c-0.117-0.113-2.978,1.191-2.978,1.191l-1.32-0.533
		c0,0-1.169-2.898-1.327-2.898h-2.37c-0.164,0-1.242,2.906-1.242,2.906L6.998,7.695c0,0-2.922-1.242-3.034-1.135L2.287,8.203
		c-0.116,0.115,1.219,2.916,1.219,2.916l-0.544,1.295c0,0-2.962,1.139-2.962,1.295v2.322c0,0.16,2.969,1.217,2.969,1.217
		l0.545,1.291c0,0-1.268,2.861-1.157,2.971l1.679,1.641c0.113,0.111,2.976-1.195,2.976-1.195l1.321,0.537
		c0,0,1.166,2.896,1.326,2.896h2.37c0.163,0,1.244-2.906,1.244-2.906l1.32-0.535c0,0,2.918,1.242,3.031,1.135l1.678-1.643
		c0.115-0.111-1.221-2.914-1.221-2.914l0.546-1.295c0,0,2.963-1.143,2.963-1.299v-2.32C21.591,13.453,18.621,12.397,18.621,12.397z
		 M10.795,18.207c-1.905,0-3.459-1.52-3.459-3.387c0-1.865,1.554-3.385,3.459-3.385c1.908,0,3.459,1.52,3.459,3.385
		C14.254,16.688,12.703,18.207,10.795,18.207z"/> <path d="M28.538,9.693l0.014-0.676c0,0,1.118-1.006,1.091-1.076l-0.414-1.048c-0.031-0.072-1.544-0.062-1.544-0.062l-0.474-0.492
		c0,0,0.058-1.502-0.013-1.533l-1.041-0.467c-0.074-0.033-1.117,1.035-1.117,1.035l-0.684-0.027c0,0-1.039-1.119-1.109-1.092
		l-1.061,0.393c-0.071,0.025-0.036,1.518-0.036,1.518l-0.495,0.463c0,0-1.523-0.082-1.554-0.014l-0.457,1.02
		c-0.032,0.072,1.065,1.119,1.065,1.119l-0.014,0.672c0,0-1.117,1.008-1.09,1.078l0.415,1.049c0.03,0.07,1.543,0.059,1.543,0.059
		l0.473,0.494c0,0-0.055,1.502,0.016,1.533l1.041,0.465c0.072,0.033,1.116-1.029,1.116-1.029l0.685,0.023
		c0,0,1.037,1.119,1.109,1.094l1.058-0.393c0.073-0.025,0.038-1.52,0.038-1.52l0.494-0.459c0,0,1.523,0.078,1.555,0.01l0.457-1.02
		C29.634,10.74,28.538,9.693,28.538,9.693z M26.145,9.9c-0.367,0.82-1.347,1.184-2.187,0.809c-0.836-0.373-1.22-1.346-0.853-2.168
		c0.365-0.818,1.348-1.18,2.184-0.807C26.126,8.111,26.51,9.082,26.145,9.9z"/>                </g>                </symbol><symbol viewBox="0 0 335.08 335.079" id="shape-cours"><title>cours</title> <g> <g> <path d="M311.175,115.775c-1.355-10.186-1.546-27.73,7.915-33.621c0.169-0.108,0.295-0.264,0.443-0.398
			c7.735-2.474,13.088-5.946,8.886-10.618l-114.102-34.38L29.56,62.445c0,0-21.157,3.024-19.267,35.894
			c1.026,17.89,6.637,26.676,11.544,31l-15.161,4.569c-4.208,4.672,1.144,8.145,8.88,10.615c0.147,0.138,0.271,0.293,0.443,0.401
			c9.455,5.896,9.273,23.438,7.913,33.626c-33.967,9.645-21.774,12.788-21.774,12.788l7.451,1.803
			c-5.241,4.736-10.446,13.717-9.471,30.75c1.891,32.864,19.269,35.132,19.269,35.132l120.904,39.298l182.49-44.202
			c0,0,12.197-3.148-21.779-12.794c-1.366-10.172-1.556-27.712,7.921-33.623c0.174-0.105,0.301-0.264,0.442-0.396
			c7.736-2.474,13.084-5.943,8.881-10.615l-7.932-2.395c5.29-3.19,13.236-11.527,14.481-33.183
			c0.859-14.896-3.027-23.62-7.525-28.756l15.678-3.794C332.949,128.569,345.146,125.421,311.175,115.775z M158.533,115.354
			l30.688-6.307l103.708-21.312l15.451-3.178c-4.937,9.036-4.73,21.402-3.913,29.35c0.179,1.798,0.385,3.44,0.585,4.688
			L288.14,122.8l-130.897,32.563L158.533,115.354z M26.71,147.337l15.449,3.178l99.597,20.474l8.701,1.782l0,0l0,0l26.093,5.363
			l1.287,40.01L43.303,184.673l-13.263-3.296c0.195-1.25,0.401-2.89,0.588-4.693C31.44,168.742,31.651,156.373,26.71,147.337z
			 M20.708,96.757c-0.187-8.743,1.371-15.066,4.52-18.28c2.004-2.052,4.369-2.479,5.991-2.479c0.857,0,1.474,0.119,1.516,0.119
			l79.607,25.953l39.717,12.949l-1.303,40.289L39.334,124.07l-5.88-1.647c-0.216-0.061-0.509-0.103-0.735-0.113
			C32.26,122.277,21.244,121.263,20.708,96.757z M140.579,280.866L23.28,247.98c-0.217-0.063-0.507-0.105-0.733-0.116
			c-0.467-0.031-11.488-1.044-12.021-25.544c-0.19-8.754,1.376-15.071,4.519-18.288c2.009-2.052,4.375-2.479,5.994-2.479
			c0.859,0,1.474,0.115,1.519,0.115c0,0,0.005,0,0,0l119.316,38.908L140.579,280.866z M294.284,239.459
			c0.185,1.804,0.391,3.443,0.591,4.693l-147.812,36.771l1.292-40.01l31.601-6.497l4.667,1.129l17.492-5.685l80.631-16.569
			l15.457-3.18C293.261,219.146,293.466,231.517,294.284,239.459z M302.426,185.084c-0.269,0.006-0.538,0.042-0.791,0.122
			l-11.148,3.121l-106.148,29.764l-1.298-40.289l34.826-11.359l84.327-27.501c0.011-0.005,4.436-0.988,7.684,2.315
			c3.144,3.214,4.704,9.537,4.52,18.28C313.848,184.035,302.827,185.053,302.426,185.084z"/> </g> </g>                </symbol><symbol viewBox="0 0 612 612" id="shape-create"><title>create</title> <g> <g id="create-_x38__3_"> <g> <path d="M306,0C136.992,0,0,136.992,0,306s136.992,306,306,306s306-137.012,306-306S475.008,0,306,0z M306,573.75
				C158.125,573.75,38.25,453.875,38.25,306C38.25,158.125,158.125,38.25,306,38.25c147.875,0,267.75,119.875,267.75,267.75
				C573.75,453.875,453.875,573.75,306,573.75z M420.75,286.875h-95.625V191.25c0-10.557-8.568-19.125-19.125-19.125
				c-10.557,0-19.125,8.568-19.125,19.125v95.625H191.25c-10.557,0-19.125,8.568-19.125,19.125c0,10.557,8.568,19.125,19.125,19.125
				h95.625v95.625c0,10.557,8.568,19.125,19.125,19.125c10.557,0,19.125-8.568,19.125-19.125v-95.625h95.625
				c10.557,0,19.125-8.568,19.125-19.125C439.875,295.443,431.307,286.875,420.75,286.875z"/> </g> </g> </g>                </symbol><symbol viewBox="0 0 44.2 44.2" id="shape-down"><title>down</title> <g> <path d="M1.9,13c0-0.5,0.2-1,0.5-1.3c0.7-0.7,1.9-0.7,2.7,0l17,17l17-17c0.7-0.7,1.9-0.7,2.7,0c0.7,0.7,0.7,1.9,0,2.7L23.4,32.6
		c-0.7,0.7-1.9,0.7-2.7,0L2.5,14.3C2.1,13.9,1.9,13.4,1.9,13z"/> </g> </symbol><symbol viewBox="0 0 528.807 528.807" id="shape-edit"><title>edit</title> <g> <path d="M513.74,204.829l-29.482,29.486l-82.147-82.139l29.494-29.489c9.292-9.292,23.253-10.441,31.138-2.565l53.563,53.572
		C524.179,181.567,523.032,195.537,513.74,204.829z M388.421,165.859l82.147,82.147l-195.883,195.88
		c-0.898,0.898-3.393,3.393-6.892,4.285c-0.405,0.195-0.819,0.361-1.229,0.491l-102.23,32.58c-2.861,0.904-5.736,0.319-7.601-1.549
		c-1.871-1.868-2.45-4.74-1.555-7.602l32.58-102.221c0.139-0.419,0.305-0.827,0.491-1.224c0.896-3.505,3.384-5.993,4.292-6.897
		l36.812-36.812H105.02c-5.012,0-9.079-4.066-9.079-9.079c0-5.023,4.066-9.078,9.079-9.078h142.491L388.421,165.859z
		 M249.417,437.574l-50.569-50.561l-13.565,42.581l21.554,21.557L249.417,437.574z M385.265,198.508
		c-2.908-2.911-7.625-2.911-10.527,0L222.03,351.206c-2.905,2.908-2.905,7.625,0,10.533c2.905,2.908,7.625,2.908,10.53,0
		l152.705-152.699C388.172,206.129,388.172,201.413,385.265,198.508z M376.037,489.217c0,5.455-4.438,9.9-9.895,9.9H185.956
		l-16.275,5.189c-3.269,1.041-6.629,1.566-9.992,1.566c-7.161,0-13.819-2.453-19.266-6.756H46.885c-5.458,0-9.909-4.434-9.909-9.9
		V73.424c0-5.458,4.445-9.9,9.909-9.9h37.12v15.675c0,5.464,4.43,9.897,9.903,9.897c5.471,0,9.901-4.433,9.901-9.897V63.523h56.92
		v15.675c0,5.464,4.43,9.897,9.901,9.897c5.473,0,9.903-4.433,9.903-9.897V63.523h49.497v15.675c0,5.464,4.43,9.897,9.904,9.897
		c5.47,0,9.9-4.433,9.9-9.897V63.523h54.453v15.675c0,5.464,4.427,9.897,9.895,9.897c5.473,0,9.906-4.433,9.906-9.897V63.523h42.072
		c5.45,0,9.896,4.442,9.896,9.9v68.571l10.379-10.374l19.322-19.325V73.424c0-21.831-17.762-39.596-39.597-39.596h-42.072V9.904
		c0-5.467-4.434-9.904-9.906-9.904c-5.462,0-9.895,4.431-9.895,9.904v23.924h-54.465V9.904c0-5.467-4.43-9.904-9.901-9.904
		c-5.473,0-9.903,4.431-9.903,9.904v23.924h-49.497V9.904c0-5.467-4.43-9.904-9.904-9.904c-5.47,0-9.9,4.431-9.9,9.904v23.924
		h-56.92V9.904c0-5.467-4.431-9.904-9.901-9.904c-5.473,0-9.903,4.431-9.903,9.904v23.924h-37.12
		c-21.832,0-39.602,17.765-39.602,39.596v415.787c0,21.834,17.771,39.596,39.602,39.596h319.264
		c21.835,0,39.597-17.762,39.597-39.596V345.059l-29.702,29.708v114.45H376.037z M298.707,152.436H105.02
		c-5.012,0-9.079,4.061-9.079,9.079c0,5.019,4.066,9.079,9.079,9.079h193.687c5.013,0,9.079-4.061,9.079-9.079
		C307.786,156.497,303.72,152.436,298.707,152.436z M298.707,225.635H105.02c-5.012,0-9.079,4.063-9.079,9.079
		c0,5.019,4.066,9.079,9.079,9.079h193.687c5.013,0,9.079-4.061,9.079-9.079C307.786,229.698,303.72,225.635,298.707,225.635z"/> </g>                </symbol><symbol viewBox="0 0 512 512" id="shape-home"><title>home</title> <g> <path d="M512,296l-96-96V56h-64v80l-96-96L0,296v16h64v160h160v-96h64v96h160V312h64V296z"/> </g>                </symbol><symbol viewBox="0 0 433.5 433.5" id="shape-import"><title>import</title> <g> <g id="import-file-download"> <path d="M395.25,153h-102V0h-153v153h-102l178.5,178.5L395.25,153z M38.25,382.5v51h357v-51H38.25z"/> </g> </g>                </symbol><symbol viewBox="0 0 457.03 457.03" id="shape-link"><title>link</title> <g> <path d="M421.512,207.074l-85.795,85.767c-47.352,47.38-124.169,47.38-171.529,0c-7.46-7.439-13.296-15.821-18.421-24.465
		l39.864-39.861c1.895-1.911,4.235-3.006,6.471-4.296c2.756,9.416,7.567,18.33,14.972,25.736c23.648,23.667,62.128,23.634,85.762,0
		l85.768-85.765c23.666-23.664,23.666-62.135,0-85.781c-23.635-23.646-62.105-23.646-85.768,0l-30.499,30.532
		c-24.75-9.637-51.415-12.228-77.373-8.424l64.991-64.989c47.38-47.371,124.177-47.371,171.557,0
		C468.869,82.897,468.869,159.706,421.512,207.074z M194.708,348.104l-30.521,30.532c-23.646,23.634-62.128,23.634-85.778,0
		c-23.648-23.667-23.648-62.138,0-85.795l85.778-85.767c23.665-23.662,62.121-23.662,85.767,0
		c7.388,7.39,12.204,16.302,14.986,25.706c2.249-1.307,4.56-2.369,6.454-4.266l39.861-39.845
		c-5.092-8.678-10.958-17.03-18.421-24.477c-47.348-47.371-124.172-47.371-171.543,0L35.526,249.96
		c-47.366,47.385-47.366,124.172,0,171.553c47.371,47.356,124.177,47.356,171.547,0l65.008-65.003
		C246.109,360.336,219.437,357.723,194.708,348.104z"/> </g>                </symbol><symbol viewBox="0 0 486.733 486.733" id="shape-locked"><title>locked</title> <g> <path d="M403.88,196.563h-9.484v-44.388c0-82.099-65.151-150.681-146.582-152.145c-2.225-0.04-6.671-0.04-8.895,0
		C157.486,1.494,92.336,70.076,92.336,152.175v44.388h-9.485c-14.616,0-26.538,15.082-26.538,33.709v222.632
		c0,18.606,11.922,33.829,26.539,33.829h321.028c14.616,0,26.539-15.223,26.539-33.829V230.272
		C430.419,211.646,418.497,196.563,403.88,196.563z M273.442,341.362v67.271c0,7.703-6.449,14.222-14.158,14.222H227.45
		c-7.71,0-14.159-6.519-14.159-14.222v-67.271c-7.477-7.36-11.83-17.537-11.83-28.795c0-21.334,16.491-39.666,37.459-40.513
		c2.222-0.09,6.673-0.09,8.895,0c20.968,0.847,37.459,19.179,37.459,40.513C285.272,323.825,280.919,334.002,273.442,341.362z
		 M331.886,196.563h-84.072h-8.895h-84.072v-44.388c0-48.905,39.744-89.342,88.519-89.342c48.775,0,88.521,40.437,88.521,89.342
		V196.563z"/> </g>                </symbol><symbol viewBox="0 0 100 100" id="shape-logo-white"><title>logo-white</title> <g> <g> <path fill="#FFFFFF" d="M53.4,97.8c-1.9,1.1-5,1.1-6.9,0L10.2,77c-1.9-1.1-3.5-3.8-3.5-6l0.1-41.8c0-2.2,1.6-4.9,3.5-6l36.3-21
			c1.9-1.1,5-1.1,6.9,0L89.8,23c1.9,1.1,3.5,3.8,3.5,6l-0.1,41.8c0,2.2-1.6,4.9-3.5,6L53.4,97.8z"/> </g> <g> <path fill="#F25D59" d="M33.8,18.3v63.4h2.5V55.2h12.7c3.3,0,6.3-0.5,8.9-1.4c2.7-0.9,5-2.2,6.9-3.8c1.9-1.6,3.4-3.6,4.4-5.9
			c1-2.3,1.6-4.7,1.6-7.4c0-6.1-1.9-10.7-5.6-13.8c-3.7-3.1-9.1-4.6-16.3-4.6H33.8z M36.2,53.2V20.3h12.7c6.5,0,11.3,1.4,14.5,4.2
			c3.2,2.8,4.8,6.9,4.8,12.2c0,2.3-0.5,4.5-1.4,6.5c-0.9,2-2.2,3.8-3.9,5.2c-1.7,1.5-3.7,2.6-6.1,3.5c-2.4,0.8-5.1,1.3-8,1.3H36.2z"/> </g> </g> </symbol><symbol viewBox="0 0 100 100" id="shape-logo"><title>logo</title> <g> <g> <path fill="#F25D59" d="M53.4,97.8c-1.9,1.1-5,1.1-6.9,0L10.2,77c-1.9-1.1-3.5-3.8-3.5-6l0.1-41.8c0-2.2,1.6-4.9,3.5-6l36.3-21
			c1.9-1.1,5-1.1,6.9,0L89.8,23c1.9,1.1,3.5,3.8,3.5,6l-0.1,41.8c0,2.2-1.6,4.9-3.5,6L53.4,97.8z"/> </g> <g> <path fill="#FFFFFF" d="M33.8,18.3v63.4h2.5V55.2h12.7c3.3,0,6.3-0.5,8.9-1.4c2.7-0.9,5-2.2,6.9-3.8c1.9-1.6,3.4-3.6,4.4-5.9
			c1-2.3,1.6-4.7,1.6-7.4c0-6.1-1.9-10.7-5.6-13.8c-3.7-3.1-9.1-4.6-16.3-4.6H33.8z M36.2,53.2V20.3h12.7c6.5,0,11.3,1.4,14.5,4.2
			c3.2,2.8,4.8,6.9,4.8,12.2c0,2.3-0.5,4.5-1.4,6.5c-0.9,2-2.2,3.8-3.9,5.2c-1.7,1.5-3.7,2.6-6.1,3.5c-2.4,0.8-5.1,1.3-8,1.3H36.2z"/> </g> </g> </symbol><symbol viewBox="0 0 122.958 122.958" id="shape-man307"><title>man307</title> <g> <g> <circle cx="43.309" cy="86.215" r="7.571"/> <path d="M48.343,95.628c-0.127-0.078-0.262-0.135-0.395-0.189c-0.844-0.564-1.79-0.977-2.756-1.213l-1.885,1.898l-1.829-1.92
			c-0.006,0.002-0.013,0.002-0.018,0.004c-0.985,0.233-1.952,0.656-2.81,1.231c-0.131,0.056-0.263,0.11-0.388,0.188
			c-2.335,1.432-7.658,4.707-9.242,10.721c-1.585-6.014-6.908-9.289-9.243-10.721c-0.128-0.078-0.261-0.135-0.394-0.189
			c-0.844-0.564-1.79-0.977-2.757-1.213l-1.886,1.898l-1.827-1.92c-0.008,0.002-0.013,0.002-0.018,0.004
			c-0.987,0.233-1.952,0.656-2.81,1.231c-0.133,0.056-0.265,0.11-0.388,0.188c-2.887,1.771-10.334,6.35-9.654,15.433h5.926
			c-0.225-2.077,0.196-3.778,1.022-5.215v5.215h7.699l-1.794-2.453l1.826-12.204h0.035l1.825,12.204l-1.792,2.453h7.697v-5.199
			c0.821,1.433,1.238,3.132,1.015,5.199h5.104h0.82h5.105c-0.226-2.077,0.195-3.778,1.023-5.215v5.215h7.697l-1.793-2.453
			l1.826-12.204h0.035l1.826,12.204l-1.792,2.453h7.696v-5.199c0.822,1.433,1.238,3.132,1.014,5.199h5.928
			C58.675,101.978,51.228,97.399,48.343,95.628z"/> <circle cx="14.744" cy="86.215" r="7.571"/> <circle cx="72.78" cy="86.215" r="7.571"/> <path d="M77.815,95.628c-0.126-0.078-0.261-0.135-0.395-0.189c-0.842-0.564-1.788-0.977-2.755-1.213l-1.886,1.898l-1.827-1.92
			c-0.008,0.002-0.014,0.002-0.02,0.004c-0.985,0.234-1.951,0.657-2.81,1.232c-0.131,0.057-0.264,0.109-0.387,0.188
			c-2.887,1.771-10.336,6.351-9.654,15.434h5.926c-0.226-2.077,0.194-3.777,1.021-5.215v5.215h7.697l-1.792-2.453l1.825-12.204
			h0.035l1.826,12.204l-1.792,2.453h7.696v-5.199c0.821,1.434,1.238,3.133,1.016,5.199h5.925
			C88.149,101.978,80.702,97.399,77.815,95.628z"/> <circle cx="58.509" cy="76.824" r="7.815"/> <path d="M63.889,86.651c-0.061-0.037-0.122-0.073-0.181-0.112c-0.132-0.078-0.271-0.136-0.407-0.194
			c-0.871-0.58-1.848-1.009-2.845-1.253l-1.946,1.962l-1.888-1.98c-0.006,0-0.013,0-0.02,0.002
			c-1.017,0.242-2.014,0.679-2.899,1.271c-0.135,0.06-0.271,0.114-0.399,0.192c-0.222,0.139-0.478,0.297-0.746,0.465
			c-0.166,2.983-1.76,5.588-4.126,7.125c0.145,0.082,0.292,0.162,0.431,0.252c0.158,0.068,0.313,0.146,0.464,0.238
			c1.729,1.062,4.569,2.6,7.131,5.773l0.149-0.453l1.885-12.598h0.037c0,0,1.85,12.598,1.884,12.598
			c2.407-3.182,5.059-4.303,6.721-5.32c0.161-0.101,0.322-0.176,0.458-0.236c0.143-0.092,0.292-0.174,0.438-0.26
			C65.577,92.527,63.94,89.782,63.889,86.651z"/> <path d="M19.869,94.126c0.146,0.084,0.293,0.164,0.432,0.254c0.159,0.069,0.312,0.146,0.462,0.238
			c1.472,0.9,4.124,2.529,6.389,5.117l1.854-12.396h0.037l1.885,12.599l6.733-5.319c0.162-0.102,0.325-0.177,0.461-0.236
			c0.143-0.092,0.292-0.174,0.438-0.258c-2.452-1.597-4.086-4.34-4.141-7.463c-0.065-0.041-0.138-0.086-0.198-0.123
			c-0.131-0.08-0.269-0.137-0.406-0.195c-0.87-0.58-1.849-1.008-2.845-1.252l-1.946,1.961l-1.888-1.98c-0.006,0-0.013,0-0.019,0.002
			c-1.018,0.242-2.015,0.68-2.899,1.271c-0.066,0.027-0.13,0.062-0.195,0.095c0,0.022,0.005,0.042,0.005,0.062
			C24.026,89.695,22.367,92.505,19.869,94.126z"/> <circle cx="29.022" cy="76.824" r="7.815"/> <circle cx="101.631" cy="19.508" r="10.952"/> <path d="M108.918,33.127c-0.186-0.113-0.381-0.194-0.573-0.275c-1.22-0.814-2.588-1.412-3.985-1.755l-2.727,2.747l-2.646-2.778
			c-0.009,0.002-0.018,0.004-0.026,0.006c-1.432,0.342-2.832,0.956-4.075,1.793c-0.142,0.061-0.287,0.111-0.424,0.189
			c-1.32,0.426-5.111-0.002-11.279-1.263c0.412-1.335,1.092-3.074,1.834-4.638c0.434,0.396,0.958,0.751,1.555,1.033
			c2.193,1.031,4.524,0.692,5.206-0.756c0.683-1.448-0.544-3.46-2.736-4.491c-1.479-0.697-3.016-0.761-4.071-0.287
			c-0.405-0.646-0.985-1.194-1.722-1.555c-0.859-0.424-1.793-0.524-2.666-0.358l-6.276-2.952l-0.347,0.734l-3.267-1.535
			l-0.327,0.698l3.266,1.537l-0.425,0.898l4.77,2.242c-0.157,0.209-0.298,0.434-0.419,0.678c-3.086,6.283-3.979,10.854-2.656,13.58
			c0.725,1.49,2.063,2.542,3.67,2.888l0.834,0.178c4.404,0.949,8.031,1.617,11.021,1.876v23.231c0,1.146,0.223,2.211,0.611,3.193
			c-0.03,0.221-0.052,0.443-0.052,0.672l0.004,40.721c0,2.773,2.249,5.023,5.025,5.023c2.775,0,5.025-2.251,5.025-5.025
			l-0.005-34.944c0.199,0.01,0.397,0.024,0.601,0.024c0.038,0,0.076-0.004,0.116-0.004l-0.002,34.924
			c0,2.774,2.251,5.025,5.025,5.025s5.025-2.251,5.025-5.025l0.002-40.019c0.307,0.334,0.672,0.626,1.093,0.856
			c0.646,0.352,1.343,0.518,2.028,0.518c1.508,0,2.968-0.803,3.739-2.221C130.655,46.463,114.294,36.426,108.918,33.127z
			 M101.659,55.522h-0.055l-2.641-3.615l2.641-17.657h0.055l2.641,17.657L101.659,55.522z M112.842,60.981V47.933
			C114.691,51.162,115.145,55.305,112.842,60.981z"/> </g> </g>                </symbol><symbol viewBox="0 0 510 510" id="shape-notifications"><title>notifications</title> <g> <g id="notifications-notifications"> <path d="M255,510c28.05,0,51-22.95,51-51H204C204,487.05,226.95,510,255,510z M420.75,357V216.75
			c0-79.05-53.55-142.8-127.5-160.65V38.25C293.25,17.85,275.4,0,255,0c-20.4,0-38.25,17.85-38.25,38.25V56.1
			c-73.95,17.85-127.5,81.6-127.5,160.65V357l-51,51v25.5h433.5V408L420.75,357z"/> </g> </g>                </symbol><symbol viewBox="0 0 377.043 377.043" id="shape-power"><title>power</title> <g> <g> <path d="M337.771,103.538c-14.648-22.722-34.645-42.102-57.818-56.046c-4.334-2.607-9.736-2.682-14.141-0.191
			c-4.402,2.49-7.127,7.157-7.127,12.216v29.031c0,4.379,2.045,8.508,5.529,11.162c31.094,23.686,49.654,61.019,49.654,99.866
			c0,69.115-56.23,125.345-125.346,125.345c-69.116,0-125.346-56.229-125.346-125.345c0-38.848,18.562-76.181,49.654-99.866
			c3.483-2.654,5.529-6.783,5.529-11.162V59.517c0-5.059-2.724-9.726-7.126-12.216c-4.405-2.49-9.808-2.416-14.142,0.191
			c-23.176,13.944-43.169,33.324-57.819,56.046c-18.46,28.63-28.218,61.838-28.218,96.038c0,47.402,18.46,91.969,51.979,125.488
			c33.521,33.52,78.086,51.979,125.488,51.979c47.402,0,91.968-18.459,125.488-51.979c33.518-33.52,51.979-78.086,51.979-125.488
			C365.99,165.376,356.232,132.167,337.771,103.538z"/> <path d="M172.129,215.535h32.789c7.257,0,13.16-5.905,13.16-13.162V13.162c0-7.257-5.903-13.162-13.16-13.162h-32.789
			c-7.257,0-13.161,5.904-13.161,13.162v189.211C158.968,209.63,164.873,215.535,172.129,215.535z"/> </g> </g>                </symbol><symbol viewBox="0 0 536.071 536.07" id="shape-students"><title>students</title> <g> <path d="M147.128,91.076c0-37.95,30.766-68.716,68.721-68.716c37.95,0,68.719,30.766,68.719,68.716s-30.769,68.715-68.719,68.715
		C177.894,159.792,147.128,129.026,147.128,91.076z M248.873,206.607c0.689-14.963,5.84-28.812,14.127-40.261
		c-5.816-1.218-11.827-1.865-17.995-1.865h-58.304c-6.15,0-12.153,0.642-17.939,1.845c8.819,12.232,14.094,27.171,14.18,43.343
		c10.72-5.896,23.02-9.253,36.085-9.253C229.625,200.416,239.714,202.624,248.873,206.607z M260.505,212.775
		c19.96,12.517,33.957,33.688,36.517,58.274c8.133,3.801,17.171,5.994,26.746,5.994c34.968,0,63.311-28.346,63.311-63.313
		c0-34.971-28.343-63.311-63.311-63.311C289.12,150.42,261.031,178.257,260.505,212.775z M219.026,342.411
		c34.962,0,63.307-28.354,63.307-63.311c0-34.962-28.345-63.311-63.307-63.311c-34.965,0-63.322,28.348-63.322,63.311
		C155.705,314.057,184.061,342.411,219.026,342.411z M245.882,346.72h-53.717c-44.697,0-81.069,36.369-81.069,81.072v65.703
		l0.171,1.029l4.522,1.406c42.658,13.323,79.718,17.779,110.224,17.779c59.571,0,94.114-16.987,96.242-18.074l4.231-2.141h0.449
		v-65.703C326.936,383.089,290.585,346.72,245.882,346.72z M350.638,281.364h-53.314c-0.579,21.332-9.683,40.542-24.081,54.35
		c39.732,11.815,68.802,48.657,68.802,92.178v20.245c52.629-1.938,82.963-16.846,84.961-17.851l4.232-2.152h0.449v-65.715
		C431.693,317.728,395.324,281.364,350.638,281.364z M364.889,149.069c19.961,12.519,33.957,33.691,36.511,58.277
		c8.134,3.801,17.171,5.99,26.746,5.99c34.975,0,63.316-28.342,63.316-63.304c0-34.972-28.342-63.311-63.316-63.311
		C393.503,86.717,365.416,114.56,364.889,149.069z M455.01,217.658h-53.303c-0.579,21.332-9.682,40.542-24.08,54.349
		c39.731,11.811,68.801,48.658,68.801,92.179v20.245c52.624-1.934,82.964-16.84,84.962-17.852l4.226-2.145h0.455v-65.723
		C536.077,254.024,499.708,217.658,455.01,217.658z M107.937,277.044c12.386,0,23.903-3.618,33.67-9.777
		c3.106-20.241,13.958-37.932,29.454-49.975c0.065-1.188,0.174-2.361,0.174-3.561c0-34.971-28.351-63.311-63.298-63.311
		c-34.977,0-63.316,28.339-63.316,63.311C44.621,248.704,72.959,277.044,107.937,277.044z M164.795,335.714
		c-14.331-13.742-23.404-32.847-24.072-54.055c-1.971-0.147-3.928-0.295-5.943-0.295H81.069C36.366,281.364,0,317.728,0,362.425
		v65.709l0.166,1.023l4.528,1.412c34.214,10.699,64.761,15.616,91.292,17.153v-19.837
		C95.991,384.371,125.054,347.523,164.795,335.714z"/> </g>                </symbol><symbol viewBox="0 0 31.709 31.709" id="shape-to-do"><title>to-do</title> <g> <g> <path d="M10.595,25.719H4.696c-1.127,0-2.06-0.886-2.06-2.013V5.42c0-1.127,0.933-2.006,2.06-2.006h14.277
			c1.127,0,2.047,0.879,2.047,2.006v15.323l2.637-3.135V3.462c0-1.482-1.172-2.684-2.652-2.684H2.559C1.136,0.778,0,1.932,0,3.354
			v22.382c0,1.482,1.185,2.688,2.669,2.688h10.358l-1.224-1.063C11.267,26.896,10.864,26.327,10.595,25.719z"/> <path d="M17.875,6.794H6.034c-0.728,0-1.314,0.591-1.314,1.318c0,0.726,0.587,1.317,1.314,1.317h11.84
			c0.728,0,1.312-0.591,1.312-1.317C19.188,7.386,18.602,6.794,17.875,6.794z"/> <path d="M17.875,11.187H6.034c-0.728,0-1.314,0.59-1.314,1.318c0,0.724,0.587,1.318,1.314,1.318h11.84
			c0.728,0,1.312-0.594,1.312-1.318C19.188,11.777,18.602,11.187,17.875,11.187z"/> <path d="M17.875,15.581H6.034c-0.728,0-1.314,0.558-1.314,1.286c0,0.725,0.587,1.282,1.314,1.282h11.84
			c0.728,0,1.312-0.56,1.312-1.282C19.188,16.139,18.602,15.581,17.875,15.581z"/> <path d="M4.719,21.056c0,0.727,0.587,1.283,1.314,1.283h4.418c0.185-0.473,0.469-1.022,0.857-1.479
			c0.408-0.473,0.889-0.82,1.412-1.092H6.034C5.306,19.771,4.719,20.331,4.719,21.056z"/> <path d="M17.875,19.771h-0.988c0.324,0.137,0.633,0.366,0.916,0.611l1.312,1.123c0.05-0.135,0.076-0.28,0.076-0.437
			C19.188,20.346,18.602,19.771,17.875,19.771z"/> <path d="M30.898,16.249c-0.965-0.828-2.42-0.71-3.246,0.26l-7.564,8.867l-3.781-3.248c-0.968-0.826-2.421-0.717-3.248,0.248
			c-0.829,0.967-0.717,2.418,0.248,3.246l5.533,4.752c0.422,0.358,0.951,0.557,1.5,0.557c0.062,0,0.119-0.002,0.182-0.008
			c0.607-0.047,1.176-0.336,1.572-0.801l9.066-10.627C31.982,18.528,31.869,17.077,30.898,16.249z"/> </g> </g>                </symbol><symbol viewBox="0 0 268.476 268.476" id="shape-trash"><title>trash</title> <g id="trash-Delete__x2F__Trash"> <path style="fill-rule:evenodd;clip-rule:evenodd;" d="M63.119,250.254c0,0,3.999,18.222,24.583,18.222h93.072
		c20.583,0,24.582-18.222,24.582-18.222l18.374-178.66H44.746L63.119,250.254z M170.035,98.442c0-4.943,4.006-8.949,8.949-8.949
		c4.943,0,8.95,4.006,8.95,8.949l-8.95,134.238c0,4.943-4.007,8.949-8.949,8.949c-4.942,0-8.949-4.007-8.949-8.949L170.035,98.442z
		 M125.289,98.442c0-4.943,4.007-8.949,8.949-8.949c4.943,0,8.949,4.006,8.949,8.949v134.238c0,4.943-4.006,8.949-8.949,8.949
		c-4.943,0-8.949-4.007-8.949-8.949V98.442z M89.492,89.492c4.943,0,8.949,4.006,8.949,8.949l8.95,134.238
		c0,4.943-4.007,8.949-8.95,8.949c-4.942,0-8.949-4.007-8.949-8.949L80.543,98.442C80.543,93.499,84.55,89.492,89.492,89.492z
		 M218.36,35.811h-39.376V17.899C178.984,4.322,174.593,0,161.086,0L107.39,0C95.001,0,89.492,6.001,89.492,17.899v17.913H50.116
		c-7.914,0-14.319,6.007-14.319,13.43c0,7.424,6.405,13.431,14.319,13.431H218.36c7.914,0,14.319-6.007,14.319-13.431
		C232.679,41.819,226.274,35.811,218.36,35.811z M161.086,35.811h-53.695l0.001-17.913h53.695V35.811z"/> </g>                </symbol><symbol viewBox="0 0 486.866 486.866" id="shape-unlocked"><title>unlocked</title> <g> <path d="M393.904,214.852h-8.891v-72.198c0-76.962-61.075-141.253-137.411-142.625c-2.084-0.038-6.254-0.038-8.338,0
		C162.927,1.4,101.853,65.691,101.853,142.653v1.603c0,16.182,13.118,29.3,29.3,29.3c16.182,0,29.299-13.118,29.299-29.3v-1.603
		c0-45.845,37.257-83.752,82.98-83.752s82.981,37.907,82.981,83.752v72.198H92.963c-13.702,0-24.878,14.139-24.878,31.602v208.701
		c0,17.44,11.176,31.712,24.878,31.712h300.941c13.703,0,24.878-14.271,24.878-31.712V246.452
		C418.783,228.989,407.607,214.852,393.904,214.852z M271.627,350.591v63.062c0,7.222-6.046,13.332-13.273,13.332h-29.841
		c-7.228,0-13.273-6.11-13.273-13.332v-63.062c-7.009-6.9-11.09-16.44-11.09-26.993c0-19.999,15.459-37.185,35.115-37.977
		c2.083-0.085,6.255-0.085,8.337,0c19.656,0.792,35.115,17.978,35.115,37.977C282.717,334.149,278.637,343.69,271.627,350.591z"/> </g>                </symbol><symbol viewBox="0 0 349.75 349.749" id="shape-user"><title>user</title> <g> <g> <path d="M174.881,0C78.441,0,0,78.441,0,174.875c0,96.434,78.441,174.874,174.887,174.874c96.422,0,174.863-78.44,174.863-174.874
			C349.75,78.441,271.309,0,174.881,0z M127.08,141.626l0.352-0.384c1.426-1.036,2.12-2.657,1.861-4.354
			c-3.522-21.191-1.21-30.027-0.43-32.246c6.155-18.891,25.476-27.628,29.268-29.177c0.808-0.318,2.3-0.769,3.813-1.003l0.451-0.105
			l3.104-0.165l0.024,0.192l0.72-0.069c0.64-0.069,1.252-0.153,2.021-0.315l0.685-0.146c0.606,0.009,8.127,0.96,19.302,4.386
			l7.765,2.672c14.201,4.194,20.734,11.997,21.947,13.57c11.373,12.884,8.322,32.339,5.506,42.784
			c-0.318,1.231-0.126,2.498,0.57,3.549l0.643,0.793c0.823,1.12,1.562,5.438-0.906,14.609c-0.469,2.786-1.501,5.05-3.026,6.575
			c-0.564,0.619-0.961,1.408-1.104,2.3c-3.844,22.533-24.031,47.741-45.315,47.741c-18.06,0-38.671-23.19-42.379-47.723
			c-0.141-0.916-0.522-1.724-1.156-2.417c-1.543-1.601-2.528-3.906-3.122-7.317C125.861,148.958,125.684,143.785,127.08,141.626z
			 M86.539,239.346c0.783-0.991,5.149-6.107,13.979-9.476c7.764-2.385,26.956-8.762,37.446-16.363
			c0.492-0.265,0.976-0.781,1.378-1.189c0.97-1.045,2.453-2.642,4.209-4.27l0.979-0.93l0.997,0.937
			c9.242,8.713,19.467,13.486,28.796,13.486c9.8,0,19.903-4.239,29.241-12.273l0.732-0.625l1.981,0.961
			c1.771,1.621,4.834,3.849,6.257,4.527l1.825,0.89l-0.191,0.197l0.811,0.492c1.723,1.039,3.597,2.048,5.795,3.135
			c2.222,0.979,4.083,1.699,6.004,2.336c1.622,0.528,10.257,3.423,20.08,7.963l1.874,0.564c9.607,3.681,13.871,8.791,14.291,9.325
			c11.403,16.897,15.774,48.429,17.402,65.999c-29.784,24.181-67.242,37.493-105.531,37.493c-38.308,0-75.771-13.312-105.541-37.506
			C70.947,287.498,75.282,256.068,86.539,239.346z"/> </g> </g>                </symbol></svg>