<svg xmlns="http://www.w3.org/2000/svg"><symbol viewBox="0 0 484.951 484.951" id="shape-calendar"><title>calendar</title> <g> <g id="calendar-_x31_5_38_"> <g> <path d="M118.505,115.332h6.938c10.544,0,19.091-8.55,19.091-19.091V43.558V23.852c0-10.541-8.547-19.09-19.091-19.09h-6.938
				c-10.543,0-19.09,8.549-19.09,19.09v19.707v52.682C99.415,106.782,107.962,115.332,118.505,115.332z"/> <path d="M363.373,114.859h6.938c10.543,0,19.09-8.549,19.09-19.091v-57.21v-15.18c0-10.54-8.547-19.089-19.09-19.089h-6.938
				c-10.545,0-19.092,8.549-19.092,19.089v15.18v57.209C344.283,106.31,352.83,114.859,363.373,114.859z"/> <path d="M453.916,43.558H404.92v57.209c0,19.084-15.525,29.61-34.607,29.61h-6.938c-19.084,0-34.609-15.526-34.609-34.61V43.558
				H160.053V96.24c0,19.084-15.525,34.61-34.609,34.61h-6.938c-19.083,0-34.608-15.526-34.608-34.61V43.558H31.036
				C13.923,43.558,0,57.481,0,74.595v375.03c0,17.114,13.923,31.037,31.036,31.037h422.88c17.113,0,31.035-13.923,31.035-31.037
				V74.595C484.953,57.482,471.029,43.558,453.916,43.558z M453.916,449.625H31.037l-0.001-283.213h422.886l0.016,283.212
				C453.936,449.624,453.93,449.625,453.916,449.625z"/> <path d="M258.498,261.41h55.727c2.209,0,4-1.791,4-4v-48.255c0-2.209-1.791-4-4-4h-55.727c-2.209,0-4,1.791-4,4v48.255
				C254.498,259.619,256.289,261.41,258.498,261.41z"/> <path d="M349.443,261.41h55.727c2.209,0,4-1.791,4-4v-48.255c0-2.209-1.791-4-4-4h-55.727c-2.209,0-4,1.791-4,4v48.255
				C345.443,259.619,347.234,261.41,349.443,261.41z"/> <path d="M76.611,340.41h55.726c2.209,0,4-1.791,4-4v-48.256c0-2.209-1.791-4-4-4H76.611c-2.209,0-4,1.791-4,4v48.256
				C72.611,338.619,74.402,340.41,76.611,340.41z"/> <path d="M167.555,340.41h55.726c2.209,0,4-1.791,4-4v-48.256c0-2.209-1.791-4-4-4h-55.726c-2.209,0-4,1.791-4,4v48.256
				C163.555,338.619,165.346,340.41,167.555,340.41z"/> <path d="M258.499,340.41h55.726c2.209,0,4-1.791,4-4v-48.256c0-2.209-1.791-4-4-4h-55.726c-2.209,0-4,1.791-4,4v48.256
				C254.499,338.619,256.29,340.41,258.499,340.41z"/> <path d="M349.443,340.41h55.727c2.209,0,4-1.791,4-4v-48.256c0-2.209-1.791-4-4-4h-55.727c-2.209,0-4,1.791-4,4v48.256
				C345.443,338.619,347.234,340.41,349.443,340.41z"/> <path d="M132.337,363.154H76.612c-2.209,0-4,1.791-4,4v48.256c0,2.209,1.791,4,4,4h55.726c2.209,0,4-1.791,4-4v-48.256
				C136.337,364.945,134.546,363.154,132.337,363.154z"/> <path d="M223.282,363.154h-55.726c-2.209,0-4,1.791-4,4v48.256c0,2.209,1.791,4,4,4h55.726c2.209,0,4-1.791,4-4v-48.256
				C227.282,364.945,225.491,363.154,223.282,363.154z"/> <path d="M314.227,363.154H258.5c-2.209,0-4,1.791-4,4v48.256c0,2.209,1.791,4,4,4h55.727c2.209,0,4-1.791,4-4v-48.256
				C318.227,364.945,316.436,363.154,314.227,363.154z"/> <path d="M405.17,363.154h-55.727c-2.209,0-4,1.791-4,4v48.256c0,2.209,1.791,4,4,4h55.727c2.209,0,4-1.791,4-4v-48.256
				C409.17,364.945,407.379,363.154,405.17,363.154z"/> </g> </g> </g>                </symbol><symbol viewBox="0 0 360 240" id="shape-callout-avatar"><title>callout-avatar</title> <style type="text/css"> .st0{enable-background:new ;} .st1{fill:#FFFFFF;} .st2{fill:#4285E3;} </style> <g class="st0"> <path d="M124.9,92.6l-3.3,0.2l-1-7.3c-0.3-2.6-0.7-5.3-0.8-7.2l-2.3,12.9l-3.2,0.2L110,79c0.3,2.4,0.4,4.8,0.4,7.3l0.1,7.3
		l-3.3,0.2l0.1-17.7l4.3-0.3l4.1,12.1l2-12.6l4.4-0.3L124.9,92.6z"/> <path d="M139.5,84.7c0.3,4.3-1.8,7.3-5.8,7.6c-4,0.3-6.6-2.2-6.9-6.7c-0.3-4.2,1.8-7.3,5.8-7.6C136.7,77.7,139.2,80.3,139.5,84.7z
		 M130.3,85.4c0.2,3.2,1.3,4.6,3.3,4.5c1.9-0.1,2.8-1.7,2.6-4.9c-0.2-3.2-1.3-4.6-3.2-4.4C130.9,80.6,130,82.2,130.3,85.4z"/> <path d="M153.4,80.6l0.7,9.8l-3.3,0.2l-0.7-9.3c-0.1-1.7-0.8-2.1-1.8-2c-1.2,0.1-2,0.9-2.7,2.3l0.7,9.4l-3.3,0.2l-1-13.5l2.8-0.2
		l0.4,1.8c0.9-1.4,2.2-2.3,3.9-2.5C151.7,76.6,153.2,78,153.4,80.6z"/> <path d="M165.6,88.9c-0.9,0.8-2.1,1.2-3.3,1.3c-2.7,0.2-4.2-1.2-4.4-4.1l-0.5-7.1l-2.1,0.2l-0.2-2.3l2.1-0.2l-0.2-3l3.2-0.6
		l0.3,3.4l3.1-0.2l-0.2,2.4l-2.8,0.2l0.5,7c0.1,1.3,0.6,1.8,1.6,1.8c0.5,0,1-0.2,1.6-0.6L165.6,88.9z"/> <path d="M174.5,75.1l-0.3,3.2c-0.4-0.1-0.8-0.1-1.2-0.1c-1.7,0.1-2.4,1.4-2.7,3.7l0.5,7.2l-3.3,0.2l-1-13.5l2.8-0.2l0.5,2.6
		c0.5-2,1.7-3.2,3.3-3.3C173.6,75,174.1,75,174.5,75.1z"/> <path d="M187.9,82.1l-8.5,0.6c0.5,2.7,1.8,3.5,3.6,3.4c1.2-0.1,2.2-0.5,3.3-1.5l1.5,1.8c-1.2,1.2-2.8,2-4.9,2.2
		c-4.2,0.3-6.6-2.3-7-6.6c-0.3-4.1,1.6-7.4,5.5-7.7c3.8-0.3,6.1,2.1,6.5,6.4C187.9,81.2,187.9,81.7,187.9,82.1z M184.5,80
		c-0.2-2.2-1.1-3.5-2.9-3.4c-1.5,0.1-2.4,1.2-2.4,3.9l5.3-0.4L184.5,80z"/> <path d="M199.3,75.8l-5.9,9.1l6.7-0.5l-0.1,2.6l-10.1,0.8l-0.2-2.3l5.9-9.1l-6,0.4l-0.2-2.6l9.7-0.7L199.3,75.8z"/> <path d="M201.3,77.5l7.7-0.6l0.2,2.6l-7.7,0.6L201.3,77.5z"/> <path d="M223.2,75.4l0.7,9.8l-3.3,0.2l-0.7-9.3c-0.1-1.7-0.8-2.1-1.8-2c-1.2,0.1-2,0.9-2.7,2.3l0.7,9.4l-3.3,0.2l-1-13.5l2.8-0.2
		l0.4,1.8c0.9-1.4,2.2-2.3,3.9-2.5C221.5,71.4,223,72.8,223.2,75.4z"/> <path d="M239.1,77.2c0.3,4.3-1.8,7.3-5.8,7.6c-4,0.3-6.6-2.2-6.9-6.7c-0.3-4.2,1.8-7.3,5.8-7.6C236.2,70.3,238.8,72.8,239.1,77.2z
		 M229.8,77.9c0.2,3.2,1.3,4.6,3.3,4.5c1.9-0.1,2.8-1.7,2.6-4.9c-0.2-3.2-1.3-4.6-3.2-4.4C230.5,73.2,229.6,74.7,229.8,77.9z"/> <path d="M253.5,82.9l-2.8,0.2l-0.3-1.9c-0.9,1.6-2.1,2.4-4,2.6c-2.4,0.2-3.9-1.3-4.1-3.9l-0.7-9.7l3.3-0.2l0.7,9.3
		c0.1,1.6,0.7,2.1,1.8,2c1.1-0.1,2-0.9,2.6-2.1l-0.7-9.5l3.3-0.2L253.5,82.9z"/> <path d="M265.5,69.7l-1.1,2c-1.2-0.6-2.3-0.9-3.5-0.8c-1.3,0.1-2,0.7-1.9,1.5c0.1,0.9,0.6,1.3,3,1.7c2.8,0.5,4.5,1.5,4.6,3.9
		c0.2,2.8-2.3,4.5-5.4,4.7c-2.3,0.2-4.2-0.5-5.5-1.5l1.5-2c1.1,0.7,2.4,1.2,3.8,1.1c1.5-0.1,2.4-0.8,2.3-1.8c-0.1-1.1-0.6-1.4-3.2-2
		c-2.8-0.6-4.2-1.8-4.3-3.8c-0.2-2.2,1.8-4.1,4.9-4.3C262.6,68.3,264.2,68.8,265.5,69.7z"/> <path d="M282.4,80.8l-3.9,0.3L273,67.9l3.5-0.3l3.7,10.7l2.1-11.1l3.4-0.3L282.4,80.8z"/> <path d="M299.9,72.7c0.3,4.3-1.8,7.3-5.8,7.6c-4,0.3-6.6-2.2-6.9-6.7c-0.3-4.2,1.8-7.3,5.8-7.6C297,65.7,299.5,68.2,299.9,72.7z
		 M290.6,73.4c0.2,3.2,1.3,4.6,3.3,4.5c1.9-0.1,2.8-1.7,2.6-4.9c-0.2-3.2-1.3-4.6-3.2-4.4C291.3,68.6,290.4,70.2,290.6,73.4z"/> <path d="M311.1,78c-0.9,0.8-2.1,1.2-3.3,1.3c-2.7,0.2-4.2-1.2-4.4-4.1l-0.5-7.1l-2.1,0.2l-0.2-2.3l2.1-0.2l-0.2-3l3.2-0.6l0.3,3.4
		l3.1-0.2l-0.2,2.4l-2.8,0.2l0.5,7c0.1,1.3,0.6,1.8,1.6,1.8c0.5,0,1-0.2,1.6-0.6L311.1,78z"/> <path d="M320,64.2l-0.3,3.2c-0.4-0.1-0.8-0.1-1.2-0.1c-1.7,0.1-2.4,1.4-2.7,3.7l0.5,7.2l-3.3,0.2L312,65l2.8-0.2l0.5,2.6
		c0.5-2,1.7-3.2,3.3-3.3C319.1,64.1,319.6,64.1,320,64.2z"/> <path d="M333.4,71.2l-8.5,0.6c0.5,2.7,1.8,3.5,3.6,3.4c1.2-0.1,2.2-0.5,3.3-1.5l1.5,1.8c-1.2,1.2-2.8,2-4.9,2.2
		c-4.2,0.3-6.6-2.3-7-6.6c-0.3-4.1,1.6-7.4,5.5-7.7c3.8-0.3,6.1,2.1,6.5,6.4C333.4,70.3,333.4,70.8,333.4,71.2z M330,69.1
		c-0.2-2.2-1.1-3.5-2.9-3.4c-1.5,0.1-2.4,1.2-2.4,3.9l5.3-0.4L330,69.1z"/> </g> <g class="st0"> <path d="M121.8,116.8c0.3,4.1-1.4,7.3-4.8,7.6c-1.4,0.1-2.6-0.3-3.5-1.2l0.5,6.3l-3.2,0.6l-1.4-19.1l2.9-0.2l0.3,1.6
		c1-1.5,2.4-2.2,3.8-2.3C119.8,109.8,121.5,112.4,121.8,116.8z M118.4,117c-0.3-3.4-1.3-4.6-3-4.5c-1.1,0.1-2,0.9-2.6,2l0.5,6.1
		c0.7,0.9,1.6,1.3,2.6,1.2C117.7,121.8,118.7,120.3,118.4,117z"/> <path d="M125.2,120.2l-1.2-15.8l3.2-0.6l1.2,16.1c0,0.6,0.3,0.9,0.8,0.9c0.3,0,0.5-0.1,0.8-0.2l0.9,2.2c-0.5,0.3-1.3,0.6-2.1,0.6
		C126.7,123.6,125.4,122.4,125.2,120.2z"/> <path d="M143.9,121.9l-2.8,0.2l-0.3-1.9c-0.9,1.6-2.1,2.4-4,2.6c-2.5,0.2-3.9-1.3-4.1-3.9l-0.7-9.7l3.3-0.2l0.7,9.3
		c0.1,1.6,0.7,2.1,1.8,2c1.1-0.1,2-0.9,2.6-2.1l-0.7-9.5l3.3-0.2L143.9,121.9z"/> <path d="M156,108.7l-1.1,2c-1.2-0.6-2.3-0.9-3.5-0.8c-1.3,0.1-2,0.7-1.9,1.5c0.1,0.9,0.6,1.3,3,1.7c2.8,0.5,4.5,1.5,4.6,3.9
		c0.2,2.8-2.3,4.5-5.4,4.7c-2.3,0.2-4.2-0.5-5.5-1.5l1.5-2c1.1,0.7,2.4,1.2,3.8,1.1c1.5-0.1,2.4-0.8,2.3-1.8c-0.1-1.1-0.6-1.4-3.2-2
		c-2.8-0.6-4.2-1.8-4.3-3.8c-0.2-2.2,1.8-4.1,4.9-4.3C153,107.3,154.6,107.8,156,108.7z"/> <path d="M177.8,112.6c0.3,4.2-1.5,7.3-4.8,7.5c-1.5,0.1-2.8-0.5-3.7-1.5l-0.1,1.4l-2.9,0.2l-1.4-18.9l3.2-0.6l0.5,7.3
		c0.8-1.2,2-2,3.5-2.2C175.5,105.6,177.5,108.1,177.8,112.6z M174.4,112.8c-0.3-3.6-1.4-4.6-3-4.5c-1.2,0.1-2,0.9-2.5,2l0.4,6
		c0.7,0.9,1.6,1.4,2.6,1.4C173.6,117.6,174.7,116.2,174.4,112.8z"/> <path d="M192.1,112.5l-8.5,0.6c0.5,2.7,1.8,3.5,3.6,3.4c1.2-0.1,2.2-0.5,3.3-1.5l1.5,1.8c-1.2,1.2-2.8,2-4.9,2.2
		c-4.2,0.3-6.6-2.3-7-6.6c-0.3-4.1,1.6-7.4,5.5-7.7c3.8-0.3,6.1,2.1,6.5,6.4C192.1,111.6,192.1,112.2,192.1,112.5z M188.8,110.5
		c-0.2-2.2-1.1-3.5-2.9-3.3c-1.5,0.1-2.4,1.2-2.4,3.9l5.3-0.4L188.8,110.5z"/> <path d="M206.5,115.4l-0.5,2.2c-1.5,0-2.5-0.5-3.1-1.7c-0.8,1.5-2.3,2.2-3.9,2.3c-2.7,0.2-4.5-1.4-4.7-3.8c-0.2-2.9,1.9-4.7,5.8-5
		l1.7-0.1l-0.1-0.8c-0.1-1.8-1-2.3-2.7-2.2c-0.9,0.1-2.2,0.4-3.5,1l-0.9-2.2c1.6-0.8,3.3-1.2,4.8-1.3c3.6-0.3,5.3,1.3,5.5,4.3
		l0.4,5.7C205.4,114.8,205.8,115.2,206.5,115.4z M202.1,113.9l-0.2-2.7l-1.4,0.1c-2.1,0.2-3.1,1-3,2.6c0.1,1.3,0.8,2,2.1,1.9
		C200.8,115.7,201.6,115,202.1,113.9z"/> <path d="M220.4,116.2l-2.8,0.2l-0.3-1.9c-0.9,1.6-2.1,2.4-4,2.6c-2.5,0.2-3.9-1.3-4.1-3.9l-0.7-9.7l3.3-0.2l0.7,9.3
		c0.1,1.6,0.7,2.1,1.8,2c1.1-0.1,2-0.9,2.6-2.1l-0.7-9.5l3.3-0.2L220.4,116.2z"/> <path d="M238.8,102.5l-1.1,2c-1.2-0.6-2.3-0.9-3.5-0.8c-1.3,0.1-2,0.7-1.9,1.5c0.1,0.9,0.6,1.3,3,1.7c2.8,0.5,4.5,1.5,4.6,3.9
		c0.2,2.8-2.3,4.5-5.4,4.7c-2.3,0.2-4.2-0.5-5.5-1.5l1.5-2c1.1,0.7,2.4,1.2,3.8,1.1c1.5-0.1,2.4-0.8,2.3-1.8c-0.1-1.1-0.6-1.4-3.2-2
		c-2.8-0.6-4.2-1.8-4.3-3.8c-0.2-2.2,1.8-4.1,4.9-4.3C235.9,101.1,237.5,101.6,238.8,102.5z"/> <path d="M254.2,106.9c0.3,4.3-1.8,7.3-5.8,7.6c-4,0.3-6.6-2.2-6.9-6.7c-0.3-4.2,1.8-7.3,5.8-7.6
		C251.3,99.9,253.8,102.5,254.2,106.9z M244.9,107.6c0.2,3.2,1.3,4.6,3.3,4.5c1.9-0.1,2.8-1.7,2.6-4.9c-0.2-3.2-1.3-4.6-3.2-4.4
		C245.6,102.8,244.7,104.4,244.9,107.6z"/> <path d="M268.5,112.6l-2.8,0.2l-0.3-1.9c-0.9,1.6-2.1,2.4-4,2.6c-2.5,0.2-3.9-1.3-4.1-3.9l-0.7-9.7l3.3-0.2l0.7,9.3
		c0.1,1.6,0.7,2.1,1.8,2c1.1-0.1,2-0.9,2.6-2.1l-0.7-9.5l3.3-0.2L268.5,112.6z"/> <path d="M279.5,98l-0.3,3.2c-0.4-0.1-0.8-0.1-1.2-0.1c-1.7,0.1-2.4,1.4-2.7,3.7l0.5,7.2l-3.3,0.2l-1-13.5l2.8-0.2l0.5,2.6
		c0.5-2,1.7-3.2,3.3-3.3C278.6,97.9,279,97.9,279.5,98z"/> <path d="M284.8,92.9c0.1,1.1-0.7,2-1.9,2.1c-1.2,0.1-2.1-0.7-2.2-1.8c-0.1-1.1,0.7-2.1,1.9-2.1C283.8,91,284.7,91.8,284.8,92.9z
		 M285.8,111.3l-3.3,0.2l-1-13.5l3.3-0.2L285.8,111.3z"/> <path d="M296.7,96.7l-0.3,3.2c-0.4-0.1-0.8-0.1-1.2-0.1c-1.7,0.1-2.4,1.4-2.7,3.7l0.5,7.2l-3.3,0.2l-1-13.5l2.8-0.2l0.5,2.6
		c0.5-2,1.7-3.2,3.3-3.3C295.8,96.6,296.3,96.6,296.7,96.7z"/> <path d="M310.1,103.7l-8.5,0.6c0.5,2.7,1.8,3.5,3.6,3.4c1.2-0.1,2.2-0.5,3.3-1.5l1.5,1.8c-1.2,1.2-2.8,2-4.9,2.2
		c-4.2,0.3-6.6-2.3-7-6.6c-0.3-4.1,1.6-7.4,5.5-7.7c3.8-0.3,6.1,2.1,6.5,6.4C310.1,102.8,310.1,103.3,310.1,103.7z M306.8,101.7
		c-0.2-2.2-1.1-3.5-2.9-3.4c-1.5,0.1-2.4,1.2-2.4,3.9l5.3-0.4L306.8,101.7z"/> </g> <path class="st1" d="M25.2,135.5l-8,36L20,175l13.7,1.7l12.2,2.5L43.1,169l-1.5-5.4c0,0,5-2.2,5.4-2.4s16.8-5.2,16.8-5.2
	s20.5-7,23-7.4s18.1-5.4,19.4-5.5s11-3.1,8.6-4.6s-14.2-8.2-14.2-8.2s-7.6-4.1-7.8-5.6s3-14.2,3-14.2s2.6-13.1,2.6-14.2
	s-3.9-1.5-5.1,0S65.8,120,65.8,120s-25.8,32.9-29,32.2S25.2,135.5,25.2,135.5z"/> <g> <path class="st2" d="M17.5,176.7c10,1.1,19.8,1.4,29.4,5.8c2,0.9,3.2-1,2.5-3c-1.5-4.8-3.3-9.2-5.2-13.6c8.5-0.5,17.7-6.7,25.1-9
		c15.6-5.3,32.3-7.8,47.1-15c1.4-0.6,1.6-3.1,0.2-4.2c-7.1-5.4-14.7-9-22.2-13.1c1.8-9.7,5-18.5,6.6-28.3c0.4-2.1-1.3-4.2-3.2-3.6
		c-26.9,9-40.2,40.6-62.8,56.6c-1.9-5.7-4.5-11.1-7-16.5c-0.8-1.8-3.3-2-3.9-0.2c-4,13.5-7.2,27-8.7,41.4
		C15.4,175.2,16.5,176.5,17.5,176.7z M95.7,99c-1.7,7.9-3.6,15.9-4,24.1c-1,0.2-1.5,2-0.3,3c6.2,4.7,12.9,8.3,19.4,12.6
		c-12,5-24.9,7.7-37.5,11.4c-11.5,3.3-23.3,7.6-34.5,12.1c-1.4,0.6-0.9,3,0.6,3.4c0.2,0.1,0.4,0,0.6,0.2c1.6,3.6,3,7.4,4.2,11
		c-8-2.8-15.9-3.5-24.1-4.2c1.5-11.3,3.8-22.1,6.7-32.7c2.1,4.5,4.4,8.9,6.3,13.5c0.5,1.1,1.5,1.3,2.2,1c0.5,0.4,1.2,0.6,1.9,0.1
		C59.9,140.5,71.5,110,95.7,99z"/> </g> </symbol><symbol viewBox="-56 131.9 454 304" id="shape-callout-user-register"><title>callout-user-register</title> <style type="text/css"> .st0{fill:#4285E3;} </style> <g> <path d="M89.8,217.1l-1.9,2.9c-1.9-1.2-3.7-1.7-5.7-1.4c-2.2,0.3-3.6,1.5-3.5,3.3c0.3,1.8,1.2,2.4,5.5,3.2c4.4,0.8,7.6,2.2,8.2,6.8
		c0.6,4.3-2.5,7.9-8.3,8.6c-3.9,0.6-6.9-0.6-9.1-2.2l2.1-3c1.9,1.2,4,1.9,6.5,1.7c2.6-0.3,4.3-1.8,4-4.2c-0.3-2.1-1.4-2.8-5.4-3.5
		c-5.3-1-7.8-2.6-8.3-6.4c-0.6-4,2.6-7.2,7.3-7.8C85,214.6,87.4,215.4,89.8,217.1z M98.2,213.6c0.1,0.7,0,1.5-0.4,2.8l-1.7,5.1
		l-2.5,0.3l0.7-5.5c-0.8-0.4-1.2-1.1-1.4-1.9c-0.1-1.4,0.8-2.6,2.4-2.9C96.7,211.3,98,212.2,98.2,213.6z M110.8,210.9
		c0.1,1.5-0.8,2.9-2.5,3c-1.7,0.3-2.9-0.8-3.2-2.4c-0.1-1.5,0.8-2.9,2.5-3C109.3,208.2,110.6,209.3,110.8,210.9z M113.5,236.2
		l-4.4,0.6l-2.4-18.6l4.4-0.6L113.5,236.2z M132.3,220.1l1.7,13.4l-4.4,0.6l-1.7-12.7c-0.3-2.4-1.2-2.9-2.6-2.6
		c-1.7,0.1-2.6,1.4-3.6,3.3l1.7,12.9l-4.4,0.6l-2.5-18.7l3.9-0.6l0.7,2.4c1.2-2.1,2.9-3.5,5.3-3.7
		C129.7,214.7,131.9,216.5,132.3,220.1z M149.6,214.5l-1.4,2.9c-1.7-0.8-3.2-1.1-4.8-1c-1.8,0.3-2.8,1.1-2.6,2.2
		c0.1,1.2,1,1.7,4.3,2.2c3.9,0.6,6.2,1.8,6.6,5.1c0.6,3.9-2.8,6.4-7.1,6.9c-3.2,0.4-5.8-0.4-7.8-1.7l1.9-2.8c1.5,1,3.5,1.4,5.3,1.2
		c1.9-0.3,3.2-1.2,3-2.6c-0.1-1.5-1-1.9-4.6-2.5c-4-0.6-6-2.2-6.2-5c-0.4-3,2.2-5.8,6.5-6.4C145.3,212.7,147.7,213.3,149.6,214.5z
		 M167.3,212.1l-1.7,2.9c-1.4-0.7-2.5-1-3.9-0.8c-2.6,0.3-3.9,2.5-3.3,6.9c0.6,4.4,2.5,5.8,5,5.5c1.4-0.1,2.4-0.8,3.6-1.8l2.4,2.6
		c-1.5,1.5-3.3,2.6-5.7,2.9c-5.4,0.7-9.1-2.6-10-8.6c-0.7-6,2.1-10.4,7.3-11.1C163.5,210.4,165.4,210.9,167.3,212.1z M181.5,208.4
		l-0.3,4.4c-0.6,0-1.1-0.1-1.7,0c-2.2,0.3-3.2,2.1-3.5,5.4l1.2,9.8l-4.4,0.6l-2.4-18.6l3.9-0.6l0.8,3.6c0.6-2.8,2.1-4.4,4.3-4.7
		C180.2,208.4,180.8,208.2,181.5,208.4z M188.5,200.9c0.1,1.5-0.8,2.9-2.5,3c-1.7,0.3-2.9-0.8-3.2-2.4c-0.1-1.5,0.8-2.9,2.5-3
		S188.3,199.4,188.5,200.9z M191.2,226.2l-4.4,0.6l-2.5-18.6l4.4-0.6L191.2,226.2z M205.3,205.3l-0.3,4.4c-0.6,0-1.1-0.1-1.7,0
		c-2.4,0.3-3.2,2.1-3.5,5.4l1.2,9.8l-4.4,0.6l-2.5-18.6l3.9-0.6l0.8,3.6c0.6-2.8,2.1-4.4,4.3-4.7C204,205.3,204.6,205.3,205.3,205.3
		z M224.3,214l-11.7,1.6c0.8,3.7,2.8,4.7,5.3,4.4c1.7-0.3,2.9-1,4.4-2.2l2.2,2.4c-1.7,1.7-3.7,3-6.5,3.3c-5.8,0.7-9.4-2.6-10.1-8.6
		c-0.7-5.7,1.7-10.4,6.9-10.9c5.3-0.7,8.6,2.5,9.4,8.3C224.1,212.8,224.3,213.5,224.3,214z M219.4,211.4c-0.4-3-1.7-4.7-4.3-4.4
		c-2.1,0.3-3.3,1.8-3,5.5l7.3-1V211.4z M253.6,208.8c0.7,5.7-1.4,10.2-6.1,10.8c-1.9,0.3-3.6-0.3-5-1.4l1.1,8.7l-4.4,1.1l-3.3-26.3
		l3.9-0.6l0.6,2.2c1.2-2.1,3.2-3.3,5-3.5C250.3,199.4,252.9,202.8,253.6,208.8z M248.9,209.5c-0.6-4.7-2.1-6.2-4.4-6
		c-1.5,0.1-2.8,1.4-3.5,3l1.1,8.3c1.1,1.2,2.2,1.7,3.6,1.5C248.3,216,249.5,213.9,248.9,209.5z M274.4,206.1
		c0.7,5.8-2.1,10.2-7.5,10.9c-5.5,0.7-9.3-2.6-10-8.7c-0.7-5.8,2.1-10.2,7.5-10.9C269.8,196.9,273.5,200,274.4,206.1z M261.6,207.8
		c0.6,4.4,2.2,6.2,4.8,6s3.7-2.5,3.2-6.9s-2.2-6.2-4.8-6C262.2,201.3,261.1,203.4,261.6,207.8z M294.6,213.1l-3.9,0.6l-0.6-2.6
		c-1.1,2.2-2.8,3.6-5.3,3.9c-3.3,0.4-5.5-1.5-6-5.1l-1.7-13.3l4.4-0.6l1.7,12.7c0.3,2.2,1.1,2.8,2.6,2.6c1.5-0.1,2.6-1.4,3.5-3.2
		l-1.7-13l4.4-0.6L294.6,213.1z M308.7,192.2l-0.3,4.4c-0.6,0-1.1-0.1-1.7,0c-2.4,0.3-3.2,2.1-3.5,5.4l1.2,9.8l-4.4,0.6l-2.4-18.6
		l3.9-0.6l0.8,3.6c0.6-2.8,2.1-4.4,4.3-4.7C307.5,192,308,192,308.7,192.2z M120.5,255.7c-1.4,0.7-3,1-5.3,1.4
		c2.4,0.7,3.7,2.1,4,4.3c0.4,3.6-2.1,6.6-6.6,7.2c-0.8,0.1-1.5,0.1-2.2,0c-0.4,0.4-0.7,1-0.6,1.5c0.1,0.7,0.6,1.2,2.4,1l2.9-0.4
		c4.2-0.6,7.1,1.4,7.5,4.4c0.4,3.7-2.5,6.4-8.6,7.1c-6.6,0.8-8.7-1-9.3-4.7l4-0.6c0.3,1.8,1.1,2.6,4.8,2.1c3.6-0.4,4.6-1.5,4.3-3
		c-0.1-1.4-1.4-2.1-3.5-1.8l-2.8,0.4c-3.7,0.4-5.5-1-5.8-2.9c-0.1-1.2,0.4-2.8,1.8-3.7c-2.5-1-3.6-2.5-3.9-4.8
		c-0.6-4,2.4-7.1,6.8-7.6c4.4-0.4,6.4-1.7,8.4-3.2L120.5,255.7z M108.2,262.5c0.3,2.2,1.7,3.5,3.7,3.2c2.1-0.3,3.2-1.8,2.8-4.2
		c-0.3-2.4-1.5-3.3-3.9-3C108.9,258.8,107.9,260.3,108.2,262.5z M139.2,263.2l-11.6,1.5c0.8,3.7,2.8,4.7,5.3,4.4
		c1.7-0.3,2.9-1,4.4-2.2l2.2,2.4c-1.7,1.7-3.7,3-6.5,3.3c-5.8,0.7-9.4-2.6-10.1-8.6c-0.7-5.7,1.7-10.4,6.9-10.9
		c5.3-0.7,8.6,2.5,9.4,8.3C139.2,261.9,139.2,262.6,139.2,263.2z M126.1,250.5l-1.5-2.1l6.8-5.4l2.2,3.3L126.1,250.5z M134.5,260.6
		c-0.4-3-1.7-4.7-4.3-4.4c-2.1,0.3-3.3,1.8-3,5.5l7.3-1V260.6z M153.2,250.3l-0.3,4.4c-0.6,0-1.1-0.1-1.7,0
		c-2.2,0.3-3.2,2.1-3.5,5.4l1.2,9.8l-4.4,0.6l-2.4-18.6l3.9-0.6l0.8,3.6c0.6-2.8,2.1-4.4,4.3-4.7C152,250.2,152.5,250.2,153.2,250.3
		z M172.2,259l-11.6,1.5c0.8,3.7,2.8,4.7,5.3,4.4c1.7-0.3,2.9-1,4.4-2.2l2.2,2.4c-1.7,1.7-3.7,3-6.5,3.3c-5.8,0.7-9.4-2.6-10.1-8.6
		c-0.7-5.7,1.7-10.4,6.9-10.9c5.3-0.7,8.6,2.5,9.4,8.3C172.1,257.8,172.2,258.5,172.2,259z M167.3,256.4c-0.4-3-1.7-4.7-4.3-4.4
		c-2.1,0.3-3.3,1.8-3,5.5l7.3-1V256.4z M186,246l-0.3,4.4c-0.6,0-1.1-0.1-1.7,0c-2.4,0.3-3.2,2.1-3.5,5.4l1.2,9.8l-4.4,0.6
		l-2.4-18.6l3.9-0.6l0.8,3.6c0.6-2.8,2.1-4.4,4.3-4.7C184.8,246,185.5,246,186,246z M210.4,244.9l-1.4,2.9c-1.7-0.8-3.2-1.1-4.8-1
		c-1.8,0.3-2.8,1.1-2.6,2.2c0.1,1.2,1,1.7,4.3,2.2c3.9,0.6,6.2,1.8,6.6,5.1c0.6,3.9-2.8,6.4-7.1,6.9c-3.2,0.4-5.8-0.4-7.8-1.7
		l1.9-2.8c1.5,1,3.5,1.4,5.3,1.2c1.9-0.3,3.2-1.2,3-2.6c-0.1-1.5-1-1.9-4.6-2.5c-4-0.6-6-2.2-6.2-5c-0.4-3,2.2-5.8,6.5-6.4
		C206.1,243.3,208.5,243.8,210.4,244.9z M230.9,251.4l-11.6,1.5c0.8,3.7,2.8,4.7,5.3,4.4c1.7-0.3,2.9-1,4.4-2.2l2.2,2.4
		c-1.7,1.7-3.7,3-6.5,3.3c-5.8,0.7-9.4-2.6-10.1-8.6c-0.7-5.7,1.7-10.4,6.9-10.9c5.3-0.7,8.6,2.5,9.4,8.3
		C230.9,250.2,230.9,251,230.9,251.4z M226.2,248.9c-0.4-3-1.7-4.7-4.3-4.4c-2.1,0.3-3.3,1.8-3,5.5l7.3-1V248.9z M246.5,240.3
		l-1.4,2.9c-1.7-0.8-3.2-1.1-4.8-1c-1.8,0.3-2.8,1.1-2.6,2.2c0.1,1.2,1,1.7,4.3,2.2c3.9,0.6,6.2,1.8,6.6,5.1
		c0.6,3.9-2.8,6.4-7.1,6.9c-3.2,0.4-5.8-0.4-7.8-1.7l1.9-2.8c1.5,1,3.5,1.4,5.3,1.2c1.9-0.3,3.2-1.2,3-2.6c-0.1-1.5-1-1.9-4.6-2.5
		c-4-0.6-6-2.2-6.2-5c-0.4-3,2.2-5.8,6.5-6.4C242.3,238.5,244.6,239.2,246.5,240.3z M128.2,324.8c1.2,10.1-2.5,18.1-10.8,19.2
		c-3.3,0.4-6.4-0.4-8.7-2.5l1.9,15.4l-7.9,1.9l-6-46.5l6.9-0.8l1,4c2.2-3.7,5.5-5.8,8.9-6.2C122.3,307.9,126.8,314.3,128.2,324.8z
		 M119.7,325.9c-1.1-8.3-3.7-11.1-7.8-10.7c-2.8,0.4-4.8,2.6-6.1,5.4l1.9,14.8c1.8,2.1,4,2.9,6.5,2.6
		C118.6,337.5,120.8,333.9,119.7,325.9z M153.4,304.5l-0.4,7.9c-1-0.1-1.8-0.1-3,0c-4,0.6-5.7,3.7-6.2,9.4l2.2,17.6l-8,1l-4.2-33
		l6.9-0.8l1.5,6.4c1-5,3.7-8,7.6-8.4C151.3,304.3,152.2,304.3,153.4,304.5z M187.1,319.8l-20.8,2.6c1.5,6.6,4.8,8.4,9.3,7.9
		c2.9-0.4,5.3-1.7,7.9-4l3.9,4.2c-2.9,3-6.6,5.4-11.6,6c-10.2,1.2-16.6-4.8-17.9-15.2c-1.2-10.1,3-18.3,12.5-19.5
		c9.3-1.2,15.4,4.4,16.6,14.8C187,317.6,187.1,319,187.1,319.8z M163.6,297.1l-2.8-3.7l12-9.4l4,5.8L163.6,297.1z M178.7,315.3
		c-0.7-5.4-3-8.4-7.5-7.9c-3.7,0.4-5.8,3.3-5.4,9.8l13-1.7L178.7,315.3z M214.8,300l-2.6,5.1c-2.9-1.4-5.7-1.9-8.6-1.7
		c-3.2,0.4-4.8,1.9-4.6,3.9c0.3,2.2,1.7,3,7.5,3.9c6.9,1,11.1,3.2,11.9,9c0.8,6.9-5,11.4-12.6,12.3c-5.7,0.7-10.4-0.7-13.7-3l3.5-5
		c2.8,1.7,6.1,2.5,9.4,2.1c3.6-0.4,5.7-2.2,5.4-4.7c-0.4-2.8-1.8-3.5-8.2-4.4c-7.1-1-10.4-3.9-11.1-8.7c-0.7-5.5,3.9-10.2,11.5-11.2
		C207.4,297.1,211.4,298.1,214.8,300z M251.3,311.7l-20.8,2.6c1.5,6.6,4.8,8.4,9.3,7.9c2.9-0.4,5.3-1.7,7.9-4l3.9,4.2
		c-2.9,3-6.6,5.4-11.6,6c-10.2,1.2-16.6-4.8-17.9-15.2c-1.2-10.1,3-18.3,12.5-19.5c9.3-1.2,15.4,4.4,16.6,14.8
		C251.1,309.4,251.3,310.8,251.3,311.7z M242.8,307.1c-0.7-5.4-3-8.4-7.5-7.9c-3.7,0.4-5.8,3.3-5.4,9.8l13-1.7L242.8,307.1z
		 M284.5,297.4l3,24l-8,1l-2.9-22.7c-0.6-4.2-2.2-5.1-4.7-4.8c-2.9,0.4-4.7,2.6-6.2,5.8l2.9,23l-8,1l-4.2-33l6.9-0.8l1.2,4.3
		c2.1-3.6,5.1-6.1,9.4-6.6C279.8,287.8,283.7,291,284.5,297.4z M317,287l-2.9,5.3c-2.4-1.4-4.4-1.8-6.9-1.5c-4.6,0.6-6.9,4.3-6,12.2
		c1,8,4.3,10.4,8.9,9.8c2.5-0.3,4.2-1.4,6.4-3.2l4.2,4.6c-2.6,2.8-6,4.6-10.2,5.1c-9.6,1.2-16.3-4.6-17.7-15.2
		c-1.4-10.5,3.6-18.4,13.2-19.7C310.1,284,313.6,284.7,317,287z M351.1,298.9l-20.8,2.6c1.5,6.6,4.8,8.4,9.3,7.9
		c2.9-0.4,5.3-1.7,7.9-4l3.9,4.2c-2.9,3-6.6,5.4-11.6,6c-10.2,1.2-16.6-4.8-17.9-15.2c-1.2-10.1,3-18.3,12.5-19.5
		c9.3-1.2,15.4,4.4,16.6,14.8C351,296.7,351.1,297.9,351.1,298.9z M342.6,294.3c-0.7-5.4-3-8.4-7.5-7.9c-3.7,0.4-5.8,3.3-5.4,9.8
		l13-1.7L342.6,294.3z M378.8,279.1l-2.5,5.1c-2.9-1.4-5.7-1.9-8.6-1.7c-3.2,0.4-4.8,1.9-4.6,3.9c0.3,2.2,1.7,3,7.5,3.9
		c6.9,1,11.1,3.2,11.9,9c0.8,6.9-5,11.4-12.6,12.3c-5.7,0.7-10.4-0.7-13.7-3l3.5-5c2.8,1.7,6.1,2.5,9.4,2.1c3.6-0.4,5.7-2.2,5.4-4.7
		c-0.4-2.8-1.8-3.5-8.2-4.4c-7.1-1-10.4-3.9-11.1-8.7c-0.7-5.5,3.9-10.2,11.5-11.2C371.3,276.1,375.3,277,378.8,279.1z"/> <path class="st0" d="M-46,347.7c13.8,1.5,27.4,1.9,40.7,8c2.8,1.2,4.4-1.4,3.5-4.2c-2.1-6.6-4.6-12.7-7.3-18.8
		c11.8-0.7,24.5-9.3,34.8-12.5c21.6-7.3,44.7-10.8,65.2-20.8c1.9-0.8,2.2-4.3,0.3-5.8c-9.8-7.5-20.4-12.5-30.7-18.1
		c2.5-13.4,6.9-25.6,9.1-39.2c0.6-2.9-1.8-5.8-4.4-5c-37.2,12.5-55.7,56.2-87,78.4c-2.6-7.9-6.2-15.4-9.7-22.8
		c-1.1-2.5-4.6-2.8-5.4-0.3c-5.5,18.7-10,37.4-12,57.3C-48.9,345.6-47.4,347.4-46,347.7z M62.2,240.1c-2.4,10.9-5,22-5.5,33.4
		c-1.4,0.3-2.1,2.8-0.4,4.2c8.6,6.5,17.9,11.5,26.9,17.4c-16.6,6.9-34.5,10.7-51.9,15.8c-15.9,4.6-32.3,10.5-47.8,16.8
		c-1.9,0.8-1.2,4.2,0.8,4.7c0.3,0.1,0.6,0,0.8,0.3c2.2,5,4.2,10.2,5.8,15.2c-11.1-3.9-22-4.8-33.4-5.8c2.1-15.6,5.3-30.6,9.3-45.3
		c2.9,6.2,6.1,12.3,8.7,18.7c0.7,1.5,2.1,1.8,3,1.4c0.7,0.6,1.7,0.8,2.6,0.1C12.7,297.5,28.7,255.3,62.2,240.1z"/> </g> </symbol><symbol viewBox="0 0 415.582 415.582" id="shape-checked"><title>checked</title> <g> <path d="M411.47,96.426l-46.319-46.32c-5.482-5.482-14.371-5.482-19.853,0L152.348,243.058l-82.066-82.064
		c-5.48-5.482-14.37-5.482-19.851,0l-46.319,46.32c-5.482,5.481-5.482,14.37,0,19.852l138.311,138.31
		c2.741,2.742,6.334,4.112,9.926,4.112c3.593,0,7.186-1.37,9.926-4.112L411.47,116.277c2.633-2.632,4.111-6.203,4.111-9.925
		C415.582,102.628,414.103,99.059,411.47,96.426z"/> </g>                </symbol><symbol viewBox="0 0 332.427 332.427" id="shape-classes"><title>classes</title> <g> <g> <path d="M56.831,27.69c-2.755-0.005-30.768-0.005-33.527,0c-8.371,0.031-12.751,4.408-12.776,12.743    c-0.025,11.616-0.125,43.018,0.051,47.101c0.142,3.344,2.544,5.522,5.646,5.527c3.148,0.005,5.426-2.143,5.71-5.472    c0.089-1.013,0-23.996,0.089-34.464c0-2.448,2.818-1.912,2.818,0.079c0,1.315,0.041,64.312,0.054,95.334    c0,5.467,2.542,8.658,6.883,8.747c4.596,0.094,7.181-3.021,7.196-8.808c0.028-8.128,0.068-45.375,0.079-52.017    c0-1.366,2.019-1.371,2.019,0c0.005,6.642,0.051,43.884,0.079,52.017c0.015,5.786,2.6,8.896,7.196,8.808    c4.341-0.089,6.886-3.28,6.886-8.747c0.005-31.021,0.051-94.019,0.051-95.334c0-1.99,2.818-2.526,2.818-0.079    c0.089,10.468,0,33.451,0.089,34.464c0.285,3.329,2.564,5.481,5.71,5.472c3.103-0.005,5.504-2.184,5.646-5.527    c0.181-4.083,0.081-35.485,0.051-47.101C69.582,32.098,65.204,27.721,56.831,27.69z"/> <path d="M39.88,22.625c6.505,0.073,11.552-4.784,11.596-11.154C51.521,5.111,46.464-0.005,40.134,0    c-6.332,0.005-11.512,5.149-11.471,11.397C28.707,17.519,33.739,22.551,39.88,22.625z"/> <path d="M140.925,27.69c-2.763-0.005-30.768-0.005-33.53,0c-8.366,0.031-12.75,4.408-12.771,12.743    c-0.025,11.616-0.125,43.018,0.053,47.101c0.145,3.344,2.542,5.522,5.647,5.527c3.146,0.005,5.423-2.143,5.708-5.472    c0.089-1.013,0-23.996,0.089-34.464c0-2.448,2.818-1.912,2.818,0.079c0,1.315,0.048,64.312,0.053,95.334    c0,5.467,2.542,8.658,6.883,8.747c4.598,0.094,7.183-3.021,7.203-8.808c0.025-8.128,0.066-45.375,0.079-52.017    c0-1.366,2.016-1.371,2.016,0c0.005,6.642,0.053,43.884,0.073,52.017c0.016,5.786,2.6,8.896,7.201,8.808    c4.342-0.089,6.886-3.28,6.886-8.747c0.005-31.021,0.051-94.019,0.051-95.334c0-1.99,2.818-2.526,2.818-0.079    c0.089,10.468,0,33.451,0.089,34.464c0.287,3.329,2.559,5.481,5.71,5.472c3.105-0.005,5.507-2.184,5.646-5.527    c0.178-4.083,0.084-35.485,0.053-47.101C153.673,32.098,149.296,27.721,140.925,27.69z"/> <path d="M123.967,22.625c6.5,0.073,11.555-4.784,11.596-11.154C135.616,5.111,130.55-0.005,124.226,0    c-6.337,0.005-11.512,5.149-11.469,11.397C112.792,17.519,117.83,22.551,123.967,22.625z"/> <path d="M225.011,27.69c-2.758-0.005-30.763-0.005-33.524,0c-8.364,0.031-12.741,4.408-12.771,12.743    c-0.03,11.616-0.122,43.018,0.056,47.101c0.138,3.344,2.544,5.522,5.646,5.527c3.148,0.005,5.424-2.143,5.713-5.472    c0.092-1.013,0-23.996,0.092-34.464c0-2.448,2.818-1.912,2.818,0.079c0,1.315,0.046,64.312,0.046,95.334    c0,5.467,2.544,8.658,6.891,8.747c4.591,0.094,7.18-3.021,7.19-8.808c0.035-8.128,0.071-45.375,0.086-52.017    c0-1.366,2.021-1.371,2.021,0c0.01,6.642,0.04,43.884,0.076,52.017c0.01,5.786,2.604,8.896,7.2,8.808    c4.342-0.089,6.886-3.28,6.886-8.747c0-31.021,0.051-94.019,0.051-95.334c0-1.99,2.823-2.526,2.823-0.079    c0.081,10.468,0,33.451,0.081,34.464c0.29,3.329,2.57,5.481,5.708,5.472c3.107-0.005,5.51-2.184,5.651-5.527    c0.178-4.083,0.082-35.485,0.062-47.101C237.767,32.098,233.385,27.721,225.011,27.69z"/> <path d="M208.05,22.625c6.516,0.073,11.568-4.784,11.608-11.154c0.041-6.36-5.017-11.476-11.344-11.471    c-6.332,0.005-11.512,5.149-11.472,11.397C196.879,17.519,201.916,22.551,208.05,22.625z"/> <path d="M268.504,93.056c3.148,0.005,5.428-2.143,5.713-5.471c0.086-1.014,0-23.996,0.086-34.465c0-2.447,2.828-1.912,2.828,0.079    c0,1.315,0.046,64.312,0.046,95.334c0,5.466,2.544,8.658,6.891,8.747c4.591,0.094,7.181-3.021,7.195-8.811    c0.025-8.125,0.071-45.372,0.082-52.014c0-1.366,2.021-1.371,2.021,0c0,6.642,0.046,43.884,0.066,52.014    c0.03,5.789,2.604,8.899,7.211,8.811c4.347-0.089,6.875-3.281,6.875-8.747c0.016-31.021,0.062-94.019,0.062-95.334    c0-1.991,2.818-2.526,2.818-0.079c0.086,10.469,0,33.451,0.086,34.465c0.289,3.328,2.56,5.481,5.707,5.471    c3.113-0.005,5.516-2.184,5.657-5.527c0.173-4.083,0.081-35.485,0.056-47.101c-0.03-8.335-4.418-12.712-12.775-12.743    c-2.763-0.005-30.773-0.005-33.535,0c-8.358,0.031-12.746,4.408-12.767,12.743c-0.035,11.616-0.116,43.019,0.056,47.101    C262.994,90.878,265.396,93.056,268.504,93.056z"/> <path d="M292.157,22.625c6.5,0.073,11.547-4.784,11.588-11.154c0.056-6.36-5.018-11.476-11.334-11.471    c-6.338,0.005-11.518,5.149-11.472,11.397C280.98,17.519,286.018,22.551,292.157,22.625z"/> <path d="M56.831,202.835c-2.755-0.006-30.768-0.006-33.527,0c-8.371,0.03-12.751,4.407-12.776,12.74    c-0.025,11.613-0.125,43.016,0.051,47.108c0.142,3.341,2.544,5.52,5.646,5.524c3.148,0,5.426-2.143,5.71-5.474    c0.089-1.016,0-23.999,0.089-34.47c0-2.452,2.818-1.909,2.818,0.082c0,1.314,0.041,64.312,0.054,95.333    c0,5.464,2.542,8.653,6.883,8.745c4.596,0.096,7.181-3.017,7.196-8.806c0.028-8.13,0.068-45.372,0.079-52.009    c0-1.371,2.019-1.381,2.019,0c0.005,6.637,0.051,43.879,0.079,52.009c0.015,5.789,2.6,8.901,7.196,8.806    c4.341-0.092,6.886-3.281,6.886-8.745c0.005-31.021,0.051-94.019,0.051-95.333c0-1.991,2.818-2.529,2.818-0.082    c0.089,10.471,0,33.454,0.089,34.47c0.285,3.331,2.564,5.474,5.71,5.474c3.103-0.01,5.504-2.188,5.646-5.524    c0.181-4.083,0.081-35.485,0.051-47.108C69.582,207.242,65.204,202.865,56.831,202.835z"/> <path d="M51.476,186.615c0.045-6.357-5.012-11.476-11.342-11.466c-6.332,0-11.512,5.139-11.471,11.395    c0.043,6.119,5.081,11.162,11.217,11.228C46.385,197.843,51.428,192.983,51.476,186.615z"/> <path d="M140.925,202.835c-2.763-0.006-30.768-0.006-33.53,0c-8.366,0.03-12.75,4.407-12.771,12.74    c-0.025,11.613-0.125,43.016,0.053,47.108c0.145,3.341,2.542,5.52,5.647,5.524c3.146,0,5.423-2.143,5.708-5.474    c0.089-1.016,0-23.999,0.089-34.47c0-2.452,2.818-1.909,2.818,0.082c0,1.314,0.048,64.312,0.053,95.333    c0,5.464,2.542,8.653,6.883,8.745c4.598,0.096,7.183-3.017,7.203-8.806c0.025-8.13,0.066-45.372,0.079-52.009    c0-1.371,2.016-1.381,2.016,0c0.005,6.637,0.053,43.879,0.073,52.009c0.016,5.789,2.6,8.901,7.201,8.806    c4.342-0.092,6.886-3.281,6.886-8.745c0.005-31.021,0.051-94.019,0.051-95.333c0-1.991,2.818-2.529,2.818-0.082    c0.089,10.471,0,33.454,0.089,34.47c0.287,3.331,2.559,5.474,5.71,5.474c3.105-0.01,5.507-2.188,5.646-5.524    c0.178-4.083,0.084-35.485,0.053-47.108C153.673,207.242,149.296,202.865,140.925,202.835z"/> <path d="M135.562,186.615c0.048-6.357-5.012-11.476-11.342-11.466c-6.337,0-11.512,5.139-11.469,11.395    c0.036,6.119,5.073,11.162,11.215,11.228C130.472,197.843,135.521,192.983,135.562,186.615z"/> <path d="M225.011,202.835c-2.758-0.006-30.763-0.006-33.524,0c-8.364,0.03-12.741,4.407-12.771,12.74    c-0.03,11.613-0.122,43.016,0.056,47.108c0.138,3.341,2.544,5.52,5.646,5.524c3.148,0,5.424-2.143,5.713-5.474    c0.092-1.016,0-23.999,0.092-34.47c0-2.452,2.818-1.909,2.818,0.082c0,1.314,0.046,64.312,0.046,95.333    c0,5.464,2.544,8.653,6.891,8.745c4.591,0.096,7.18-3.017,7.19-8.806c0.035-8.13,0.071-45.372,0.086-52.009    c0-1.371,2.021-1.381,2.021,0c0.01,6.637,0.04,43.879,0.076,52.009c0.01,5.789,2.604,8.901,7.2,8.806    c4.342-0.092,6.886-3.281,6.886-8.745c0-31.021,0.051-94.019,0.051-95.333c0-1.991,2.823-2.529,2.823-0.082    c0.081,10.471,0,33.454,0.081,34.47c0.29,3.331,2.57,5.474,5.708,5.474c3.107-0.01,5.51-2.188,5.651-5.524    c0.178-4.083,0.082-35.485,0.062-47.108C237.767,207.242,233.385,202.865,225.011,202.835z"/> <path d="M219.658,186.615c0.041-6.357-5.017-11.476-11.349-11.466c-6.338,0-11.512,5.139-11.472,11.395    c0.041,6.119,5.078,11.162,11.207,11.228C214.565,197.843,219.618,192.983,219.658,186.615z"/> <path d="M309.107,202.835c-2.763-0.006-30.772-0.006-33.535,0c-8.363,0.03-12.746,4.407-12.767,12.74    c-0.035,11.613-0.116,43.016,0.057,47.108c0.132,3.341,2.533,5.52,5.642,5.524c3.148,0,5.428-2.143,5.713-5.474    c0.086-1.016,0-23.999,0.086-34.47c0-2.452,2.828-1.909,2.828,0.082c0,1.314,0.046,64.312,0.046,95.333    c0,5.464,2.544,8.653,6.891,8.745c4.591,0.096,7.181-3.017,7.195-8.806c0.025-8.13,0.071-45.372,0.082-52.009    c0-1.371,2.021-1.381,2.021,0c0,6.637,0.046,43.879,0.066,52.009c0.03,5.789,2.604,8.901,7.211,8.806    c4.347-0.092,6.875-3.281,6.875-8.745c0.016-31.021,0.062-94.019,0.062-95.333c0-1.991,2.818-2.529,2.818-0.082    c0.086,10.471,0,33.454,0.086,34.47c0.289,3.331,2.56,5.474,5.707,5.474c3.113-0.01,5.516-2.188,5.657-5.524    c0.173-4.083,0.081-35.485,0.056-47.108C321.858,207.242,317.471,202.865,309.107,202.835z"/> <path d="M292.411,175.149c-6.338,0-11.518,5.139-11.472,11.395c0.046,6.119,5.083,11.162,11.218,11.228    c6.5,0.071,11.547-4.788,11.588-11.156C303.801,180.258,298.728,175.14,292.411,175.149z"/> </g> </g>                </symbol><symbol viewBox="0 0 46 46" id="shape-close-modal"><title>close-modal</title> <g> <g id="close-modal-Delete_1_"> <g> <path d="M23,0C10.298,0,0,10.298,0,23s10.298,23,23,23s23-10.298,23-23S35.702,0,23,0z M23,42C12.507,42,4,33.493,4,23
				S12.507,4,23,4s19,8.507,19,19S33.493,42,23,42z M30.305,16.403l-0.707-0.707c-0.586-0.585-1.537-0.585-2.123,0L23,20.171
				l-4.475-4.475c-0.586-0.585-1.536-0.585-2.121,0l-0.708,0.707c-0.585,0.586-0.585,1.536,0,2.122L20.171,23l-4.475,4.475
				c-0.585,0.586-0.585,1.536,0,2.121l0.708,0.709c0.585,0.584,1.535,0.584,2.121,0L23,25.829l4.475,4.476
				c0.586,0.584,1.537,0.584,2.123,0l0.707-0.709c0.584-0.585,0.584-1.535,0-2.121L25.829,23l4.476-4.475
				C30.889,17.939,30.889,16.989,30.305,16.403z"/> </g> </g> </g>                </symbol><symbol viewBox="0 0 786.5 786.5" id="shape-collegues"><title>collegues</title> <g> <g> <path d="M566,549.2L566,549.2L566,549.2c-0.199-1.6-0.6-3.201-1.1-4.701c-3.801-14.6-12.5-41.299-16.5-53.199
			c-0.4-2.1-1.1-4.1-2-6c0,0-6.4-9.6-11.201-12.5c0,0-2.398-1.301-2.699-1.4c-9.5-4.5-38.9-16.299-38.9-16.299l0,0
			c-14.699-6.4-29.9-11.801-45.4-17.301l0,0l0,0l0,0l0,0c-2.799,11.5-29.1,88.1-33.299,98.801l-3.301-71.201
			c1.1-1.699,1.9-3.6,2.801-5.4l11-21.699c-7.701,6.4-19.301,10.5-32.3,10.5c-12.7,0-24-3.9-31.7-10.1l10.7,21.199
			c0.9,1.801,1.7,3.801,2.8,5.4l-3.3,71.199c-4.2-10.6-30.5-87.199-33.3-98.799l0,0l0,0l0,0l0,0c-15.5,5.5-30.7,11-45.4,17.299l0,0
			c0,0-29.4,11.801-38.9,16.301c-0.3,0.199-2.4,1.199-2.7,1.4c0,0-8.8,7.299-11.2,12.4c0,0-1.6,3.898-2,6
			c-3.9,11.898-12.6,38.5-16.5,53.199c-0.5,1.5-0.9,3.1-1.1,4.699l0,0l0,0c-0.2,1.4-0.3,2.9-0.3,4.301c0,15.699,12.7,28.4,28.4,28.4
			h27.1c38.8,0,77.5,0,116.3,0c0.5,0,1,0,1.5,0l0,0c0.5,0,1,0,1.5,0c38.801,0,77.5,0,116.301,0h27.1c15.699,0,28.4-12.701,28.4-28.4
			C566.301,552.101,566.199,550.601,566,549.2z"/> <path d="M467.199,306.2c0-5,1-23.2,1-27.3c0-40.5-32.898-73.4-73.399-73.4l0,0l0,0H394.7h-0.1l0,0l0,0c-0.5,0-0.9,0-1.4,0
			s-0.899,0-1.399,0l0,0l0,0H391.7h-0.1l0,0l0,0c-40.5,0-73.4,32.9-73.4,73.4c0,4.2,1,22.3,1,27.3c-1.8,0.1-18.199-3.9-16.399,15.8
			c3.7,41.7,19.7,33.7,20.1,33.7c7.8,25.2,20,41.2,31.9,51.401c18.6,15.898,36.6,17.699,37,17.699c0.5,0,1,0,1.5,0l0,0l0,0
			c0.5,0,1,0,1.5,0c0.299,0,18.2-1.699,36.7-17.5c12-10.199,24.199-26.3,32.1-51.6c0.5,0,16.4,8.1,20.1-33.7
			C485.4,302.3,469,306.3,467.199,306.2z"/> <path d="M218.3,476.8l0.2-0.6l0.3-0.6c2.2-4.801,5.8-9.5,11.3-14.9c1.2-1.1,4.8-4.701,7.7-6.701l0,0c0.2-0.1,0.4-0.299,0.6-0.398
			c0.1-0.102,0.2-0.201,0.4-0.201l0,0c2-1.299,4.4-2.4,5.2-2.799c6.5-3.102,20.5-8.801,30.2-12.801c-0.3-0.1-0.6-0.301-1-0.5
			c-0.3-0.1-0.6-0.301-0.9-0.4c-8.3-3.9-33.9-14.199-33.9-14.199l0,0c-12.8-5.5-26.1-10.301-39.6-15.1l0,0
			c-2.4,10.1-25.4,76.799-29,86.1l-2.9-62.1c1-1.5,1.6-3.102,2.4-4.701l9.6-18.9c-6.7,5.602-16.8,9.201-28.1,9.201
			c-11,0-20.9-3.4-27.7-8.801l9.4,18.5c0.8,1.6,1.4,3.301,2.4,4.701l-2.9,62.1c-3.6-9.201-26.6-76-29-86.1l0,0
			c-13.5,4.799-26.8,9.5-39.6,15.1l0,0c0,0-25.6,10.299-33.9,14.199c-0.3,0.1-0.6,0.301-0.9,0.4c-0.7,0.4-1.2,0.6-1.5,0.801l0,0
			c-4.3,2.5-7.7,6.299-9.8,10.799l0,0c0,0,0,0,0,0.1c-0.8,1.602-1.4,3.4-1.7,5.201c-3.4,10.4-11,33.6-14.3,46.299
			c-0.4,1.301-0.8,2.701-1,4.102l0,0l0,0c-0.2,1.199-0.3,2.5-0.3,3.799c0,13.701,11.1,24.701,24.7,24.701h23.6
			c33.8,0,67.6,0,101.4,0c0.4,0,0.9,0,1.3,0s0.9,0,1.3,0c16.1,0,32.2,0,48.3,0c4.2-14.801,10.9-35.602,15.1-48.102
			C216.3,481.899,217.5,478.601,218.3,476.8z"/> <path d="M89.4,335.8c6.8,21.9,17.4,35.9,27.8,44.8c16.2,13.899,31.9,15.399,32.2,15.399c0.4,0,0.9,0,1.3,0s0.9,0,1.3,0
			c0.3,0,15.9-1.5,32-15.299c10.5-8.9,21.1-22.9,28-45c0.4,0,14.3,7.1,17.6-29.3c1.5-17.2-12.8-13.7-14.3-13.8
			c0-4.4,0.9-20.2,0.9-23.8c0-35.3-28.7-64-64-64l0,0h-0.1H152l0,0l0,0c-0.4,0-0.8,0-1.2,0c-0.4,0-0.8,0-1.2,0l0,0l0,0h-0.1h-0.1
			l0,0l0,0c-35.3,0-64,28.7-64,64c0,3.6,0.9,19.5,0.9,23.8c-1.6,0.1-15.9-3.4-14.3,13.8C75.1,342.9,89,335.8,89.4,335.8z"/> <path d="M786,483.399c-0.199-2.299-0.5-4.6-0.801-6.9c0,0-1.299-7.398-1.6-8.6c-3-13.1-11.1-22.6-22.1-30.1
			c-2.1-1.4-4.199-2.6-6.301-3.699c-2.799-1.5-45.799-15.602-46.898-16c0.299,1.5,0.398,3.1,0.5,4.898
			c6,4.201,23.6,19.4,15.6,47.701c0,0-12.701-15.1-25.6-17c-12.301,21.4-33.201,48.6-44.5,55.699
			C643,502.3,622.1,475.2,609.801,453.7c-12.9,1.9-25.602,17-25.602,17c-8-28.4,9.602-43.5,15.602-47.701
			c0.1-1.799,0.199-3.398,0.5-4.898c-1.102,0.398-44.102,14.5-46.9,16c-2.201,1.1-4.301,2.299-6.301,3.699
			c-4.299,2.9-8.1,6.1-11.4,9.699c2.602,1.102,4.801,2.102,6.602,2.9c0.699,0.301,2.799,1.301,4.699,2.5l0,0
			c4.5,2.701,8.9,6.801,13.699,12.801c4.801,6.1,6.4,9,7.201,10.9c1.199,2.699,2.199,5.6,2.9,8.5c4.1,12.5,10.898,33.299,15,48
			c22.799,0,45.699,0,68.5,0c33.1,0,66.199,0,99.299,0c9.9,0,18.301-3,25.301-10.4c5.4-5.801,7-12.701,7.4-20.201
			c0.1-1.299,0.199-7,0.199-7S786,483.499,786,483.399z"/> <path d="M576.4,348.4c1,3.7,1.699,7.2,1.699,10.5c0,1.1-0.1,2.2-0.299,3.3c-0.9,3.1-7.5,13.7-8.602,15.5
			c11.701,12.6,27.102,15.5,42.301,18.7c4.5,0.9,9.1,1.5,14,2.1c1.6,0.301,3.199,0.602,4.801,0.9l-7.701,22.6
			c0,0-0.199,33,31.701,53.102h0.199c31.9-20.102,31.699-53.102,31.699-53.102l-7.699-22.6c1.6-0.299,3.199-0.6,4.801-0.9
			c4.898-0.6,9.5-1.199,14-2.1C712.5,393.2,728,390.3,739.6,377.7c-1.1-1.8-7.699-12.4-8.6-15.5c-0.199-1.1-0.301-2.2-0.301-3.3
			c0-3.3,0.602-6.8,1.701-10.5c1-3.5,2.1-7,3.199-10.6c5.201-11.5,8-24.2,8-37.7c0-49.9-39.699-90.5-89-91.4l0,0h-0.1h-0.1l0,0
			c-49.301,0.9-89,41.5-89,91.4c0,13.4,2.9,26.2,8,37.7C574.301,341.4,575.4,344.9,576.4,348.4z"/> </g> </g>                </symbol><symbol viewBox="0 0 270.125 270.125" id="shape-columns"><title>columns</title> <path color-rendering="auto" image-rendering="auto" shape-rendering="auto" color-interpolation="sRGB" d="M33.892,70.088
	c-19.537,1.555-35.578,18.669-33.75,38.771c1.569,17.255,16.823,31.414,34.676,29.519c14.97-1.588,27.251-14.994,25.264-30.604
	c-1.615-12.681-13.199-23.104-26.578-20.975c-10.387,1.653-18.976,11.473-16.606,22.643c0.859,4.047,3.183,7.559,6.492,9.941
	c3.309,2.382,7.922,3.55,12.416,2.119c2.944-0.937,5.294-2.818,6.887-5.521c1.593-2.704,2.11-6.917-0.02-10.262
	c-1.717-2.698-3.293-3.232-5.766-3.648c-1.236-0.208-2.965-0.285-4.805,0.912c-1.84,1.197-2.815,3.672-2.815,5.422
	c-0.017,1.336,0.5,2.623,1.438,3.574c-0.491-0.141-0.978-0.339-1.494-0.711c-1.205-0.868-2.243-2.443-2.553-3.902
	c-1.059-4.992,3.23-9.867,8.395-10.69c7.348-1.17,14.144,4.951,15.088,12.359c1.231,9.671-6.743,18.372-16.4,19.396
	c-11.975,1.271-22.577-8.57-23.66-20.48C8.803,93.684,20.517,81.184,34.685,80.057c0.126-0.01,0.253-0.016,0.379-0.023h200
	c0.126,0.01,0.252,0.014,0.377,0.023c14.168,1.127,25.882,13.627,24.584,27.896c-1.083,11.911-11.685,21.751-23.66,20.48
	c-9.658-1.025-17.632-9.726-16.4-19.396c0.943-7.409,7.739-13.529,15.088-12.359c5.165,0.822,9.454,5.697,8.394,10.69
	c-0.31,1.459-1.348,3.035-2.553,3.902c-0.516,0.371-1,0.57-1.49,0.711c0.936-0.952,1.452-2.239,1.434-3.574
	c0-1.75-0.973-4.225-2.812-5.422c-1.84-1.197-3.568-1.12-4.805-0.912c-2.473,0.416-4.05,0.951-5.768,3.648
	c-2.129,3.344-1.611,7.558-0.018,10.262c1.593,2.704,3.943,4.585,6.887,5.521c4.494,1.43,9.105,0.263,12.414-2.119
	s5.633-5.894,6.492-9.941c2.37-11.169-6.219-20.989-16.605-22.643c-13.379-2.129-24.964,8.294-26.578,20.975
	c-1.988,15.61,10.296,29.015,25.266,30.604c17.852,1.894,33.105-12.264,34.674-29.52c1.828-20.102-14.213-37.217-33.75-38.771
	c-0.406-0.062-0.781-0.037-1.17-0.045h-200c-0.389-0.024-0.8,0.021-1.172,0.047L33.892,70.088z M15.063,20.063c-2.761,0-5,2.239-5,5
	v10c0,1.326,0.527,2.598,1.465,3.535l20,20c0.938,0.938,2.209,1.465,3.535,1.465h200c1.326,0,2.598-0.527,3.535-1.465l20-20
	c0.938-0.938,1.465-2.209,1.465-3.535v-10c0-2.761-2.239-5-5-5C255.063,20.063,15.063,20.063,15.063,20.063z M20.063,30.063h230
	v2.928l-17.072,17.072H37.133l-17.07-17.072V30.063z M75.063,100.063c-2.761,0-5,2.239-5,5v140c0.001,2.762,2.24,5,5.002,4.999
	c0.987,0,1.951-0.292,2.772-0.839l28.441-18.963c1.366-0.91,2.198-2.433,2.227-4.074l1.557-91.039c0-0.028,0-0.056,0-0.084
	c0-3.28,10.058-3.373,10-0.09c0,0.03,0,0.06,0,0.09v80c0.001,2.762,2.24,5,5.002,4.999c0.987,0,1.951-0.292,2.772-0.839l30-20
	c1.391-0.927,2.226-2.488,2.227-4.16v-60c0-3.339,10-3.339,10,0v50c0.001,2.762,2.241,5,5.003,4.998c0.775,0,1.54-0.181,2.234-0.528
	l20-10c1.693-0.847,2.763-2.577,2.764-4.471v-70c0-2.761-2.239-5-5-5h-120H75.063z M80.063,110.063h110v61.908l-10,5v-41.908
	c0-16.668-30-16.668-30,0v57.324l-20,13.334v-70.658v0.088c0.297-16.724-29.998-16.815-29.998-0.088v-0.086l-1.512,88.418
	l-18.488,12.326V110.063L80.063,110.063z"/>                </symbol><symbol viewBox="0 0 29.643 29.643" id="shape-compte"><title>compte</title> <g> <path d="M18.621,12.397l-0.546-1.295c0,0,1.267-2.859,1.157-2.969l-1.678-1.639c-0.117-0.113-2.978,1.191-2.978,1.191l-1.32-0.533
		c0,0-1.169-2.898-1.327-2.898h-2.37c-0.164,0-1.242,2.906-1.242,2.906L6.998,7.695c0,0-2.922-1.242-3.034-1.135L2.287,8.203
		c-0.116,0.115,1.219,2.916,1.219,2.916l-0.544,1.295c0,0-2.962,1.139-2.962,1.295v2.322c0,0.16,2.969,1.217,2.969,1.217
		l0.545,1.291c0,0-1.268,2.861-1.157,2.971l1.679,1.641c0.113,0.111,2.976-1.195,2.976-1.195l1.321,0.537
		c0,0,1.166,2.896,1.326,2.896h2.37c0.163,0,1.244-2.906,1.244-2.906l1.32-0.535c0,0,2.918,1.242,3.031,1.135l1.678-1.643
		c0.115-0.111-1.221-2.914-1.221-2.914l0.546-1.295c0,0,2.963-1.143,2.963-1.299v-2.32C21.591,13.453,18.621,12.397,18.621,12.397z
		 M10.795,18.207c-1.905,0-3.459-1.52-3.459-3.387c0-1.865,1.554-3.385,3.459-3.385c1.908,0,3.459,1.52,3.459,3.385
		C14.254,16.688,12.703,18.207,10.795,18.207z"/> <path d="M28.538,9.693l0.014-0.676c0,0,1.118-1.006,1.091-1.076l-0.414-1.048c-0.031-0.072-1.544-0.062-1.544-0.062l-0.474-0.492
		c0,0,0.058-1.502-0.013-1.533l-1.041-0.467c-0.074-0.033-1.117,1.035-1.117,1.035l-0.684-0.027c0,0-1.039-1.119-1.109-1.092
		l-1.061,0.393c-0.071,0.025-0.036,1.518-0.036,1.518l-0.495,0.463c0,0-1.523-0.082-1.554-0.014l-0.457,1.02
		c-0.032,0.072,1.065,1.119,1.065,1.119l-0.014,0.672c0,0-1.117,1.008-1.09,1.078l0.415,1.049c0.03,0.07,1.543,0.059,1.543,0.059
		l0.473,0.494c0,0-0.055,1.502,0.016,1.533l1.041,0.465c0.072,0.033,1.116-1.029,1.116-1.029l0.685,0.023
		c0,0,1.037,1.119,1.109,1.094l1.058-0.393c0.073-0.025,0.038-1.52,0.038-1.52l0.494-0.459c0,0,1.523,0.078,1.555,0.01l0.457-1.02
		C29.634,10.74,28.538,9.693,28.538,9.693z M26.145,9.9c-0.367,0.82-1.347,1.184-2.187,0.809c-0.836-0.373-1.22-1.346-0.853-2.168
		c0.365-0.818,1.348-1.18,2.184-0.807C26.126,8.111,26.51,9.082,26.145,9.9z"/>                </g>                </symbol><symbol viewBox="0 0 335.08 335.079" id="shape-cours"><title>cours</title> <g> <g> <path d="M311.175,115.775c-1.355-10.186-1.546-27.73,7.915-33.621c0.169-0.108,0.295-0.264,0.443-0.398
			c7.735-2.474,13.088-5.946,8.886-10.618l-114.102-34.38L29.56,62.445c0,0-21.157,3.024-19.267,35.894
			c1.026,17.89,6.637,26.676,11.544,31l-15.161,4.569c-4.208,4.672,1.144,8.145,8.88,10.615c0.147,0.138,0.271,0.293,0.443,0.401
			c9.455,5.896,9.273,23.438,7.913,33.626c-33.967,9.645-21.774,12.788-21.774,12.788l7.451,1.803
			c-5.241,4.736-10.446,13.717-9.471,30.75c1.891,32.864,19.269,35.132,19.269,35.132l120.904,39.298l182.49-44.202
			c0,0,12.197-3.148-21.779-12.794c-1.366-10.172-1.556-27.712,7.921-33.623c0.174-0.105,0.301-0.264,0.442-0.396
			c7.736-2.474,13.084-5.943,8.881-10.615l-7.932-2.395c5.29-3.19,13.236-11.527,14.481-33.183
			c0.859-14.896-3.027-23.62-7.525-28.756l15.678-3.794C332.949,128.569,345.146,125.421,311.175,115.775z M158.533,115.354
			l30.688-6.307l103.708-21.312l15.451-3.178c-4.937,9.036-4.73,21.402-3.913,29.35c0.179,1.798,0.385,3.44,0.585,4.688
			L288.14,122.8l-130.897,32.563L158.533,115.354z M26.71,147.337l15.449,3.178l99.597,20.474l8.701,1.782l0,0l0,0l26.093,5.363
			l1.287,40.01L43.303,184.673l-13.263-3.296c0.195-1.25,0.401-2.89,0.588-4.693C31.44,168.742,31.651,156.373,26.71,147.337z
			 M20.708,96.757c-0.187-8.743,1.371-15.066,4.52-18.28c2.004-2.052,4.369-2.479,5.991-2.479c0.857,0,1.474,0.119,1.516,0.119
			l79.607,25.953l39.717,12.949l-1.303,40.289L39.334,124.07l-5.88-1.647c-0.216-0.061-0.509-0.103-0.735-0.113
			C32.26,122.277,21.244,121.263,20.708,96.757z M140.579,280.866L23.28,247.98c-0.217-0.063-0.507-0.105-0.733-0.116
			c-0.467-0.031-11.488-1.044-12.021-25.544c-0.19-8.754,1.376-15.071,4.519-18.288c2.009-2.052,4.375-2.479,5.994-2.479
			c0.859,0,1.474,0.115,1.519,0.115c0,0,0.005,0,0,0l119.316,38.908L140.579,280.866z M294.284,239.459
			c0.185,1.804,0.391,3.443,0.591,4.693l-147.812,36.771l1.292-40.01l31.601-6.497l4.667,1.129l17.492-5.685l80.631-16.569
			l15.457-3.18C293.261,219.146,293.466,231.517,294.284,239.459z M302.426,185.084c-0.269,0.006-0.538,0.042-0.791,0.122
			l-11.148,3.121l-106.148,29.764l-1.298-40.289l34.826-11.359l84.327-27.501c0.011-0.005,4.436-0.988,7.684,2.315
			c3.144,3.214,4.704,9.537,4.52,18.28C313.848,184.035,302.827,185.053,302.426,185.084z"/> </g> </g>                </symbol><symbol viewBox="0 0 612 612" id="shape-create"><title>create</title> <g> <g id="create-_x38__3_"> <g> <path d="M306,0C136.992,0,0,136.992,0,306s136.992,306,306,306s306-137.012,306-306S475.008,0,306,0z M306,573.75
				C158.125,573.75,38.25,453.875,38.25,306C38.25,158.125,158.125,38.25,306,38.25c147.875,0,267.75,119.875,267.75,267.75
				C573.75,453.875,453.875,573.75,306,573.75z M420.75,286.875h-95.625V191.25c0-10.557-8.568-19.125-19.125-19.125
				c-10.557,0-19.125,8.568-19.125,19.125v95.625H191.25c-10.557,0-19.125,8.568-19.125,19.125c0,10.557,8.568,19.125,19.125,19.125
				h95.625v95.625c0,10.557,8.568,19.125,19.125,19.125c10.557,0,19.125-8.568,19.125-19.125v-95.625h95.625
				c10.557,0,19.125-8.568,19.125-19.125C439.875,295.443,431.307,286.875,420.75,286.875z"/> </g> </g> </g>                </symbol><symbol viewBox="0 0 44.2 44.2" id="shape-down"><title>down</title> <g> <path d="M1.9,13c0-0.5,0.2-1,0.5-1.3c0.7-0.7,1.9-0.7,2.7,0l17,17l17-17c0.7-0.7,1.9-0.7,2.7,0c0.7,0.7,0.7,1.9,0,2.7L23.4,32.6
		c-0.7,0.7-1.9,0.7-2.7,0L2.5,14.3C2.1,13.9,1.9,13.4,1.9,13z"/> </g> </symbol><symbol viewBox="0 0 528.807 528.807" id="shape-edit"><title>edit</title> <g> <path d="M513.74,204.829l-29.482,29.486l-82.147-82.139l29.494-29.489c9.292-9.292,23.253-10.441,31.138-2.565l53.563,53.572
		C524.179,181.567,523.032,195.537,513.74,204.829z M388.421,165.859l82.147,82.147l-195.883,195.88
		c-0.898,0.898-3.393,3.393-6.892,4.285c-0.405,0.195-0.819,0.361-1.229,0.491l-102.23,32.58c-2.861,0.904-5.736,0.319-7.601-1.549
		c-1.871-1.868-2.45-4.74-1.555-7.602l32.58-102.221c0.139-0.419,0.305-0.827,0.491-1.224c0.896-3.505,3.384-5.993,4.292-6.897
		l36.812-36.812H105.02c-5.012,0-9.079-4.066-9.079-9.079c0-5.023,4.066-9.078,9.079-9.078h142.491L388.421,165.859z
		 M249.417,437.574l-50.569-50.561l-13.565,42.581l21.554,21.557L249.417,437.574z M385.265,198.508
		c-2.908-2.911-7.625-2.911-10.527,0L222.03,351.206c-2.905,2.908-2.905,7.625,0,10.533c2.905,2.908,7.625,2.908,10.53,0
		l152.705-152.699C388.172,206.129,388.172,201.413,385.265,198.508z M376.037,489.217c0,5.455-4.438,9.9-9.895,9.9H185.956
		l-16.275,5.189c-3.269,1.041-6.629,1.566-9.992,1.566c-7.161,0-13.819-2.453-19.266-6.756H46.885c-5.458,0-9.909-4.434-9.909-9.9
		V73.424c0-5.458,4.445-9.9,9.909-9.9h37.12v15.675c0,5.464,4.43,9.897,9.903,9.897c5.471,0,9.901-4.433,9.901-9.897V63.523h56.92
		v15.675c0,5.464,4.43,9.897,9.901,9.897c5.473,0,9.903-4.433,9.903-9.897V63.523h49.497v15.675c0,5.464,4.43,9.897,9.904,9.897
		c5.47,0,9.9-4.433,9.9-9.897V63.523h54.453v15.675c0,5.464,4.427,9.897,9.895,9.897c5.473,0,9.906-4.433,9.906-9.897V63.523h42.072
		c5.45,0,9.896,4.442,9.896,9.9v68.571l10.379-10.374l19.322-19.325V73.424c0-21.831-17.762-39.596-39.597-39.596h-42.072V9.904
		c0-5.467-4.434-9.904-9.906-9.904c-5.462,0-9.895,4.431-9.895,9.904v23.924h-54.465V9.904c0-5.467-4.43-9.904-9.901-9.904
		c-5.473,0-9.903,4.431-9.903,9.904v23.924h-49.497V9.904c0-5.467-4.43-9.904-9.904-9.904c-5.47,0-9.9,4.431-9.9,9.904v23.924
		h-56.92V9.904c0-5.467-4.431-9.904-9.901-9.904c-5.473,0-9.903,4.431-9.903,9.904v23.924h-37.12
		c-21.832,0-39.602,17.765-39.602,39.596v415.787c0,21.834,17.771,39.596,39.602,39.596h319.264
		c21.835,0,39.597-17.762,39.597-39.596V345.059l-29.702,29.708v114.45H376.037z M298.707,152.436H105.02
		c-5.012,0-9.079,4.061-9.079,9.079c0,5.019,4.066,9.079,9.079,9.079h193.687c5.013,0,9.079-4.061,9.079-9.079
		C307.786,156.497,303.72,152.436,298.707,152.436z M298.707,225.635H105.02c-5.012,0-9.079,4.063-9.079,9.079
		c0,5.019,4.066,9.079,9.079,9.079h193.687c5.013,0,9.079-4.061,9.079-9.079C307.786,229.698,303.72,225.635,298.707,225.635z"/> </g>                </symbol><symbol viewBox="0 0 512 512" id="shape-facebook"><title>facebook</title> <g> <path d="M256,0C114.609,0,0,114.609,0,256c0,141.391,114.609,256,256,256c141.391,0,256-114.609,256-256
		C512,114.609,397.391,0,256,0z M256,472c-119.297,0-216-96.703-216-216S136.703,40,256,40s216,96.703,216,216S375.297,472,256,472z
		"/> <path d="M316.75,216.812h-44.531v-32.5c0-9.969,10.312-12.281,15.125-12.281c4.781,0,28.767,0,28.767,0v-43.859L283.141,128
		c-44.983,0-55.25,32.703-55.25,53.672v35.141H195.25V262h32.641c0,58.016,0,122,0,122h44.328c0,0,0-64.641,0-122h37.656
		L316.75,216.812z"/> </g>                </symbol><symbol viewBox="0 0 512 512" id="shape-github"><title>github</title> <g> <path d="M256,0C114.615,0,0,114.615,0,256s114.615,256,256,256s256-114.615,256-256S397.385,0,256,0z M408.027,408.027
		c-19.76,19.759-42.756,35.267-68.354,46.094c-6.502,2.75-13.105,5.164-19.801,7.246V423c0-20.167-6.916-35-20.75-44.5
		c8.668-0.833,16.625-2,23.875-3.5s14.918-3.667,23-6.5c8.084-2.833,15.334-6.208,21.75-10.125c6.418-3.917,12.584-9,18.5-15.25
		c5.918-6.25,10.875-13.333,14.875-21.25s7.168-17.417,9.5-28.5c2.334-11.083,3.5-23.292,3.5-36.625c0-25.833-8.416-47.833-25.25-66
		c7.668-20,6.834-41.75-2.5-65.25l-6.25-0.75c-4.332-0.5-12.125,1.333-23.375,5.5s-23.875,11-37.875,20.5
		c-19.832-5.5-40.416-8.25-61.749-8.25c-21.5,0-42,2.75-61.5,8.25c-8.833-6-17.208-10.958-25.125-14.875s-14.25-6.583-19-8
		s-9.167-2.292-13.25-2.625s-6.708-0.417-7.875-0.25s-2,0.333-2.5,0.5c-9.333,23.667-10.167,45.417-2.5,65.25
		c-16.833,18.167-25.25,40.167-25.25,66c0,13.333,1.167,25.542,3.5,36.625s5.5,20.583,9.5,28.5s8.958,15,14.875,21.25
		s12.083,11.333,18.5,15.25s13.667,7.292,21.75,10.125s15.75,5,23,6.5s15.208,2.667,23.875,3.5c-13.667,9.333-20.5,24.167-20.5,44.5
		v39.115c-7.549-2.247-14.99-4.902-22.3-7.994c-25.597-10.827-48.594-26.335-68.353-46.094
		c-19.758-19.758-35.267-42.756-46.093-68.354C46.679,313.195,41,285.043,41,256s5.679-57.195,16.879-83.675
		c10.827-25.597,26.335-48.594,46.093-68.353c19.758-19.759,42.756-35.267,68.353-46.093C198.805,46.679,226.957,41,256,41
		s57.195,5.679,83.676,16.879c25.598,10.827,48.594,26.335,68.354,46.093c19.758,19.758,35.266,42.756,46.092,68.353
		C465.32,198.805,471,226.957,471,256s-5.68,57.195-16.879,83.675C443.295,365.271,427.785,388.27,408.027,408.027z"/> </g>                </symbol><symbol viewBox="0 0 512 512" id="shape-google"><title>google</title> <g> <path d="M256,0C114.609,0,0,114.609,0,256c0,141.391,114.609,256,256,256c141.391,0,256-114.609,256-256
		C512,114.609,397.391,0,256,0z M256,472c-119.297,0-216-96.703-216-216S136.703,40,256,40s216,96.703,216,216S375.297,472,256,472z
		"/> <g> <g> <path d="M278.062,135.945c8.719-4.891,12.53-8.062,12.53-8.062h-83.281c-16.688,0-63.031,18.953-63.031,63.203
				c0,44.258,48.062,53.758,65.5,53.039c-9.781,11.938-1.406,22.844,3.844,28.422c5.219,5.625,4.156,7.375-2.094,7.375
				c-6.281,0-83.625,0.844-83.625,56.219s102.781,59.375,136.562,29.531c33.781-29.844,26.47-71,0.345-89.594
				c-26.125-18.609-35.875-27.391-19.156-42.141c16.719-14.75,29.969-26.688,29.969-54.086c0-27.406-22.656-41.422-22.656-41.422
				S269.344,140.867,278.062,135.945z M265.156,333.328c0,23.891-20.281,35.469-54.719,35.469
				c-34.469,0-52.938-17.203-52.938-42.844c0-25.656,25.094-38.297,72.125-38.297C242.375,297.484,265.156,309.422,265.156,333.328z
				 M215.344,233.219c-41.469,0-60.281-96.898-11.5-96.898C241.812,134.898,270.375,233.219,215.344,233.219z M352.75,160.039
				v-31.516h-16.281v31.516h-31.875v16.359h31.875v31.57h16.281v-31.57h31.344v-16.359H352.75z"/> </g> </g> </g>                </symbol><symbol viewBox="0 0 415 415" id="shape-graphics"><title>graphics</title> <g> <path d="M192.5,30C86.185,30,0,116.185,0,222.5S86.185,415,192.5,415S385,328.815,385,222.5H192.5V30z"/> <path d="M222.5,0v192.5H415C415,86.185,328.815,0,222.5,0z"/> </g>                </symbol><symbol viewBox="0 0 1040 419" id="shape-heros-register"><title>heros-register</title> <style type="text/css"> .st0{fill:#FFFFFF;} .st1{fill:#6F9BFF;} .st2{fill:#FFFFFF;stroke:#5A8DFF;} .st3{fill:none;stroke:#5A8DFF;} .st4{fill:#FDFDFD;stroke:#5A8DFF;stroke-width:0.6776;} .st5{fill:#2FC85A;} .st6{fill:#FDFDFD;stroke:#5A8DFF;stroke-width:0.3478;} .st7{fill-rule:evenodd;clip-rule:evenodd;fill:#2FC85A;} </style> <path class="st0" d="M279.1,104.7c-2.6,0-5,0.6-7.3,1.6c0.1-0.7,0.1-1.4,0.1-2.1c0-13.2-10.7-23.9-23.9-23.9c-3.1,0-6.1,0.6-8.8,1.7
	c-7.2-17.5-27-27.3-50.6-27.3c-28.3,0-50,17.9-50,36c0,1.3,0.1,2.6,0.4,3.8c-2-0.6-4.2-0.9-6.4-0.9c-13.2,0-23.9,10.7-23.9,23.9
	c0,12.5,9.6,22.7,21.7,23.8c0,0,0,0.1,0,0.1h2.2c0,0,0,0,0,0c0,0,0,0,0,0h143.7c0,0,22.5,1.2,22.2-18.2
	C298.5,113.3,288.9,104.7,279.1,104.7z"/> <g> <path class="st1" d="M801.6,384.1c0.3-0.1,0.1-0.3-0.7-0.3l-0.6,0.3L801.6,384.1z"/> <path class="st1" d="M796.1,383.3c-1,0.1-2.1,0.4-1.5,0.7c1-0.3,1.2-0.2,2.2-0.5c0.8,0,1.4,0.1,1.3,0.3c0.3-0.1,1.3,0.1,1.7-0.1
		c-1.1-0.3-2.4-0.3-3.8-0.2C795.8,383.5,796,383.4,796.1,383.3z"/> <path class="st1" d="M716.3,380.9l0.5,0C716.6,380.9,716.5,380.9,716.3,380.9z"/> <path class="st1" d="M666.8,379.8c0.4,0,0.5,0,0.6-0.1C667,379.7,666.7,379.8,666.8,379.8z"/> <path class="st1" d="M658.3,379.3c0.2,0,0.3,0,0.5,0C658.6,379.3,658.4,379.3,658.3,379.3z"/> <path class="st1" d="M716.3,380.9l-1.3-0.1C714.8,380.9,715.6,380.9,716.3,380.9z"/> <path class="st1" d="M785.1,383.8c0.3,0,0.5,0,0.7-0.1C785.6,383.8,785.4,383.8,785.1,383.8C785.1,383.8,785.1,383.8,785.1,383.8z"/> <path class="st1" d="M738.1,381.1l0.4,0c0.1,0,0.2-0.1,0.3-0.1L738.1,381.1z"/> <path class="st1" d="M754.8,381.4c-0.4,0-0.5,0.3-0.7,0.4c0.2-0.1,0.5-0.2,0.8-0.2C755,381.6,755,381.5,754.8,381.4z"/> <path class="st1" d="M781.4,382.6l0.5,0C781.7,382.6,781.5,382.6,781.4,382.6z"/> <path class="st1" d="M726.1,380.8c0,0-0.1-0.1-0.2-0.1C726,380.7,726,380.7,726.1,380.8z"/> <path class="st1" d="M257.8,382.1C257.8,382.1,257.8,382.1,257.8,382.1C257.7,382.1,257.6,382.1,257.8,382.1z"/> <path class="st1" d="M238.3,381.1l0.3,0c0-0.1,0.1-0.1,0.1-0.2L238.3,381.1z"/> <path class="st1" d="M642.9,378.7C642.9,378.7,642.9,378.7,642.9,378.7C643.3,378.7,643.1,378.7,642.9,378.7z"/> <path class="st1" d="M500.9,377.7c1.6,0.3-2.6,0.3-0.2,0.6C500.5,378.2,502.9,377.9,500.9,377.7z"/> <path class="st1" d="M784.7,383.8c-0.2,0-0.5,0-0.7,0C784.3,383.8,784.5,383.8,784.7,383.8z"/> <path class="st1" d="M500.7,378.3L500.7,378.3l0.2,0C500.8,378.3,500.8,378.3,500.7,378.3z"/> <path class="st1" d="M607.2,378.4c0.1,0.1,0.2,0.1,0.4,0.1C607.6,378.5,607.5,378.5,607.2,378.4z"/> <path class="st1" d="M633.8,379.1l-0.7,0C633.4,379.1,633.6,379.1,633.8,379.1z"/> <path class="st1" d="M593.4,378.7c-0.4,0-0.5-0.1-1,0c0,0,0.1,0,0.1,0C592.8,378.6,593,378.6,593.4,378.7z"/> <path class="st1" d="M579.1,378.5c0.1,0,0.2,0,0.3,0.1c0.1,0,0.3,0,0.5,0L579.1,378.5z"/> <path class="st1" d="M301.4,381.3c-0.3-0.1-0.5-0.2-0.7-0.2C300.9,381.2,298.8,381.3,301.4,381.3z"/> <path class="st1" d="M785.1,383.7c-0.1,0.1-0.2,0.1-0.4,0.1c0.2,0,0.3,0,0.5,0C785.2,383.7,785.2,383.7,785.1,383.7z"/> <path class="st1" d="M592.8,380.9l-2.3-0.1C591.2,380.8,592,380.9,592.8,380.9z"/> <path class="st1" d="M404.3,380.2l-0.5,0C403.9,380.2,404.1,380.2,404.3,380.2z"/> <path class="st1" d="M583.8,380.8c-0.4-0.1-0.8-0.2-1.3-0.2c-0.1,0-0.2,0-0.3,0.1L583.8,380.8z"/> <path class="st1" d="M300.7,381C300.7,381,300.7,381,300.7,381C300.7,381,300.7,381,300.7,381z"/> <path class="st1" d="M285.7,381.9c2.2,0,1-0.4,1.5-0.6c2.6-0.1,1.2,0.3,2.1,0.4c1.6-0.1,2.9-0.5,4.1-0.5c0.1,0.1,0.3,0.1,0.1,0.2
		c1.7-0.3,5.1-0.1,7.1-0.5c0.1,0,0.2,0.1,0.3,0.1c-0.3-0.2-0.4-0.4-0.3-0.5c1,0,1.8-0.3,2.2,0c-0.6,0-0.6,0.1-0.9,0.2l1-0.1
		c0.9,0.3-1.4,0.1-1.4,0.4c2-0.1,4.3-0.5,5.8-0.4c0.3,0.3-3.6,0.2-1.5,0.4l-2.4-0.1c1.8,0.5-1.4,0,0.2,0.5c3.1,0.1,3.5-0.2,6.6-0.2
		c0.7-0.2-0.2-0.3,0.5-0.5c4.4-0.4,3.5,0.8,6.7,0.3c0.8-0.2,1.2-0.7,3.5-0.5l-0.8,0.4c3,0,1.7-0.6,4.9-0.4c-0.6,0.2-2.4,0.2-1.9,0.2
		c2,0.3,1.4-0.2,3-0.3l0.3,0.3c3.2-0.1,6.7-0.4,10.3-0.5c-0.2,0.1-0.8,0.2,0,0.3c4.5-0.2,9.5-0.1,13.9,0.1l1.6-0.3
		c0.4,0,0.7,0.1,0.3,0.2c1.7,0.1,0.1-0.2,0.9-0.3c1,0,1.3,0.2,0.7,0.3c3-0.3,8.4-0.6,11.6-0.3l-0.6,0.1c2.4,0.1,2.7-0.6,5-0.4
		l-0.4,0.1c5.3,0.1,11.1-0.2,15.1,0.2c0.8-0.4,5.2,0.2,5.6-0.4c3,0.3,2.2,0.4,6.4,0.6c1.1,0,1.7-0.4,3.1-0.4l0,0.3l1.9-0.3l1,0.4
		l1.3-0.1c-0.5,0-1.1-0.1-1-0.2c2.1-0.2,5,0.2,5.1,0.3l4.9-0.3c-0.1,0.1-0.9,0.2-1.6,0.3c2.6-0.3,0.5,0.3,2.8,0
		c-0.3-0.1,0.2-0.2,0.2-0.2c1.2,0.2,3.9,0.2,5.9,0.1l-0.4,0.2c3.6,0,7.6-0.1,11.6-0.1c-1.5-0.1-1.1-0.5,0.1-0.5l0.5,0.3
		c0.8-0.2-1.2-0.1,0.3-0.4c1.5,0,1,0.4,0.1,0.5l1.8-0.1c0.1,0.1-0.3,0.1-0.4,0.3c0.8-0.2,3.2,0.3,4.3,0l0.1,0.1c4,0,5.9-0.1,9.2-0.2
		c0.1-0.3,1.4-0.2,2.3-0.5c2.4,0.1,5.1,0.3,8,0.3c2-0.1,0.6-0.2,1.5-0.4c0.2,0.3,3.1,0.2,1.6,0.4c3.5,0,4.5-0.1,8.9-0.3
		c-0.5-0.1-1-0.1-0.7-0.2c0.8,0,1.8,0.1,1.7,0.2l-0.2,0c5-0.4,11.5,0.7,15.4,0.2l-0.2,0l4.1-0.3c1.9,0-1.1,0.2,0.3,0.4
		c4.4-0.4,7,0.1,10.6-0.2c2.8,0.8,10,0,13.8,0.5l-0.2-0.2c1-0.2,1.2,0.1,1.9,0.1c-0.1-0.1-1.1-0.2-0.5-0.3
		c8.3-0.2,17.2,0.3,25.8,0.5c3.1,0.1,1.8-0.9,5.7-0.5l-1.1,0.3c6.3-0.4,12.9,0.1,19.1-0.2c-0.4,0.1-0.4,0.2-1,0.2
		c1.3,0.3,4.8,0.1,4.8-0.1c1,0,0.2,0.2,0.8,0.3c1.3,0.2,3.3-0.3,4,0c0.1,0-0.4,0.1-0.6,0.1c0.9-0.1,4,0.1,3.2-0.2
		c2.3,0.2,4.4-0.1,6.3,0.1c1.2-0.3,4,0.2,4.4-0.3c-0.2,0.5,4.1,0.4,5.5,0.2c-0.5,0.1,1.3,0.2,0.7,0.3c1.7,0,3.2-0.1,2.9-0.3
		c3.1,0.6,6.2-0.4,7.9,0.3c5-0.2,9.6-0.3,14-0.4c-0.2,0.4-4.9,0-4.8,0.5c4.2-0.1,6.7-0.5,10.9-0.3c1.1,0.1-0.6,0.2-1,0.3
		c4.2-0.1,8.2,0.2,12,0c0,0-0.4,0.1-0.8,0.1c0.7,0,1.7,0.1,1.6-0.1l-0.7,0c-1.2-0.3,3-0.6,3.1-0.7c-1.3,0.6,3.7,0.2,1.7,0.9
		c0.5,0,1.1-0.1,1-0.3c0.7,0.1,1,0.1,0.2,0.3c2.7-0.1,1.7-0.3,4.1-0.3c0,0.1-0.5,0.1-0.7,0.2c1.2-0.2,2.5-0.4,4.5-0.2
		c-0.1,0.1,0.1,0.1-0.5,0.1c3.5,0,6-0.4,9.8-0.2c-1.1,0.4,1.3,0.2,1.5,0.5l2.1-0.1l-0.8-0.2c1.8,0,3.4-0.2,5-0.1l-1.3,0.1l3.4,0
		l-1.9-0.2c1.8-0.2-0.2-0.4,2.2-0.3c-0.5,0,1.8,0.3,2.7,0.3h0c0.9,0,1.8-0.2,3.2-0.1c0.3,0.1-0.3,0.4-0.1,0.5c0.9-0.3,4.2,0,5.4-0.3
		c-0.4,0.1-0.4,0.3-0.3,0.3l0.7-0.2c0.8,0.1,1,0.1,0.8,0.3c2.5,0.1-0.8-0.5,2.2-0.2c-0.2,0-0.1,0.1-0.6,0.1c3,0.2,5.8-0.1,8.6,0.1
		c0.8,0.4-2.4,0.1-1.5,0.4c4,0,8.2-0.3,12.1-0.1l-0.7-0.1c0.5-0.5,2.9,0.3,4.8,0.1c-0.5,0-0.6,0.3-0.5,0.2c2.6,0.1,5.4,0,9.4-0.1
		l-0.5,0.1c1.6,0.2,4.1,0.2,5.8,0.2c0.5-0.1,1.5-0.1,0.9-0.3c5.2,0.9,9.9-0.2,14.5,0.5c-0.5,0-1.3,0.1-0.9,0.1l3.9,0
		c-0.3-0.2-0.5-0.2-1.3-0.4c0.5-0.1,1.6-0.2,2.6-0.2c-1.8,0.1,0,0.4,0.8,0.5c-0.1-0.1,0.1-0.1,0.1-0.2c2,0.5,0.4-0.5,3.1-0.1
		l-0.2,0.1c1,0,2-0.2,3.1-0.1c0.5,0.3-1.1,0.1-1.2,0.3c1.6,0,3.1-0.4,4.6-0.1c-0.7,0.1-1.6,0-2.3,0.1c1.6,0.4,1.7,0.3,2.9,0.4
		l-0.1,0l2.7,0.2l-0.7-0.1c2-0.7,4,0,6.7-0.4c-2.6,0.4-0.4,0.2-0.6,0.5c0.7,0.1,1.7,0.2,1.4,0.3c1.3-0.2,2.1,0.2,3.9-0.1
		c0.1,0.1,1.3,0,1.1,0.3c1.6,0-0.4-0.2-0.2-0.3c2.5-0.3,5.9,0.6,9.6,0.2c3.1-0.1,3.7-0.4,6.6-0.5c1,0.2-0.8,0.3-0.8,0.3
		c1.6,0.2,2.8,0.2,4.3,0.1c-0.3,0.1,0,0.2,0.5,0.3c1.2,0,0.8-0.3,2.4-0.1c-0.3,0.1-0.6,0.3-1.2,0.4c1.4-0.1,2.8-0.2,4.3-0.2
		c0.4,0.2-0.9,0.2-1.4,0.3c1.6,0,4.3,0,4.8-0.3l-1-0.1c0.6,0,0.3,0.2-0.1,0.3c-1.4,0.2-2-0.1-2.1-0.2l1,0c-1.1-0.6-4.2,0-6.3-0.1
		l0.9-0.4l-2.2,0.3c-0.5-0.1-0.8-0.4,0.3-0.4c-1.5-0.2-1.3,0.1-2.6-0.2c-0.1,0-0.1-0.1,0.1-0.1l-1.5,0.1c0.3-0.1-0.2-0.3,0.7-0.2
		c-2.6-0.3-4.3,0.2-5.2-0.1l0.2,0c-3.7,0-0.4,0.3-3.1,0.6l-1.8-0.8l-0.4,0.3c-0.4,0-1.1-0.1-1-0.2c-1.4,0.2,0.2,0.1-0.6,0.3
		c-1.8-0.3-5,0-5.4-0.5c-0.7,0.2,1.7,0.2-0.2,0.3c-0.5-0.5-2.2,0-3.9-0.2c0.5-0.3,2.1-0.1,0.4-0.4c-1,0.4-3.2-0.2-4.6-0.1
		c-0.1,0.4-3,0.1-5.4,0.1c0.2-0.1-4.4-0.3-6.6-0.5l0.1-0.1c-0.4,0.4-2.7,0.2-4.3,0.3c0.1-0.2,0.4-0.3,1.3-0.4l-1.5,0
		c-0.4,0.1-0.8,0.2-1.8,0.2l0.4-0.3c-2,0-4.1,0.2-6.8,0c-0.2,0.3,2.1,0.8-0.7,0.9c-0.1-0.1-0.2-0.4,0.5-0.4c-0.2,0-0.9,0.1-1.3,0
		l1.1-0.2c-1.2-0.1-0.6,0.2-1.6,0.1c0-0.2-0.7-0.2-0.6-0.3c0.2,0,0.8,0.1,1.2,0c-1.1-0.1-2.4-0.2-2.8-0.4c0.1,0.1,0,0.3-0.8,0.3
		c-2,0-0.7-0.3-1.9-0.4c-0.5,0.1-1.8,0-1.8,0.3c-0.6,0-0.7-0.2-0.9-0.2c-1.1,0.1-5-0.1-3.8,0.3l0.3,0c-0.1,0-0.1,0-0.2,0
		c0,0,0,0,0,0h0c-3.5,0-7.2-0.3-10.7-0.3l0-0.1c-2.1,0.1-4.6,0-6.1,0.2c-0.6,0-1.4-0.2-1.2-0.3c-1.6,0-1.8,0.1-4-0.1
		c1.6-0.1-0.5-0.2,1.6-0.1c-2-0.1-2.5-0.3-4.7-0.1c0.8-0.2-1.5-0.3-2.5-0.3l1.4,0.2c-1.1,0-2,0-3-0.1l0.5-0.3
		c-4.2-0.5-7.6,0.6-10.7-0.2c-1.1,0.2,2.3,0.2,1.3,0.5c-1.9-0.1-3.9-0.6-4.5-0.6c-2.6-0.2-2.5,0.4-5.2,0.3c0.4,0.1,0.7,0.4-1.4,0.5
		c-1.9-0.1-2.4-0.5-1.1-0.6c0.5,0,0.7,0,0.7,0.1c0.6,0,1.4-0.1,0.7-0.2l-0.3,0.1c-1-0.1-3.6-0.2-3-0.4c-1.5,0.1-0.6,0.2,0.5,0.3
		c-2.5-0.2-3.9-0.1-6.4-0.2c0.4,0.1,0.8,0.2,0.4,0.2c-3.7-0.2-1.6,0.2-4.2,0.2c-1.4-0.2,0.5-0.4-2-0.3c-1.6-0.1-0.3-0.3,0.3-0.4
		c-2.3,0.2-4.3-0.2-5.7-0.3l1.2-0.1c-0.7,0-1.3,0-1.9,0l0.7,0.2c-0.7-0.1-1.3-0.1-1.3-0.2c-0.7,0.1,0.6,0.4-0.9,0.6
		c-1-0.1-2.9,0.1-3.2-0.2c3,0.2-0.3-0.3,2.2-0.3c-0.5,0-1.1,0-1.8,0c-0.1,0,0.1-0.1,0.3-0.1c-2.9-0.3-1.3,0.3-4.3,0.3
		c0.4-0.2-0.7-0.3-1.2-0.3c1.2,0,0.6,0.3-0.5,0.4c-1.9-0.2-2.1,0.1-3.1,0l1.1,0.1c-0.4,0.2-1.3,0.1-2.7,0.2
		c-0.1-0.1,1.2-0.1,0.7-0.1c-1.5,0.3-3.3-0.4-5.4-0.2c-1-0.1-0.1-0.3-0.9-0.4c-2.3,0.2-2.5-0.3-4.9-0.1c0.7,0.2,0.8,0.2-0.9,0.4
		l4-0.1l-2.6,0.3c1.2,0,2.5-0.1,3.3-0.1c-1.2,0.2-1.1,0.1-0.5,0.3c-1.6-0.4-3.3,0.2-5.2-0.1l0.1-0.6c-2.9-0.3-5.1,0.2-8.8,0.1
		l1.2,0.1c-0.5,0.2-2.3,0-3.5,0.1c0.1-0.2-0.6-0.3-1.2-0.4c0.1,0.1-2.7,0-3.1,0.3l-1.7-0.3c-3-0.1-3.4,0.5-6.3,0.4
		c0.9-0.2-0.4-0.4,1.5-0.5c-1,0-1.8-0.1-1.8,0.1c-0.6-0.1-2.7,0.2-3.6,0c-0.4,0.1-0.5,0.3-1.6,0.3c-0.1,0,0-0.1,0-0.1
		c0,0.1-1.7,0.1-0.8,0.3c-3-0.6-8.3,0-10.9-0.6c-2.1,0-4.6,0.1-6.6,0.1c0.1-0.1,0-0.1,0.4-0.1c-2.6-0.2-1.6,0.6-4.6,0.3
		c-1.5-0.3,1.6-0.2,0.6-0.3c-0.4-0.7-3.6,0.1-5.6-0.3l0.5,0c-1.5-0.2-3.8,0.2-6.3,0.1c0,0,0.1-0.1,0-0.1c-1.7,0.3-5,0.4-7.4,0.5
		c0.8-0.2,1.1-0.1,0.6-0.4c-1.1,0,0.3,0.4-1.9,0.5c-0.7-0.1-2.3-0.3-2.5-0.5l2,0c-1-0.4-2.7,0-3.7-0.1l0.1-0.2
		c-3.1,0-3.2,0.4-6.6,0.4l0.3,0.1c-1.8,0.4-1.5-0.2-3.4,0.1l-0.6-0.4c-1.2,0.1-4.3,0.4-6.4,0.4c1.2-0.3,3.8-0.4,5.4-0.6
		c-1.2,0-4.1,0-4.7,0.2c0.5,0,1.1-0.1,1.6-0.1c-1.5,0.3-3.4,0.4-5.8,0.4c0.4-0.8-6.3-0.2-8-0.8c-4.3,0.3-8.4-0.1-13.4-0.1
		c1.8,0.6-1.4,0-1.1,0.6c-1.2,0-1.6,0-1.7,0l-3.5-0.4c-0.8-0.2,1.1-0.1,1-0.3c-2.5-0.1-1.1-0.3-2.7-0.4c0.3,0.2-0.9,0.3-2.3,0.2
		l2,0.3c-3.5,0.3-3-0.5-6.6-0.2l1.1-0.2c-1.8,0.1-6.7,0-8.5,0.5c-0.3-0.1-0.7-0.2,0.1-0.3c-4.4-0.1-9.7,0.5-13.1,0.2l0.3-0.1
		c-0.8,0-1.4,0.3-2.4,0.1c0.1-0.1,0.3-0.1,0-0.2c-0.4,0.1-2.2,0.3-3.2,0.2l0.9-0.2c-4.3-0.2-6.5,0.4-10.1,0.5c0-0.4-3.3-0.6-5-0.6
		l0.1-0.1c-5,0-8.4,0.4-13,0.6c-2.8-0.5-9.6-0.2-14.2-0.4c0.7,0.1-0.1,0.3-0.9,0.4c-1.1-0.1-3,0.3-2.8-0.1l0.4,0
		c-0.8-0.4-3-0.3-4.7-0.3l-0.3,0.5c-4.5-0.7-11.8,0.4-14.3-0.3c-1.1,0.1-2.4,0.1-3.5,0.3l0.1-0.3c-3-0.1-4.5-0.1-8.2,0l0.8-0.2
		c-2.1,0-2.6,0.8-4.6,0.9l-0.6-0.4c-3.7,0-7.4-0.3-11,0.1c0.1-0.1,0.2-0.2,0.8-0.2c-1.7,0-6.7-0.2-6,0.4c0-0.4-3.8,0-5.8,0.2
		l0.3-0.3c-1.7,0.4-1.7,0.5-4.1,0.6c-0.6,0-0.5-0.2,0.2-0.2c-1.8-0.1-1.4,0.3-3.7,0.2l0.8-0.2c-1.9,0-1.7,0.1-2.8,0.3
		c-1.2,0.1-3.6,0-3.9-0.3c-0.3,0.2-1.3,0.4-2.4,0.3c-0.2-0.1,0.3-0.2,0.5-0.2c-3.2-0.2-4.7,0.4-6.9,0.1c0-0.1-0.2-0.1-0.4-0.2
		c2.5,0,4.5,0,4.4,0c0-0.3-2-0.3-0.4-0.7c-1.6,0.2-4.4,0.7-6.4,0.6c-0.1,0-0.2,0-0.3-0.1l0.2,0c-0.5,0-0.9,0-1.3,0.1
		c-0.6,0-1-0.1-1.6-0.1c-0.2-0.2-2.3-0.1-3.3-0.1c0.1,0.3-1.2,0.3,0,0.5c-0.2,0,0.2,0,0.9-0.1c0.2,0,0.3,0,0.4,0c0,0,0,0-0.1,0
		c0.7,0,1.5,0,2.5-0.1c-0.8,0.2-1.6,0.3-2.8,0.1c-0.5,0.2-1.1,0.4-1.4,0.5c-1.4-0.4-4.1-0.6-4.4-0.8c-3.1,0.2-7.3,0.2-9.2,0.7
		c-0.9,0.1-1-0.1-1.3-0.2c0.5-0.1,1.1-0.1,1.4-0.1c-1.8,0.2-5.2,0.1-5.6,0.5c-2.2-0.1,1.2-0.4-1.8-0.3l0.4-0.1
		c-6-0.5-9.7,1.1-16.4,0.4c0.5,0,0.7,0.1,0.8,0.1c-7.6-0.2-15.6,0.5-23.1,0.2c-2.1-0.1-2.4,0.2-3.7,0.4l-0.5-0.3l-2.2,0.4
		c-3.1,0.3-5.5-0.6-9.4-0.1l0.5,0.2c-1.4,0-4.5,0.2-4.3,0c-0.1,0-0.5,0.2-1,0.1l0-0.2l-3.5,0.3c-2.7-0.1,0.4-0.6-3.6-0.6
		c-1.5,0.1-4.2,0.5-3.6,0.6c0.6,0,1.5,0.1,1.6,0.2l-1.4,0.1c-0.2,0.5-1.3,1,2.1,1.2l2.3-0.3l0.7,0.2l-1.9,0c1.1,0.2,1.8,0,2.6-0.2
		c0.2,0.1,0.5,0.2,1,0.2l2.3-0.5c0.3,0.2-1,0.4,0.5,0.5c1.1-0.2-1-0.4,0.7-0.6c1.1,0.2,0.8,0.4,2.1,0.2c0.2,0.1-0.1,0.2-0.6,0.3
		c1.2-0.2,3.1-0.1,3.6-0.4c1.2,0.2,3.9-0.1,3.8,0.3c0.4-0.1,2-0.4,3.1-0.4c-1.9,0.6,4,0,3.5,0.5c1.4-0.5,5.2-0.3,7.7-0.6
		c-0.1,0-0.4,0.1-0.6,0.1c1.4,0,1.9,0.1,2.8,0.2c0.2-0.4,2.4-0.5,3.6-0.8c1.8,0.4-1.1,0.5-0.5,0.8c-0.1-0.3,3-0.4,2.4-0.6
		c1.3,0.2,1.2,0.1,1.9,0.4c0.2-0.5,1.2-0.1,2.4-0.4c1.9,0.2,0.5,0.5,2.6,0.3C287.6,381.7,285.7,381.9,285.7,381.9z M336.4,380.4
		L336.4,380.4c-0.4,0-0.8,0-1,0C335.6,380.4,335.9,380.4,336.4,380.4z M340.7,380.3c-0.5,0-1.2,0-1.8,0c-0.2-0.1,0-0.2,0.4-0.2
		C339,380.2,340,380.3,340.7,380.3z M331.6,378.5c0.7,0,0.9,0,1,0.1c-0.3,0-0.7,0-1.2,0c0,0-0.1,0-0.1,0
		C331.4,378.6,331.5,378.5,331.6,378.5z"/> <path class="st1" d="M330.4,378.9c-0.1,0-0.2,0-0.3,0c0.1,0,0.3,0,0.4,0.1c0.1,0,0.2-0.1,0.2-0.1
		C330.6,378.9,330.5,378.9,330.4,378.9z"/> <path class="st1" d="M716.9,381L716.9,381C716.9,381,716.9,381,716.9,381C716.9,381,716.9,381,716.9,381z"/> <polygon class="st1" points="399.5,380.4 399.5,380.3 399.1,380.4 	"/> <path class="st1" d="M740.3,382.4c0,0,0.1,0.1,0.3,0.1C740.6,382.5,740.5,382.5,740.3,382.4z"/> <path class="st1" d="M750.5,382.7l1.4,0.1C751.3,382.8,750.8,382.7,750.5,382.7z"/> <path class="st1" d="M758.3,383c0.1,0,0.1-0.1,0.2-0.1l0,0L758.3,383z"/> <path class="st1" d="M634.3,381c-0.1,0-0.2,0-0.3,0C633.3,381.1,633.8,381.1,634.3,381z"/> <path class="st1" d="M671.2,380.9c-0.4,0-0.8,0.1-1.2,0.1C670.7,381.1,671.2,381.1,671.2,380.9z"/> <path class="st1" d="M593.1,380.9L593.1,380.9c-0.1,0-0.2,0-0.2,0L593.1,380.9z"/> <path class="st1" d="M668.3,381c0.7,0.1,1.2,0.1,1.7,0C669.5,381,668.8,381,668.3,381z"/> <path class="st1" d="M792,384l0.4,0c0,0,0,0,0,0L792,384z"/> <path class="st1" d="M792.5,384l0.4,0C792.7,384,792.5,384,792.5,384z"/> <path class="st1" d="M793.8,383.9l-0.9,0C793.2,384,793.6,384,793.8,383.9z"/> <path class="st1" d="M781.7,383.6l-0.1,0.1C781.7,383.7,781.7,383.7,781.7,383.6z"/> <path class="st1" d="M778.6,383.6c0.7,0,1.9,0.3,2.9,0.2l0.1-0.1C781.1,383.9,779.3,383.4,778.6,383.6z"/> <path class="st1" d="M765.5,382l2.6,0.1c-0.5-0.1-1.1-0.3,0.1-0.3C765,381.4,769,382.1,765.5,382z"/> <path class="st1" d="M757.4,381.6c1.4,0,0-0.2,0.1-0.2C756.5,381.5,756.3,381.5,757.4,381.6z"/> <path class="st1" d="M698.5,380.4l0.1-0.3C697.5,380.1,698.6,380.2,698.5,380.4z"/> <polygon class="st1" points="687.2,381.5 688.3,381.6 688.8,381.4 	"/> <polygon class="st1" points="680.6,379.5 681.1,379.5 679.2,379.6 	"/> <path class="st1" d="M581.6,378.3l0.3,0.3C582.7,378.6,582.9,378.2,581.6,378.3z"/> <path class="st1" d="M538.9,378.3c-0.5-0.2-1.7-0.3-2.4-0.1C537.5,378.2,538.4,378.3,538.9,378.3z"/> <polygon class="st1" points="410.8,377.8 411.7,377.7 410.1,377.8 	"/> </g> <g> <g id="heros-register-IPAD" transform="translate(681.000000, 55.000000)" sketch:type="MSLayerGroup"> <path id="heros-register-bezel" sketch:type="MSShapeGroup" class="st2" d="M-79.2,299.6V183.7c0-4,3.3-7.3,7.3-7.3h177.7c4,0,7.3,3.3,7.3,7.3
			v115.8c0,4-3.3,7.3-7.3,7.3H-71.9C-75.9,306.9-79.2,303.6-79.2,299.6z"/> <path id="heros-register-bezel-2" sketch:type="MSShapeGroup" class="st2" d="M-79.2,299.6V183.7c0-4,3.3-7.3,7.3-7.3h177.7c4,0,7.3,3.3,7.3,7.3
			v115.8c0,4-3.3,7.3-7.3,7.3H-71.9C-75.9,306.9-79.2,303.6-79.2,299.6z"/> <rect id="heros-register-screen" x="-59.7" y="186.7" sketch:type="MSShapeGroup" class="st2" width="153.5" height="110.4"> </rect> <circle id="heros-register-lock" sketch:type="MSShapeGroup" class="st2" cx="-68.9" cy="241.9" r="4.9"> </circle> <circle id="heros-register-camera" sketch:type="MSShapeGroup" class="st2" cx="102.9" cy="241.3" r="1.8"> </circle> </g> <path id="heros-register-bezel_1_" sketch:type="MSShapeGroup" class="st2" d="M606.3,129.8h-301c-8.2,0-15.2,6.7-15.2,15v198h331.3v-198
		C621.5,136.6,614.5,129.8,606.3,129.8z"/> <circle id="heros-register-webcam" sketch:type="MSShapeGroup" class="st3" cx="456.4" cy="141.4" r="2.4"> </circle> <g id="heros-register-bottom" transform="translate(0.000000, 351.000000)" sketch:type="MSShapeGroup"> <path id="heros-register-Shape" class="st2" d="M634.7,10.6H277c-18.6,0-31.1-6.4-31.1-9.1v-8.2c0-0.8,0.8-1.5,1.8-1.5H664c1,0,1.8,0.7,1.8,1.5
			v8.6C665.8,4,656.1,10.6,634.7,10.6z"/> <path id="heros-register-Line" class="st2" d="M246.2,0.6h418.5"/> </g> <rect id="heros-register-screen_1_" x="303.5" y="153.5" sketch:type="MSShapeGroup" class="st3" width="304" height="177.2"> </rect> <path id="heros-register-touchpad" sketch:type="MSShapeGroup" class="st3" d="M501.3,343.4v1.9c0,1.3-2.6,1.7-4.6,1.7h-81.7
		c-2.1,0-4.7-0.4-4.7-1.7v-1.9"/> <path class="st0" d="M729.7,184.8c-1.1,0-2.1,0.2-3.1,0.7c0-0.3,0-0.6,0-0.9c0-5.6-4.5-10.1-10.1-10.1c-1.3,0-2.6,0.3-3.7,0.7
		c-3-7.4-11.4-11.5-21.3-11.5c-11.9,0-21,7.5-21,15.1c0,0.5,0.1,1.1,0.2,1.6c-0.9-0.2-1.8-0.4-2.7-0.4c-5.6,0-10.1,4.5-10.1,10.1
		c0,5.2,4,9.5,9.1,10c0,0,0,0,0,0h0.9c0,0,0,0,0,0c0,0,0,0,0,0h60.4c0,0,9.5,0.5,9.3-7.7C737.8,188.5,733.8,184.8,729.7,184.8z"/> <g> <g> <g> <path class="st4" d="M456.4,205.2c-20.1,0-36.5,16.4-36.5,36.5s16.4,36.5,36.5,36.5c20.1,0,36.5-16.4,36.5-36.5
					S476.6,205.2,456.4,205.2z M446.5,234.8L446.5,234.8c0.4-0.3,0.5-0.6,0.5-1c-0.7-4.4-0.3-6.3-0.1-6.7c1.3-3.9,5.3-5.8,6.1-6.1
					c0.2-0.1,0.5-0.2,0.8-0.2l0.1,0l0.6,0l0,0l0.2,0c0.1,0,0.3,0,0.4-0.1l0.1,0c0.1,0,1.7,0.2,4,0.9l1.6,0.6c3,0.9,4.3,2.5,4.6,2.8
					c2.4,2.7,1.7,6.7,1.1,8.9c-0.1,0.3,0,0.5,0.1,0.7l0.1,0.2c0.2,0.2,0.3,1.1-0.2,3c-0.1,0.6-0.3,1.1-0.6,1.4
					c-0.1,0.1-0.2,0.3-0.2,0.5c-0.8,4.7-5,10-9.5,10c-3.8,0-8.1-4.8-8.8-10c0-0.2-0.1-0.4-0.2-0.5c-0.3-0.3-0.5-0.8-0.7-1.5
					C446.2,236.3,446.2,235.2,446.5,234.8z M438,255.2c0.2-0.2,1.1-1.3,2.9-2c1.6-0.5,5.6-1.8,7.8-3.4c0.1-0.1,0.2-0.2,0.3-0.2
					c0.2-0.2,0.5-0.6,0.9-0.9l0.2-0.2l0.2,0.2c1.9,1.8,4.1,2.8,6,2.8c2,0,4.2-0.9,6.1-2.6l0.2-0.1l0.4,0.2c0.4,0.3,1,0.8,1.3,0.9
					l0.4,0.2l0,0l0.2,0.1c0.4,0.2,0.8,0.4,1.2,0.7c0.5,0.2,0.9,0.4,1.3,0.5c0.3,0.1,2.1,0.7,4.2,1.7l0.4,0.1c2,0.8,2.9,1.8,3,1.9
					c2.4,3.5,3.3,10.1,3.6,13.8c-6.2,5-14,7.8-22,7.8c-8,0-15.8-2.8-22-7.8C434.8,265.2,435.7,258.7,438,255.2z"/> </g> </g> <g> <path class="st5" d="M502,262.1l-3.9-3.9c-0.5-0.5-1.2-0.5-1.7,0L480,274.6l-6.9-6.9c-0.5-0.5-1.2-0.5-1.7,0l-3.9,3.9
				c-0.5,0.5-0.5,1.2,0,1.7l11.7,11.7c0.2,0.2,0.5,0.3,0.8,0.3c0.3,0,0.6-0.1,0.8-0.3l21.1-21.1c0.2-0.2,0.3-0.5,0.3-0.8
				C502.3,262.7,502.2,262.4,502,262.1z"/> </g> <g> <g> <path class="st6" d="M688.7,277.6c-10.3,0-18.7,8.4-18.7,18.7s8.4,18.7,18.7,18.7c10.3,0,18.7-8.4,18.7-18.7
					S699,277.6,688.7,277.6z M683.6,292.8L683.6,292.8c0.2-0.2,0.3-0.3,0.2-0.5c-0.4-2.3-0.1-3.2,0-3.5c0.7-2,2.7-3,3.1-3.1
					c0.1,0,0.2-0.1,0.4-0.1l0,0l0.3,0l0,0l0.1,0c0.1,0,0.1,0,0.2,0l0.1,0c0.1,0,0.9,0.1,2.1,0.5l0.8,0.3c1.5,0.4,2.2,1.3,2.4,1.5
					c1.2,1.4,0.9,3.5,0.6,4.6c0,0.1,0,0.3,0.1,0.4l0.1,0.1c0.1,0.1,0.2,0.6-0.1,1.6c-0.1,0.3-0.2,0.5-0.3,0.7
					c-0.1,0.1-0.1,0.2-0.1,0.2c-0.4,2.4-2.6,5.1-4.9,5.1c-1.9,0-4.1-2.5-4.5-5.1c0-0.1-0.1-0.2-0.1-0.3c-0.2-0.2-0.3-0.4-0.3-0.8
					C683.4,293.5,683.4,293,683.6,292.8z M679.2,303.2c0.1-0.1,0.6-0.7,1.5-1c0.8-0.3,2.9-0.9,4-1.8c0.1,0,0.1-0.1,0.1-0.1
					c0.1-0.1,0.3-0.3,0.5-0.5l0.1-0.1l0.1,0.1c1,0.9,2.1,1.4,3.1,1.4c1.1,0,2.1-0.5,3.1-1.3l0.1-0.1l0.2,0.1
					c0.2,0.2,0.5,0.4,0.7,0.5l0.2,0.1l0,0l0.1,0.1c0.2,0.1,0.4,0.2,0.6,0.3c0.2,0.1,0.4,0.2,0.6,0.3c0.2,0.1,1.1,0.4,2.2,0.9
					l0.2,0.1c1,0.4,1.5,0.9,1.5,1c1.2,1.8,1.7,5.2,1.9,7.1c-3.2,2.6-7.2,4-11.3,4c-4.1,0-8.1-1.4-11.3-4
					C677.6,308.4,678,305,679.2,303.2z"/> </g> </g> <g> <path class="st5" d="M712.1,306.8l-2-2c-0.2-0.2-0.6-0.2-0.9,0l-8.4,8.4l-3.6-3.6c-0.2-0.2-0.6-0.2-0.9,0l-2,2
				c-0.2,0.2-0.2,0.6,0,0.9l6,6c0.1,0.1,0.3,0.2,0.4,0.2c0.2,0,0.3-0.1,0.4-0.2l10.8-10.8c0.1-0.1,0.2-0.3,0.2-0.4
				C712.2,307.1,712.2,306.9,712.1,306.8z"/> </g> </g> <path class="st7" d="M315.7,300c8.2-7.5,11.4,0.4,14.5-3.2C330.3,296.8,324.6,306.3,315.7,300z M315.9,300.2c0,0,0.1,0.4,6.1,0
		c6-0.4,8.2-3.3,8.2-3.3c-2.5,2.7-8.3,3.6-14.3,2.9l-0.2,0.2L315.9,300.2z"/> </g> <path class="st0" d="M1061.2,204.7c-1.7,0-3.3,0.4-4.8,1c0-0.5,0.1-0.9,0.1-1.4c0-8.7-7-15.7-15.7-15.7c-2,0-4,0.4-5.8,1.1
	c-4.7-11.5-17.7-18-33.2-18c-18.6,0-32.8,11.8-32.8,23.6c0,0.9,0.1,1.7,0.2,2.5c-1.3-0.4-2.7-0.6-4.2-0.6c-8.7,0-15.7,7-15.7,15.7
	c0,8.2,6.3,14.9,14.3,15.6c0,0,0,0,0,0.1h1.4c0,0,0,0,0,0c0,0,0,0,0,0h94.4c0,0,14.8,0.8,14.6-12
	C1073.9,210.3,1067.6,204.7,1061.2,204.7z"/> <path class="st7" d="M250.1,262.3c5.1-15.1,18.1-8.3,19.2-14.8C269.3,247.5,270.1,262.7,250.1,262.3z M250.6,262.3
	c0,0,0.5,0.4,9.3-4.6c8.9-5.1,9.4-10,9.4-10c-1,5.1-9.3,10.5-19.2,14.4v0.3H250.6z"/> <path class="st7" d="M217.2,234.3c3.6,5.8,13.4-4.1,24.1,8.7C222.6,248.9,217.2,234.3,217.2,234.3z M241.3,243l-0.2-0.2
	c-10.9-1-20.9-3.8-23.8-8.4c0,0,2.6,4.6,12.8,7c10.3,2.4,10.7,1.9,10.7,1.9L241.3,243z"/> <path class="st7" d="M230.9,208.6c5.8-13.8,17.5-7,19-13C250,195.6,249.6,209.9,230.9,208.6z M231.5,208.6c0,0,0.5,0.4,9.1-3.9
	c8.6-4.3,9.5-9,9.5-9c-1.4,4.8-9.5,9.4-19,12.6l-0.1,0.3H231.5z"/> <path class="st7" d="M204.9,194.7c3.8,5.2,12.2-4.5,23.2,7C211,208,204.9,194.7,204.9,194.7z M228.2,201.7l-0.2-0.3
	c-10.3-0.3-19.8-2.4-22.9-6.7c0,0,2.7,4.2,12.5,5.9c9.7,1.7,10.1,1.2,10.1,1.2L228.2,201.7z"/> </symbol><symbol viewBox="0 0 512 512" id="shape-home"><title>home</title> <g> <path d="M512,296l-96-96V56h-64v80l-96-96L0,296v16h64v160h160v-96h64v96h160V312h64V296z"/> </g>                </symbol><symbol viewBox="0 0 433.5 433.5" id="shape-import"><title>import</title> <g> <g id="import-file-download"> <path d="M395.25,153h-102V0h-153v153h-102l178.5,178.5L395.25,153z M38.25,382.5v51h357v-51H38.25z"/> </g> </g>                </symbol><symbol viewBox="6 -206 612 612" id="shape-iris"><title>iris</title> <g> <g> <path d="M615.7,109.4c3.2-5.9,3.2-13,0-18.9C557.2-17.1,443.1-90.1,312-90.1S66.8-17.1,8.3,90.6c-3.2,5.9-3.2,13,0,18.9
			c58.5,107.6,172.5,180.7,303.6,180.7S557.2,217.1,615.7,109.4z M311.9,245.8c-80.6,0-145.9-65.3-145.9-145.9
			S231.4-45.9,311.9-45.9S457.8,19.4,457.8,99.9S392.5,245.8,311.9,245.8z"/> <path d="M311.9,25.6c-6.1,0-12.1,0.7-17.8,2.1c5.8,6.8,9.4,15.6,9.4,25.2c0,21.3-17.3,38.6-38.6,38.6c-9.6,0-18.4-3.5-25.2-9.4
			c-1.4,5.7-2.1,11.7-2.1,17.8c0,41.1,33.3,74.3,74.3,74.3s74.3-33.3,74.3-74.3S353,25.6,311.9,25.6z"/> </g> </g> </symbol><symbol viewBox="22 -23.1 612 612" id="shape-iris_close"><title>iris_close</title> <path d="M631.6,273.5c-21.6-39.8-50.8-74.8-85.6-103.2l64.3-42.4l-28.5-43.3L500,138.6c-50.6-29.1-109.3-45.8-171.9-45.8
	C197,92.8,82.9,165.9,24.4,273.5c-3.2,5.9-3.2,13,0,18.9C46,332.1,75.2,367.2,110,395.5l-64.3,42.4l28.5,43.3l81.8-53.9
	c50.6,29.1,109.3,45.8,171.9,45.8c131.1,0,245.1-73.1,303.6-180.7C634.8,286.5,634.8,279.4,631.6,273.5z M182.1,282.9
	c0-80.6,65.3-145.8,145.9-145.8c41.6,0,79,17.4,105.6,45.2L371.9,223c-12.3-9-27.5-14.4-43.9-14.4c-6.1,0-12.1,0.7-17.8,2.1
	c5.8,6.8,9.4,15.6,9.4,25.2c0,21.3-17.3,38.6-38.6,38.6c-9.6,0-18.4-3.5-25.2-9.4c-1.4,5.7-2.1,11.7-2.1,17.8
	c0,5.8,0.7,11.3,1.9,16.7l-61.8,40.7C186.3,322.7,182.1,303.3,182.1,282.9z M328,428.8c-41.6,0-79-17.4-105.6-45.2l61.8-40.7
	c12.3,9,27.5,14.3,43.8,14.3c41,0,74.3-33.3,74.3-74.3c0-5.7-0.7-11.3-1.9-16.6l61.8-40.7c7.5,17.6,11.7,37,11.7,57.3
	C473.9,363.4,408.6,428.8,328,428.8z"/> </symbol><symbol viewBox="0 0 457.03 457.03" id="shape-link"><title>link</title> <g> <path d="M421.512,207.074l-85.795,85.767c-47.352,47.38-124.169,47.38-171.529,0c-7.46-7.439-13.296-15.821-18.421-24.465
		l39.864-39.861c1.895-1.911,4.235-3.006,6.471-4.296c2.756,9.416,7.567,18.33,14.972,25.736c23.648,23.667,62.128,23.634,85.762,0
		l85.768-85.765c23.666-23.664,23.666-62.135,0-85.781c-23.635-23.646-62.105-23.646-85.768,0l-30.499,30.532
		c-24.75-9.637-51.415-12.228-77.373-8.424l64.991-64.989c47.38-47.371,124.177-47.371,171.557,0
		C468.869,82.897,468.869,159.706,421.512,207.074z M194.708,348.104l-30.521,30.532c-23.646,23.634-62.128,23.634-85.778,0
		c-23.648-23.667-23.648-62.138,0-85.795l85.778-85.767c23.665-23.662,62.121-23.662,85.767,0
		c7.388,7.39,12.204,16.302,14.986,25.706c2.249-1.307,4.56-2.369,6.454-4.266l39.861-39.845
		c-5.092-8.678-10.958-17.03-18.421-24.477c-47.348-47.371-124.172-47.371-171.543,0L35.526,249.96
		c-47.366,47.385-47.366,124.172,0,171.553c47.371,47.356,124.177,47.356,171.547,0l65.008-65.003
		C246.109,360.336,219.437,357.723,194.708,348.104z"/> </g>                </symbol><symbol viewBox="0 0 486.733 486.733" id="shape-locked"><title>locked</title> <g> <path d="M403.88,196.563h-9.484v-44.388c0-82.099-65.151-150.681-146.582-152.145c-2.225-0.04-6.671-0.04-8.895,0
		C157.486,1.494,92.336,70.076,92.336,152.175v44.388h-9.485c-14.616,0-26.538,15.082-26.538,33.709v222.632
		c0,18.606,11.922,33.829,26.539,33.829h321.028c14.616,0,26.539-15.223,26.539-33.829V230.272
		C430.419,211.646,418.497,196.563,403.88,196.563z M273.442,341.362v67.271c0,7.703-6.449,14.222-14.158,14.222H227.45
		c-7.71,0-14.159-6.519-14.159-14.222v-67.271c-7.477-7.36-11.83-17.537-11.83-28.795c0-21.334,16.491-39.666,37.459-40.513
		c2.222-0.09,6.673-0.09,8.895,0c20.968,0.847,37.459,19.179,37.459,40.513C285.272,323.825,280.919,334.002,273.442,341.362z
		 M331.886,196.563h-84.072h-8.895h-84.072v-44.388c0-48.905,39.744-89.342,88.519-89.342c48.775,0,88.521,40.437,88.521,89.342
		V196.563z"/> </g>                </symbol><symbol viewBox="0 0 63.4 76.1" id="shape-logo"><title>logo</title>  <path d="M36.5,27.3c2.5,2.9,2.1,7.3-0.8,9.7s-7.3,2.1-9.7-0.8s-2.1-7.3,0.8-9.7S34,24.4,36.5,27.3z M55.9,11
	C50,4.1,41.7,0.4,33.7,0v12.1c5,0.4,9.5,2.7,13,6.8c7,8.2,5.9,20.6-2.4,27.6L40,50.1l7.8,9.2l4.4-3.7C65.5,44.3,67.3,24.3,55.9,11z
	 M27.1,56.2L16.9,44.3c-7-8.2-6.3-20.5,1.9-27.6c3.3-2.8,6.9-4.3,10.9-4.6V0c-6,0.4-13.2,2.9-18.7,7.6C-2.3,19-3.7,38.9,7.7,52.2
	l4.8,5.5l15.7,18.4c5.1-4.3,5.7-12,1.3-17L27.1,56.2z"/> </symbol><symbol viewBox="0 0 122.958 122.958" id="shape-man307"><title>man307</title> <g> <g> <circle cx="43.309" cy="86.215" r="7.571"/> <path d="M48.343,95.628c-0.127-0.078-0.262-0.135-0.395-0.189c-0.844-0.564-1.79-0.977-2.756-1.213l-1.885,1.898l-1.829-1.92
			c-0.006,0.002-0.013,0.002-0.018,0.004c-0.985,0.233-1.952,0.656-2.81,1.231c-0.131,0.056-0.263,0.11-0.388,0.188
			c-2.335,1.432-7.658,4.707-9.242,10.721c-1.585-6.014-6.908-9.289-9.243-10.721c-0.128-0.078-0.261-0.135-0.394-0.189
			c-0.844-0.564-1.79-0.977-2.757-1.213l-1.886,1.898l-1.827-1.92c-0.008,0.002-0.013,0.002-0.018,0.004
			c-0.987,0.233-1.952,0.656-2.81,1.231c-0.133,0.056-0.265,0.11-0.388,0.188c-2.887,1.771-10.334,6.35-9.654,15.433h5.926
			c-0.225-2.077,0.196-3.778,1.022-5.215v5.215h7.699l-1.794-2.453l1.826-12.204h0.035l1.825,12.204l-1.792,2.453h7.697v-5.199
			c0.821,1.433,1.238,3.132,1.015,5.199h5.104h0.82h5.105c-0.226-2.077,0.195-3.778,1.023-5.215v5.215h7.697l-1.793-2.453
			l1.826-12.204h0.035l1.826,12.204l-1.792,2.453h7.696v-5.199c0.822,1.433,1.238,3.132,1.014,5.199h5.928
			C58.675,101.978,51.228,97.399,48.343,95.628z"/> <circle cx="14.744" cy="86.215" r="7.571"/> <circle cx="72.78" cy="86.215" r="7.571"/> <path d="M77.815,95.628c-0.126-0.078-0.261-0.135-0.395-0.189c-0.842-0.564-1.788-0.977-2.755-1.213l-1.886,1.898l-1.827-1.92
			c-0.008,0.002-0.014,0.002-0.02,0.004c-0.985,0.234-1.951,0.657-2.81,1.232c-0.131,0.057-0.264,0.109-0.387,0.188
			c-2.887,1.771-10.336,6.351-9.654,15.434h5.926c-0.226-2.077,0.194-3.777,1.021-5.215v5.215h7.697l-1.792-2.453l1.825-12.204
			h0.035l1.826,12.204l-1.792,2.453h7.696v-5.199c0.821,1.434,1.238,3.133,1.016,5.199h5.925
			C88.149,101.978,80.702,97.399,77.815,95.628z"/> <circle cx="58.509" cy="76.824" r="7.815"/> <path d="M63.889,86.651c-0.061-0.037-0.122-0.073-0.181-0.112c-0.132-0.078-0.271-0.136-0.407-0.194
			c-0.871-0.58-1.848-1.009-2.845-1.253l-1.946,1.962l-1.888-1.98c-0.006,0-0.013,0-0.02,0.002
			c-1.017,0.242-2.014,0.679-2.899,1.271c-0.135,0.06-0.271,0.114-0.399,0.192c-0.222,0.139-0.478,0.297-0.746,0.465
			c-0.166,2.983-1.76,5.588-4.126,7.125c0.145,0.082,0.292,0.162,0.431,0.252c0.158,0.068,0.313,0.146,0.464,0.238
			c1.729,1.062,4.569,2.6,7.131,5.773l0.149-0.453l1.885-12.598h0.037c0,0,1.85,12.598,1.884,12.598
			c2.407-3.182,5.059-4.303,6.721-5.32c0.161-0.101,0.322-0.176,0.458-0.236c0.143-0.092,0.292-0.174,0.438-0.26
			C65.577,92.527,63.94,89.782,63.889,86.651z"/> <path d="M19.869,94.126c0.146,0.084,0.293,0.164,0.432,0.254c0.159,0.069,0.312,0.146,0.462,0.238
			c1.472,0.9,4.124,2.529,6.389,5.117l1.854-12.396h0.037l1.885,12.599l6.733-5.319c0.162-0.102,0.325-0.177,0.461-0.236
			c0.143-0.092,0.292-0.174,0.438-0.258c-2.452-1.597-4.086-4.34-4.141-7.463c-0.065-0.041-0.138-0.086-0.198-0.123
			c-0.131-0.08-0.269-0.137-0.406-0.195c-0.87-0.58-1.849-1.008-2.845-1.252l-1.946,1.961l-1.888-1.98c-0.006,0-0.013,0-0.019,0.002
			c-1.018,0.242-2.015,0.68-2.899,1.271c-0.066,0.027-0.13,0.062-0.195,0.095c0,0.022,0.005,0.042,0.005,0.062
			C24.026,89.695,22.367,92.505,19.869,94.126z"/> <circle cx="29.022" cy="76.824" r="7.815"/> <circle cx="101.631" cy="19.508" r="10.952"/> <path d="M108.918,33.127c-0.186-0.113-0.381-0.194-0.573-0.275c-1.22-0.814-2.588-1.412-3.985-1.755l-2.727,2.747l-2.646-2.778
			c-0.009,0.002-0.018,0.004-0.026,0.006c-1.432,0.342-2.832,0.956-4.075,1.793c-0.142,0.061-0.287,0.111-0.424,0.189
			c-1.32,0.426-5.111-0.002-11.279-1.263c0.412-1.335,1.092-3.074,1.834-4.638c0.434,0.396,0.958,0.751,1.555,1.033
			c2.193,1.031,4.524,0.692,5.206-0.756c0.683-1.448-0.544-3.46-2.736-4.491c-1.479-0.697-3.016-0.761-4.071-0.287
			c-0.405-0.646-0.985-1.194-1.722-1.555c-0.859-0.424-1.793-0.524-2.666-0.358l-6.276-2.952l-0.347,0.734l-3.267-1.535
			l-0.327,0.698l3.266,1.537l-0.425,0.898l4.77,2.242c-0.157,0.209-0.298,0.434-0.419,0.678c-3.086,6.283-3.979,10.854-2.656,13.58
			c0.725,1.49,2.063,2.542,3.67,2.888l0.834,0.178c4.404,0.949,8.031,1.617,11.021,1.876v23.231c0,1.146,0.223,2.211,0.611,3.193
			c-0.03,0.221-0.052,0.443-0.052,0.672l0.004,40.721c0,2.773,2.249,5.023,5.025,5.023c2.775,0,5.025-2.251,5.025-5.025
			l-0.005-34.944c0.199,0.01,0.397,0.024,0.601,0.024c0.038,0,0.076-0.004,0.116-0.004l-0.002,34.924
			c0,2.774,2.251,5.025,5.025,5.025s5.025-2.251,5.025-5.025l0.002-40.019c0.307,0.334,0.672,0.626,1.093,0.856
			c0.646,0.352,1.343,0.518,2.028,0.518c1.508,0,2.968-0.803,3.739-2.221C130.655,46.463,114.294,36.426,108.918,33.127z
			 M101.659,55.522h-0.055l-2.641-3.615l2.641-17.657h0.055l2.641,17.657L101.659,55.522z M112.842,60.981V47.933
			C114.691,51.162,115.145,55.305,112.842,60.981z"/> </g> </g>                </symbol><symbol viewBox="0 0 46 46" id="shape-not"><title>not</title> <g id="not-Delete_1_"> <g> <path d="M34.1,12.9l-1.1-1.1c-0.9-0.9-2.3-0.9-3.2,0L23,18.7l-6.8-6.8c-0.9-0.9-2.3-0.9-3.2,0l-1.1,1.1c-0.9,0.9-0.9,2.3,0,3.2
			l6.8,6.8l-6.8,6.8c-0.9,0.9-0.9,2.3,0,3.2l1.1,1.1c0.9,0.9,2.3,0.9,3.2,0l6.8-6.8l6.8,6.8c0.9,0.9,2.3,0.9,3.2,0l1.1-1.1
			c0.9-0.9,0.9-2.3,0-3.2L27.3,23l6.8-6.8C35,15.3,35,13.8,34.1,12.9z"/> </g> </g> </symbol><symbol viewBox="0 0 510 510" id="shape-notifications"><title>notifications</title> <g> <g id="notifications-notifications"> <path d="M255,510c28.05,0,51-22.95,51-51H204C204,487.05,226.95,510,255,510z M420.75,357V216.75
			c0-79.05-53.55-142.8-127.5-160.65V38.25C293.25,17.85,275.4,0,255,0c-20.4,0-38.25,17.85-38.25,38.25V56.1
			c-73.95,17.85-127.5,81.6-127.5,160.65V357l-51,51v25.5h433.5V408L420.75,357z"/> </g> </g>                </symbol><symbol viewBox="0 0 100 100" id="shape-point-interogation"><title>point-interogation</title> <style type="text/css"> .st0{fill:#FFFFFF;} </style>  <g id="point-interogation-Layer_2"> <path class="st0" d="M97.6,38c0,14.1-15.9,12.2-15.9,23.7v4h-8v-4.4c0-14.8,15.5-13.3,15.5-22.8c0-4.8-3.4-7.6-8.9-7.6
		c-4.4,0-8.6,1.9-12.2,6.3L62.5,33c5-5.9,11-8.7,18.3-8.7C91.8,24.3,97.6,31,97.6,38z M84,80.8c0,3.4-2.6,6.2-6.2,6.2
		c-3.4,0-6.1-2.7-6.1-6.2c0-3.3,2.6-6.1,6.1-6.1C81.4,74.8,84,77.5,84,80.8z M58,24.2c0,6.3-4.9,11.4-11.4,11.4
		c-6.3,0-11.2-5-11.2-11.4C35.4,18,40.3,13,46.6,13C53.1,13,58,18,58,24.2z M17.5,52.4c0,4.2-3.3,7.6-7.6,7.6
		c-4.2,0-7.5-3.4-7.5-7.6c0-4.1,3.3-7.5,7.5-7.5C14.3,44.9,17.5,48.3,17.5,52.4z"/> </g> </symbol><symbol viewBox="0 0 377.043 377.043" id="shape-power"><title>power</title> <g> <g> <path d="M337.771,103.538c-14.648-22.722-34.645-42.102-57.818-56.046c-4.334-2.607-9.736-2.682-14.141-0.191
			c-4.402,2.49-7.127,7.157-7.127,12.216v29.031c0,4.379,2.045,8.508,5.529,11.162c31.094,23.686,49.654,61.019,49.654,99.866
			c0,69.115-56.23,125.345-125.346,125.345c-69.116,0-125.346-56.229-125.346-125.345c0-38.848,18.562-76.181,49.654-99.866
			c3.483-2.654,5.529-6.783,5.529-11.162V59.517c0-5.059-2.724-9.726-7.126-12.216c-4.405-2.49-9.808-2.416-14.142,0.191
			c-23.176,13.944-43.169,33.324-57.819,56.046c-18.46,28.63-28.218,61.838-28.218,96.038c0,47.402,18.46,91.969,51.979,125.488
			c33.521,33.52,78.086,51.979,125.488,51.979c47.402,0,91.968-18.459,125.488-51.979c33.518-33.52,51.979-78.086,51.979-125.488
			C365.99,165.376,356.232,132.167,337.771,103.538z"/> <path d="M172.129,215.535h32.789c7.257,0,13.16-5.905,13.16-13.162V13.162c0-7.257-5.903-13.162-13.16-13.162h-32.789
			c-7.257,0-13.161,5.904-13.161,13.162v189.211C158.968,209.63,164.873,215.535,172.129,215.535z"/> </g> </g>                </symbol><symbol viewBox="0 0 37.463 37.463" id="shape-school"><title>school</title> <g> <path d="M36.355,29.542L36.355,29.542v-7.679l-1.01-6.055h-9.622l3.126,2.338v3.704l-2.018-1.493v0.735   h-0.599v8.448h-0.624v-9.257h0.599v-1.112h-0.925l-7.014-5.162l-6.774,5.287h-0.821v1.114h0.675v9.131H10.69v-8.322h-0.675v-0.466   l-1.434,1.191v-3.779l2.873-2.356H1.502l-1.01,6.055v7.678H0v2.902h37.463v-2.902H36.355z M4.93,28.044H1.583v-1.832H4.93V28.044z    M4.93,25.118H1.583v-1.83H4.93V25.118z M6.318,28.044v-1.832h3.346v1.832H6.318z M6.319,25.118v-1.83h3.346v1.83H6.319z    M18.396,16.278c0.733,0,1.326,0.595,1.326,1.326c0,0.731-0.593,1.326-1.326,1.326c-0.732,0-1.326-0.595-1.326-1.326   C17.07,16.873,17.664,16.278,18.396,16.278z M23.784,29.54h-0.735v-8.358h-9.507v8.358h-0.666v-9.131h0.64v-0.43h9.852v0.304h0.416   V29.54z M30.186,27.854H26.84v-1.832h3.346V27.854z M30.186,24.927H26.84v-1.83h3.346V24.927z M34.921,27.854h-3.346v-1.832h3.346   V27.854z M34.921,24.927h-3.346v-1.83h3.346V24.927z M18.295,10.875h-0.204V5.41h0.427v0.104c0.468,0.204,1.601,0.591,2.239-0.101   c0.817-0.885,2.248,0,2.248,0v2.522c0,0-1.158-0.953-2.248,0c-0.829,0.724-1.814,0.347-2.239,0.124v2.815v0.001h-0.221l9.928,7.425   v2.111l-10.042-7.427l-8.945,7.427V18.3L18.295,10.875z"/> </g>                </symbol><symbol viewBox="0 0 536.071 536.07" id="shape-students"><title>students</title> <g> <path d="M147.128,91.076c0-37.95,30.766-68.716,68.721-68.716c37.95,0,68.719,30.766,68.719,68.716s-30.769,68.715-68.719,68.715
		C177.894,159.792,147.128,129.026,147.128,91.076z M248.873,206.607c0.689-14.963,5.84-28.812,14.127-40.261
		c-5.816-1.218-11.827-1.865-17.995-1.865h-58.304c-6.15,0-12.153,0.642-17.939,1.845c8.819,12.232,14.094,27.171,14.18,43.343
		c10.72-5.896,23.02-9.253,36.085-9.253C229.625,200.416,239.714,202.624,248.873,206.607z M260.505,212.775
		c19.96,12.517,33.957,33.688,36.517,58.274c8.133,3.801,17.171,5.994,26.746,5.994c34.968,0,63.311-28.346,63.311-63.313
		c0-34.971-28.343-63.311-63.311-63.311C289.12,150.42,261.031,178.257,260.505,212.775z M219.026,342.411
		c34.962,0,63.307-28.354,63.307-63.311c0-34.962-28.345-63.311-63.307-63.311c-34.965,0-63.322,28.348-63.322,63.311
		C155.705,314.057,184.061,342.411,219.026,342.411z M245.882,346.72h-53.717c-44.697,0-81.069,36.369-81.069,81.072v65.703
		l0.171,1.029l4.522,1.406c42.658,13.323,79.718,17.779,110.224,17.779c59.571,0,94.114-16.987,96.242-18.074l4.231-2.141h0.449
		v-65.703C326.936,383.089,290.585,346.72,245.882,346.72z M350.638,281.364h-53.314c-0.579,21.332-9.683,40.542-24.081,54.35
		c39.732,11.815,68.802,48.657,68.802,92.178v20.245c52.629-1.938,82.963-16.846,84.961-17.851l4.232-2.152h0.449v-65.715
		C431.693,317.728,395.324,281.364,350.638,281.364z M364.889,149.069c19.961,12.519,33.957,33.691,36.511,58.277
		c8.134,3.801,17.171,5.99,26.746,5.99c34.975,0,63.316-28.342,63.316-63.304c0-34.972-28.342-63.311-63.316-63.311
		C393.503,86.717,365.416,114.56,364.889,149.069z M455.01,217.658h-53.303c-0.579,21.332-9.682,40.542-24.08,54.349
		c39.731,11.811,68.801,48.658,68.801,92.179v20.245c52.624-1.934,82.964-16.84,84.962-17.852l4.226-2.145h0.455v-65.723
		C536.077,254.024,499.708,217.658,455.01,217.658z M107.937,277.044c12.386,0,23.903-3.618,33.67-9.777
		c3.106-20.241,13.958-37.932,29.454-49.975c0.065-1.188,0.174-2.361,0.174-3.561c0-34.971-28.351-63.311-63.298-63.311
		c-34.977,0-63.316,28.339-63.316,63.311C44.621,248.704,72.959,277.044,107.937,277.044z M164.795,335.714
		c-14.331-13.742-23.404-32.847-24.072-54.055c-1.971-0.147-3.928-0.295-5.943-0.295H81.069C36.366,281.364,0,317.728,0,362.425
		v65.709l0.166,1.023l4.528,1.412c34.214,10.699,64.761,15.616,91.292,17.153v-19.837
		C95.991,384.371,125.054,347.523,164.795,335.714z"/> </g>                </symbol><symbol viewBox="0 0 31.709 31.709" id="shape-to-do"><title>to-do</title> <g> <g> <path d="M10.595,25.719H4.696c-1.127,0-2.06-0.886-2.06-2.013V5.42c0-1.127,0.933-2.006,2.06-2.006h14.277
			c1.127,0,2.047,0.879,2.047,2.006v15.323l2.637-3.135V3.462c0-1.482-1.172-2.684-2.652-2.684H2.559C1.136,0.778,0,1.932,0,3.354
			v22.382c0,1.482,1.185,2.688,2.669,2.688h10.358l-1.224-1.063C11.267,26.896,10.864,26.327,10.595,25.719z"/> <path d="M17.875,6.794H6.034c-0.728,0-1.314,0.591-1.314,1.318c0,0.726,0.587,1.317,1.314,1.317h11.84
			c0.728,0,1.312-0.591,1.312-1.317C19.188,7.386,18.602,6.794,17.875,6.794z"/> <path d="M17.875,11.187H6.034c-0.728,0-1.314,0.59-1.314,1.318c0,0.724,0.587,1.318,1.314,1.318h11.84
			c0.728,0,1.312-0.594,1.312-1.318C19.188,11.777,18.602,11.187,17.875,11.187z"/> <path d="M17.875,15.581H6.034c-0.728,0-1.314,0.558-1.314,1.286c0,0.725,0.587,1.282,1.314,1.282h11.84
			c0.728,0,1.312-0.56,1.312-1.282C19.188,16.139,18.602,15.581,17.875,15.581z"/> <path d="M4.719,21.056c0,0.727,0.587,1.283,1.314,1.283h4.418c0.185-0.473,0.469-1.022,0.857-1.479
			c0.408-0.473,0.889-0.82,1.412-1.092H6.034C5.306,19.771,4.719,20.331,4.719,21.056z"/> <path d="M17.875,19.771h-0.988c0.324,0.137,0.633,0.366,0.916,0.611l1.312,1.123c0.05-0.135,0.076-0.28,0.076-0.437
			C19.188,20.346,18.602,19.771,17.875,19.771z"/> <path d="M30.898,16.249c-0.965-0.828-2.42-0.71-3.246,0.26l-7.564,8.867l-3.781-3.248c-0.968-0.826-2.421-0.717-3.248,0.248
			c-0.829,0.967-0.717,2.418,0.248,3.246l5.533,4.752c0.422,0.358,0.951,0.557,1.5,0.557c0.062,0,0.119-0.002,0.182-0.008
			c0.607-0.047,1.176-0.336,1.572-0.801l9.066-10.627C31.982,18.528,31.869,17.077,30.898,16.249z"/> </g> </g>                </symbol><symbol viewBox="0 0 268.476 268.476" id="shape-trash"><title>trash</title> <g id="trash-Delete__x2F__Trash"> <path style="fill-rule:evenodd;clip-rule:evenodd;" d="M63.119,250.254c0,0,3.999,18.222,24.583,18.222h93.072
		c20.583,0,24.582-18.222,24.582-18.222l18.374-178.66H44.746L63.119,250.254z M170.035,98.442c0-4.943,4.006-8.949,8.949-8.949
		c4.943,0,8.95,4.006,8.95,8.949l-8.95,134.238c0,4.943-4.007,8.949-8.949,8.949c-4.942,0-8.949-4.007-8.949-8.949L170.035,98.442z
		 M125.289,98.442c0-4.943,4.007-8.949,8.949-8.949c4.943,0,8.949,4.006,8.949,8.949v134.238c0,4.943-4.006,8.949-8.949,8.949
		c-4.943,0-8.949-4.007-8.949-8.949V98.442z M89.492,89.492c4.943,0,8.949,4.006,8.949,8.949l8.95,134.238
		c0,4.943-4.007,8.949-8.95,8.949c-4.942,0-8.949-4.007-8.949-8.949L80.543,98.442C80.543,93.499,84.55,89.492,89.492,89.492z
		 M218.36,35.811h-39.376V17.899C178.984,4.322,174.593,0,161.086,0L107.39,0C95.001,0,89.492,6.001,89.492,17.899v17.913H50.116
		c-7.914,0-14.319,6.007-14.319,13.43c0,7.424,6.405,13.431,14.319,13.431H218.36c7.914,0,14.319-6.007,14.319-13.431
		C232.679,41.819,226.274,35.811,218.36,35.811z M161.086,35.811h-53.695l0.001-17.913h53.695V35.811z"/> </g>                </symbol><symbol viewBox="0 0 512 512" id="shape-twitter"><title>twitter</title> <g> <path d="M256,0C114.609,0,0,114.609,0,256c0,141.392,114.609,256,256,256c141.392,0,256-114.608,256-256
		C512,114.609,397.392,0,256,0z M256,472c-119.297,0-216-96.702-216-216c0-119.297,96.703-216,216-216c119.298,0,216,96.703,216,216
		C472,375.298,375.298,472,256,472z"/> <path d="M384,170.922c-4.312,2.562-17.248,7.671-29.312,8.953c7.735-4.491,19.188-19.203,22.016-30.89
		c-7.436,5.109-24.516,12.562-32.95,12.562c0,0,0,0.023,0.016,0.039C334.141,150.75,320.608,144,305.577,144
		c-29.154,0-52.81,25.461-52.81,56.875c0,4.36,0.481,8.595,1.357,12.672h-0.017c-39.562-1.094-85.811-22.446-111.874-59
		c-16,29.852-2.156,63.046,16.015,75.141c-6.203,0.516-17.671-0.766-23.061-6.407c-0.375,19.797,8.484,46.048,40.735,55.562
		c-6.221,3.61-17.19,2.579-21.984,1.781c1.687,16.75,23.437,38.623,47.202,38.623c-8.47,10.534-37.373,29.706-73.141,23.596
		C152.298,358.782,180.625,368,210.608,368c85.205,0,151.376-74.359,147.814-166.093c0-0.11-0.031-0.219-0.031-0.313
		c0-0.25,0.031-0.5,0.031-0.719c0-0.281-0.031-0.562-0.031-0.859C366.141,194.328,376.546,184.234,384,170.922z"/> </g>                </symbol><symbol viewBox="0 0 486.866 486.866" id="shape-unlocked"><title>unlocked</title> <g> <path d="M393.904,214.852h-8.891v-72.198c0-76.962-61.075-141.253-137.411-142.625c-2.084-0.038-6.254-0.038-8.338,0
		C162.927,1.4,101.853,65.691,101.853,142.653v1.603c0,16.182,13.118,29.3,29.3,29.3c16.182,0,29.299-13.118,29.299-29.3v-1.603
		c0-45.845,37.257-83.752,82.98-83.752s82.981,37.907,82.981,83.752v72.198H92.963c-13.702,0-24.878,14.139-24.878,31.602v208.701
		c0,17.44,11.176,31.712,24.878,31.712h300.941c13.703,0,24.878-14.271,24.878-31.712V246.452
		C418.783,228.989,407.607,214.852,393.904,214.852z M271.627,350.591v63.062c0,7.222-6.046,13.332-13.273,13.332h-29.841
		c-7.228,0-13.273-6.11-13.273-13.332v-63.062c-7.009-6.9-11.09-16.44-11.09-26.993c0-19.999,15.459-37.185,35.115-37.977
		c2.083-0.085,6.255-0.085,8.337,0c19.656,0.792,35.115,17.978,35.115,37.977C282.717,334.149,278.637,343.69,271.627,350.591z"/> </g>                </symbol><symbol viewBox="0 0 349.75 349.749" id="shape-user"><title>user</title> <g> <g> <path d="M174.881,0C78.441,0,0,78.441,0,174.875c0,96.434,78.441,174.874,174.887,174.874c96.422,0,174.863-78.44,174.863-174.874
			C349.75,78.441,271.309,0,174.881,0z M127.08,141.626l0.352-0.384c1.426-1.036,2.12-2.657,1.861-4.354
			c-3.522-21.191-1.21-30.027-0.43-32.246c6.155-18.891,25.476-27.628,29.268-29.177c0.808-0.318,2.3-0.769,3.813-1.003l0.451-0.105
			l3.104-0.165l0.024,0.192l0.72-0.069c0.64-0.069,1.252-0.153,2.021-0.315l0.685-0.146c0.606,0.009,8.127,0.96,19.302,4.386
			l7.765,2.672c14.201,4.194,20.734,11.997,21.947,13.57c11.373,12.884,8.322,32.339,5.506,42.784
			c-0.318,1.231-0.126,2.498,0.57,3.549l0.643,0.793c0.823,1.12,1.562,5.438-0.906,14.609c-0.469,2.786-1.501,5.05-3.026,6.575
			c-0.564,0.619-0.961,1.408-1.104,2.3c-3.844,22.533-24.031,47.741-45.315,47.741c-18.06,0-38.671-23.19-42.379-47.723
			c-0.141-0.916-0.522-1.724-1.156-2.417c-1.543-1.601-2.528-3.906-3.122-7.317C125.861,148.958,125.684,143.785,127.08,141.626z
			 M86.539,239.346c0.783-0.991,5.149-6.107,13.979-9.476c7.764-2.385,26.956-8.762,37.446-16.363
			c0.492-0.265,0.976-0.781,1.378-1.189c0.97-1.045,2.453-2.642,4.209-4.27l0.979-0.93l0.997,0.937
			c9.242,8.713,19.467,13.486,28.796,13.486c9.8,0,19.903-4.239,29.241-12.273l0.732-0.625l1.981,0.961
			c1.771,1.621,4.834,3.849,6.257,4.527l1.825,0.89l-0.191,0.197l0.811,0.492c1.723,1.039,3.597,2.048,5.795,3.135
			c2.222,0.979,4.083,1.699,6.004,2.336c1.622,0.528,10.257,3.423,20.08,7.963l1.874,0.564c9.607,3.681,13.871,8.791,14.291,9.325
			c11.403,16.897,15.774,48.429,17.402,65.999c-29.784,24.181-67.242,37.493-105.531,37.493c-38.308,0-75.771-13.312-105.541-37.506
			C70.947,287.498,75.282,256.068,86.539,239.346z"/> </g> </g>                </symbol></svg>