<?xml version="1.0" standalone="no"?>
<!DOCTYPE svg PUBLIC "-//W3C//DTD SVG 20010904//EN"
 "http://www.w3.org/TR/2001/REC-SVG-20010904/DTD/svg10.dtd">
<svg version="1.0" xmlns="http://www.w3.org/2000/svg"
 width="700.000000pt" height="700.000000pt" viewBox="0 0 700.000000 700.000000"
 preserveAspectRatio="xMidYMid meet">
<metadata>
Created by potrace 1.11, written by Peter Selinger 2001-2013
</metadata>
<g transform="translate(0.000000,700.000000) scale(0.100000,-0.100000)"
fill="#000000" stroke="none">
<path d="M3248 6994 c-2 -1 -37 -5 -78 -8 -158 -13 -392 -66 -590 -133 -341
-116 -650 -284 -920 -500 -154 -123 -407 -388 -500 -523 -13 -19 -27 -37 -30
-40 -16 -13 -127 -192 -185 -298 -77 -138 -206 -441 -221 -516 -2 -11 -10 -40
-18 -65 -40 -123 -89 -387 -103 -550 -10 -113 -10 -404 0 -511 33 -358 130
-704 287 -1023 143 -291 241 -431 569 -811 86 -99 165 -192 176 -205 11 -13
25 -29 30 -35 6 -6 51 -58 100 -116 49 -58 92 -107 95 -110 3 -3 16 -18 29
-35 12 -16 42 -52 66 -80 62 -71 81 -94 128 -149 85 -100 231 -273 277 -326
52 -60 443 -519 524 -615 28 -33 56 -65 61 -71 6 -6 42 -49 80 -94 39 -46 89
-105 112 -132 l42 -48 66 68 c198 201 316 489 317 776 2 278 -97 541 -282 753
-14 16 -59 69 -100 118 -79 95 -307 362 -325 381 -6 6 -31 35 -56 64 -24 29
-49 58 -54 64 -6 6 -51 58 -100 116 -48 58 -98 116 -111 130 -19 21 -121 139
-198 230 -11 14 -62 72 -111 130 -174 202 -267 338 -348 510 -41 85 -108 269
-121 332 -43 197 -47 230 -49 408 -3 262 14 389 77 587 104 327 323 638 601
852 44 34 85 66 92 71 7 6 15 10 19 10 4 0 15 6 23 14 37 32 199 114 311 157
128 50 358 103 472 108 15 1 16 44 15 559 l-2 557 -32 1 c-18 1 -34 0 -35 -2z"/>
<path d="M3686 6992 c-2 -4 -4 -253 -4 -554 l0 -548 27 -1 c14 0 35 -2 46 -4
11 -3 38 -7 60 -9 44 -6 44 -6 160 -35 147 -36 319 -107 459 -189 225 -131
467 -364 603 -583 124 -199 223 -459 248 -654 4 -27 11 -70 15 -95 10 -56 10
-360 0 -409 -5 -20 -11 -56 -13 -81 -17 -137 -85 -349 -167 -513 -133 -267
-266 -424 -604 -712 -33 -27 -71 -60 -85 -73 -14 -13 -59 -51 -98 -85 -40 -34
-73 -64 -73 -67 0 -3 10 -17 23 -31 12 -15 40 -48 62 -74 22 -26 45 -53 50
-59 12 -13 127 -149 158 -186 11 -14 48 -57 81 -96 34 -38 76 -88 94 -110 65
-76 118 -139 181 -211 63 -74 63 -74 85 -55 31 28 66 57 231 193 202 166 204
169 326 291 328 327 563 705 709 1138 66 196 100 342 134 570 26 176 27 558 1
730 -11 69 -27 175 -30 190 -20 99 -57 238 -98 370 -49 152 -164 400 -260 559
-243 405 -588 747 -997 991 -274 164 -611 294 -914 355 -186 36 -401 61 -410
47z"/>
<path d="M3375 4708 c-205 -27 -405 -166 -488 -338 -70 -147 -86 -291 -47
-445 54 -215 197 -370 410 -446 89 -31 265 -36 361 -10 115 31 196 78 285 166
166 164 224 377 164 610 -31 122 -88 216 -183 304 -60 56 -73 65 -144 100
-108 54 -236 75 -358 59z"/>
</g>
</svg>
