<?xml version="1.0" encoding="iso-8859-1"?><!DOCTYPE svg PUBLIC "-//W3C//DTD SVG 1.1//EN" "http://www.w3.org/Graphics/SVG/1.1/DTD/svg11.dtd"><svg width="176" height="95" viewBox="0 0 176 95" xmlns="http://www.w3.org/2000/svg" xmlns:xlink="http://www.w3.org/1999/xlink"><view id="document6" viewBox="132.88 0 42.47 43.28"/><svg width="42.47" height="43.28" viewBox="-10 -10 42.47 43.28" x="132.88"><path d="M20.562 1.66c-.145 0-.274.045-.374.144l-9.523 9.523-.004-.004-.003.014c-.005.005-.007.02-.007.02s-1.256 2.95-1.05 3.155c.203.206 3.165-1.04 3.165-1.04l9.546-9.546c.648-.65-.864-2.265-1.748-2.265zm1.387 1.905l-9.187 9.187-1.4-1.4 9.172-9.177s.008-.004.027-.004c.357 0 1.113.6 1.344 1.158.058.138.056.224.043.237z" fill="#2D2D2D"/><path d="M15.796 11.026v7.417H12.24v3.267l-.048.044H1.528V1.528h14.268v4.02l1.53-1.53V.764C17.325.34 16.98 0 16.56 0H.765C.342 0 0 .34 0 .764v21.754c0 .422.342.764.764.764h11.72c.19 0 .37-.07.51-.194l4.077-3.648c.163-.145.255-.352.255-.57V9.5l-1.53 1.528z" fill="#2D2D2D"/><path d="M13.177 11.193c-.048 0-.098-.02-.135-.056-.075-.075-.075-.196 0-.27l8.472-8.473c.074-.075.196-.075.27 0 .075.075.075.196 0 .27l-8.47 8.473c-.04.037-.088.056-.137.056z" fill="#2D2D2D"/></svg><view id="dotplot" viewBox="47.89 52 45.63 38.39"/><svg width="45.63" height="38.39" viewBox="-10 -10 45.63 38.39" x="47.89" y="52"><g fill="#2D2D2D"><path d="M4.693 8.827c.27.18.59.284.936.284.644 0 1.196-.363 1.483-.89L11.4 9.415l-.002.013c0 .935.76 1.695 1.694 1.695.935 0 1.696-.76 1.696-1.695 0-.157-.028-.307-.07-.45l5.92-5.916c.28.204.623.33.994.33.936 0 1.695-.762 1.695-1.696C23.327.76 22.567 0 21.632 0s-1.696.76-1.696 1.696c0 .3.087.58.226.827l-5.8 5.794c-.31-.355-.762-.584-1.27-.584-.677 0-1.26.403-1.533.98L7.313 7.53c.003-.04.01-.075.01-.115 0-.936-.758-1.695-1.695-1.695-.936 0-1.696.76-1.696 1.695 0 .328.1.63.26.89L.093 12.904c-.133.148-.12.375.03.508.067.062.154.092.238.092.1 0 .197-.04.27-.12l4.063-4.555zM21.633.72c.538 0 .976.438.976.976s-.44.976-.977.976c-.536 0-.976-.438-.976-.976 0-.54.44-.976.976-.976zm-8.54 7.732c.54 0 .977.438.977.977 0 .537-.438.975-.977.975-.537 0-.977-.438-.977-.976 0-.54.44-.978.977-.978zM5.63 6.44c.54 0 .976.437.976.975s-.437.975-.977.975c-.537 0-.975-.437-.975-.975s.438-.976.974-.976z"/><path d="M25.425 11.575L21.07 9.53c.008-.067.022-.133.022-.202 0-.936-.762-1.696-1.696-1.696-.937 0-1.696.76-1.696 1.696 0 .33.1.636.263.897l-4.418 5.013c-.25-.147-.536-.236-.848-.236-.407 0-.777.15-1.07.392l-2.614-2c.08-.196.126-.41.126-.636 0-.935-.762-1.695-1.696-1.695-.936 0-1.696.76-1.696 1.695 0 .15.027.293.063.432l-5.13 3.2c-.17.106-.22.328-.115.497.067.11.186.17.305.17.064 0 .13-.02.19-.055l5.082-3.17c.31.376.776.62 1.302.62.45 0 .854-.177 1.16-.465l2.576 1.97c-.108.224-.178.472-.178.74 0 .934.76 1.695 1.695 1.695s1.695-.76 1.695-1.696c0-.363-.116-.7-.312-.976l4.385-4.978c.27.176.587.28.932.28.608 0 1.14-.325 1.437-.808l4.287 2.01c.18.085.394.01.48-.17.082-.18.005-.395-.175-.48zM8.4 12.93c-.044.25-.184.467-.38.612-.163.12-.36.192-.577.192-.27 0-.513-.11-.688-.284-.172-.172-.28-.408-.285-.67 0-.007-.003-.014-.003-.02 0-.54.438-.977.977-.977.537 0 .976.438.976.976 0 .057-.01.114-.02.17zm4.297 4.742c-.538 0-.977-.437-.977-.975 0-.1.02-.197.05-.29.075-.24.236-.437.453-.558.14-.08.3-.13.474-.13.128 0 .25.027.36.072.23.093.42.27.522.496.058.125.092.262.092.41 0 .537-.437.974-.975.974zm7.48-7.766c-.177.24-.46.398-.78.398-.162 0-.312-.043-.445-.113-.223-.113-.393-.31-.476-.55-.033-.098-.055-.202-.055-.312 0-.54.44-.976.977-.976.492 0 .896.368.962.844.006.044.012.086.012.132 0 .216-.073.416-.195.578zM13.232 6.677c-.04.048-.1.074-.162.074s-.12-.025-.163-.073l-1.604-1.855c-.054-.063-.067-.153-.03-.23.033-.075.11-.124.192-.124h.99v-1.56c0-.117.096-.213.215-.213h.8c.118 0 .214.096.214.214v1.557h.99c.12 0 .215.095.215.214 0 .063-.026.12-.07.158l-1.588 1.84z"/></g></svg><view id="download4" viewBox="0 0 52 52"/><svg width="52" height="52" viewBox="-156.25 -156.25 812.5 812.5"><path d="M155.116 449.727H493.5l2.49-8.342h-344M159.274 387.404V199.326H296.51l.43-1.535 1.98-10.105-3.194-14.106-32.217-13.292s-3.144 10.487 5.187 23.362c0 0-2.758 14.626-9.578 10.827l-18.71-9.387s-6.28-2.68-16.378 3.34c-10.046 6.047-27.173-.268-27.173-.268s1.37-10.178 11.988-15.435L217.54 167s-2.29-10.343-.313-18.42c2.014-8.05 5.57-.997 13.64-7.062 8.015-6.02 13.62 11.85 25.68 9.865 12.132-2.04 6.058-4.07 14.16-8.068 8.067-4.068 14.106 8.068 14.106 8.068l16.12 1.986s-2.534-18.212-1.423-13.517c7.53 12.953 17.627 41.824 20.23 59.453h20.352c-9.89-83.9-78.66-149.035-167.717-149.035C77.098 50.27 3.38 123.043 3.38 219.217c0 90.158 64.908 157.584 148.59 167.666l7.304.522zm76.604-270.06l12.11-8.086s-5.084-13.055-4.233-19.435c2.95-1.388 14.856 4.833 24.938 15.4-6.818 25.174-22.665 22.206-22.665 22.206s-11.678-.24-10.15-10.086zM134.046 266.086c-.764 3.816-5.31 12.926-8.312 18.912-3.053 6.037-4.58 8.363-8.362 11.348-3.78 3.088-6.055 8.328-6.055 8.328l-.747 12.89s1.474 10.605 3.73 14.42c2.273 3.78-8.102 26.27-8.102 26.27-6.56-1.25-10.202-8.884-12.493-14.923-2.273-6.106-5.273-9.298-4.528-16.1.78-6.82-5.865-10.446-8.104-14.212-2.255-3.78-5.29-9.072-5.29-12.855 0-3.818-8.296-9.127-8.296-9.127s-15.164-6.8-17.42-9.785c-2.273-3.052-4.563-15.927-5.31-21.194-.748-5.268 2.273-18.87 2.273-18.87s6.09-4.573 2.24-8.32c-3.767-3.782-4.512-13.682-4.512-13.682l-6.817-7.53s-5.273-7.547-6.02-11.357c-.747-3.78 0-6.088.747-9.838.764-3.827-1.49-10.628-1.49-14.374 28.228-69.29 75.613-85.463 75.613-85.463l3.8 15.885s-8.31 2.273-12.838.764c-4.547-1.525-6.854-1.525-6.854-1.525l-6.02 8.31s-2.29 5.282-3.054 8.32c-.747 3.036 1.492 7.546 1.492 7.546s10.636.764 10.636-2.256c0-3.037-1.492-4.545-1.492-4.545l-1.56-5.283s6.868-3.782 24.95-2.274c18.184 1.49 11.417 14.375 18.946 17.395 7.58 3.064-6.074 13.597-9.09 19.65-3.004 6.1-7.548-7.545-7.548-7.545s4.545-5.257-3.038-6.82c-7.58-1.49-12.578 13.62-8.762 12.91 3.78-.72 8.016 4.078 7.252 7.808-.764 3.818-.764 3.496-4.545 11.815-3.783 8.312-11.99 14.463-11.99 14.463s-3.868-2.352-1.614 2.223c2.292 4.508-.745 15.094-.745 18.14 0 3.017-9.11-5.304-10.603-12.9-1.545-7.538-10.41-.928-13.447-.184-3.02.76-8.502-1.31-9.994-5.06-1.525-3.79-15.18 7.546-18.963 9.768-3.766 2.307-2.22 8.372 3.8 5.312 6.054-3.005 11.33-.73 9.84 5.367-1.512 6.003-7.55 2.24-6.803 6.003.73 3.782 6.782 7.548 8.274 12.9 1.563 5.258 15.928.73 20.458-1.544 4.527-2.273 17.4-4.538 18.895 1.545 1.564 6.056 15.91 8.26 21.188 9.803 5.31 1.517 15.91 2.245 21.948 8.32 6.07 6.038-4.515 17.395-5.26 21.153zm12.058-151.92c-10.564-11.354-21.184-15.224-20.37-22.813.14-1.526 10.913-3.913 11.122-6.542 16.017-14.886 41.645-11.815 43.585-8.292-4.562 7.494-11.605 5.02-12.388 12.563-.764 7.6-12.838 17.41-11.346 20.447 1.51 3.053 0 15.97-10.602 4.64z"/><path d="M172.195 376.328H475.79V212.235h-46.337v16.827h27.797V359.44H190.68v-68.655h-.03v-61.723h158.526v-16.827h-176.98M476.43 384.707H171.556l-20.19 51.29h345.256l-20.192-51.29zm-167.336 48.588l3.725-13.793h22.353l3.727 13.793h-29.806zm-137.44-16.752l10.14-24.996H466.19l10.143 24.996H171.655z"/><path d="M389.51 306.164l60.768-60.77-40.155.002v-84.008h-41.227v84.008H328.74"/></svg><view id="download8" viewBox="0 52 47.89 42.49"/><svg width="47.89" height="42.49" viewBox="-10 -10 47.89 42.49" y="52"><path fill="#2D2D2D" d="M8.72 8.842c.092-.08.162-.177.22-.284h.05c.14.26.302.493.477.712h-1.27l.522-.428zm10.292 9.025V11.27h-.548v5.883H2.34v-4.148h-.003V9.27h.52l-.22-.712H1.79v9.309h17.222zM.188 22.49h20.284l.15-.5H0l.188.5zm19.472-3.837l1.09 2.91-.052.167H0l1.39-3.077h18.27zM11.448 21.6l-.39-.99H9.042l-.326.99h2.734zm7.83-1.15l-.584-1.44H2.06l-.682 1.44h17.9zM24.12 3.132c-.124 0-.247.006-.37.02C23.007 1.303 21.198 0 19.08 0c-1.82 0-3.412.968-4.3 2.416-.424-.138-.876-.216-1.345-.216-2.432 0-4.402 1.97-4.402 4.403 0 3.852 4.024 4.296 4.024 4.296h11.906c1.678-.454 2.93-2.205 2.93-3.998 0-2.082-1.69-3.77-3.77-3.77zm-19.928 8.65c.06.02.125.006.172-.033l3.59-2.94c.052-.046.077-.113.065-.18-.012-.068-.062-.124-.127-.143l-1.436-.43c.177-.582.348-1.05.516-1.437.803-1.85 2.11-2.018 2.165-2.024.073-.007.137-.06.157-.132l.008-.033c.01-.09-.046-.172-.133-.196-2.905-.875-4.562 2.392-4.907 3.16l-1.336-.4c-.064-.02-.134-.003-.184.048-.05.05-.066.12-.047.185L4.07 11.66c.018.06.065.106.124.123z"/></svg><view id="draw" viewBox="52 0 37.95 49.94"/><svg width="37.95" height="49.94" viewBox="-10 -10 37.95 49.94" x="52"><path d="M16.882 25.177l.183-2.197-2.872-7.808h1.593v1.26h.777v-3.296h-.777v1.26h-1.878l-1.86-5.06c.198-.447.31-.94.31-1.46 0-1.838-1.367-3.335-3.136-3.576V0H8.25v4.3c-1.77.24-3.14 1.738-3.14 3.576 0 .735.222 1.417.6 1.988l-1.667 4.53H2.09v-1.26h-.78v3.296h.78v-1.26h1.668L.886 22.98l.183 2.196L0 29.936l2.403-4.21 1.727-1.62 4.845-12.4 4.846 12.4 1.727 1.62 2.403 4.21-1.068-4.76zm-8.09-14.79c-1.383 0-2.506-1.12-2.506-2.505C6.286 6.5 7.41 5.38 8.792 5.38c1.384 0 2.506 1.12 2.506 2.502 0 1.386-1.122 2.506-2.506 2.506z" fill-rule="evenodd" clip-rule="evenodd" fill="#2D2D2D"/><circle cx="8.792" cy="7.918" r="1.234" fill-rule="evenodd" clip-rule="evenodd" fill="#2D2D2D"/></svg><view id="earth2" viewBox="89.95 0 42.93 48.89"/><svg width="42.93" height="48.89" viewBox="-10 -10 42.93 48.89" x="89.95"><g fill="#2D2D2D"><path d="M10.037 22.286c5.544 0 10.038-4.494 10.038-10.038 0-5.543-4.494-10.037-10.038-10.037C4.494 2.21 0 6.706 0 12.25c0 5.544 4.494 10.038 10.037 10.038zm3.774-16.09l.72-.48s-.303-.774-.252-1.153c.175-.083.882.286 1.48.916-.403 1.496-1.347 1.317-1.347 1.317s-.69-.018-.6-.602zm-2.883 7.257c0-4.112 3.153-1.01 3.153-1.01 1.8 1.198 2.038-.992 2.038-.992l1.318-.476.12-.6-.19-.838-1.916-.79s-.185.623.308 1.388c0 0-.165.87-.568.644l-1.11-.558s-.373-.16-.972.2c-.6.358-1.616-.017-1.616-.017s.083-.604.713-.917l.515-.34s-.135-.615-.016-1.094c.118-.48.33-.06.81-.42.477-.358.808.704 1.526.584.72-.12.36-.24.84-.48s.84.48.84.48l.956.12s-.15-1.083-.083-.804c.606 1.044 1.495 3.824 1.166 4.32l-.363-.16h-1.2l.72.84s.346.51.84.476c-.325 3.76-3.46 6.173-3.46 6.173-.48-.48-.24-.897-.24-.897l.134-.72.077-1.213s0-1.257-1.2-.66c-1.287.33-.75.33-2.052.42-1.304.09-1.088-2.657-1.088-2.657zm-3-9.19c.955-.885 2.475-.703 2.59-.493-.27.447-.69.298-.735.747-.045.45-.763 1.033-.673 1.214.09.183 0 .95-.63.276-.63-.674-1.26-.904-1.213-1.355.008-.088.65-.23.66-.386zm-5.47 10.41c-.044-.314.136-1.123.136-1.123s.363-.272.133-.494c-.224-.226-.268-.812-.268-.812l-.406-.448s-.313-.45-.358-.674c-.045-.225 0-.36.044-.584.044-.226-.09-.63-.09-.853C3.326 5.568 6.14 4.607 6.14 4.607l.23.943s-.495.135-.764.046c-.27-.09-.406-.09-.406-.09L4.84 6s-.136.315-.18.495c-.044.18.09.447.09.447s.627.046.627-.133c0-.18-.088-.27-.088-.27l-.09-.315S5.604 6 6.68 6.09c1.08.09.677.852 1.126 1.035.45.18-.36.808-.54 1.167-.18.36-.45-.45-.45-.45s.27-.312-.18-.405c-.448-.088-.746.81-.518.766.224-.044.475.242.43.466-.046.225-.046.206-.27.7-.225.494-.713.86-.713.86s-.23-.14-.096.13c.136.268-.045.898-.045 1.078 0 .18-.54-.315-.628-.766-.09-.446-.618-.057-.797-.01s-.507-.08-.595-.303c-.09-.226-.9.448-1.126.582-.226.135-.134.496.224.316s.673-.045.585.316c-.09.357-.45.135-.405.357.043.226.404.452.493.767.09.312.947.045 1.214-.09.27-.136 1.034-.27 1.123.09.093.36.945.493 1.26.582.314.09.943.134 1.304.494.357.36-.27 1.034-.316 1.26-.045.224-.315.764-.494 1.123-.18.36-.27.495-.495.674-.224.183-.36.496-.36.496l-.042.762s.088.63.222.857c.135.223-.48 1.56-.48 1.56-.39-.077-.608-.53-.744-.886-.134-.363-.312-.553-.267-.957.044-.404-.35-.617-.483-.842-.135-.226-.314-.54-.314-.764 0-.225-.495-.54-.495-.54s-.897-.404-1.032-.583c-.14-.18-.276-.947-.32-1.26z"/><path d="M22.934 12.098c0-5.316-3.714-10.255-9.032-12.012-.487-.154-.876-.098-1.12.156-.27.28-.264.68-.263.72 0 .707.33.973.543 1.074l.81.318c.47.202.92.415.92.415.016.008.928.506 1.353.85 2.833 2.083 4.525 5.253 4.525 8.478 0 5.85-4.963 10.795-10.84 10.795-1.498 0-2.946-.308-4.293-.91l-1.147-.59c-.354-.2-.55-.338-.824-.55l-.672-.425-.05-.022c-.126-.04-.257-.06-.39-.06-.474 0-.82.26-.855.29-.44.44-.104 1.064.157 1.353 1.865 1.583 4.28 2.687 6.656 3.046l.016 2.177-1.605.382c-2.06.52-2.193.72-2.163.967.032.256.316.338 1.173.338.33 0 .62-.015.622-.016l6.896-.03c2.122 0 2.29-.153 2.312-.407.017-.176.04-.44-2.23-.844l-2.257-.43c.005-.38.016-1.3.017-2.1 6.49-.81 11.74-6.586 11.74-12.965zm-9.58 15.918c.543.096 1.156.23 1.542.35-.28.027-.752.05-1.547.05l-6.908.03c-.002 0-.285.016-.61.016-.187 0-.332-.005-.444-.012.262-.098.723-.244 1.538-.45l1.934-.46-.022-2.89-.184-.023c-2.355-.32-4.768-1.403-6.6-2.954-.003-.005-.417-.48-.174-.727.002 0 .25-.183.575-.183.08 0 .16.01.236.033l.63.395c.275.214.482.362.868.578l1.163.6c1.415.633 2.922.952 4.48.952 6.11 0 11.27-5.14 11.27-11.223 0-3.36-1.758-6.66-4.692-8.816-.45-.363-1.37-.866-1.42-.894 0 0-.462-.218-.95-.43l-.803-.314c-.106-.052-.287-.21-.287-.69-.002-.073.02-.29.143-.415.13-.133.367-.145.68-.045 5.144 1.7 8.736 6.47 8.736 11.604 0 6.124-5.29 11.876-11.55 12.562l-.19.02v.193c0 1.073-.022 2.466-.022 2.466l-.002.18 2.612.5z"/></g></svg></svg>