<?xml version="1.0" encoding="iso-8859-1"?><!DOCTYPE svg PUBLIC "-//W3C//DTD SVG 1.1//EN" "http://www.w3.org/Graphics/SVG/1.1/DTD/svg11.dtd"><svg width="260" height="260" viewBox="0 0 260 260" xmlns="http://www.w3.org/2000/svg" xmlns:xlink="http://www.w3.org/1999/xlink"><view id="calendar" viewBox="52 0 52 52"/><svg width="52" height="52" viewBox="-151.55 -151.55 788.05 788.05" x="52"><path d="M118.505 115.332h6.938c10.544 0 19.09-8.55 19.09-19.09V23.85c0-10.54-8.546-19.09-19.09-19.09h-6.938c-10.543 0-19.09 8.55-19.09 19.09V96.24c0 10.542 8.547 19.092 19.09 19.092zM363.373 114.86h6.938c10.544 0 19.09-8.55 19.09-19.092v-72.39c0-10.54-8.546-19.09-19.09-19.09h-6.937c-10.545 0-19.092 8.55-19.092 19.09v72.39c.003 10.542 8.55 19.09 19.093 19.09z"/><path d="M453.916 43.558H404.92v57.21c0 19.083-15.525 29.61-34.607 29.61h-6.938c-19.084 0-34.61-15.527-34.61-34.61v-52.21H160.054V96.24c0 19.084-15.525 34.61-34.61 34.61h-6.937c-19.083 0-34.608-15.526-34.608-34.61V43.558H31.036C13.923 43.558 0 57.48 0 74.595v375.03c0 17.114 13.923 31.037 31.036 31.037h422.88c17.113 0 31.035-13.923 31.035-31.037V74.595c.003-17.113-13.92-31.037-31.034-31.037zm0 406.067H31.036V166.412h422.886l.016 283.212h-.022z"/><path d="M258.498 261.41h55.727c2.21 0 4-1.79 4-4v-48.255c0-2.21-1.79-4-4-4h-55.727c-2.21 0-4 1.79-4 4v48.255c0 2.21 1.79 4 4 4zM349.443 261.41h55.727c2.21 0 4-1.79 4-4v-48.255c0-2.21-1.79-4-4-4h-55.727c-2.21 0-4 1.79-4 4v48.255c0 2.21 1.79 4 4 4zM76.61 340.41h55.727c2.21 0 4-1.79 4-4v-48.256c0-2.21-1.79-4-4-4H76.61c-2.208 0-4 1.79-4 4v48.256c0 2.21 1.792 4 4 4zM167.555 340.41h55.726c2.21 0 4-1.79 4-4v-48.256c0-2.21-1.79-4-4-4h-55.725c-2.21 0-4 1.79-4 4v48.256c0 2.21 1.79 4 4 4zM258.5 340.41h55.725c2.21 0 4-1.79 4-4v-48.256c0-2.21-1.79-4-4-4H258.5c-2.21 0-4 1.79-4 4v48.256c0 2.21 1.79 4 4 4zM349.443 340.41h55.727c2.21 0 4-1.79 4-4v-48.256c0-2.21-1.79-4-4-4h-55.727c-2.21 0-4 1.79-4 4v48.256c0 2.21 1.79 4 4 4zM132.337 363.154H76.612c-2.21 0-4 1.79-4 4v48.256c0 2.21 1.79 4 4 4h55.726c2.21 0 4-1.79 4-4v-48.256c0-2.21-1.792-4-4-4zM223.282 363.154h-55.726c-2.21 0-4 1.79-4 4v48.256c0 2.21 1.79 4 4 4h55.726c2.21 0 4-1.79 4-4v-48.256c0-2.21-1.79-4-4-4zM314.227 363.154H258.5c-2.21 0-4 1.79-4 4v48.256c0 2.21 1.79 4 4 4h55.727c2.21 0 4-1.79 4-4v-48.256c0-2.21-1.79-4-4-4zM405.17 363.154h-55.727c-2.21 0-4 1.79-4 4v48.256c0 2.21 1.79 4 4 4h55.727c2.21 0 4-1.79 4-4v-48.256c0-2.21-1.79-4-4-4z"/></svg><view id="checked" viewBox="156 104 52 52"/><svg width="52" height="52" viewBox="-129.87 -129.87 675.32 675.32" x="156" y="104"><path d="M411.47 96.426l-46.32-46.32c-5.48-5.482-14.37-5.482-19.852 0l-192.95 192.952-82.066-82.064c-5.48-5.482-14.37-5.482-19.85 0l-46.32 46.32c-5.482 5.48-5.482 14.37 0 19.852l138.31 138.31c2.742 2.742 6.335 4.112 9.927 4.112 3.592 0 7.185-1.37 9.925-4.112l249.195-249.2c2.633-2.63 4.11-6.202 4.11-9.924.002-3.724-1.477-7.293-4.11-9.926z"/></svg><view id="classes" viewBox="0 208 51.94 51.94"/><svg width="51.94" height="51.94" viewBox="-10 -10 51.94 51.94" y="208"><path d="M.903 10.8h.443V7.04h7.5v3.76h.443V7.04h.786v-.79H0v.79h.903M1.695 5.433v.64H9.31c0-.374-.3-.675-.67-.675-.235 0-.433.128-.554.31l.46-3.14h-7.29l.447 2.865h-.008zm3.45-1.273c.232 0 .42.178.42.396 0 .22-.188.398-.42.398-.23 0-.418-.18-.418-.398 0-.22.187-.396.42-.396zM11.872 10.8h.442V7.04h7.5v3.76h.444V7.04h.787v-.79H10.97v.79h.902M12.664 5.433v.64h7.615c0-.374-.303-.675-.674-.675-.233 0-.432.128-.55.31l.458-3.14h-7.29l.446 2.865h-.006zm3.45-1.273c.23 0 .42.178.42.396 0 .22-.188.398-.42.398-.23 0-.418-.18-.418-.398 0-.22.187-.396.42-.396zM22.688 10.8h.44V7.04h7.502v3.76h.44V7.04h.787v-.79H21.782v.79h.906M23.48 5.433v.64h7.615c0-.374-.303-.675-.674-.675-.233 0-.43.128-.55.31l.457-3.14h-7.29l.446 2.865h-.004zm3.45-1.273c.23 0 .418.178.418.396 0 .22-.188.398-.418.398-.232 0-.42-.18-.42-.398 0-.22.185-.396.42-.396zM.078 16.45H.98v3.76h.444v-3.76h7.5v3.76h.443v-3.76h.787v-.792H.078M1.773 15.48H9.39c0-.372-.3-.673-.672-.673-.234 0-.432.127-.552.31l.457-3.142h-7.29l.447 2.866h-.007v.64zm3.452-1.91c.23 0 .42.178.42.395 0 .22-.19.397-.42.397-.232 0-.42-.178-.42-.397 0-.216.187-.396.42-.396zM11.047 16.45h.903v3.76h.443v-3.76h7.502v3.76h.44v-3.76h.788v-.792H11.047M12.743 15.48h7.615c0-.372-.302-.673-.673-.673-.233 0-.432.127-.552.31l.457-3.142H12.3l.447 2.866h-.007v.64h.003zm3.45-1.91c.23 0 .418.178.418.395 0 .22-.187.397-.417.397-.232 0-.42-.178-.42-.397 0-.216.188-.396.42-.396zM21.86 15.658v.792h.906v3.76h.44v-3.76h7.502v3.76h.44v-3.76h.79v-.792M23.557 15.48h7.616c0-.372-.302-.673-.673-.673-.235 0-.433.127-.553.31l.456-3.142h-7.29l.448 2.866h-.007v.64h.004zm3.45-1.91c.23 0 .42.178.42.395 0 .22-.19.397-.42.397s-.42-.178-.42-.397c0-.216.186-.396.42-.396zM.078 25.61H.98v3.76h.444v-3.76h7.5v3.76h.443v-3.76h.787v-.793H.078M1.334 21.135l.447 2.867h-.007v.64H9.39c0-.374-.3-.675-.672-.675-.234 0-.432.127-.552.31l.457-3.142h-7.29zm3.89 2.387c-.23 0-.418-.18-.418-.397 0-.218.187-.396.42-.396.23 0 .418.177.418.395 0 .22-.188.397-.42.397zM11.047 25.61h.903v3.76h.443v-3.76h7.502v3.76h.44v-3.76h.788v-.793H11.047M12.303 21.135l.447 2.867h-.007v.64h7.615c0-.374-.302-.675-.673-.675-.233 0-.432.127-.552.31l.457-3.142h-7.287zm3.89 2.387c-.232 0-.42-.18-.42-.397 0-.218.188-.396.42-.396.23 0 .418.177.418.395 0 .22-.185.397-.417.397zM21.86 25.61h.906v3.76h.44v-3.76h7.502v3.76h.44v-3.76h.79v-.793h-10.08M23.116 21.135l.446 2.867h-.006v.64h7.615c0-.374-.3-.675-.672-.675-.233 0-.43.127-.552.31l.457-3.142h-7.287zm3.89 2.387c-.23 0-.418-.18-.418-.397 0-.218.188-.396.42-.396s.418.177.418.395c0 .22-.188.397-.42.397z"/></svg><view id="collegues" viewBox="52 52 52 52"/><svg width="52" height="52" viewBox="-245.78 -245.78 1278.06 1278.06" x="52" y="52"><path d="M566 549.2c-.2-1.6-.6-3.2-1.1-4.7-3.8-14.6-12.5-41.3-16.5-53.2-.4-2.1-1.1-4.1-2-6 0 0-6.4-9.6-11.2-12.5 0 0-2.4-1.3-2.7-1.4-9.5-4.5-38.9-16.3-38.9-16.3-14.7-6.4-29.9-11.8-45.4-17.3-2.8 11.5-29.1 88.1-33.3 98.8l-3.3-71.2c1.1-1.7 1.9-3.6 2.8-5.4l11-21.7c-7.7 6.4-19.3 10.5-32.3 10.5-12.7 0-24-3.9-31.7-10.1l10.7 21.2c.9 1.8 1.7 3.8 2.8 5.4l-3.3 71.2c-4.2-10.6-30.5-87.2-33.3-98.8-15.5 5.5-30.7 11-45.4 17.3 0 0-29.4 11.8-38.9 16.3-.3.2-2.4 1.2-2.7 1.4 0 0-8.8 7.3-11.2 12.4 0 0-1.6 3.898-2 6-3.9 11.898-12.6 38.5-16.5 53.2-.5 1.5-.9 3.1-1.1 4.698-.2 1.4-.3 2.9-.3 4.3 0 15.7 12.7 28.4 28.4 28.4h289.802c15.7 0 28.4-12.7 28.4-28.4-.5-1.197-.603-2.697-.802-4.098zM467.2 306.2c0-5 1-23.2 1-27.3 0-40.5-32.9-73.4-73.4-73.4h-3.2c-40.5 0-73.4 32.9-73.4 73.4 0 4.2 1 22.3 1 27.3-1.8.1-18.2-3.9-16.4 15.8 3.7 41.7 19.7 33.7 20.1 33.7 7.8 25.2 20 41.2 31.9 51.4 18.6 15.9 36.6 17.7 37 17.7h3c.3 0 18.2-1.7 36.7-17.5 12-10.2 24.2-26.3 32.1-51.6.5 0 16.4 8.1 20.1-33.7 1.7-19.7-14.7-15.7-16.5-15.8zM218.3 476.8l.2-.6.3-.6c2.2-4.8 5.8-9.5 11.3-14.9 1.2-1.1 4.8-4.7 7.7-6.7.2-.1.4-.3.6-.4.1-.1.2-.2.4-.2 2-1.3 4.4-2.4 5.2-2.8 6.5-3.1 20.5-8.8 30.2-12.8-.3-.1-.6-.3-1-.5-.3-.1-.6-.3-.9-.4-8.3-3.9-33.9-14.2-33.9-14.2-12.8-5.5-26.1-10.3-39.6-15.1-2.4 10.1-25.4 76.8-29 86.1l-2.9-62.1c1-1.5 1.6-3.1 2.4-4.7l9.6-18.9c-6.7 5.602-16.8 9.2-28.1 9.2-11 0-20.9-3.4-27.7-8.8l9.4 18.5c.8 1.6 1.4 3.3 2.4 4.7l-2.9 62.1c-3.6-9.2-26.6-76-29-86.1-13.5 4.8-26.8 9.5-39.6 15.1 0 0-25.6 10.3-33.9 14.2-.3.1-.6.3-.9.4-.7.4-1.2.6-1.5.8-4.3 2.5-7.7 6.3-9.8 10.8v.1c-.8 1.602-1.4 3.4-1.7 5.2-3.4 10.4-11 33.6-14.3 46.3-.4 1.3-.8 2.7-1 4.102-.2 1.2-.3 2.5-.3 3.8 0 13.7 11.1 24.7 24.7 24.7H200.6c4.2-14.8 10.9-35.602 15.1-48.102.6-3.1 1.8-6.4 2.6-8.2zM89.4 335.8c6.8 21.9 17.4 35.9 27.8 44.8 16.2 13.9 31.9 15.4 32.2 15.4h2.6c.3 0 15.9-1.5 32-15.3 10.5-8.9 21.1-22.9 28-45 .4 0 14.3 7.1 17.6-29.3 1.5-17.2-12.8-13.7-14.3-13.8 0-4.4.9-20.2.9-23.8 0-35.3-28.7-64-64-64h-2.8c-35.3 0-64 28.7-64 64 0 3.6.9 19.5.9 23.8-1.6.1-15.9-3.4-14.3 13.8 3.1 36.5 17 29.4 17.4 29.4zM786 483.4c-.2-2.3-.5-4.6-.8-6.9 0 0-1.3-7.4-1.6-8.6-3-13.1-11.1-22.6-22.1-30.1-2.1-1.4-4.2-2.6-6.302-3.7-2.8-1.5-45.8-15.602-46.898-16 .3 1.5.398 3.1.5 4.898 6 4.2 23.6 19.4 15.6 47.7 0 0-12.7-15.1-25.6-17-12.3 21.4-33.2 48.6-44.5 55.7C643 502.3 622.1 475.2 609.8 453.7c-12.9 1.9-25.6 17-25.6 17-8-28.4 9.6-43.5 15.6-47.7.1-1.8.2-3.4.5-4.9-1.1.4-44.1 14.5-46.9 16-2.2 1.1-4.3 2.3-6.3 3.7-4.3 2.9-8.1 6.1-11.4 9.7 2.602 1.1 4.8 2.1 6.602 2.9.7.3 2.8 1.3 4.7 2.5 4.5 2.7 8.9 6.8 13.698 12.8 4.8 6.1 6.4 9 7.2 10.9 1.2 2.7 2.2 5.6 2.9 8.5 4.1 12.5 10.9 33.3 15 48h167.8c9.9 0 18.3-3 25.3-10.4 5.4-5.8 7-12.7 7.4-20.2.1-1.3.2-7 .2-7s-.5-12-.5-12.1z"/><path d="M576.4 348.4c1 3.7 1.7 7.2 1.7 10.5 0 1.1-.1 2.2-.3 3.3-.9 3.1-7.5 13.7-8.602 15.5 11.7 12.6 27.102 15.5 42.3 18.7 4.5.9 9.1 1.5 14 2.1 1.6.3 3.2.602 4.802.9l-7.7 22.6s-.2 33 31.7 53.102h.2C686.4 455 686.197 422 686.197 422l-7.7-22.6 4.802-.9c4.898-.6 9.5-1.2 14-2.1 15.2-3.2 30.7-6.1 42.3-18.7-1.1-1.8-7.7-12.4-8.6-15.5-.2-1.1-.3-2.2-.3-3.3 0-3.3.6-6.8 1.7-10.5 1-3.5 2.1-7 3.2-10.6 5.2-11.5 8-24.2 8-37.7 0-49.9-39.7-90.5-89-91.4h-.2c-49.302.9-89 41.5-89 91.4 0 13.4 2.9 26.2 8 37.7.9 3.6 2 7.1 3 10.6z"/></svg><view id="columns" viewBox="104 0 52 52"/><svg viewBox="-84.41 -84.41 438.95 438.95" width="52" height="52" x="104"><path d="M33.892 70.088c-19.537 1.555-35.578 18.67-33.75 38.77 1.57 17.256 16.823 31.415 34.676 29.52 14.97-1.588 27.25-14.994 25.264-30.604-1.615-12.68-13.2-23.104-26.578-20.975C23.117 88.45 14.528 98.27 16.898 109.44c.86 4.047 3.183 7.56 6.492 9.94 3.31 2.383 7.922 3.55 12.416 2.12 2.944-.937 5.294-2.818 6.887-5.52 1.593-2.705 2.11-6.918-.02-10.263-1.717-2.7-3.293-3.233-5.766-3.65-1.236-.207-2.965-.284-4.805.913-1.84 1.197-2.815 3.672-2.815 5.422-.017 1.336.5 2.623 1.438 3.574-.49-.142-.978-.34-1.494-.712-1.204-.868-2.242-2.443-2.552-3.902-1.06-4.992 3.23-9.867 8.395-10.69 7.348-1.17 14.144 4.95 15.088 12.36 1.232 9.67-6.742 18.37-16.4 19.395-11.974 1.272-22.576-8.57-23.66-20.48-1.297-14.266 10.417-26.766 24.585-27.893.126-.01.253-.016.38-.023h200c.125.01.25.014.376.023 14.17 1.127 25.883 13.627 24.585 27.896-1.083 11.91-11.685 21.75-23.66 20.48-9.658-1.025-17.632-9.726-16.4-19.396.943-7.41 7.74-13.53 15.088-12.36 5.165.823 9.454 5.698 8.394 10.69-.31 1.46-1.348 3.036-2.553 3.903-.516.37-1 .57-1.49.71.936-.95 1.452-2.238 1.434-3.573 0-1.75-.973-4.225-2.812-5.422-1.84-1.197-3.568-1.12-4.805-.912-2.472.416-4.05.95-5.767 3.648-2.13 3.345-1.61 7.56-.018 10.263 1.593 2.704 3.943 4.585 6.887 5.52 4.494 1.43 9.105.264 12.414-2.118s5.633-5.894 6.492-9.94c2.37-11.17-6.22-20.99-16.605-22.644-13.38-2.128-24.964 8.295-26.578 20.976-1.988 15.61 10.296 29.015 25.266 30.604 17.853 1.894 33.106-12.264 34.675-29.52 1.828-20.102-14.213-37.217-33.75-38.77-.406-.063-.78-.038-1.17-.046h-200c-.39-.024-.8.02-1.172.047v-.002zm-18.83-50.025c-2.76 0-5 2.24-5 5v10c0 1.326.528 2.598 1.466 3.535l20 20c.938.938 2.21 1.465 3.535 1.465h200c1.326 0 2.598-.527 3.535-1.465l20-20c.938-.938 1.465-2.21 1.465-3.535v-10c0-2.76-2.24-5-5-5h-240zm5 10h230v2.928l-17.07 17.073H37.13L20.063 32.99v-2.927zm55 70c-2.76 0-5 2.24-5 5v140c.002 2.762 2.24 5 5.003 5 .987 0 1.95-.293 2.772-.84l28.44-18.963c1.367-.91 2.2-2.433 2.228-4.074l1.557-91.04v-.083c0-3.28 10.058-3.373 10-.09v80.09c0 2.762 2.24 5 5.002 5 .987 0 1.95-.293 2.772-.84l30-20c1.39-.927 2.226-2.488 2.227-4.16v-60c0-3.34 10-3.34 10 0v50c0 2.762 2.24 5 5.003 4.998.775 0 1.54-.18 2.234-.527l20-10c1.693-.847 2.763-2.577 2.764-4.47v-70c0-2.762-2.24-5-5-5h-120zm5 10h110v61.908l-10 5v-41.907c0-16.668-30-16.668-30 0v57.324l-20 13.334v-70.657.088c.298-16.723-29.997-16.814-29.997-.087v-.086l-1.512 88.418-18.488 12.326V110.064h-.002z"/></svg><view id="compte" viewBox="103.65 208 49.64 49.64"/><svg viewBox="-10 -10 49.64 49.64" width="49.64" height="49.64" x="103.65" y="208"><path d="M18.62 12.397l-.545-1.295s1.267-2.86 1.157-2.97l-1.678-1.638c-.117-.113-2.978 1.19-2.978 1.19l-1.32-.532s-1.17-2.898-1.327-2.898H9.56c-.165 0-1.243 2.906-1.243 2.906l-1.32.535S4.078 6.453 3.965 6.56L2.287 8.203c-.116.115 1.22 2.916 1.22 2.916l-.545 1.294S0 13.554 0 13.71v2.32c0 .16 2.97 1.218 2.97 1.218l.544 1.29S2.246 21.4 2.357 21.51l1.68 1.64c.112.112 2.975-1.194 2.975-1.194l1.32.537S9.5 25.39 9.66 25.39h2.37c.162 0 1.243-2.907 1.243-2.907l1.32-.535s2.918 1.242 3.03 1.135l1.68-1.643c.114-.11-1.222-2.914-1.222-2.914l.547-1.295s2.963-1.142 2.963-1.298v-2.32c0-.16-2.97-1.215-2.97-1.215zm-7.825 5.81c-1.905 0-3.46-1.52-3.46-3.387 0-1.865 1.555-3.385 3.46-3.385 1.908 0 3.46 1.52 3.46 3.385 0 1.868-1.552 3.387-3.46 3.387z"/><path d="M28.538 9.693l.014-.676s1.118-1.006 1.09-1.076l-.413-1.047c-.032-.072-1.545-.062-1.545-.062l-.474-.49s.06-1.503-.012-1.534l-1.04-.467c-.075-.034-1.118 1.034-1.118 1.034l-.684-.027s-1.04-1.12-1.11-1.092l-1.06.393c-.07.025-.036 1.518-.036 1.518l-.495.463s-1.523-.083-1.554-.015l-.456 1.02c-.032.072 1.065 1.12 1.065 1.12l-.015.67s-1.117 1.01-1.09 1.08l.415 1.048c.03.07 1.543.06 1.543.06l.473.493s-.055 1.502.016 1.533l1.04.464c.073.033 1.117-1.03 1.117-1.03l.684.024s1.037 1.12 1.11 1.094l1.057-.393c.074-.026.04-1.52.04-1.52l.493-.46s1.523.078 1.555.01l.457-1.02c.03-.07-1.067-1.117-1.067-1.117zm-2.393.207c-.367.82-1.347 1.184-2.187.81-.836-.374-1.22-1.347-.853-2.17.365-.817 1.348-1.18 2.184-.806.836.377 1.22 1.348.855 2.166z"/></svg><view id="cours" viewBox="0 104 52 52"/><svg width="52" height="52" viewBox="-104.71 -104.71 544.51 544.5" y="104"><path d="M311.175 115.775c-1.355-10.186-1.546-27.73 7.915-33.62.17-.11.295-.265.443-.4 7.735-2.473 13.088-5.945 8.886-10.617l-114.103-34.38L29.56 62.445S8.403 65.47 10.293 98.34c1.026 17.89 6.637 26.675 11.544 31l-15.16 4.568c-4.21 4.672 1.143 8.145 8.88 10.615.146.138.27.293.442.4 9.454 5.897 9.272 23.44 7.912 33.627-33.967 9.645-21.774 12.788-21.774 12.788l7.45 1.803C4.35 197.878-.856 206.86.12 223.89c1.89 32.865 19.27 35.133 19.27 35.133L140.29 298.32l182.49-44.2s12.198-3.15-21.778-12.795c-1.366-10.172-1.556-27.712 7.92-33.623.175-.105.302-.264.443-.396 7.736-2.474 13.084-5.943 8.88-10.615l-7.93-2.394c5.29-3.19 13.235-11.527 14.48-33.183.86-14.896-3.027-23.62-7.525-28.756l15.678-3.794c0 .006 12.198-3.142-21.773-12.788zm-152.642-.42l30.688-6.308 103.71-21.312 15.45-3.178c-4.937 9.036-4.73 21.402-3.913 29.35.18 1.798.385 3.44.585 4.688L288.14 122.8l-130.897 32.563 1.29-40.01zM26.71 147.336l15.45 3.178 99.596 20.474 8.7 1.78 26.094 5.364 1.287 40.01-134.534-33.47-13.263-3.297c.195-1.25.4-2.89.588-4.693.812-7.942 1.023-20.31-3.918-29.347zm-6.002-50.58c-.187-8.743 1.37-15.066 4.52-18.28 2.004-2.052 4.37-2.48 5.99-2.48.858 0 1.475.12 1.517.12l79.607 25.953 39.717 12.95-1.304 40.288L39.334 124.07l-5.88-1.647c-.216-.06-.51-.103-.735-.113-.46-.033-11.476-1.047-12.012-25.553zm119.87 184.11L23.28 247.98c-.217-.063-.507-.105-.733-.116-.467-.03-11.488-1.044-12.02-25.544-.19-8.754 1.375-15.07 4.518-18.288 2.01-2.052 4.375-2.48 5.994-2.48.858 0 1.473.116 1.518.116 0 0 .005 0 0 0l119.316 38.908-1.295 40.29zm153.706-41.408c.185 1.803.39 3.442.59 4.692l-147.81 36.77 1.29-40.01 31.602-6.496 4.667 1.13 17.492-5.686 80.63-16.57 15.458-3.18c-4.942 9.036-4.737 21.407-3.92 29.35zm8.142-54.376c-.27.006-.538.042-.79.122l-11.15 3.12-106.147 29.765-1.3-40.288 34.827-11.36 84.327-27.5c.01-.005 4.436-.988 7.684 2.315 3.144 3.214 4.704 9.537 4.52 18.28-.55 24.498-11.57 25.516-11.972 25.547z"/></svg><view id="create" viewBox="52 104 52 52"/><svg width="52" height="52" viewBox="-191.25 -191.25 994.5 994.5" x="52" y="104"><path d="M306 0C136.992 0 0 136.992 0 306s136.992 306 306 306 306-137.012 306-306S475.008 0 306 0zm0 573.75C158.125 573.75 38.25 453.875 38.25 306S158.125 38.25 306 38.25 573.75 158.125 573.75 306 453.875 573.75 306 573.75zm114.75-286.875h-95.625V191.25c0-10.557-8.568-19.125-19.125-19.125s-19.125 8.568-19.125 19.125v95.625H191.25c-10.557 0-19.125 8.568-19.125 19.125s8.568 19.125 19.125 19.125h95.625v95.625c0 10.557 8.568 19.125 19.125 19.125s19.125-8.568 19.125-19.125v-95.625h95.625c10.557 0 19.125-8.568 19.125-19.125s-8.568-19.125-19.125-19.125z"/></svg><view id="down" viewBox="104 104 52 52"/><svg viewBox="-13.81 -13.81 71.83 71.83" width="52" height="52" x="104" y="104"><path d="M1.9 13c0-.5.2-1 .5-1.3.7-.7 1.9-.7 2.7 0l17 17 17-17c.7-.7 1.9-.7 2.7 0 .7.7.7 1.9 0 2.7L23.4 32.6c-.7.7-1.9.7-2.7 0L2.5 14.3c-.4-.4-.6-.9-.6-1.3z"/></svg><view id="edit" viewBox="156 0 52 52"/><svg width="52" height="52" viewBox="-165.25 -165.25 859.31 859.31" x="156"><path d="M513.74 204.83l-29.482 29.485-82.147-82.14 29.495-29.488c9.292-9.292 23.253-10.44 31.138-2.565l53.563 53.572c7.873 7.873 6.726 21.843-2.566 31.135zm-125.32-38.97l82.148 82.146-195.883 195.88c-.898.898-3.393 3.393-6.892 4.285-.405.196-.82.362-1.23.492l-102.23 32.58c-2.86.904-5.735.32-7.6-1.55-1.87-1.867-2.45-4.74-1.555-7.6l32.58-102.222c.14-.42.305-.827.49-1.224.897-3.505 3.385-5.993 4.293-6.897l36.813-36.813H105.02c-5.012 0-9.08-4.066-9.08-9.08 0-5.022 4.067-9.077 9.08-9.077h142.49l140.91-140.92zM249.418 437.573l-50.57-50.56-13.564 42.58 21.554 21.557 42.58-13.576zm135.848-239.066c-2.908-2.91-7.625-2.91-10.527 0L222.03 351.206c-2.905 2.908-2.905 7.625 0 10.533 2.905 2.907 7.625 2.907 10.53 0l152.705-152.7c2.907-2.91 2.907-7.627 0-10.532zm-9.228 290.71c0 5.454-4.438 9.9-9.895 9.9H185.956l-16.275 5.188c-3.268 1.04-6.628 1.566-9.99 1.566-7.162 0-13.82-2.453-19.267-6.756H46.885c-5.458 0-9.91-4.434-9.91-9.9V73.424c0-5.458 4.446-9.9 9.91-9.9h37.12V79.2c0 5.463 4.43 9.896 9.903 9.896 5.47 0 9.9-4.433 9.9-9.897V63.522h56.92v15.675c0 5.464 4.43 9.897 9.902 9.897 5.473 0 9.903-4.433 9.903-9.897V63.523h49.497v15.675c0 5.464 4.43 9.897 9.904 9.897 5.47 0 9.9-4.433 9.9-9.897V63.523h54.453v15.675c0 5.464 4.427 9.897 9.895 9.897 5.473 0 9.906-4.433 9.906-9.897V63.523h42.072c5.45 0 9.896 4.442 9.896 9.9v68.57l10.38-10.373 19.32-19.325v-38.87c0-21.832-17.76-39.597-39.596-39.597h-42.072V9.904c0-5.467-4.434-9.904-9.906-9.904-5.462 0-9.895 4.43-9.895 9.904v23.924h-54.465V9.904c0-5.467-4.43-9.904-9.9-9.904-5.474 0-9.904 4.43-9.904 9.904v23.924H180.52V9.904c0-5.467-4.43-9.904-9.903-9.904-5.47 0-9.9 4.43-9.9 9.904v23.924h-56.92V9.904c0-5.467-4.43-9.904-9.9-9.904-5.474 0-9.904 4.43-9.904 9.904v23.924h-37.12C25.04 33.828 7.27 51.593 7.27 73.424V489.21c0 21.835 17.772 39.597 39.603 39.597h319.264c21.835 0 39.597-17.762 39.597-39.596V345.06l-29.702 29.707v114.45h.005zm-77.33-336.782H105.02c-5.012 0-9.08 4.06-9.08 9.08 0 5.018 4.067 9.078 9.08 9.078h193.687c5.013 0 9.08-4.06 9.08-9.08 0-5.017-4.067-9.078-9.08-9.078zm0 73.2H105.02c-5.012 0-9.08 4.062-9.08 9.078 0 5.02 4.067 9.08 9.08 9.08h193.687c5.013 0 9.08-4.062 9.08-9.08 0-5.016-4.067-9.08-9.08-9.08z"/></svg><view id="home" viewBox="156 52 52 52"/><svg width="52" height="52" viewBox="-160 -160 832 832" x="156" y="52"><path d="M512 296l-96-96V56h-64v80l-96-96L0 296v16h64v160h160v-96h64v96h160V312h64v-16z"/></svg><view id="import" viewBox="0 0 52 52"/><svg width="52" height="52" viewBox="-135.47 -135.47 704.44 704.44"><path d="M395.25 153h-102V0h-153v153h-102l178.5 178.5L395.25 153zm-357 229.5v51h357v-51h-357z"/></svg><view id="locked" viewBox="0 156 52 52"/><svg width="52" height="52" viewBox="-152.1 -152.1 790.94 790.94" y="156"><path d="M403.88 196.563h-9.484v-44.388c0-82.1-65.15-150.68-146.582-152.145-2.225-.04-6.67-.04-8.895 0C157.485 1.494 92.335 70.076 92.335 152.175v44.388H82.85c-14.615 0-26.537 15.082-26.537 33.71v222.63c0 18.607 11.922 33.83 26.54 33.83H403.88c14.616 0 26.54-15.223 26.54-33.83v-222.63c0-18.627-11.923-33.71-26.54-33.71zm-130.438 144.8v67.27c0 7.703-6.45 14.222-14.158 14.222H227.45c-7.71 0-14.16-6.52-14.16-14.222v-67.27c-7.476-7.36-11.83-17.538-11.83-28.796 0-21.334 16.492-39.666 37.46-40.513 2.222-.09 6.673-.09 8.895 0 20.968.847 37.46 19.18 37.46 40.513-.003 11.258-4.356 21.435-11.833 28.795zm58.444-144.8h-177.04v-44.388c0-48.905 39.744-89.342 88.52-89.342 48.774 0 88.52 40.437 88.52 89.342v44.388z"/></svg><view id="logo" viewBox="52 156 52 52"/><svg viewBox="-31.25 -31.25 162.5 162.5" width="52" height="52" x="52" y="156"><path fill="#F25D59" d="M53.4 97.8c-1.9 1.1-5 1.1-6.9 0L10.2 77c-1.9-1.1-3.5-3.8-3.5-6l.1-41.8c0-2.2 1.6-4.9 3.5-6l36.3-21c1.9-1.1 5-1.1 6.9 0L89.8 23c1.9 1.1 3.5 3.8 3.5 6l-.1 41.8c0 2.2-1.6 4.9-3.5 6l-36.3 21z"/><path fill="#FFF" d="M33.8 18.3v63.4h2.5V55.2H49c3.3 0 6.3-.5 8.9-1.4 2.7-.9 5-2.2 6.9-3.8 1.9-1.6 3.4-3.6 4.4-5.9 1-2.3 1.6-4.7 1.6-7.4 0-6.1-1.9-10.7-5.6-13.8-3.7-3.1-9.1-4.6-16.3-4.6H33.8zm2.4 34.9V20.3h12.7c6.5 0 11.3 1.4 14.5 4.2 3.2 2.8 4.8 6.9 4.8 12.2 0 2.3-.5 4.5-1.4 6.5-.9 2-2.2 3.8-3.9 5.2-1.7 1.5-3.7 2.6-6.1 3.5-2.4.8-5.1 1.3-8 1.3H36.2z"/></svg><view id="logo-white" viewBox="104 156 52 52"/><svg viewBox="-31.25 -31.25 162.5 162.5" width="52" height="52" x="104" y="156"><path fill="#FFF" d="M53.4 97.8c-1.9 1.1-5 1.1-6.9 0L10.2 77c-1.9-1.1-3.5-3.8-3.5-6l.1-41.8c0-2.2 1.6-4.9 3.5-6l36.3-21c1.9-1.1 5-1.1 6.9 0L89.8 23c1.9 1.1 3.5 3.8 3.5 6l-.1 41.8c0 2.2-1.6 4.9-3.5 6l-36.3 21z"/><path fill="#F25D59" d="M33.8 18.3v63.4h2.5V55.2H49c3.3 0 6.3-.5 8.9-1.4 2.7-.9 5-2.2 6.9-3.8 1.9-1.6 3.4-3.6 4.4-5.9 1-2.3 1.6-4.7 1.6-7.4 0-6.1-1.9-10.7-5.6-13.8-3.7-3.1-9.1-4.6-16.3-4.6H33.8zm2.4 34.9V20.3h12.7c6.5 0 11.3 1.4 14.5 4.2 3.2 2.8 4.8 6.9 4.8 12.2 0 2.3-.5 4.5-1.4 6.5-.9 2-2.2 3.8-3.9 5.2-1.7 1.5-3.7 2.6-6.1 3.5-2.4.8-5.1 1.3-8 1.3H36.2z"/></svg><view id="man307" viewBox="156 156 52 52"/><svg width="52" height="52" viewBox="-38.42 -38.42 199.81 199.81" x="156" y="156"><circle cx="43.309" cy="86.215" r="7.571"/><path d="M48.343 95.628c-.127-.078-.262-.135-.395-.19-.844-.563-1.79-.976-2.756-1.212l-1.885 1.898-1.83-1.92-.017.004c-.985.233-1.952.656-2.81 1.23-.13.057-.263.11-.388.19-2.335 1.43-7.658 4.706-9.242 10.72-1.585-6.014-6.908-9.29-9.243-10.72-.128-.08-.26-.136-.394-.19-.844-.564-1.79-.977-2.757-1.213l-1.886 1.898-1.827-1.92-.018.004c-.987.233-1.952.656-2.81 1.23-.133.057-.265.11-.388.19-2.887 1.77-10.334 6.35-9.654 15.432H5.97c-.226-2.078.195-3.78 1.02-5.216v5.215h7.7l-1.794-2.454 1.826-12.204h.035l1.825 12.204-1.792 2.453h7.697v-5.2c.82 1.433 1.238 3.132 1.015 5.2H34.53c-.225-2.078.196-3.78 1.024-5.216v5.215h7.697l-1.792-2.454 1.826-12.204h.035l1.825 12.204-1.792 2.453h7.696v-5.2c.82 1.433 1.237 3.132 1.013 5.2h5.928c.685-9.082-6.762-13.66-9.647-15.432z"/><circle cx="14.744" cy="86.215" r="7.571"/><circle cx="72.78" cy="86.215" r="7.571"/><path d="M77.815 95.628c-.126-.078-.26-.135-.395-.19-.842-.563-1.788-.976-2.755-1.212l-1.886 1.898-1.828-1.92-.02.004c-.985.234-1.95.657-2.81 1.232-.13.057-.264.11-.387.188-2.887 1.77-10.336 6.35-9.654 15.434h5.927c-.226-2.077.194-3.777 1.02-5.215v5.215h7.698l-1.792-2.453 1.825-12.205h.035l1.826 12.204-1.793 2.452h7.696v-5.2c.82 1.435 1.238 3.134 1.016 5.2h5.924c.685-9.084-6.762-13.663-9.65-15.434z"/><circle cx="58.509" cy="76.824" r="7.815"/><path d="M63.89 86.65c-.062-.036-.123-.072-.182-.11-.132-.08-.27-.137-.407-.195-.87-.58-1.847-1.01-2.844-1.253l-1.946 1.962-1.888-1.98c-.006 0-.013 0-.02.002-1.017.242-2.014.68-2.9 1.27-.134.06-.27.115-.398.193-.222.138-.478.296-.746.464-.166 2.983-1.76 5.588-4.126 7.125.145.08.292.16.43.25.16.07.314.147.465.24 1.73 1.06 4.57 2.6 7.13 5.772l.15-.453 1.885-12.6h.037s1.85 12.6 1.883 12.6c2.407-3.183 5.06-4.304 6.72-5.32.162-.102.323-.177.46-.237.142-.092.29-.174.437-.26-2.453-1.596-4.09-4.34-4.14-7.472zM19.87 94.126c.145.084.292.164.43.254.16.07.313.146.463.238 1.472.9 4.124 2.53 6.39 5.117l1.853-12.396h.037l1.885 12.598 6.733-5.32c.163-.1.326-.176.462-.235.143-.092.292-.174.438-.258-2.452-1.597-4.086-4.34-4.14-7.463l-.2-.123c-.13-.08-.268-.138-.405-.196-.87-.58-1.85-1.008-2.845-1.252l-1.946 1.96-1.888-1.98c-.006 0-.013 0-.02.003-1.017.242-2.014.68-2.898 1.27-.066.028-.13.063-.195.096 0 .023.005.043.005.063-.002 3.192-1.66 6.002-4.16 7.623z"/><circle cx="29.022" cy="76.824" r="7.815"/><circle cx="101.631" cy="19.508" r="10.952"/><path d="M108.918 33.127c-.186-.113-.38-.194-.573-.275-1.22-.814-2.588-1.412-3.985-1.755l-2.727 2.747-2.646-2.778-.026.006c-1.43.342-2.83.956-4.074 1.793-.142.06-.287.11-.424.19-1.32.425-5.11-.003-11.28-1.264.413-1.334 1.093-3.073 1.835-4.637.434.396.958.75 1.555 1.033 2.193 1.03 4.524.692 5.206-.756.683-1.448-.544-3.46-2.736-4.49-1.48-.698-3.016-.762-4.07-.288-.406-.646-.986-1.194-1.723-1.555-.86-.424-1.794-.524-2.667-.358l-6.276-2.953-.347.734-3.267-1.534-.327.698 3.266 1.537-.425.9 4.77 2.24c-.157.21-.298.435-.42.68-3.085 6.282-3.978 10.853-2.655 13.58.725 1.49 2.063 2.54 3.67 2.887l.834.178c4.404.95 8.03 1.617 11.02 1.876v23.232c0 1.146.224 2.21.612 3.193-.03.22-.052.443-.052.672l.004 40.72c0 2.774 2.25 5.024 5.025 5.024 2.775 0 5.025-2.25 5.025-5.024l-.005-34.944c.2.01.397.024.6.024.04 0 .077-.004.117-.004l-.002 34.924c0 2.774 2.25 5.025 5.025 5.025s5.025-2.25 5.025-5.024l.002-40.02c.307.335.672.627 1.093.857.646.352 1.343.518 2.028.518 1.508 0 2.968-.802 3.74-2.22 11.992-22.047-4.37-32.084-9.745-35.383zm-7.26 22.395h-.054l-2.64-3.615 2.64-17.657h.055l2.64 17.657-2.64 3.615zm11.184 5.46V47.93c1.85 3.23 2.303 7.373 0 13.05z"/></svg><view id="notifications" viewBox="208 0 52 52"/><svg width="52" height="52" viewBox="-159.37 -159.37 828.75 828.75" x="208"><path d="M255 510c28.05 0 51-22.95 51-51H204c0 28.05 22.95 51 51 51zm165.75-153V216.75c0-79.05-53.55-142.8-127.5-160.65V38.25C293.25 17.85 275.4 0 255 0s-38.25 17.85-38.25 38.25V56.1c-73.95 17.85-127.5 81.6-127.5 160.65V357l-51 51v25.5h433.5V408l-51-51z"/></svg><view id="power" viewBox="208 52 52 52"/><svg width="52" height="52" viewBox="-117.83 -117.83 612.69 612.69" x="208" y="52"><path d="M337.77 103.538c-14.647-22.722-34.644-42.102-57.817-56.046-4.334-2.607-9.736-2.682-14.14-.19-4.403 2.49-7.128 7.156-7.128 12.215v29.03c0 4.38 2.045 8.51 5.53 11.163 31.093 23.686 49.653 61.02 49.653 99.866 0 69.115-56.23 125.345-125.346 125.345-69.116 0-125.346-56.228-125.346-125.344 0-38.848 18.562-76.18 49.654-99.866 3.483-2.654 5.53-6.783 5.53-11.162v-29.03c0-5.06-2.725-9.727-7.127-12.217-4.405-2.49-9.808-2.415-14.142.192-23.175 13.944-43.168 33.324-57.818 56.046-18.46 28.63-28.218 61.838-28.218 96.038 0 47.402 18.46 91.97 51.98 125.488 33.52 33.52 78.085 51.98 125.487 51.98 47.403 0 91.97-18.46 125.49-51.98 33.517-33.52 51.978-78.086 51.978-125.488.002-34.2-9.756-67.41-28.217-96.038z"/><path d="M172.13 215.535h32.788c7.257 0 13.16-5.905 13.16-13.162V13.163c0-7.258-5.903-13.163-13.16-13.163h-32.79c-7.256 0-13.16 5.904-13.16 13.162v189.21c0 7.258 5.905 13.163 13.16 13.163z"/></svg><view id="students" viewBox="208 104 52 52"/><svg width="52" height="52" viewBox="-167.52 -167.52 871.12 871.11" x="208" y="104"><path d="M147.128 91.076c0-37.95 30.766-68.716 68.72-68.716 37.95 0 68.72 30.766 68.72 68.716s-30.77 68.715-68.72 68.715c-37.954.002-68.72-30.764-68.72-68.714zm101.745 115.53c.69-14.962 5.84-28.81 14.127-40.26-5.816-1.218-11.827-1.865-17.995-1.865H186.7c-6.15 0-12.152.643-17.938 1.846 8.82 12.232 14.094 27.17 14.18 43.343 10.72-5.897 23.02-9.254 36.085-9.254 10.598 0 20.687 2.208 29.846 6.19zm11.632 6.17c19.96 12.516 33.957 33.687 36.517 58.273 8.133 3.8 17.17 5.993 26.746 5.993 34.968 0 63.31-28.346 63.31-63.313 0-34.97-28.342-63.31-63.31-63.31-34.648 0-62.737 27.837-63.263 62.355zm-41.48 129.635c34.963 0 63.308-28.353 63.308-63.31 0-34.962-28.345-63.31-63.307-63.31-34.965 0-63.322 28.347-63.322 63.31 0 34.957 28.357 63.31 63.322 63.31zm26.857 4.31h-53.717c-44.697 0-81.07 36.37-81.07 81.072v65.703l.172 1.03 4.522 1.405c42.657 13.323 79.717 17.78 110.223 17.78 59.57 0 94.114-16.988 96.242-18.075l4.23-2.14h.45V427.79c0-44.7-36.35-81.07-81.053-81.07zm104.756-65.356h-53.314c-.58 21.332-9.683 40.542-24.08 54.35 39.73 11.815 68.8 48.657 68.8 92.178v20.245c52.63-1.938 82.964-16.846 84.962-17.85l4.232-2.153h.45V362.42c.005-44.692-36.364-81.056-81.05-81.056zm14.25-132.295c19.962 12.518 33.958 33.69 36.512 58.276 8.134 3.8 17.17 5.99 26.746 5.99 34.975 0 63.316-28.342 63.316-63.304 0-34.972-28.342-63.31-63.316-63.31-34.643-.005-62.73 27.838-63.257 62.347zm90.122 68.588h-53.303c-.58 21.332-9.682 40.542-24.08 54.35 39.73 11.81 68.8 48.657 68.8 92.178v20.245c52.625-1.933 82.965-16.84 84.963-17.85l4.226-2.146h.455V298.71c.007-44.686-36.362-81.052-81.06-81.052zm-347.073 59.386c12.386 0 23.903-3.618 33.67-9.777 3.106-20.24 13.958-37.932 29.454-49.975.066-1.188.175-2.36.175-3.56 0-34.972-28.35-63.312-63.298-63.312-34.977 0-63.316 28.34-63.316 63.31 0 34.974 28.34 63.314 63.317 63.314zm56.858 58.67c-14.33-13.742-23.404-32.847-24.072-54.055-1.97-.148-3.928-.296-5.943-.296H81.07c-44.704 0-81.07 36.364-81.07 81.06v65.71l.166 1.023 4.528 1.412c34.214 10.698 64.76 15.615 91.292 17.152v-19.837c.005-43.514 29.068-80.362 68.81-92.17z"/></svg><view id="to-do" viewBox="51.94 208 51.71 51.71"/><svg width="51.71" height="51.71" viewBox="-10 -10 51.71 51.71" x="51.94" y="208"><path d="M10.595 25.72h-5.9c-1.126 0-2.06-.887-2.06-2.014V5.42c0-1.127.934-2.006 2.06-2.006h14.278c1.127 0 2.047.88 2.047 2.006v15.323l2.637-3.135V3.462c0-1.482-1.172-2.684-2.652-2.684H2.56C1.135.778 0 1.932 0 3.354v22.382c0 1.482 1.185 2.688 2.67 2.688h10.357l-1.224-1.063c-.536-.464-.94-1.033-1.208-1.64z"/><path d="M17.875 6.794H6.035c-.73 0-1.315.59-1.315 1.318 0 .726.587 1.317 1.314 1.317h11.84c.728 0 1.312-.592 1.312-1.318.002-.726-.584-1.318-1.31-1.318zM17.875 11.187H6.035c-.73 0-1.315.59-1.315 1.318 0 .724.587 1.318 1.314 1.318h11.84c.728 0 1.312-.594 1.312-1.318.002-.728-.584-1.318-1.31-1.318zM17.875 15.58H6.035c-.73 0-1.315.56-1.315 1.287 0 .725.587 1.282 1.314 1.282h11.84c.728 0 1.312-.56 1.312-1.283.002-.728-.584-1.286-1.31-1.286zM4.72 21.056c0 .727.586 1.283 1.313 1.283h4.418c.186-.474.47-1.023.858-1.48.408-.473.89-.82 1.412-1.092H6.034c-.728.003-1.315.563-1.315 1.288zM17.875 19.77h-.988c.324.138.633.367.916.612l1.312 1.123c.05-.135.076-.28.076-.437-.002-.722-.588-1.297-1.315-1.297z"/><path d="M30.898 16.25c-.965-.83-2.42-.71-3.246.26l-7.564 8.866-3.78-3.248c-.97-.826-2.422-.717-3.25.248-.828.967-.716 2.418.25 3.246l5.532 4.752c.422.358.95.557 1.5.557.062 0 .12 0 .182-.007.607-.047 1.176-.336 1.572-.8l9.066-10.628c.822-.967.71-2.418-.262-3.246z"/></svg><view id="trash" viewBox="104 52 52 52"/><svg viewBox="-83.9 -83.9 436.27 436.27" width="52" height="52" x="104" y="52"><path d="M63.12 250.254s3.998 18.222 24.582 18.222h93.072c20.583 0 24.582-18.222 24.582-18.222l18.374-178.66H44.746l18.373 178.66zM170.034 98.442c0-4.943 4.006-8.95 8.95-8.95 4.942 0 8.95 4.007 8.95 8.95l-8.95 134.238c0 4.943-4.008 8.95-8.95 8.95-4.942 0-8.95-4.008-8.95-8.95l8.95-134.238zm-44.746 0c0-4.943 4.006-8.95 8.948-8.95 4.943 0 8.95 4.007 8.95 8.95V232.68c0 4.943-4.007 8.95-8.95 8.95s-8.95-4.008-8.95-8.95V98.442zm-35.798-8.95c4.943 0 8.95 4.006 8.95 8.95l8.95 134.237c0 4.942-4.008 8.948-8.95 8.948-4.943 0-8.95-4.007-8.95-8.95l-8.95-134.236c0-4.943 4.008-8.95 8.95-8.95zm128.868-53.68h-39.376V17.898c0-13.578-4.39-17.9-17.898-17.9H107.39C95 0 89.492 6 89.492 17.9V35.81H50.116c-7.914 0-14.32 6.007-14.32 13.43 0 7.424 6.406 13.43 14.32 13.43H218.36c7.914 0 14.32-6.006 14.32-13.43 0-7.423-6.406-13.43-14.32-13.43zm-57.274 0H107.39l.002-17.914h53.695V35.81z" fill-rule="evenodd" clip-rule="evenodd"/></svg><view id="unlocked" viewBox="0 52 52 52"/><svg width="52" height="52" viewBox="-152.15 -152.15 791.16 791.16" y="52"><path d="M393.904 214.852h-8.89v-72.198C385.013 65.692 323.937 1.4 247.6.03c-2.084-.04-6.254-.04-8.338 0-76.337 1.37-137.41 65.66-137.41 142.623v1.603c0 16.182 13.117 29.3 29.3 29.3 16.18 0 29.298-13.118 29.298-29.3v-1.603c0-45.845 37.257-83.752 82.98-83.752s82.98 37.908 82.98 83.753v72.198H92.963c-13.7 0-24.877 14.14-24.877 31.603v208.7c0 17.44 11.176 31.713 24.878 31.713h300.94c13.704 0 24.88-14.27 24.88-31.712V246.452c0-17.463-11.176-31.6-24.88-31.6zm-122.277 135.74v63.06c0 7.223-6.046 13.333-13.273 13.333h-29.84c-7.23 0-13.274-6.11-13.274-13.332V350.59c-7.01-6.9-11.09-16.44-11.09-26.992 0-20 15.46-37.185 35.115-37.977 2.083-.084 6.255-.084 8.337 0 19.656.793 35.115 17.98 35.115 37.978 0 10.55-4.08 20.092-11.09 26.993z"/></svg><view id="user" viewBox="208 156 52 52"/><svg width="52" height="52" viewBox="-109.3 -109.3 568.34 568.34" x="208" y="156"><path d="M174.88 0C78.44 0 0 78.44 0 174.875 0 271.31 78.44 349.75 174.887 349.75c96.422 0 174.863-78.44 174.863-174.875C349.75 78.44 271.31 0 174.88 0zm-47.8 141.626l.352-.384c1.426-1.036 2.12-2.657 1.86-4.354-3.52-21.19-1.21-30.027-.43-32.246 6.156-18.89 25.477-27.628 29.27-29.177.807-.318 2.3-.77 3.812-1.003l.45-.105 3.105-.165.023.192.72-.07c.64-.068 1.252-.152 2.02-.314l.686-.146c.605.01 8.126.96 19.3 4.386l7.766 2.672c14.2 4.194 20.734 11.997 21.947 13.57 11.373 12.884 8.322 32.34 5.506 42.784-.32 1.23-.127 2.498.57 3.55l.642.792c.823 1.12 1.562 5.438-.906 14.61-.47 2.785-1.5 5.05-3.026 6.574-.564.62-.96 1.408-1.104 2.3-3.844 22.533-24.03 47.74-45.315 47.74-18.06 0-38.67-23.19-42.378-47.722-.14-.916-.522-1.724-1.156-2.417-1.543-1.6-2.528-3.906-3.122-7.317-1.813-6.418-1.99-11.59-.594-13.75zm-40.54 97.72c.782-.99 5.148-6.107 13.978-9.476 7.764-2.385 26.956-8.762 37.446-16.363.492-.265.976-.78 1.378-1.19.97-1.044 2.453-2.64 4.21-4.27l.978-.93.997.938c9.242 8.713 19.467 13.486 28.796 13.486 9.8 0 19.903-4.238 29.24-12.272l.733-.625 1.98.96c1.772 1.622 4.835 3.85 6.258 4.528l1.825.89-.192.198.81.492c1.724 1.04 3.598 2.048 5.796 3.135 2.222.98 4.083 1.7 6.004 2.336 1.622.53 10.257 3.424 20.08 7.964l1.874.564c9.607 3.68 13.87 8.79 14.29 9.325 11.404 16.897 15.775 48.43 17.403 66-29.784 24.18-67.242 37.492-105.53 37.492-38.31 0-75.772-13.312-105.542-37.506 1.594-17.522 5.93-48.952 17.186-65.674z"/></svg></svg>